<?xml version="1.0" encoding="UTF-8" standalone="no"?>
<!-- Svg Vector Icons : http://www.onlinewebfonts.com/icon -->

<svg
   version="1.1"
   x="0px"
   y="0px"
   viewBox="0 0 1920 1080"
   enable-background="new 0 0 1000 1000"
   xml:space="preserve"
   id="svg416"
   sodipodi:docname="catlock.svg"
   width="1920"
   height="1080"
   inkscape:export-filename="catlock.png"
   inkscape:export-xdpi="96"
   inkscape:export-ydpi="96"
   inkscape:version="1.3 (0e150ed6c4, 2023-07-21)"
   xmlns:inkscape="http://www.inkscape.org/namespaces/inkscape"
   xmlns:sodipodi="http://sodipodi.sourceforge.net/DTD/sodipodi-0.dtd"
   xmlns="http://www.w3.org/2000/svg"
   xmlns:svg="http://www.w3.org/2000/svg"><defs
   id="defs420" /><sodipodi:namedview
   id="namedview418"
   pagecolor="#505050"
   bordercolor="#eeeeee"
   borderopacity="1"
   inkscape:showpageshadow="0"
   inkscape:pageopacity="0"
   inkscape:pagecheckerboard="0"
   inkscape:deskcolor="#505050"
   showgrid="false"
   inkscape:zoom="0.5"
   inkscape:cx="959"
   inkscape:cy="541"
   inkscape:window-width="1920"
   inkscape:window-height="1060"
   inkscape:window-x="0"
   inkscape:window-y="20"
   inkscape:window-maximized="1"
   inkscape:current-layer="svg416" />&#10;<metadata
   id="metadata408"> Svg Vector Icons : http://www.onlinewebfonts.com/icon </metadata>&#10;<rect
   style="fill:#1e1e2e;fill-opacity:1;stroke-width:10.5685;stroke-linecap:round;paint-order:stroke markers fill"
   id="rect1199"
   width="1920"
   height="1080"
   x="0"
   y="0" /><g
   id="g414"
   transform="matrix(0.18877551,0,0,0.18877551,865.61224,445.61224)"
   style="fill:#f2cdcd;fill-opacity:1;stroke-width:1.04533;stroke-dasharray:none"><path
     d="M 500,10 C 229.4,10 10,229.4 10,500 10,770.6 229.4,990 500,990 770.6,990 990,770.6 990,500 990,229.4 770.6,10 500,10 Z m 0,937.4 C 252.9,947.4 52.6,747.1 52.6,500 52.6,252.9 252.9,52.6 500,52.6 747.1,52.6 947.4,252.9 947.4,500 947.4,747.1 747.1,947.4 500,947.4 Z"
     id="path410"
     style="fill:#f2cdcd;fill-opacity:1;stroke-width:1.04533;stroke-dasharray:none" /><path
     d="m 430.84987,413.75003 c 0,-24.5 6.4,-83.1 69.2,-83.1 59.7,0 69.2,52.2 69.2,83.1 v 18.1 h 52.2 v -18.1 c 0,-81 -46.9,-133.2 -120.4,-133.2 -73.5,0 -120.4,52.2 -120.4,133.2 v 18.1 h 52.2 v -18.1 z m 189.6,35.2 h -240.8 c -28.8,0 -52.2,22.4 -52.2,51.1 v 168.3 c 0,27.7 23.4,51.1 52.2,51.1 h 240.7 c 28.8,0 52.2,-22.4 52.2,-51.1 v -168.3 c 0.1,-27.7 -23.4,-51.1 -52.1,-51.1 z m -103.4,148 v 38.4 c 0,9.6 -7.5,17 -17,17 -9.6,0 -17,-7.5 -17,-17 v -38.3 c -10.7,-5.3 -17,-17 -17,-28.8 0,-18.1 14.9,-34.1 34.1,-34.1 19.2,0 34.1,14.9 34.1,34.1 -0.1,11.7 -6.5,22.3 -17.2,28.7 z"
     id="path412"
     style="fill:#f2cdcd;fill-opacity:1;stroke-width:1.04533;stroke-dasharray:none" /></g>&#10;</svg>
