<?xml version="1.0" encoding="UTF-8" standalone="no"?>
<!-- Created with Inkscape (http://www.inkscape.org/) -->

<svg
   version="1.1"
   id="svg1"
   width="1920"
   height="1080"
   viewBox="0 0 1920 1080"
   sodipodi:docname="أألا_بذكر_الله_تطمئن_القلوب.svg"
   xml:space="preserve"
   inkscape:export-filename="أألا_بذكر_الله_تطمئن_القلوب.png"
   inkscape:export-xdpi="96"
   inkscape:export-ydpi="96"
   xmlns:inkscape="http://www.inkscape.org/namespaces/inkscape"
   xmlns:sodipodi="http://sodipodi.sourceforge.net/DTD/sodipodi-0.dtd"
   xmlns:xlink="http://www.w3.org/1999/xlink"
   xmlns="http://www.w3.org/2000/svg"
   xmlns:svg="http://www.w3.org/2000/svg"><defs
     id="defs1"><linearGradient
       id="linearGradient3"
       inkscape:collect="always"><stop
         style="stop-color:#b7bdf9;stop-opacity:1;"
         offset="0"
         id="stop1" /><stop
         style="stop-color:#d9dcfc;stop-opacity:1;"
         offset="0.5"
         id="stop2" /><stop
         style="stop-color:#b7bdf9;stop-opacity:1;"
         offset="1"
         id="stop3" /></linearGradient><linearGradient
       inkscape:collect="always"
       xlink:href="#linearGradient3"
       id="linearGradient2"
       x1="422.56076"
       y1="89.48922"
       x2="89.439232"
       y2="422.61075"
       gradientUnits="userSpaceOnUse"
       gradientTransform="matrix(2.1623068,0,0,2.1623068,886.4495,406.34139)" /></defs><sodipodi:namedview
     id="namedview1"
     pagecolor="#ffffff"
     bordercolor="#000000"
     borderopacity="0.25"
     inkscape:showpageshadow="2"
     inkscape:pageopacity="0.0"
     inkscape:pagecheckerboard="0"
     inkscape:deskcolor="#d1d1d1"
     inkscape:clip-to-page="true"><inkscape:page
       x="0"
       y="0"
       width="1920"
       height="1080"
       id="page2"
       margin="0"
       bleed="0" /></sodipodi:namedview><g
     inkscape:groupmode="layer"
     inkscape:label="Image"
     id="g1"
     transform="matrix(0.66666667,0,0,0.66666667,-4.8000001e-6,-100)"><rect
       style="fill:#1b1f25;fill-opacity:1;fill-rule:nonzero;stroke:none;stroke-width:15;stroke-linecap:butt;stroke-linejoin:miter;stroke-dasharray:none;stroke-opacity:1;paint-order:markers stroke fill"
       id="rect15"
       width="2880"
       height="1620"
       x="-2.8421709e-14"
       y="150" /><path
       class="st1"
       d="m 1711.9962,1258.6446 c -6.301,10.5018 -11.0267,17.0654 -14.4399,19.9534 -25.2043,-1.8378 -41.4821,-2.6255 -48.5707,-2.6255 -26.7796,0 -59.5977,1.8378 -98.1918,5.7761 -38.594,3.6756 -71.1496,5.7759 -97.1415,5.7759 -72.9875,0 -120.7706,-14.1773 -143.3494,-42.7947 0,22.3163 -3.1506,39.1191 -9.7142,50.146 -12.8648,20.2159 -34.6559,39.6442 -65.6361,57.7598 -30.9804,18.1156 -58.5475,27.0421 -82.7017,27.0421 -44.1075,0 -66.1612,-30.4552 -66.1612,-91.103 0,-12.3396 1.5752,-26.2544 4.7258,-41.4821 -11.2894,2.363 -22.8415,3.6756 -34.1309,3.6756 -29.405,0 -51.4587,-10.7642 -66.1612,-32.0304 -11.8146,-18.3781 -17.5905,-40.4319 -17.5905,-66.1612 0,-25.7295 4.7258,-54.6094 14.4398,-86.3773 -34.3933,-11.8145 -51.4587,-39.3817 -51.4587,-82.70156 0,-24.9417 4.9885,-53.8216 14.9651,-87.42736 -13.3898,0 -20.2159,-8.92652 -20.2159,-26.77956 0,-19.42833 8.9265,-42.00716 26.7795,-67.73655 14.1775,-21.00357 27.3047,-35.96862 39.3818,-44.37006 l 2.1003,2.62544 c -28.8799,30.45518 -43.3199,55.1344 -43.3199,74.5627 0,13.91487 4.7258,20.74105 13.9148,20.74105 2.1005,0 4.4633,-1.05018 7.0888,-2.88801 2.6255,-1.8378 3.9381,-2.88798 4.4633,-2.88798 l 3.6756,2.62543 c -9.9767,25.72941 -19.691,40.69444 -28.8799,44.37006 -5.7761,25.46684 -8.6641,44.10754 -8.6641,55.92204 0,25.2043 7.0888,45.9453 21.2662,62.48566 12.8647,12.3395 26.7796,18.6406 42.0071,18.6406 56.1847,0 108.1685,-30.1926 155.6891,-90.57786 0,-13.1272 -4.9884,-30.4552 -14.965,-52.24641 -12.8647,-24.15412 -25.4669,-36.23118 -37.8065,-36.23118 -8.4014,0 -13.6524,6.3011 -16.0152,19.16578 11.0269,5.51344 23.629,6.30107 37.8063,2.62545 6.5637,8.40142 11.8146,18.90321 16.0154,31.50536 -10.7644,3.6756 -21.2662,5.776 -31.5054,5.776 -23.8916,0 -35.7062,-12.0771 -35.7062,-36.23119 0,-40.43189 11.2896,-60.3853 33.6059,-60.3853 14.4399,0 28.0922,11.02689 41.2195,32.81811 12.8647,21.79122 19.4283,43.05732 19.4283,63.79838 0,29.9301 -3.9383,51.4587 -11.8146,64.0609 -16.8028,24.94176 -38.5941,45.68276 -65.1111,62.48556 -30.7177,20.216 -59.8601,30.4552 -87.9525,30.4552 -7.6138,0 -14.7024,-1.3127 -21.266,-3.6756 -6.3011,21.7912 -9.1891,43.845 -9.1891,66.1613 0,55.3969 25.7293,83.2266 77.4507,83.2266 26.2544,0 54.8718,-8.4014 86.3772,-24.9417 25.7293,-14.1774 46.4704,-29.4049 61.9605,-45.9453 -1.3127,-17.853 -12.8647,-40.1693 -34.1307,-66.6864 l 11.8144,-39.9068 c 13.3898,18.3781 27.8297,27.3047 43.3199,27.3047 12.3396,0 22.8415,-8.1389 30.9802,-24.4167 5.776,-12.3396 8.6641,-23.1039 8.6641,-31.7679 0,-8.664 2.1003,-13.12716 6.301,-13.12716 9.7142,42.53216 16.2778,69.04916 20.216,80.07606 8.9265,26.7796 21.5286,47.2581 37.8065,60.9104 0,-20.216 11.5519,-53.8217 34.6558,-100.8172 4.7258,-12.8647 4.7258,-40.16926 0,-82.17646 l -5.7759,-58.54746 c 5.5134,-0.26254 11.0269,-2.62545 16.5402,-7.35126 l 6.3011,56.97222 c 3.1506,25.2043 2.3629,48.0457 -2.6253,68.26156 27.3046,-54.87176 57.4971,-82.17646 90.5778,-82.17646 15.2276,0 28.6174,5.2509 40.4318,16.0152 7.6138,8.4015 11.8146,16.0153 12.8648,23.3665 4.4633,23.104 -1.8379,40.95696 -19.1659,53.82166 36.4939,-13.3898 54.872,-25.72936 54.872,-36.75626 0,-7.3512 -6.5636,-20.4785 -19.6909,-39.9068 0.2626,-7.6138 2.3629,-20.2159 6.3011,-37.8064 16.8028,14.1774 25.4668,33.3432 25.4668,58.0224 0,40.43186 -16.5403,66.94886 -49.621,79.55096 -36.4936,11.8146 -73.5125,23.3665 -110.5313,34.6559 -44.37,15.2276 -66.6863,28.0923 -66.6863,38.8566 0,7.6139 7.0886,17.0655 21.2662,28.3549 11.2894,9.9767 21.266,15.7527 29.93,17.0654 -1.8378,7.6139 -4.4632,18.9033 -8.4014,33.6057 -42.5323,-11.0268 -73.5125,-36.7562 -93.466,-77.4507 -8.6639,-17.3279 -16.2777,-44.6326 -23.3664,-82.1765 -7.8763,40.957 -28.0923,61.4355 -60.3853,61.4355 3.4131,11.8146 5.2509,21.7912 5.2509,30.4552 0,18.9032 -5.776,35.1809 -17.5905,48.5708 -26.2544,29.6676 -60.3853,49.8834 -102.9176,60.9103 -1.8378,12.3397 -2.6253,23.6291 -2.6253,33.6057 0,18.9033 5.2508,35.181 15.49,48.8334 10.2393,13.6524 24.4166,20.4785 42.5323,20.4785 22.8413,0 49.8834,-8.664 81.6515,-26.2545 28.8799,-16.5403 51.9837,-34.9185 68.7865,-55.397 -12.8645,-26.5169 -22.3161,-49.3584 -28.8799,-68.7867 l 15.4902,-42.0071 h 4.7258 c 11.0269,37.5438 30.1927,64.3234 57.7598,79.8136 27.3048,15.7527 66.9489,23.629 118.6703,23.629 23.3665,0 52.2464,-2.1004 86.1146,-6.3011 33.8684,-4.2007 62.2231,-6.8262 84.5394,-7.8763 18.6407,0 38.5942,1.3126 59.8603,4.2006 -11.8145,-27.3046 -41.7446,-38.8565 -90.0529,-34.6558 l -40.9569,3.1506 -8.4015,-30.4552 47.5206,-4.2008 c 74.8252,-5.5133 112.1066,13.1272 112.1066,55.9221 -1.0502,4.7258 -3.9382,12.0771 -10.2393,22.5788 z M 1074.0126,942.01574 h -2.6254 c 1.8378,-8.4015 -0.2625,-12.3396 -6.3011,-12.3396 -5.5135,0 -8.4015,10.2392 -8.664,30.9802 0,13.1273 0,25.7294 0,37.8065 h -2.1004 c 0,-5.5135 -3.1505,-13.1273 -8.9265,-22.8414 -6.0386,-9.7142 -12.3395,-14.44 -18.9031,-14.44 0,8.4014 -4.726,12.3396 -13.9149,12.3396 -10.2393,0 -15.4902,-5.776 -15.4902,-17.0654 0,-11.0269 6.3011,-16.5403 18.6407,-16.5403 17.5905,0 29.4049,9.7141 35.181,29.405 1.0501,-13.1272 1.5751,-25.7294 1.5751,-38.3315 1.3129,-15.7527 6.8263,-23.8916 16.5404,-23.8916 8.6641,0 12.8647,4.7258 12.8647,14.44 -0.2625,5.2509 -2.888,11.8145 -7.8763,20.4785 z m 14.4399,-161.72759 c -59.5976,0 -89.5277,-25.46685 -89.5277,-76.40052 0,-9.71415 4.7258,-22.05376 14.4399,-37.54391 9.7142,-15.22758 18.3782,-25.72937 26.2546,-31.24282 l 2.6254,2.62546 c -19.4283,23.10394 -28.88,41.7446 -28.88,55.92202 0,17.32797 9.7142,30.45519 28.88,39.38171 16.5402,7.35126 35.9686,10.76434 58.0224,10.76434 27.8297,0 58.5475,-6.03853 92.1532,-18.11558 l 2.6254,31.50536 c -41.2196,15.22758 -76.6631,23.10394 -106.5932,23.10394 z m -45.1576,86.37721 c -8.9266,14.43996 -17.8532,23.62903 -26.2546,27.56719 l -1.0501,-2.10036 c 17.328,-17.32795 25.7294,-31.76789 25.7294,-43.31987 0,-7.87635 -2.6255,-11.81451 -7.8764,-11.81451 3.6756,0 1.3128,1.05018 -7.3511,3.15055 l -0.5252,-1.05021 c 5.776,-17.32794 11.8146,-25.72937 18.1155,-25.72937 8.4014,0 12.3397,4.98836 12.3397,14.96505 0.525,11.28942 -4.2008,24.15412 -13.1272,38.33153 z m 92.6782,262.01964 c 0.2625,-2.3629 0.5252,-5.776 0.5252,-10.2393 0,-5.5134 -3.6757,-11.5519 -10.7644,-18.1156 -8.4015,20.2159 -16.0152,33.8683 -23.3665,40.9571 -21.0035,21.0035 -48.3082,37.2813 -81.6514,49.0957 l -1.0502,-2.1003 c 24.4166,-14.4399 48.0457,-32.8181 70.887,-54.8719 20.7412,-18.3781 30.9804,-29.93 30.9804,-35.1809 0,-1.3127 -3.1506,-4.2007 -9.1891,-8.4015 -6.3011,-4.2007 -9.189,-8.4014 -9.189,-12.3396 0,-3.9381 1.5753,-10.2392 4.9883,-18.3781 3.1506,-8.1389 6.5636,-12.077 9.4517,-12.077 5.2508,0 8.6639,5.7759 10.7642,17.5904 1.3127,8.664 2.1004,14.9651 2.1004,19.1658 8.4014,6.5636 12.3397,13.3898 12.3397,20.741 0,10.5018 -2.363,18.6407 -6.8263,24.1542 z m -62.4856,-6.8262 -30.9803,-22.8414 18.6407,-22.3163 29.4049,23.3665 z m 5.5134,-434.77403 c 0,7.87634 2.363,11.81453 6.8261,11.81453 -2.8879,0 0,-1.05019 8.4015,-3.15055 l 0.5251,1.05019 c -6.3011,17.85304 -12.3395,26.77956 -18.6406,26.77956 -8.6641,0 -12.8648,-5.2509 -12.8648,-16.01524 0,-11.28942 4.4633,-24.15411 13.6524,-38.59408 9.1891,-14.17741 17.853,-23.62901 25.9919,-27.56717 l 1.5752,2.10035 c -17.0653,17.85304 -25.4668,32.29299 -25.4668,43.58241 z m 78.2383,-89.00266 c -2.8879,2.10036 -9.9767,5.51345 -22.0538,10.50179 -11.8144,4.98835 -20.7409,7.6138 -26.5169,7.6138 -2.888,0 -6.3011,-0.78765 -10.2392,-2.10035 23.3664,-7.35127 39.3816,-14.70251 47.5205,-22.8414 -8.4014,-3.15053 -17.328,-4.72581 -26.7795,-4.72581 -1.3127,0 -3.1505,0.26255 -4.9883,1.05019 -1.8379,0.78764 -3.4132,1.05016 -4.9885,1.05016 0,-22.31627 10.2393,-32.03044 30.9804,-28.8799 11.2894,1.05018 23.3665,4.72579 36.2312,11.28941 -2.1005,6.56362 -8.6641,15.49014 -19.1659,27.04211 z m -8.9264,580.74889 c -4.2008,0 -8.1389,-2.1003 -11.8145,-6.3011 -2.1005,6.5636 -6.3012,9.7142 -12.3396,9.7142 -6.3011,0 -9.7142,-3.4131 -10.7644,-10.2392 0,-6.8263 0,-13.1272 0,-18.6407 -1.3128,1.8378 -2.888,4.4632 -4.7258,8.4015 v -5.7761 c 1.3127,-3.6755 5.776,-9.4516 12.8647,-17.0654 -2.888,19.4283 -0.7876,28.8799 5.776,28.8799 4.2006,0 6.3011,-3.1505 6.3011,-9.1891 0,-3.413 -0.7877,-9.1891 -2.1005,-17.5905 l 4.7258,-8.4014 c 2.363,4.2008 3.6756,11.0269 4.2008,20.7411 1.3127,5.776 4.2006,8.664 8.4014,8.664 3.1505,0 4.7258,-2.1004 4.7258,-6.3012 l -4.7258,-17.0653 4.7258,-10.2393 c 4.2008,12.3396 6.3011,23.104 6.3011,32.0304 -0.5251,12.3397 -4.2008,18.3782 -11.5519,18.3782 z m -32.5557,-115.7822 c -2.1003,0 -4.2006,1.0502 -6.8261,3.1505 0,0.2626 4.7258,4.4633 13.9149,12.3396 0.2625,-10.2392 -2.3628,-15.4901 -7.0888,-15.4901 z m 46.7331,-377.53928 c -9.1891,14.43994 -17.8532,23.62901 -25.9919,27.30463 l -0.5252,-2.10035 c 16.2778,-17.5905 24.4166,-31.76791 24.4166,-42.79479 0,-8.40144 -2.3628,-12.33961 -7.3511,-12.33961 3.6756,0 1.3127,0.78764 -7.3513,2.62544 l -1.0503,-0.52508 c 6.3011,-17.85305 12.3397,-26.77957 18.6408,-26.77957 8.664,0 12.8646,5.51345 12.8646,16.54033 0.2627,10.76432 -4.4631,23.62903 -13.6522,38.069 z m 4.9883,142.82431 -29.9301,-23.36648 17.5905,-22.3163 30.4553,24.41667 z m -10.2393,444.22567 c 0,8.4014 2.6255,12.3396 7.8765,12.3396 -3.6757,0 -1.5753,-0.7877 6.8261,-2.6255 l 1.5751,0.5252 c -6.5636,17.5905 -12.8645,26.2544 -19.1656,26.2544 -7.8764,0 -11.8146,-5.251 -11.8146,-15.4902 0,-11.2894 4.4633,-24.1541 13.3899,-38.3315 8.9264,-14.1774 17.3278,-23.3665 25.4668,-27.3046 l 1.5753,2.1003 c -17.328,17.328 -25.7295,31.5054 -25.7295,42.5323 z m 144.1371,-372.28836 c -46.9954,0 -76.663,-28.35489 -89.5277,-84.802 0,27.82973 -10.2393,51.45878 -30.9804,70.88708 -2.3628,-7.61381 -6.0384,-17.32795 -10.7642,-28.87993 24.1541,-22.05375 35.4435,-48.30821 33.6057,-78.50087 l -18.1155,-231.56444 c 1.8378,-23.10393 6.3009,-37.0188 13.9148,-42.00716 h 2.1003 l 15.4901,218.69976 c 2.363,42.00715 9.1891,73.24997 20.216,93.46593 15.2277,31.76792 40.957,47.5206 76.9256,47.5206 30.7178,0 59.8602,-8.66399 87.4274,-26.25449 l 12.8647,22.8414 c -29.9302,25.46684 -67.7365,38.59412 -113.1568,38.59412 z m 80.6013,427.42276 c -62.7483,12.077 -121.8208,42.0071 -177.4803,90.0528 -4.4633,-5.5134 -3.9381,-11.8145 1.5753,-18.6406 14.7024,-19.4284 40.4319,-38.3315 76.663,-56.9722 36.4937,-18.6408 71.6747,-29.6676 106.3306,-33.0807 z m -62.4858,-363.36186 c -56.447,15.7527 -94.516,38.85656 -113.6818,68.78666 -2.3628,-4.2007 -2.3628,-8.9265 0,-14.44 4.2008,-10.7643 18.1157,-23.10386 41.7446,-37.01876 23.6291,-13.9149 49.0959,-24.6792 76.663,-31.7679 z m -86.9022,-465.22928 c -8.9265,14.43996 -17.853,23.62902 -26.2545,27.56719 l -0.5251,-1.57527 c 16.8028,-17.85304 25.4669,-32.293 25.4669,-42.79479 0,-8.66397 -2.6255,-12.86469 -7.8764,-12.86469 3.4131,0 1.3128,1.05018 -6.8261,3.15054 l -2.1003,-1.05019 c 6.8261,-17.32795 13.3897,-25.72937 19.1656,-25.72937 8.4015,0 12.3398,4.98834 12.3398,14.96505 0,11.28942 -4.4633,24.1541 -13.3899,38.33153 z m 21.2661,458.92818 -39.9068,19.1657 v -9.189 l 12.3396,-8.4014 c -8.4014,-4.2008 -12.3396,-9.4517 -11.8144,-16.0153 0,-5.5134 3.6755,-12.3396 11.2894,-20.741 7.6137,-8.4014 14.1774,-12.3396 20.216,-12.3396 8.4014,0 12.3395,3.6756 11.8144,11.2894 0,1.0502 -1.3127,4.9884 -4.2007,11.8145 h -3.1506 c -2.1003,-3.6756 -4.2006,-5.776 -6.8261,-5.776 -8.6639,0 -14.9651,2.888 -19.1658,8.4015 1.8378,4.7258 6.8262,7.3512 14.965,7.8763 10.2392,0 18.9033,-2.3629 25.4669,-6.8261 h 6.3011 c -3.9382,10.7643 -9.7142,17.5904 -17.328,20.741 z m -8.9266,284.86096 c -8.9264,14.1774 -17.5905,23.3665 -25.7292,27.3046 l -1.0503,-2.1003 c 16.803,-17.328 25.4669,-31.2429 25.4669,-42.0071 0,-8.6641 -2.888,-12.8647 -8.4014,-12.8647 3.6756,0 1.5753,0.7876 -6.8263,2.6254 l -1.0502,-0.5251 c 6.5636,-17.5905 12.8648,-26.2544 18.6409,-26.2544 8.4014,0 12.3395,5.2509 12.3395,16.0151 0.2625,11.2895 -4.2008,23.8917 -13.3899,37.8065 z m 61.173,-483.34478 c -26.2544,15.49013 -41.4821,25.99194 -45.9453,31.50536 l -4.7258,-8.40143 c 5.776,-7.6138 17.3279,-16.54032 34.1308,-26.77956 15.2276,-8.92653 22.8414,-14.70249 22.8414,-17.06541 0,-8.92652 -6.8261,-13.38978 -20.216,-13.38978 -13.1272,0 -35.4435,6.30108 -66.6864,19.16577 l -2.1003,-30.45519 c 33.3432,-13.38978 59.8603,-20.21595 79.026,-20.21595 21.7911,0 32.5555,9.18907 32.5555,27.82974 0,14.43997 -9.7141,27.04211 -28.8799,37.80645 z m -70.887,-89.52775 -0.5252,-3.15055 c 36.2312,-19.69085 66.4239,-37.80644 91.103,-54.87184 l 1.0502,14.96504 c -38.069,22.57885 -68.5241,36.75627 -91.628,43.05735 z M 1255.431,526.9325 c 0,8.66396 2.3629,12.8647 7.3512,12.8647 -3.1505,0 -0.7876,-1.31274 7.3512,-4.20074 l 1.5753,2.10036 c -6.3011,17.59051 -12.602,26.25448 -19.1656,26.25448 -8.4016,0 -12.3397,-5.2509 -12.3397,-16.01522 0,-11.02689 4.4632,-23.89157 13.3898,-38.33153 8.9265,-14.43997 17.853,-23.62903 26.2545,-27.30466 l 1.0501,1.57527 c -17.0653,17.85304 -25.4668,32.293 -25.4668,43.05734 z m 64.8485,293.78755 c -9.1891,14.43994 -17.853,23.62902 -25.992,27.56719 v -2.10037 c 16.8029,-17.59049 25.467,-31.76792 25.467,-42.53225 0,-8.66398 -3.1506,-12.86468 -9.1891,-12.86468 3.6756,0 1.8378,1.05018 -6.3011,3.15054 l -1.5753,-1.05019 c 6.5636,-17.32795 12.8647,-25.72937 18.6406,-25.72937 8.6641,0 12.8648,5.25087 12.8648,15.49014 -0.2625,11.02688 -4.7258,23.89156 -13.9149,38.06899 z m 11.8145,603.85275 c -10.7644,17.5906 -21.5286,28.6175 -31.7678,33.0807 v -2.6254 c 19.9533,-21.0037 29.93,-38.3315 29.93,-52.2464 0,-9.9767 -3.1505,-14.965 -9.7141,-14.965 4.2007,0 1.5752,1.3126 -7.8764,4.2006 l -2.6255,-1.5753 c 8.4015,-21.0035 16.2779,-31.5053 23.8917,-31.5053 9.714,0 14.4398,6.301 14.4398,18.6407 0,13.6522 -5.2508,29.4049 -16.2777,46.9954 z m -7.8764,-395.1298 c 0,9.7142 3.1506,14.44 9.7143,14.44 -4.4633,0 -1.8379,-1.3127 7.8762,-4.2007 l 2.1005,2.1004 c -7.3513,20.2159 -14.7025,30.4551 -22.8415,30.4551 -9.714,0 -14.4398,-6.301 -14.4398,-19.1657 0,-13.3898 5.5134,-28.3549 16.5402,-44.8952 11.0269,-16.54026 21.2661,-27.30456 30.9803,-32.55546 v 2.1004 c -19.9534,21.2661 -29.9302,38.59396 -29.9302,51.72116 z m 33.0807,-178.53032 -31.5054,-307.17731 c -2.1003,-12.07706 -5.2508,-27.82976 -9.7141,-46.99552 -0.7876,-4.72581 1.0502,-12.60214 5.2508,-23.36648 2.1005,-5.51344 4.7258,-11.28942 7.8765,-17.0654 h 2.6254 c 1.0502,8.66397 6.0385,22.84138 14.9651,42.53224 8.9264,19.95339 14.1774,35.44354 15.49,46.73296 l -1.5751,2.10036 c -3.1507,-4.46326 -8.139,-9.97671 -14.9651,-16.54032 l -2.1005,2.62544 c -1.0501,4.72581 9.4518,108.69352 31.5054,311.37805 -5.2508,2.62543 -11.0269,4.46326 -17.853,5.77598 z m 80.0762,-288.53666 c 0.7876,-2.62543 1.0501,-7.35124 1.0501,-13.38978 0,-7.35124 -4.7258,-14.96504 -13.9149,-23.36646 -12.3395,29.405 -34.6558,56.4471 -66.6862,81.6514 l -2.1005,-18.64069 c 37.544,-31.76789 58.285,-53.5591 61.9606,-65.63617 -15.2275,-8.40143 -22.8414,-16.80286 -22.8414,-25.46683 0,-6.56363 2.1004,-14.96505 6.3011,-25.46684 4.2008,-10.23925 8.1389,-15.49015 11.8145,-15.49015 7.3513,0 12.3396,7.6138 14.9651,22.8414 1.8378,11.28942 2.3628,19.95339 2.1003,25.46684 11.0269,8.92652 16.5403,17.85304 16.5403,26.25447 0.2625,14.17741 -2.8879,24.41665 -9.189,31.24281 z m 20.7411,412.72032 c -17.328,0 -37.0188,13.1272 -59.0726,39.38166 -19.4284,22.8414 -31.2429,42.7948 -35.7061,59.8602 13.1272,-7.6138 42.2697,-18.3781 87.4274,-32.5555 32.0304,-10.2393 50.9336,-22.3163 56.447,-35.7061 -6.3011,-20.74106 -22.5788,-30.98026 -49.0957,-30.98026 z m 157.7893,436.34926 c -17.328,0 -29.4049,-8.6639 -36.2312,-25.7294 0,-0.7875 -3.6756,-16.8029 -10.7643,-48.0456 1.8379,11.0269 -0.7876,23.8915 -7.8764,38.8567 -8.4014,16.2777 -29.405,36.4936 -63.2732,60.9103 -33.8683,24.4166 -60.3853,36.7562 -79.2885,36.7562 -29.4051,0 -43.845,-21.0035 -43.845,-63.0107 0,-13.9149 3.413,-32.293 10.2393,-55.922 5.7759,-19.691 10.2392,-30.9804 12.8647,-33.6058 l 4.2006,2.6254 c -13.9148,34.3934 -20.741,60.9105 -20.741,79.026 0,23.3665 11.8144,35.181 35.1811,35.181 22.0536,0 51.9837,-14.1774 89.7902,-42.2696 37.8065,-28.0924 56.7096,-51.7214 56.7096,-71.1497 0,-9.1891 -1.8378,-21.7912 -5.2509,-37.8064 l 16.5404,-2.6254 c 3.6756,28.6172 7.3512,47.7831 10.7643,57.4973 7.6138,22.8413 19.4284,34.1307 35.1811,34.1307 15.7525,0 25.4668,-5.2508 28.8799,-16.0152 0,-12.077 -5.7761,-22.8414 -17.5905,-32.5555 1.0501,-7.8763 3.1505,-21.2662 6.3011,-40.4319 14.7024,13.3898 22.3161,34.6559 22.3161,63.5358 -0.2625,40.6945 -14.965,60.6478 -44.1074,60.6478 z m -196.646,-718.05976 -29.93,-24.41666 16.5402,-21.26611 -25.4668,-20.74105 17.0653,-23.36646 30.4553,24.94173 -18.1156,21.26613 27.3046,20.74102 z m 40.4319,189.81983 c -14.1774,0 -28.0923,-9.45159 -41.7447,-28.35482 -13.6522,-18.90322 -20.4785,-38.33152 -20.4785,-58.02239 0,-16.80285 3.1507,-32.55555 9.1891,-46.73294 6.3011,-14.17743 14.7026,-21.52869 25.7295,-21.52869 7.3512,0 13.6522,7.35126 19.1656,22.3163 4.726,11.81453 7.3513,21.52866 7.3513,29.40502 0,18.37814 -5.2508,35.44354 -16.0152,51.72131 l -13.9149,-13.38978 c 5.5135,-4.46326 12.3396,-9.71416 20.216,-15.49013 -5.7759,-25.20431 -13.3897,-37.80645 -22.8414,-37.80645 -12.8648,0 -19.1657,6.30108 -19.1657,19.16577 0,13.12723 6.5636,27.04211 19.9533,42.26969 13.3899,14.96505 27.0421,22.57885 41.7446,22.57885 13.9149,0 23.8917,-1.8378 30.4553,-5.77599 2.6254,5.2509 7.3512,8.40142 13.3897,9.71416 -11.8146,19.69086 -29.6676,29.93009 -53.034,29.93009 z m -47.5206,-405.63159 c -3.1505,0 -6.0385,1.05019 -8.664,3.15054 0.2625,1.83782 6.0385,7.35125 17.0654,17.06542 -0.2625,-13.38979 -2.888,-20.21596 -8.4014,-20.21596 z m 9.7142,890.02662 c 0,8.4014 2.3628,12.3395 7.3511,12.3395 -3.413,0 -1.0501,-0.7876 7.3513,-2.6254 l 1.0502,0.5251 c -6.301,17.853 -12.6021,26.7796 -19.1657,26.7796 -8.4014,0 -12.3396,-5.5134 -12.3396,-16.5403 0,-11.0269 4.4632,-23.629 13.3897,-37.8065 8.9266,-14.1774 17.5905,-23.3665 25.7295,-27.3046 l 1.5751,2.1003 c -16.5403,17.328 -24.9416,31.5054 -24.9416,42.5323 z m 158.3145,-253.8808 c 3.1504,-3.4131 5.7759,-7.8763 7.8762,-13.3898 1.8378,-5.776 1.3128,-8.664 -1.0501,-8.664 -30.7178,0 -65.3736,11.0269 -104.4928,33.0807 -35.4435,19.9533 -53.2967,35.9687 -53.2967,48.0457 0,6.301 4.726,11.0268 14.4401,14.7024 9.714,3.6757 18.3781,4.9885 26.2544,3.9383 l 49.0959,-3.1506 10.2392,30.4552 -57.4973,5.2508 c -35.9685,3.1506 -53.8217,-11.2894 -53.8217,-42.7946 0,-26.5171 19.9535,-53.2967 60.1228,-80.3388 40.1693,-27.0421 77.4507,-40.6944 111.844,-40.6944 12.0771,0 18.1157,6.3011 18.1157,18.6407 0,13.1272 -8.6641,25.2043 -26.2546,36.2311 z M 1463.8915,682.35897 c 1.0502,-8.92653 1.5752,-19.16576 1.5752,-30.45519 0,-19.9534 -7.8763,-35.96863 -23.8915,-48.04568 l 3.1505,-21.26613 c 19.4283,11.81452 28.8799,29.66756 28.8799,53.82167 0,14.17741 -3.1504,29.40502 -9.7141,45.94533 z m 37.5439,493.84653 -29.4051,-22.8413 17.5905,-22.8414 29.9301,23.8916 z m 23.8916,-364.93707 c -2.888,-0.78764 -7.6138,-3.15055 -14.44,-7.35127 l -27.5671,-266.22034 c -2.363,-12.07704 -5.7761,-27.82974 -9.7143,-46.9955 -0.7876,-4.7258 1.0502,-12.86469 5.251,-23.89156 2.3628,-5.2509 4.9883,-10.76434 7.8763,-16.54032 h 3.1506 c 0.7875,8.66397 5.5134,22.84138 14.1774,42.79479 8.6639,19.95339 13.9148,35.44354 15.7527,46.47042 l -1.5754,1.57526 c -3.1504,-4.20072 -7.8762,-9.4516 -14.4398,-16.01523 l -2.6255,2.10036 c -1.0502,5.51344 7.3512,87.68995 24.9418,246.52949 1.0501,12.60214 1.0501,24.94176 -0.7877,37.5439 z m 121.0331,34.1308 c -39.6443,0 -58.285,-24.41667 -55.922,-72.98744 0,-4.72578 1.3127,-14.17739 4.2006,-27.82972 2.6255,-13.91488 4.2008,-23.89158 4.2008,-30.45519 -16.5403,12.3396 -30.7177,39.11916 -42.5323,80.07615 -10.2392,34.91844 -21.0036,52.24639 -32.0304,52.24639 -13.3898,0 -24.4167,-8.92652 -32.8182,-26.77956 -8.4014,-17.85305 -12.602,-36.49372 -12.602,-55.92204 0,-19.69085 1.3126,-35.70609 3.6756,-48.04568 l 4.2007,0.52511 c -2.1004,16.80284 0,37.01879 6.3011,59.86019 7.6137,27.56718 18.1156,41.48205 31.5053,41.48205 6.5637,0 13.9149,-11.02687 21.7912,-33.08062 13.1272,-36.23118 21.7913,-58.54749 25.7294,-66.68637 14.1774,-27.30466 30.7178,-44.89515 49.6209,-53.29658 l -1.5751,32.55553 c -8.6641,38.85664 -12.8648,61.96056 -12.8648,68.78673 0,29.40501 13.9149,44.10751 41.482,44.37006 l 4.7258,35.18099 c -3.1505,0 -5.5133,0 -7.0886,0 z m -134.6855,513.53747 c -9.1891,14.1774 -18.1155,23.3665 -26.5171,27.3046 l -0.525,-1.5753 c 16.8029,-17.3278 25.4668,-31.2427 25.4668,-42.5321 0,-8.6641 -2.888,-12.8647 -8.4014,-12.8647 3.6756,0 1.5753,0.7875 -6.8261,2.6255 l -1.5753,-0.5252 c 6.8262,-17.5905 13.3898,-26.2544 19.6908,-26.2544 8.4014,0 12.3397,5.5134 12.3397,16.5402 0,10.5019 -4.4633,23.1039 -13.6524,37.2814 z m 55.6595,-443.70056 -26.2544,-20.74104 -17.0655,22.31634 -30.9802,-24.4167 18.1156,-21.26612 27.3046,20.74102 16.0152,-22.84137 30.4552,24.94175 z m -21.2661,329.75616 c -8.4014,-24.9418 -15.4902,-44.8951 -21.7912,-59.8602 -0.2626,-1.8378 1.5752,-9.4516 5.5133,-23.3664 3.9383,-13.9149 6.0386,-21.7913 6.0386,-23.8917 14.4401,25.2043 25.4668,59.8602 33.0807,104.4928 z m 4.9883,-551.60646 c -13.9149,0 -20.741,-9.71414 -20.741,-29.40501 0,-4.20072 7.3513,-11.02689 21.7912,-20.47847 14.44,-9.45162 22.3163,-16.54034 23.3666,-21.52868 -9.7143,-2.62543 -15.2277,-6.82617 -16.5404,-11.8145 -1.0502,-4.20071 0,-9.71416 3.4131,-16.80288 3.1505,-7.08869 6.5636,-11.28942 9.4516,-12.60214 l -4.7258,-7.87633 1.5752,-3.15054 c 4.4633,0 10.5019,2.10035 18.1157,6.30106 v 2.62546 c 6.5636,4.20071 14.4398,12.33959 23.8914,24.94175 2.1005,13.12723 -1.0501,20.74102 -9.1889,23.36646 -4.7259,0.26255 -11.2896,-0.52509 -19.1658,-2.62544 -0.2625,11.28941 -5.251,20.21594 -14.9651,26.77956 -8.664,4.46326 -18.9031,11.55197 -30.9803,21.26613 3.1506,2.88798 9.7142,4.20071 20.2159,4.20071 24.1542,0 45.4203,-16.54032 63.536,-49.62096 l 3.1504,2.10036 c -19.1658,42.79479 -43.0572,64.32346 -72.1998,64.32346 z m 8.4014,-173.80459 c 0,8.40142 2.6255,12.33959 7.8764,12.33959 -3.6756,0 -1.5753,-1.05018 6.8262,-3.15053 l 1.5753,1.05018 c -6.5636,17.32795 -12.8648,25.72937 -19.1659,25.72937 -7.8762,0 -11.8144,-5.25088 -11.8144,-15.49014 0,-11.02687 4.4632,-23.62901 13.3898,-38.06897 8.9265,-14.17742 17.328,-23.36648 25.4667,-27.04211 l 1.5753,2.10036 c -17.328,17.32795 -25.7294,31.50536 -25.7294,42.53225 z m 19.1658,935.44685 -30.4552,-23.3665 17.5905,-22.3163 30.4552,24.4166 z m -1.0501,-861.93435 c -5.251,0.78764 -9.1891,3.4131 -11.8146,8.40146 4.2008,4.20071 8.9266,6.30106 14.4401,6.30106 3.1504,-4.72581 4.2006,-8.40143 3.1504,-10.23926 -0.7876,-3.93816 -2.6254,-5.25087 -5.7759,-4.46326 z m 10.7642,3.9382 -0.525,12.33959 c 3.4132,2.10035 7.3513,2.88799 11.2894,2.62544 1.3127,-1.3127 3.1505,-2.36289 5.251,-2.62544 -3.4132,-1.83782 -8.6641,-6.03853 -16.0154,-12.33959 z m 190.345,704.40745 -3.1505,-2.1004 c 0,-41.7445 -21.7913,-93.4659 -65.1111,-155.689 -30.4552,-38.594 -64.3234,-83.4892 -101.8674,-134.948 -3.6756,-4.2007 -7.8763,-10.50176 -11.8145,-19.16576 l 5.7761,-28.3548 c 4.4631,2.888 12.8647,10.7643 25.4667,24.4167 7.3513,8.4014 14.9651,16.01516 23.3665,23.36646 l -0.525,3.1505 -19.1658,-4.7258 c 8.4014,13.1272 40.9569,55.6595 97.6666,127.5968 37.8065,48.5707 56.9722,89.0025 56.9722,121.0331 -0.2625,18.9031 -2.888,34.1308 -7.6138,45.4202 z M 1624.8315,915.23614 c -9.1891,14.1774 -17.5906,23.3665 -25.467,27.3047 v -2.1004 c 16.2779,-17.328 24.4168,-31.2428 24.4168,-42.53225 0,-8.40143 -2.6255,-12.33961 -7.8764,-12.33961 3.6756,0 1.5753,0.78764 -6.8261,2.62544 l -1.5753,-0.52509 c 6.3011,-17.5905 12.3395,-26.25447 18.6406,-26.25447 8.4015,0 12.3396,5.2509 12.3396,15.49014 0,11.28942 -4.4632,24.15414 -13.6522,38.33154 z m 18.1155,219.74996 c -9.1891,14.1773 -17.853,23.3664 -25.992,27.3046 l -1.0501,-1.5752 c 16.5403,-17.328 24.9418,-31.2429 24.9418,-42.5323 0,-8.4014 -2.363,-12.3396 -6.8262,-12.3396 3.1505,0 0.5251,0.7876 -7.8764,2.6254 l -0.5251,-1.0502 c 5.7761,-17.5905 11.8145,-26.2544 18.1156,-26.2544 8.664,0 12.8647,5.5134 12.8647,16.5403 0,10.7643 -4.4632,23.104 -13.6523,37.2814 z m 38.069,-71.9373 -50.6711,-488.07061 c -1.8378,-11.28943 -4.7259,-27.30466 -8.6641,-47.52061 -1.0501,-4.46326 0.5252,-11.81452 4.7258,-22.31629 2.6255,-5.51345 5.251,-11.55198 7.8764,-18.11559 h 2.6255 c 1.3127,8.92652 6.5636,23.36648 15.2276,43.31987 8.6639,19.95341 13.9148,35.44355 15.7527,46.47042 l -2.6255,2.10037 c -2.888,-4.20072 -7.6138,-9.71417 -14.4399,-16.54034 l -2.1005,3.67565 c 0,5.51342 17.328,174.32968 52.2466,506.71123 1.0501,5.5135 1.5751,11.0269 1.5751,16.5403 z m 248.3673,23.3665 c -13.3897,54.0842 -30.1927,99.2418 -50.4086,135.473 l -4.2008,2.1003 c 36.7564,-81.6513 55.397,-167.766 55.397,-258.60646 0,-123.39598 -44.8951,-221.06262 -134.9479,-293.2624 25.2042,50.93367 37.8063,87.95246 37.8063,110.53132 0,10.76433 -4.2006,21.00356 -12.3396,30.98027 -10.7642,13.38978 -24.4166,20.21595 -40.9569,20.21595 -30.7178,0 -52.5089,-17.32795 -65.1111,-51.72132 -5.776,22.05377 -16.8029,38.8566 -32.5556,50.67113 l -3.1504,-27.82974 c 15.7526,-7.35125 25.7292,-20.21594 29.4049,-39.3817 0,-13.91488 -5.776,-44.63261 -17.0654,-92.6783 l 6.8261,-37.80645 c 8.4015,11.02688 12.8647,18.37814 13.9149,22.3163 3.4131,6.30109 5.5135,13.38979 6.3011,21.26615 1.3128,18.90321 6.3011,45.68276 14.44,80.07614 10.7643,26.51702 28.3548,39.9068 52.7714,39.9068 16.5404,0 28.3549,-4.72581 35.181,-13.91488 -28.8799,-53.03403 -44.8951,-92.67828 -48.0455,-118.40769 l 6.0384,-37.28134 c 52.7715,28.61737 94.2535,71.14963 124.9713,127.3342 30.4552,56.44711 45.6829,116.83241 45.6829,181.15586 0,45.1577 -6.5638,94.51606 -19.9535,148.86286 z m -244.1665,95.5662 -4.2008,-1.0502 c 1.3126,-8.9264 2.6254,-28.6172 4.2008,-59.0725 l 14.4398,19.1657 c -2.8879,14.1775 -7.6137,27.8298 -14.4398,40.957 z m 122.8709,116.8325 c -18.9033,43.0572 -55.6595,67.4739 -110.2689,72.9873 v -4.2006 c 24.9418,-9.7143 47.7833,-25.992 68.7868,-49.0959 26.2544,-26.7796 37.8064,-52.5089 34.6558,-76.9257 l -22.8413,-222.9004 c -2.1005,-11.8145 -5.2509,-27.30456 -9.1891,-46.99546 -0.2625,-4.7258 1.3127,-12.3396 5.251,-22.8414 2.1003,-5.5134 4.2006,-11.2894 6.8261,-17.5905 h 4.2006 c 0.2627,8.664 4.9885,22.8414 13.6524,42.7948 8.6639,19.9534 13.9149,35.70606 15.7527,46.99546 l -2.1003,2.1004 c -2.888,-3.4131 -7.6138,-9.1891 -14.4401,-17.0654 l -1.5751,3.6756 18.1155,191.9203 c 4.4633,43.3198 2.1003,75.8753 -6.8261,97.1415 z m -81.914,-391.97926 c -9.1891,14.1774 -17.5905,23.3664 -25.4669,27.3046 l -1.0502,-2.1004 c 16.8029,-17.3279 25.4668,-31.5053 25.4668,-42.79473 0,-8.40144 -2.6253,-12.33961 -7.8762,-12.33961 3.6756,0 1.5753,1.05019 -6.8262,3.15054 l -1.5753,-0.52509 c 6.3011,-17.5905 12.6022,-26.25447 19.1658,-26.25447 7.8763,0 11.8145,5.2509 11.8145,15.49014 0,11.28942 -4.4633,23.89156 -13.6523,38.06902 z m 22.5788,-300.35121 c -4.2007,0 -8.6639,-2.36289 -13.3898,-7.35123 -2.888,8.66397 -7.8763,12.86468 -14.9651,12.86468 -6.5636,0 -10.5017,-4.7258 -11.8144,-13.91487 0,-7.35124 0,-14.1774 0,-21.26612 -2.3629,2.88801 -4.4633,6.30108 -6.3011,10.23925 v -6.30108 c 1.8378,-5.51342 6.8261,-12.60214 14.9651,-21.26612 -3.1505,22.84139 -1.0502,34.13081 6.3011,34.13081 5.5134,0 8.4014,-3.67562 8.4014,-10.76433 0,-4.20071 -0.7877,-11.02688 -2.6255,-20.74105 l 4.7258,-9.18904 c 3.6756,4.72578 5.776,12.86469 6.3011,23.89156 1.0502,7.87633 3.9382,11.8145 8.6639,11.8145 3.6757,0 5.776,-2.62543 5.776,-7.87633 0,-0.26255 -1.5752,-7.35125 -4.7258,-21.26612 l 4.7258,-11.81451 c 5.5134,14.43994 8.4014,27.04211 8.4014,37.80644 -0.525,14.17741 -5.2508,21.00356 -14.4399,21.00356 z m -8.6639,398.28027 c -9.1891,14.44 -17.5905,23.6291 -25.4669,27.5672 l -2.1003,-1.5752 c 16.8028,-17.8531 25.4667,-32.29296 25.4667,-42.79476 0,-8.664 -2.3628,-12.8647 -6.8261,-12.8647 3.4132,0 0.7877,0.7876 -7.8762,2.6254 l -0.5252,-0.5251 c 5.776,-17.5904 12.0771,-26.2544 18.6407,-26.2544 8.4014,0 12.3395,5.2509 12.3395,16.0152 0.2627,11.0269 -4.4633,23.629 -13.6522,37.80636 z m 1.0502,304.0269 c -8.6641,14.1774 -17.5905,23.629 -25.992,27.5671 l -0.5251,-2.1003 c 16.5403,-17.5905 24.9418,-32.0304 24.9418,-43.32 0,-8.4014 -2.6255,-12.3395 -7.8765,-12.3395 3.6757,0 1.5754,1.3128 -6.8261,3.6756 l -1.5751,-1.0502 c 6.3009,-17.328 12.602,-25.7294 19.1656,-25.7294 7.8765,0 11.8146,4.9885 11.8146,14.965 0,11.2896 -4.2008,24.1543 -13.1272,38.3317 z m 6.0384,-228.1514 c 0,8.4014 2.363,12.3396 7.3513,12.3396 -3.1505,0 -0.2625,-1.0502 8.4014,-3.1506 l 0.5252,1.5753 c -6.3011,17.328 -12.6022,25.7294 -19.1658,25.7294 -8.4015,0 -12.3396,-5.2509 -12.3396,-16.0152 0,-11.0269 4.4633,-23.6291 13.3897,-38.069 8.9266,-14.1774 17.853,-23.629 26.2545,-27.5672 l 1.0503,2.1003 c -17.0655,17.5905 -25.467,32.0305 -25.467,43.0574 z m 46.9956,-188.76966 -39.9068,18.6407 v -9.7142 l 12.3396,-8.4014 c -8.4015,-4.20072 -11.8146,-9.18907 -10.2393,-15.49014 0,-5.51343 3.4131,-12.60214 10.5018,-21.00356 7.0887,-8.40143 13.6523,-12.60217 19.9534,-12.60217 8.664,0 12.3396,3.67565 11.2894,11.28943 0,1.8378 -1.3126,5.776 -4.2007,11.81451 h -2.6254 c -2.8881,-3.41307 -4.7259,-5.2509 -6.3011,-5.2509 -9.1891,0 -16.0152,2.62546 -20.216,7.87636 2.363,5.25088 7.6138,8.13888 15.4902,8.66398 10.7643,0 19.1657,-2.36291 25.4668,-6.82618 h 6.3011 c -3.9381,10.23925 -9.9767,17.32795 -17.853,21.00357 z m 71.9372,277.77226 c 0,37.8065 -9.1891,72.1999 -27.3046,102.9176 l -4.2008,-1.0501 c 11.8146,-46.9956 15.7527,-84.5395 12.3396,-113.1569 l -25.4668,-249.67996 c -2.1003,-12.07709 -5.2509,-27.82977 -9.1891,-46.99553 -0.7876,-4.72581 1.3128,-12.3396 5.776,-22.8414 1.8378,-5.51342 3.9383,-11.8145 6.8262,-18.64066 h 3.6757 c 0.2625,9.18907 4.9883,23.89156 13.6522,43.84497 8.6641,19.95339 14.1775,35.44352 16.2778,46.47042 l -2.6254,2.6254 c -2.363,-4.4632 -7.3513,-10.2392 -14.4399,-17.06536 l -2.1005,3.15056 c -0.2625,5.5134 8.1389,88.4775 25.4669,248.62986 0.7877,7.3512 1.3127,14.4399 1.3127,21.7911 z m 29.6676,-253.61816 c -9.1891,14.44 -17.853,23.6291 -25.992,27.5672 l -1.0501,-1.5752 c 16.5403,-17.8531 24.9418,-32.2931 24.9418,-42.7948 0,-8.66401 -2.363,-12.86472 -6.8263,-12.86472 3.4131,0 0.7877,1.05016 -7.8763,3.15054 l -0.5251,-1.05019 c 5.7759,-17.32795 11.8145,-25.72938 18.1156,-25.72938 8.664,0 12.8648,5.25089 12.8648,15.49015 0,10.76432 -4.4633,23.3665 -13.6524,37.8064 z m -8.9266,132.58506 c 0,7.8764 2.363,11.8145 6.8263,11.8145 -3.1507,0 -0.5252,-0.7876 7.8762,-2.6254 l 0.5252,0.5251 c -5.776,17.5905 -12.0771,26.2544 -18.6407,26.2544 -8.6641,0 -12.8647,-5.2508 -12.8647,-15.4901 0,-11.2894 4.4633,-24.1541 13.6522,-38.3315 9.1891,-14.1774 17.8532,-23.3665 25.992,-27.8298 l 1.0503,2.1004 c -16.2779,17.5905 -24.4168,32.0305 -24.4168,43.5824 z"
       id="path1"
       style="display:inline;fill:url(#linearGradient2);fill-opacity:1;stroke:#000000;stroke-width:17.2985;stroke-dasharray:none;stroke-opacity:1;paint-order:markers stroke fill" /></g></svg>
