<?xml version="1.0" encoding="UTF-8" standalone="no"?>
<!-- Created with Inkscape (http://www.inkscape.org/) -->

<svg
   width="1920"
   height="1080"
   viewBox="0 0 1920 1080"
   version="1.1"
   id="svg1"
   xmlns="http://www.w3.org/2000/svg"
   xmlns:svg="http://www.w3.org/2000/svg">
  <defs
     id="defs1" />
  <rect
     style="fill:#1b1f25;fill-opacity:1;stroke-width:1.7"
     id="rect2"
     width="1920"
     height="1080"
     x="0"
     y="0"
     ry="1.8119611" />
  <g
     id="g27"
     style="fill:#b7bdf9;fill-opacity:1"
     transform="translate(3.064475)">
    <path
       style="font-style:normal;font-variant:normal;font-weight:normal;font-stretch:normal;font-size:185.162px;font-family:'Aref Ruqaa';-inkscape-font-specification:'Aref Ruqaa, Normal';font-variant-ligatures:normal;font-variant-caps:normal;font-variant-numeric:normal;font-variant-east-asian:normal;text-align:center;writing-mode:lr-tb;direction:ltr;text-anchor:middle;fill:#b7bdf9;fill-opacity:1;stroke-width:17.3388"
       d="m 684.6543,617.41797 c -2.46883,3.08603 -4.99953,6.23388 -7.5918,9.44336 -2.59227,3.20947 -5.12297,6.41943 -7.5918,9.6289 l 13.14649,12.22071 c 2.59227,-3.20948 5.12297,-6.41943 7.59179,-9.62891 2.59227,-3.08603 5.12297,-6.23388 7.5918,-9.44336 z"
       id="path24" />
    <path
       style="font-style:normal;font-variant:normal;font-weight:normal;font-stretch:normal;font-size:185.162px;font-family:'Aref Ruqaa';-inkscape-font-specification:'Aref Ruqaa, Normal';font-variant-ligatures:normal;font-variant-caps:normal;font-variant-numeric:normal;font-variant-east-asian:normal;text-align:center;writing-mode:lr-tb;direction:ltr;text-anchor:middle;fill:#b7bdf9;fill-opacity:1;stroke-width:17.3388"
       d="m 1445.1152,598.16211 -2.5918,1.11133 c -0.7406,0.37032 -1.482,0.86326 -2.2226,1.48047 -1.2344,0.86409 -2.9636,2.46906 -5.1856,4.81445 -2.0985,2.34538 -4.0722,4.93819 -5.9238,7.77734 -1.9751,2.83915 -3.1492,5.49211 -3.5195,7.96094 -0.4938,2.46883 0.4339,4.38238 2.7793,5.74024 0.9875,0.49376 2.1597,1.0488 3.5176,1.66601 1.3578,0.61721 2.53,1.23436 3.5175,1.85156 0.6172,0.37033 0.6793,0.74101 0.1856,1.11133 -0.4938,0.37033 -0.8645,0.6789 -1.1114,0.92578 -2.7157,1.4813 -5.5549,2.83981 -8.5175,4.07422 -2.9626,1.23441 -5.864,2.53082 -8.7032,3.88867 3.333,-0.6172 6.605,-1.23435 9.8145,-1.85156 3.2095,-0.49376 6.2331,-1.73002 9.0723,-3.70508 3.4563,-2.46882 5.8648,-5.36825 7.2226,-8.70117 1.3579,-3.33292 0.7407,-5.80151 -1.8515,-7.40625 -1.3579,-0.98753 -3.025,-1.66678 -5,-2.03711 -1.8517,-0.49376 -3.3324,-1.35738 -4.4434,-2.5918 1.3579,-1.97506 3.023,-3.33357 4.998,-4.07421 1.9751,-0.86409 3.3336,-2.09839 4.0743,-3.70313 z"
       id="path23" />
    <path
       style="font-style:normal;font-variant:normal;font-weight:normal;font-stretch:normal;font-size:185.162px;font-family:'Aref Ruqaa';-inkscape-font-specification:'Aref Ruqaa, Normal';font-variant-ligatures:normal;font-variant-caps:normal;font-variant-numeric:normal;font-variant-east-asian:normal;text-align:center;writing-mode:lr-tb;direction:ltr;text-anchor:middle;fill:#b7bdf9;fill-opacity:1;stroke-width:17.3388"
       d="m 583.37109,589.83008 -17.77539,3.33203 -17.77539,3.33398 -11.10937,22.03321 17.77539,-3.33203 17.77539,-3.33399 z"
       id="path22" />
    <path
       style="font-style:normal;font-variant:normal;font-weight:normal;font-stretch:normal;font-size:185.162px;font-family:'Aref Ruqaa';-inkscape-font-specification:'Aref Ruqaa, Normal';font-variant-ligatures:normal;font-variant-caps:normal;font-variant-numeric:normal;font-variant-east-asian:normal;text-align:center;writing-mode:lr-tb;direction:ltr;text-anchor:middle;fill:#b7bdf9;fill-opacity:1;stroke-width:17.3388"
       d="m 1351.0527,528.91016 c -1.6047,2.71571 -3.3339,5.61709 -5.1855,8.70312 -1.7282,3.08603 -3.3312,6.04952 -4.8125,8.88867 -5.4314,9.87531 -9.505,18.76187 -12.2207,26.66211 -2.5923,7.77681 -3.8887,14.5674 -3.8887,20.36914 0,6.54239 1.1101,12.03463 3.332,16.47852 2.3454,4.44389 5.4312,7.59174 9.2579,9.44336 1.7281,0.86409 3.5796,1.54334 5.5546,2.03711 1.9751,0.49376 4.0129,0.74023 6.1114,0.74023 2.2219,0 4.5663,-0.24647 7.0351,-0.74023 2.4689,-0.61721 5.0617,-1.35857 7.7774,-2.22266 10.369,-3.95012 18.949,-10.73876 25.7383,-20.36719 6.9127,-10.12219 11.4792,-21.41719 13.7011,-33.88476 0.3703,-1.72818 0.6168,-3.51752 0.7403,-5.36914 0.1234,-1.85162 0.1855,-3.64292 0.1855,-5.3711 0,-8.51745 -1.9757,-16.91107 -5.9258,-25.18164 l -9.998,23.14649 c 1.2344,3.82668 2.2843,7.71394 3.1484,11.66406 0.9875,3.95012 1.4805,8.45648 1.4805,13.51758 v 1.66601 c -5.9252,5.30798 -13.331,9.75224 -22.2188,13.33204 -5.6783,2.22194 -11.7896,3.33203 -18.332,3.33203 -3.7032,0 -7.5284,-0.36873 -11.4785,-1.10938 -6.419,-2.71571 -9.6289,-6.72913 -9.6289,-12.03711 0,-2.0985 0.4308,-4.19642 1.2949,-6.29492 1.7282,-4.56733 3.4574,-8.76512 5.1855,-12.5918 1.8517,-3.82668 3.5789,-7.59168 5.1836,-11.29492 l 13.7032,9.25977 2.2207,-3.88867 c 0.4937,-0.98754 0.9886,-1.91326 1.4824,-2.77735 l 2.2227,-3.88867 2.9609,-5.18555 2.9629,-5.55469 c -2.4688,-1.72817 -4.9374,-3.3933 -7.4063,-4.99804 -2.4688,-1.72818 -4.9374,-3.39526 -7.4062,-5 z"
       id="path21" />
    <path
       style="font-style:normal;font-variant:normal;font-weight:normal;font-stretch:normal;font-size:185.162px;font-family:'Aref Ruqaa';-inkscape-font-specification:'Aref Ruqaa, Normal';font-variant-ligatures:normal;font-variant-caps:normal;font-variant-numeric:normal;font-variant-east-asian:normal;text-align:center;writing-mode:lr-tb;direction:ltr;text-anchor:middle;fill:#b7bdf9;fill-opacity:1;stroke-width:17.3388"
       d="m 485.60547,528.91016 c -1.60474,2.71571 -3.33197,5.61709 -5.18359,8.70312 -1.72818,3.08603 -3.33316,6.04952 -4.81446,8.88867 -5.43142,9.87531 -9.50499,18.76187 -12.2207,26.66211 -2.59227,7.77681 -3.88867,14.5674 -3.88867,20.36914 0,6.54239 1.11008,12.03463 3.33203,16.47852 2.34538,4.44389 5.43308,7.59174 9.25976,9.44336 1.72818,0.86409 3.57963,1.54334 5.55469,2.03711 1.97506,0.49376 4.01087,0.74023 6.10938,0.74023 2.22194,0 4.56828,-0.24647 7.03711,-0.74023 2.46882,-0.61721 5.05968,-1.35857 7.77539,-2.22266 10.36907,-3.95012 18.949,-10.73876 25.73828,-20.36719 4.12426,-6.03909 7.41263,-12.49519 9.86719,-19.36914 15.36208,-1.2498 26.39229,-3.80445 33.08984,-7.66406 5.80174,-3.20947 10.3081,-8.95013 13.51758,-17.2207 1.60473,-3.95013 2.83903,-7.59091 3.70312,-10.92383 0.86409,-3.45636 1.29688,-6.5421 1.29688,-9.25781 l -0.55664,-0.3711 c -3.08604,8.51746 -7.83887,13.88743 -14.25782,16.10938 -3.08603,1.11097 -7.77675,2.0988 -14.07226,2.96289 -4.9259,0.59111 -10.91213,1.10325 -17.96094,1.53711 8.3e-4,-0.14257 0,-0.286 0,-0.42774 0,-8.51745 -1.9737,-16.91107 -5.92383,-25.18164 l -10,23.14649 c 1.23442,3.82668 2.28435,7.71394 3.14844,11.66406 0.98753,3.95012 1.48047,8.45648 1.48047,13.51758 v 1.66601 c -5.92519,5.30798 -13.33098,9.75224 -22.21875,13.33204 -5.6783,2.22194 -11.78769,3.33203 -18.33008,3.33203 -3.70324,0 -7.53035,-0.36873 -11.48047,-1.10938 -6.41895,-2.71571 -9.6289,-6.72913 -9.6289,-12.03711 0,-2.0985 0.43278,-4.19642 1.29687,-6.29492 1.72818,-4.56733 3.45542,-8.76512 5.18359,-12.5918 1.85162,-3.82668 3.58081,-7.59168 5.18555,-11.29492 l 13.70117,9.25977 2.22266,-3.88867 c 0.49376,-0.98754 0.9867,-1.91326 1.48047,-2.77735 l 2.22265,-3.88867 2.9629,-5.18555 2.96093,-5.55469 c -2.46882,-1.72817 -4.93742,-3.3933 -7.40625,-4.99804 -2.46882,-1.72818 -4.93742,-3.39526 -7.40625,-5 z"
       id="path20" />
    <path
       style="font-style:normal;font-variant:normal;font-weight:normal;font-stretch:normal;font-size:185.162px;font-family:'Aref Ruqaa';-inkscape-font-specification:'Aref Ruqaa, Normal';font-variant-ligatures:normal;font-variant-caps:normal;font-variant-numeric:normal;font-variant-east-asian:normal;text-align:center;writing-mode:lr-tb;direction:ltr;text-anchor:middle;fill:#b7bdf9;fill-opacity:1;stroke-width:17.3388"
       d="m 1063.4043,512.84766 c -1.1727,-0.0309 -2.3148,0.0152 -3.4258,0.13867 -2.2219,0.12344 -4.0132,0.80269 -5.3711,2.03711 -3.086,2.83915 -5.246,6.35768 -6.4804,10.55468 -0.6173,2.09851 -1.3567,4.13432 -2.2208,6.10938 -0.7406,1.97506 -1.6062,3.88861 -2.5937,5.74023 -1.4813,2.83916 -1.4813,5.49407 0,7.96289 -4.197,1.23442 -9.01,2.59293 -14.4414,4.07422 -5.4314,1.35786 -11.11,2.40584 -17.0352,3.14649 -3.2277,0.33622 -6.3997,0.43491 -9.5175,0.29492 l 7.4804,-11.58984 c 0.7407,-1.11098 1.4199,-2.34527 2.0371,-3.70313 0.6172,-1.48129 1.2344,-3.08627 1.8516,-4.81445 0.3703,-1.11097 0.5547,-2.22106 0.5547,-3.33203 0,-3.20948 -1.2945,-5.43161 -3.8867,-6.66602 -2.4689,-1.23441 -5.6167,-1.91367 -9.4434,-2.03711 h -1.85155 c -4.19701,0 -7.71554,0.37068 -10.55469,1.11133 -0.49377,0.49377 -1.5437,1.60385 -3.14844,3.33203 -1.60474,1.60474 -3.64055,3.95108 -6.10937,7.03711 -4.69077,5.6783 -7.03711,9.4433 -7.03711,11.29492 v 0.3711 c 0.12344,0 0.18554,0.0602 0.18554,0.18359 l 2.5918,16.66602 -21.47851,21.10742 c -9.01122,9.62842 -15.73971,21.78704 -20.1836,36.47656 -2.96259,9.38154 -4.44336,18.27005 -4.44336,26.66406 0,9.38154 1.66709,17.15801 5,23.33008 3.45636,6.29551 8.33145,11.04834 14.62696,14.25781 8.39401,4.07357 17.7153,6.10938 27.96093,6.10938 7.90025,0 15.12167,-0.86362 21.66407,-2.5918 6.66583,-1.72818 13.51653,-4.19677 20.55273,-7.40625 12.2207,-5.6783 22.1572,-13.08409 29.8105,-22.21875 v -0.37109 c 0,-0.12344 -0.062,-0.18555 -0.1855,-0.18555 -0.4938,0 -1.2953,0.18632 -2.4063,0.55664 -7.1595,1.72818 -15.1844,3.39331 -24.0722,4.99805 -8.7644,1.60474 -17.5908,2.4082 -26.47853,2.4082 -12.22069,0 -22.89659,-1.66708 -32.03125,-5 -9.13466,-3.33291 -16.78887,-8.39432 -22.96094,-15.18359 -2.22194,-2.59227 -3.33203,-5.61591 -3.33203,-9.07227 0,-2.0985 0.43083,-4.25852 1.29492,-6.48047 0.98753,-3.20947 2.28394,-6.35732 3.88867,-9.44336 1.72818,-3.20947 3.70384,-6.41943 5.92578,-9.6289 2.34539,-3.20948 5.06046,-6.6038 8.14649,-10.1836 3.08603,-3.70324 6.23388,-7.22177 9.44336,-10.55468 3.33291,-3.45636 6.2343,-6.29564 8.70312,-8.51758 1.72818,-1.4813 3.64174,-3.02417 5.74024,-4.62891 0.44407,-0.33958 0.89482,-0.68223 1.35547,-1.02734 1.98716,1.1952 4.18938,1.90857 6.60547,2.13867 9.99874,1.11097 20.80083,0.061 32.40433,-3.14844 6.2955,-1.72818 12.5291,-4.01046 18.7011,-6.84961 6.1721,-2.83915 11.7264,-6.17332 16.6641,-10 5.0611,-3.82668 9.0726,-7.90025 12.0352,-12.2207 3.5798,-5.55486 6.4811,-13.5778 8.7031,-24.07031 0.2469,-1.4813 0.1848,-2.83981 -0.1856,-4.07422 -0.2469,-1.23441 -1.1105,-1.91367 -2.5918,-2.03711 -1.975,-0.24688 -4.2593,-0.49335 -6.8515,-0.74023 -1.2344,-0.18517 -2.4367,-0.29336 -3.6094,-0.32422 z"
       id="path19" />
    <path
       style="font-style:normal;font-variant:normal;font-weight:normal;font-stretch:normal;font-size:185.162px;font-family:'Aref Ruqaa';-inkscape-font-specification:'Aref Ruqaa, Normal';font-variant-ligatures:normal;font-variant-caps:normal;font-variant-numeric:normal;font-variant-east-asian:normal;text-align:center;writing-mode:lr-tb;direction:ltr;text-anchor:middle;fill:#b7bdf9;fill-opacity:1;stroke-width:17.3388"
       d="m 846.48633,504.83984 -13.70117,22.4043 c 0.24688,4.19701 0.55545,9.32052 0.92578,15.36914 0.49376,6.04863 0.9246,12.40643 1.29492,19.07227 0.49376,6.66583 0.86444,13.08379 1.11133,19.25586 0.24688,6.17206 0.37109,11.47994 0.37109,15.92382 -1.23441,1.11098 -3.58075,2.40738 -7.03711,3.88868 -3.33291,1.48129 -7.71506,3.21048 -13.14648,5.18554 -4.44389,1.60474 -9.31898,3.0234 -14.62696,4.25782 -5.18453,1.23441 -10.43225,2.03592 -15.74023,2.40625 -5.18454,0.24688 -10.12173,-0.12185 -14.8125,-1.10938 -4.56733,-1.11097 -8.51669,-3.21084 -11.84961,-6.29687 -2.76547,-2.58512 -3.89078,-6.47308 -3.37695,-11.66407 0.25954,-0.0607 0.5211,-0.12217 0.78515,-0.18554 3.08604,-0.74065 6.10968,-1.48201 9.07227,-2.22266 3.08603,-0.86409 5.61673,-1.54139 7.5918,-2.03516 3.70324,-1.35785 7.28387,-2.90268 10.74023,-4.63086 3.45636,-1.72817 6.72647,-3.57962 9.8125,-5.55468 5.6783,-3.5798 10.43113,-7.71353 14.25781,-12.4043 3.95013,-4.81421 7.46866,-10.2463 10.55469,-16.29492 0.98753,-1.85162 1.48047,-3.88939 1.48047,-6.11133 0,-3.45636 -1.2964,-6.48 -3.88867,-9.07227 -2.46883,-2.59226 -5.49247,-3.88867 -9.07227,-3.88867 -3.45636,0 -6.72842,0.67926 -9.81445,2.03711 -3.08603,1.23442 -5.43042,2.59292 -7.03516,4.07422 -5.92518,5.55486 -11.66584,11.29357 -17.2207,17.21875 -5.43142,5.92518 -10.8014,11.97442 -16.10938,18.14649 -3.57979,0.74064 -7.4069,1.29569 -11.48046,1.66601 l -0.1836,-0.18555 c 1.35786,-2.96259 2.46794,-5.49134 3.33203,-7.58984 0.86409,-2.22194 1.54335,-4.07534 2.03711,-5.55664 0.12344,-0.24688 0.18555,-0.98629 0.18555,-2.2207 0,-0.61721 -0.0621,-0.92579 -0.18555,-0.92578 -0.12344,0 -0.36991,0.18436 -0.74023,0.55468 -1.72818,4.07357 -4.38309,7.09916 -7.96289,9.07422 -5.5464,3.08133 -19.70685,5.36227 -42.48242,6.84375 -1.03511,-0.16974 -1.99482,-0.4769 -2.88086,-0.91992 -1.85162,-0.98753 -2.59298,-2.90108 -2.22266,-5.74023 0,-1.35786 -0.80347,-2.09727 -2.4082,-2.22071 -1.60474,-0.24688 -3.64055,-0.12462 -6.10938,0.36914 -2.46882,0.37033 -5.06163,0.92732 -7.77734,1.66797 -2.59227,0.61721 -4.87455,1.23436 -6.84961,1.85156 -9.62843,2.9626 -15.43119,6.35692 -17.40625,10.1836 -1.11097,2.0985 -2.0367,4.38078 -2.77735,6.84961 -0.74064,2.34538 -1.60426,4.62962 -2.59179,6.85156 -0.10461,0.10461 -0.38648,0.56507 -0.84571,1.37891 -0.7392,0.3271 -1.50727,0.60805 -2.30273,0.84375 -8.88778,2.34538 -18.14501,4.31909 -27.77344,5.92382 -9.62842,1.60474 -18.64114,3.88897 -27.03515,6.85157 -1.72818,0.74064 -2.09691,1.54411 -1.10938,2.4082 1.4813,1.23441 6.29428,3.08586 14.44141,5.55469 4.07356,1.23441 7.34562,2.22224 9.81445,2.96289 2.59227,0.74065 4.38161,1.23358 5.36914,1.48047 7.90025,1.60473 14.07174,1.54263 18.51563,-0.18555 4.44388,-1.85162 8.08663,-5.49241 10.92578,-10.92383 1.23441,-2.46883 2.53082,-4.81516 3.88867,-7.03711 1.30103,-2.24724 2.8921,-4.14366 4.75977,-5.71094 0.17708,-0.12541 0.34874,-0.26779 0.52734,-0.38867 0.11585,-0.0768 0.22845,-0.1579 0.33398,-0.24609 0.46664,-0.30668 0.93722,-0.59893 1.41407,-0.875 1.97506,-0.74065 4.19719,-1.4199 6.66601,-2.03711 2.46883,-0.74065 5.06164,-1.4199 7.77735,-2.03711 5.43141,-1.23441 8.08437,-0.92584 7.96093,0.92578 -0.86409,5.6783 1.23578,8.1469 6.29688,7.40625 2.36837,-0.35525 4.79341,-0.7092 7.27539,-1.06445 l -0.0547,0.32422 c 3.33292,-0.37033 7.4686,-0.92537 12.40625,-1.66602 4.93765,-0.86409 9.75064,-1.85192 14.44141,-2.96289 4.81421,-1.11097 8.45695,-2.15895 10.92578,-3.14648 -0.12344,0.37032 -0.18555,0.92536 -0.18555,1.66601 0,1.35786 0.74136,2.22147 2.22266,2.5918 1.60474,0.37032 3.26987,0.55469 4.99804,0.55469 1.23442,0 2.53082,-0.0602 3.88868,-0.1836 1.30027,-0.1182 2.65684,-0.29399 4.07031,-0.52539 -1.3782,3.14009 -2.55028,6.33961 -3.51563,9.59766 -2.0985,6.66583 -2.46723,12.71506 -1.10937,18.14648 1.35785,5.55486 5.92437,8.88708 13.70117,9.99805 9.50498,1.35785 19.01064,1.35785 28.51563,0 9.50498,-1.4813 17.8986,-3.57921 25.18164,-6.29492 8.51745,-3.20948 16.23181,-7.77794 23.14453,-13.70313 7.03615,-6.04862 11.72688,-13.70088 14.07226,-22.95898 0.86409,-3.20948 1.48124,-6.48154 1.85157,-9.81446 0.49376,-3.45635 0.61797,-6.91278 0.37109,-10.36914 z m -55.54883,46.66211 c 2.71571,0 5.12415,0.73941 7.22266,2.22071 2.22194,1.35785 3.33203,3.2093 3.33203,5.55468 0,0.86409 -0.37068,1.48124 -1.11133,1.85157 -5.30798,2.59226 -11.04864,4.63003 -17.2207,6.11132 -6.04863,1.4813 -12.34238,2.89996 -18.88477,4.25782 3.33292,-3.33292 6.66513,-6.72724 9.99805,-10.1836 3.45635,-3.45635 7.34557,-6.35774 11.66601,-8.70312 0.74065,-0.49377 1.54216,-0.80234 2.40625,-0.92578 0.86409,-0.12344 1.72771,-0.1836 2.5918,-0.1836 z"
       id="path18" />
    <path
       style="font-style:normal;font-variant:normal;font-weight:normal;font-stretch:normal;font-size:185.162px;font-family:'Aref Ruqaa';-inkscape-font-specification:'Aref Ruqaa, Normal';font-variant-ligatures:normal;font-variant-caps:normal;font-variant-numeric:normal;font-variant-east-asian:normal;text-align:center;writing-mode:lr-tb;direction:ltr;text-anchor:middle;fill:#b7bdf9;fill-opacity:1;stroke-width:17.3388"
       d="m 1245.6953,499.65625 -13.7012,21.84766 c 0.4938,9.01121 0.9867,17.03611 1.4805,24.07226 0.4938,6.91272 0.9266,13.76346 1.2969,20.55274 0.3703,6.66583 0.5547,14.13372 0.5547,22.40429 -5.4314,2.34539 -10.9237,4.19684 -16.4785,5.55469 -2.7158,0.61721 -6.1101,1.29646 -10.1836,2.03711 -1.6634,0.2599 -3.4588,0.54203 -5.3848,0.8457 l -5.9102,-86.57617 -13.7031,22.58985 4.0742,56.4746 c -4.8428,2.52229 -14.4281,4.96295 -28.7539,7.32032 l 0.053,-0.0996 -3.3321,-48.69727 c 0,-8.02368 -2.2842,-12.96088 -6.8515,-14.8125 -0.4938,-0.24688 -1.0488,-0.43124 -1.666,-0.55469 -0.6173,-0.12344 -1.2344,-0.18554 -1.8516,-0.18554 -3.5798,0 -7.7155,2.16002 -12.4063,6.48047 -1.6047,1.48129 -4.1354,4.69125 -7.5918,9.6289 -3.086,4.32045 -6.1717,9.31975 -9.2578,14.99805 -2.9626,5.6783 -5.1226,11.3549 -6.4804,17.0332 -0.1235,0.86409 -0.3098,1.72966 -0.5567,2.59375 -0.1234,0.74065 -0.1836,1.48006 -0.1836,2.22071 0,2.46882 0.8015,4.62884 2.4063,6.48046 1.6047,1.72818 3.5183,3.08669 5.7402,4.07422 2.222,0.86409 4.3199,1.29688 6.2949,1.29688 1.7282,0 3.3332,-0.24647 4.8145,-0.74024 5.9252,-1.72817 10.8624,-4.81587 14.8125,-9.25976 l 2.1953,31.90234 -0.5273,3.09375 c 0.2437,-0.0638 0.4853,-0.12644 0.7265,-0.18945 l 0.014,0.18945 0.1211,-0.22461 c 4.8373,-1.26273 9.1787,-2.36045 13.0254,-3.29297 4.197,-0.98753 7.8378,-1.91325 10.9238,-2.77734 6.2955,-1.60474 12.6533,-7.22119 19.0723,-16.84961 l 1.8515,23.14453 c 17.2818,-4.197 28.144,-7.46711 32.5879,-9.8125 12.4676,-6.66583 20.4925,-17.03511 24.0723,-31.10742 0.7406,-2.71571 1.2957,-5.80146 1.666,-9.25781 0.4938,-3.5798 0.618,-7.16044 0.3711,-10.74024 z m -113.5039,55.17773 c 3.5798,0 5.864,1.41867 6.8516,4.25782 0.9875,2.83915 1.4804,6.11121 1.4804,9.81445 0,0.61721 -0.062,1.23436 -0.1855,1.85156 0,0.61721 -0.062,1.23436 -0.1856,1.85157 l -2.9609,0.74023 c -0.8641,0.12344 -1.7918,0.18555 -2.7793,0.18555 -2.9626,0 -5.6155,-0.55505 -7.9609,-1.66602 -2.222,-1.23441 -3.827,-2.77729 -4.8145,-4.62891 -0.6172,-0.98753 -0.9258,-1.8531 -0.9258,-2.59375 0,-0.86408 0.3707,-1.7277 1.1114,-2.59179 0.7406,-0.98753 1.5421,-1.91326 2.4062,-2.77735 0.9875,-0.86409 2.0375,-1.7277 3.1485,-2.59179 1.3578,-1.23442 2.9628,-1.85157 4.8144,-1.85157 z"
       id="path17" />
    <path
       style="font-style:normal;font-variant:normal;font-weight:normal;font-stretch:normal;font-size:185.162px;font-family:'Aref Ruqaa';-inkscape-font-specification:'Aref Ruqaa, Normal';font-variant-ligatures:normal;font-variant-caps:normal;font-variant-numeric:normal;font-variant-east-asian:normal;text-align:center;writing-mode:lr-tb;direction:ltr;text-anchor:middle;fill:#b7bdf9;fill-opacity:1;stroke-width:17.3388"
       d="m 1437.8926,495.02734 -13.7012,21.84766 5.1836,78.69531 13.7031,-21.84961 z"
       id="path15" />
    <path
       style="font-style:normal;font-variant:normal;font-weight:normal;font-stretch:normal;font-size:185.162px;font-family:'Aref Ruqaa';-inkscape-font-specification:'Aref Ruqaa, Normal';font-variant-ligatures:normal;font-variant-caps:normal;font-variant-numeric:normal;font-variant-east-asian:normal;text-align:center;writing-mode:lr-tb;direction:ltr;text-anchor:middle;fill:#b7bdf9;fill-opacity:1;stroke-width:17.3388"
       d="m 1279.209,495.02734 -13.7012,21.84766 5.1836,78.69531 13.7031,-21.84961 z"
       id="path14" />
    <path
       style="font-style:normal;font-variant:normal;font-weight:normal;font-stretch:normal;font-size:185.162px;font-family:'Aref Ruqaa';-inkscape-font-specification:'Aref Ruqaa, Normal';font-variant-ligatures:normal;font-variant-caps:normal;font-variant-numeric:normal;font-variant-east-asian:normal;text-align:center;writing-mode:lr-tb;direction:ltr;text-anchor:middle;fill:#b7bdf9;fill-opacity:1;stroke-width:17.3388"
       d="m 883.14844,495.02734 -13.70117,21.84766 5.18359,78.69531 13.70117,-21.84961 z"
       id="path13" />
    <g
       id="g28">
      <path
         style="font-style:normal;font-variant:normal;font-weight:normal;font-stretch:normal;font-size:185.162px;font-family:'Aref Ruqaa';-inkscape-font-specification:'Aref Ruqaa, Normal';font-variant-ligatures:normal;font-variant-caps:normal;font-variant-numeric:normal;font-variant-east-asian:normal;text-align:center;writing-mode:lr-tb;direction:ltr;text-anchor:middle;fill:#ebd59e;fill-opacity:1;stroke-width:17.3388"
         d="m 703.17188,655.5625 c -6.17207,2.22194 -12.65409,4.50618 -19.44336,6.85156 -6.66584,2.34539 -12.96154,4.75188 -18.88672,7.22071 l -6.10938,9.6289 c 5.6783,-2.83915 12.03611,-5.49406 19.07227,-7.96289 6.91271,-2.59227 13.57714,-4.99876 19.99609,-7.2207 z"
         id="path27" />
      <path
         style="font-style:normal;font-variant:normal;font-weight:normal;font-stretch:normal;font-size:185.162px;font-family:'Aref Ruqaa';-inkscape-font-specification:'Aref Ruqaa, Normal';font-variant-ligatures:normal;font-variant-caps:normal;font-variant-numeric:normal;font-variant-east-asian:normal;text-align:center;writing-mode:lr-tb;direction:ltr;text-anchor:middle;fill:#ebd59e;fill-opacity:1;stroke-width:17.3388"
         d="m 1454.373,639.26758 c -6.172,2.22194 -12.6521,4.50618 -19.4414,6.85156 -6.6658,2.34539 -12.9615,4.75188 -18.8867,7.2207 l -6.1113,9.62891 c 5.6783,-2.83915 12.0361,-5.49406 19.0723,-7.96289 6.9127,-2.59227 13.5791,-4.99876 19.998,-7.2207 z"
         id="path26" />
      <path
         style="font-style:normal;font-variant:normal;font-weight:normal;font-stretch:normal;font-size:185.162px;font-family:'Aref Ruqaa';-inkscape-font-specification:'Aref Ruqaa, Normal';font-variant-ligatures:normal;font-variant-caps:normal;font-variant-numeric:normal;font-variant-east-asian:normal;text-align:center;writing-mode:lr-tb;direction:ltr;text-anchor:middle;fill:#ebd59e;fill-opacity:1;stroke-width:17.3388"
         d="m 649.47461,632.23242 c -6.17207,2.22195 -12.65213,4.50423 -19.44141,6.84961 -6.66583,2.34539 -12.96153,4.75383 -18.88672,7.22266 l -6.11132,9.62695 c 5.6783,-2.83915 12.03611,-5.49211 19.07226,-7.96094 6.91272,-2.59226 13.5791,-4.99876 19.99805,-7.2207 z"
         id="path25" />
      <path
         style="font-style:normal;font-variant:normal;font-weight:normal;font-stretch:normal;font-size:185.162px;font-family:'Aref Ruqaa';-inkscape-font-specification:'Aref Ruqaa, Normal';font-variant-ligatures:normal;font-variant-caps:normal;font-variant-numeric:normal;font-variant-east-asian:normal;text-align:center;writing-mode:lr-tb;direction:ltr;text-anchor:middle;fill:#ebd59e;fill-opacity:1;stroke-width:17.3388"
         d="m 1162.1875,496.87891 c -6.1721,2.22194 -12.6521,4.50422 -19.4414,6.84961 -6.6658,2.34538 -12.9615,4.75383 -18.8867,7.22265 l -6.1114,9.62695 c 5.6783,-2.83915 12.0362,-5.55421 19.0723,-8.14648 6.9127,-2.46883 13.5791,-4.81516 19.9981,-7.03711 z"
         id="path16" />
      <path
         style="font-style:normal;font-variant:normal;font-weight:normal;font-stretch:normal;font-size:185.162px;font-family:'Aref Ruqaa';-inkscape-font-specification:'Aref Ruqaa, Normal';font-variant-ligatures:normal;font-variant-caps:normal;font-variant-numeric:normal;font-variant-east-asian:normal;text-align:center;writing-mode:lr-tb;direction:ltr;text-anchor:middle;fill:#ebd59e;fill-opacity:1;stroke-width:17.3388"
         d="m 530.78516,492.06445 c -6.17207,2.22195 -12.65214,4.50423 -19.44141,6.84961 -6.66583,2.34539 -12.96153,4.75383 -18.88672,7.22266 l -6.11133,9.62695 c 5.6783,-2.83915 12.03611,-5.55421 19.07227,-8.14648 6.91271,-2.46883 13.5791,-4.81321 19.99805,-7.03516 z"
         id="path12" />
      <path
         style="font-style:normal;font-variant:normal;font-weight:normal;font-stretch:normal;font-size:185.162px;font-family:'Aref Ruqaa';-inkscape-font-specification:'Aref Ruqaa, Normal';font-variant-ligatures:normal;font-variant-caps:normal;font-variant-numeric:normal;font-variant-east-asian:normal;text-align:center;writing-mode:lr-tb;direction:ltr;text-anchor:middle;fill:#ebd59e;fill-opacity:1;stroke-width:17.3388"
         d="m 1392.8984,486.50977 -3.332,3.14648 v 0.74023 c 0,2.34539 -0.4929,4.56752 -1.4805,6.66602 -0.8641,1.97506 -2.2847,3.0871 -4.2597,3.33398 h -0.3711 c -1.111,0 -2.4676,-0.80346 -4.0723,-2.4082 -1.3578,-1.35785 -2.0371,-3.51788 -2.0371,-6.48047 v -1.11133 -1.10937 -0.37109 c 0.1234,-0.12345 0.1855,-0.24766 0.1855,-0.3711 v -0.18359 l -2.7773,2.77734 c -0.2469,3.95012 -1.421,7.22023 -3.5195,9.8125 -0.6172,0.86409 -1.6031,1.48124 -2.961,1.85156 -1.3578,0.49377 -2.6542,0.74219 -3.8886,0.74219 -1.6048,0 -2.8391,-0.49489 -3.7032,-1.48242 -0.864,-0.98753 -1.3589,-2.22183 -1.4824,-3.70312 v -0.92579 c 0,-1.35785 0.1863,-2.65425 0.5567,-3.88867 0.2468,-1.23441 0.3691,-2.4066 0.3691,-3.51758 v -0.18554 c -0.7406,0 -1.2957,0.49489 -1.666,1.48242 l -1.1113,2.2207 v 0.3711 c -0.1235,0 -0.1856,0.0621 -0.1856,0.18554 v 0.1836 c -0.1234,0 -0.1836,0.0621 -0.1836,0.18554 -0.3703,1.35786 -0.8031,3.08705 -1.2969,5.18555 -0.4937,1.97506 -0.7402,3.88861 -0.7402,5.74023 0,2.83916 0.6172,5.12144 1.8516,6.84961 1.2344,1.72818 3.3323,2.71601 6.2949,2.96289 2.4688,-0.24688 4.8152,-1.29681 7.0371,-3.14843 2.2219,-1.72818 3.5183,-3.76399 3.8887,-6.10938 0.7406,1.35786 1.7265,2.71637 2.9609,4.07422 1.3579,1.35786 3.1492,2.03516 5.3711,2.03516 1.6047,0 2.9613,-0.55505 4.0723,-1.66602 2.4688,-2.46883 4.0738,-5.92525 4.8144,-10.36914 0.7407,-4.56733 1.2957,-9.07174 1.666,-13.51562 z"
         id="path11" />
      <path
         style="font-style:normal;font-variant:normal;font-weight:normal;font-stretch:normal;font-size:185.162px;font-family:'Aref Ruqaa';-inkscape-font-specification:'Aref Ruqaa, Normal';font-variant-ligatures:normal;font-variant-caps:normal;font-variant-numeric:normal;font-variant-east-asian:normal;text-align:center;writing-mode:lr-tb;direction:ltr;text-anchor:middle;fill:#ebd59e;fill-opacity:1;stroke-width:17.3388"
         d="m 805.56641,486.50977 -3.33399,3.14648 v 0.74023 c 0,2.34539 -0.49294,4.56752 -1.48047,6.66602 -0.86409,1.97506 -2.2847,3.0871 -4.25976,3.33398 h -0.36914 c -1.11098,0 -2.46948,-0.80346 -4.07422,-2.4082 -1.35786,-1.35785 -2.03711,-3.51788 -2.03711,-6.48047 v -1.11133 -1.10937 -0.37109 c 0.12344,-0.12345 0.18555,-0.24766 0.18555,-0.3711 v -0.18359 l -2.77735,2.77734 c -0.24688,3.95012 -1.41907,7.22023 -3.51758,9.8125 -0.6172,0.86409 -1.60503,1.48124 -2.96289,1.85156 -1.35785,0.49377 -2.65426,0.74219 -3.88867,0.74219 -1.60474,0 -2.83903,-0.49489 -3.70312,-1.48242 -0.86409,-0.98753 -1.35898,-2.22183 -1.48243,-3.70312 v -0.92579 c 0,-1.35785 0.18632,-2.65425 0.55665,-3.88867 0.24688,-1.23441 0.36914,-2.4066 0.36914,-3.51758 v -0.18554 c -0.74065,0 -1.2957,0.49489 -1.66602,1.48242 l -1.11133,2.2207 v 0.3711 c -0.12344,0 -0.18359,0.0621 -0.18359,0.18554 v 0.1836 c -0.12344,0 -0.18555,0.0621 -0.18555,0.18554 -0.37032,1.35786 -0.80311,3.08705 -1.29687,5.18555 -0.49377,1.97506 -0.74024,3.88861 -0.74024,5.74023 0,2.83916 0.61715,5.12144 1.85156,6.84961 1.23442,1.72818 3.33233,2.71601 6.29493,2.96289 2.46882,-0.24688 4.81516,-1.29681 7.03711,-3.14843 2.22194,-1.72818 3.51834,-3.76399 3.88867,-6.10938 0.74065,1.35786 1.72847,2.71637 2.96289,4.07422 1.35785,1.35786 3.14719,2.03516 5.36914,2.03516 1.60474,0 2.96129,-0.55505 4.07226,-1.66602 2.46883,-2.46883 4.07381,-5.92525 4.81446,-10.36914 0.74065,-4.56733 1.29764,-9.07174 1.66797,-13.51562 z"
         id="path10" />
      <path
         style="font-style:normal;font-variant:normal;font-weight:normal;font-stretch:normal;font-size:185.162px;font-family:'Aref Ruqaa';-inkscape-font-specification:'Aref Ruqaa, Normal';font-variant-ligatures:normal;font-variant-caps:normal;font-variant-numeric:normal;font-variant-east-asian:normal;text-align:center;writing-mode:lr-tb;direction:ltr;text-anchor:middle;fill:#ebd59e;fill-opacity:1;stroke-width:17.3388"
         d="m 1013.1328,477.43555 c -6.1721,2.22194 -12.6541,4.50617 -19.44335,6.85156 -6.66583,2.34538 -12.96153,4.75188 -18.88672,7.2207 l -6.10937,9.62891 c 5.6783,-2.83915 12.03611,-5.55422 19.07226,-8.14649 6.91272,-2.46882 13.57718,-4.81516 19.99608,-7.03711 z"
         id="path9" />
      <path
         style="font-style:normal;font-variant:normal;font-weight:normal;font-stretch:normal;font-size:185.162px;font-family:'Aref Ruqaa';-inkscape-font-specification:'Aref Ruqaa, Normal';font-variant-ligatures:normal;font-variant-caps:normal;font-variant-numeric:normal;font-variant-east-asian:normal;text-align:center;writing-mode:lr-tb;direction:ltr;text-anchor:middle;fill:#ebd59e;fill-opacity:1;stroke-width:17.3388"
         d="m 1083.123,468.36328 c -6.172,2.22195 -12.6521,4.50618 -19.4414,6.85156 -6.6658,2.34539 -12.9615,4.75188 -18.8867,7.22071 l -6.1113,9.6289 c 5.6783,-2.83915 12.0361,-5.55617 19.0723,-8.14843 6.9127,-2.46883 13.5791,-4.81322 19.998,-7.03516 z"
         id="path8" />
      <path
         style="font-style:normal;font-variant:normal;font-weight:normal;font-stretch:normal;font-size:185.162px;font-family:'Aref Ruqaa';-inkscape-font-specification:'Aref Ruqaa, Normal';font-variant-ligatures:normal;font-variant-caps:normal;font-variant-numeric:normal;font-variant-east-asian:normal;text-align:center;writing-mode:lr-tb;direction:ltr;text-anchor:middle;fill:#ebd59e;fill-opacity:1;stroke-width:17.3388"
         d="m 1394.3809,460.40039 c -6.1721,2.22194 -12.6541,4.50618 -19.4434,6.85156 -6.6658,2.34539 -12.9596,4.75188 -18.8848,7.22071 l -6.1113,9.6289 c 5.6783,-2.83915 12.0361,-5.55421 19.0723,-8.14648 6.9127,-2.46883 13.5791,-4.81517 19.998,-7.03711 z"
         id="path7" />
      <path
         style="font-style:normal;font-variant:normal;font-weight:normal;font-stretch:normal;font-size:185.162px;font-family:'Aref Ruqaa';-inkscape-font-specification:'Aref Ruqaa, Normal';font-variant-ligatures:normal;font-variant-caps:normal;font-variant-numeric:normal;font-variant-east-asian:normal;text-align:center;writing-mode:lr-tb;direction:ltr;text-anchor:middle;fill:#ebd59e;fill-opacity:1;stroke-width:17.3388"
         d="m 807.04688,460.40039 c -6.17207,2.22194 -12.65214,4.50618 -19.44141,6.85156 -6.66583,2.34539 -12.96154,4.75188 -18.88672,7.22071 l -6.11133,9.6289 c 5.6783,-2.83915 12.03611,-5.55421 19.07227,-8.14648 6.91271,-2.46883 13.57909,-4.81517 19.99804,-7.03711 z"
         id="path6" />
      <path
         style="font-style:normal;font-variant:normal;font-weight:normal;font-stretch:normal;font-size:185.162px;font-family:'Aref Ruqaa';-inkscape-font-specification:'Aref Ruqaa, Normal';font-variant-ligatures:normal;font-variant-caps:normal;font-variant-numeric:normal;font-variant-east-asian:normal;text-align:center;writing-mode:lr-tb;direction:ltr;text-anchor:middle;fill:#ebd59e;fill-opacity:1;stroke-width:17.3388"
         d="m 1293.4668,456.50195 c -0.4629,0.008 -0.9558,0.0719 -1.4805,0.19532 -1.975,0.37032 -3.4558,1.04957 -4.4433,2.03711 -2.0985,1.97506 -4.1984,4.01282 -6.2969,6.11132 -1.9751,1.97506 -3.8886,4.07298 -5.7402,6.29492 -0.3704,0.12345 -0.8012,0.18555 -1.295,0.18555 -1.6047,-1.97506 -3.394,-2.84063 -5.3691,-2.59375 -1.9751,0.24688 -3.8285,1.17456 -5.5566,2.7793 -1.8517,1.48129 -3.4547,3.27064 -4.8125,5.36914 -1.3579,2.0985 -2.2836,4.07416 -2.7774,5.92578 -0.1234,0.37032 0.123,0.37032 0.7402,0 0.4938,-0.37032 0.8024,-0.61875 0.9258,-0.74219 2.8392,-2.71571 4.9371,-4.44294 6.2949,-5.18359 1.2345,-0.61721 2.2223,-0.74142 2.9629,-0.37109 0.6172,0.49376 1.3586,1.0488 2.2227,1.66601 0.8641,0.74065 2.2827,1.11133 4.2578,1.11133 1.8516,0.12344 4.6288,-0.61597 8.332,-2.2207 2.5923,-0.98753 4.9988,-2.22183 7.2207,-3.70313 2.3454,-1.48129 4.259,-3.21048 5.7403,-5.18555 1.111,-1.48129 2.0988,-3.14838 2.9629,-5 0.9875,-1.85162 0.8031,-3.57885 -0.5547,-5.18359 -0.8332,-1.01839 -1.9453,-1.51533 -3.334,-1.49219 z m -5.7402,7.1836 c 0.3703,0.0174 0.741,0.0955 1.1113,0.23437 1.111,0.24688 1.8523,0.73982 2.2226,1.48047 0.4938,0.74065 0.4317,1.29569 -0.1855,1.66602 -1.8516,0.86409 -3.8874,1.60545 -6.1094,2.22265 -2.0985,0.49377 -4.3206,0.98671 -6.666,1.48047 l 3.5176,-3.51758 c 1.2344,-1.23441 2.6531,-2.28435 4.2578,-3.14843 0.6172,-0.30861 1.2344,-0.4469 1.8516,-0.41797 z"
         id="path5" />
      <path
         style="font-style:normal;font-variant:normal;font-weight:normal;font-stretch:normal;font-size:185.162px;font-family:'Aref Ruqaa';-inkscape-font-specification:'Aref Ruqaa, Normal';font-variant-ligatures:normal;font-variant-caps:normal;font-variant-numeric:normal;font-variant-east-asian:normal;text-align:center;writing-mode:lr-tb;direction:ltr;text-anchor:middle;fill:#ebd59e;fill-opacity:1;stroke-width:17.3388"
         d="m 897.40625,456.50195 c -0.46291,0.008 -0.9578,0.0719 -1.48242,0.19532 -1.97506,0.37032 -3.45583,1.04957 -4.44336,2.03711 -2.0985,1.97506 -4.19642,4.01282 -6.29492,6.11132 -1.97506,1.97506 -3.88862,4.07298 -5.74024,6.29492 -0.37032,0.12345 -0.80311,0.18555 -1.29687,0.18555 -1.60474,-1.97506 -3.39408,-2.84063 -5.36914,-2.59375 -1.97506,0.24688 -3.82651,1.17456 -5.55469,2.7793 -1.85162,1.48129 -3.4566,3.27064 -4.81445,5.36914 -1.35786,2.0985 -2.28358,4.07416 -2.77735,5.92578 -0.12344,0.37032 0.12303,0.37032 0.74024,0 0.49376,-0.37032 0.80234,-0.61875 0.92578,-0.74219 2.83915,-2.71571 4.93902,-4.44294 6.29687,-5.18359 1.23442,-0.61721 2.22029,-0.74142 2.96094,-0.37109 0.61721,0.49376 1.35857,1.0488 2.22266,1.66601 0.86409,0.74065 2.28275,1.11133 4.25781,1.11133 1.85162,0.12344 4.63074,-0.61597 8.33398,-2.2207 2.59227,-0.98753 4.99876,-2.22183 7.22071,-3.70313 2.34538,-1.48129 4.25894,-3.21048 5.74023,-5.18555 1.11097,-1.48129 2.0988,-3.14838 2.96289,-5 0.98753,-1.85162 0.80122,-3.57885 -0.55664,-5.18359 -0.83323,-1.01839 -1.94331,-1.51533 -3.33203,-1.49219 z m -5.74023,7.1836 c 0.37032,0.0174 0.741,0.0955 1.11132,0.23437 1.11098,0.24688 1.85038,0.73982 2.22071,1.48047 0.49376,0.74065 0.43361,1.29569 -0.1836,1.66602 -1.85162,0.86409 -3.88938,1.60545 -6.11133,2.22265 -2.0985,0.49377 -4.32063,0.98671 -6.66601,1.48047 l 3.51758,-3.51758 c 1.23441,-1.23441 2.65503,-2.28435 4.25976,-3.14843 0.61721,-0.30861 1.23436,-0.4469 1.85157,-0.41797 z"
         id="path4" />
      <path
         style="font-style:normal;font-variant:normal;font-weight:normal;font-stretch:normal;font-size:185.162px;font-family:'Aref Ruqaa';-inkscape-font-specification:'Aref Ruqaa, Normal';font-variant-ligatures:normal;font-variant-caps:normal;font-variant-numeric:normal;font-variant-east-asian:normal;text-align:center;writing-mode:lr-tb;direction:ltr;text-anchor:middle;fill:#ebd59e;fill-opacity:1;stroke-width:17.3388"
         d="m 1205.1445,453.91992 -3.332,3.14844 v 0.74023 c 0,2.34539 -0.4949,4.56752 -1.4824,6.66602 -0.8641,1.97506 -2.2828,3.08515 -4.2578,3.33203 h -0.3711 c -1.111,0 -2.4676,-0.80151 -4.0723,-2.40625 -1.3578,-1.35785 -2.0371,-3.51788 -2.0371,-6.48047 v -1.11133 -1.11132 -0.36915 c 0.1234,-0.12344 0.1855,-0.24765 0.1855,-0.37109 v -0.18555 L 1187,458.54883 c -0.2469,3.95012 -1.421,7.22218 -3.5195,9.81445 -0.6172,0.86409 -1.6051,1.48124 -2.9629,1.85156 -1.3579,0.49377 -2.6523,0.74024 -3.8867,0.74024 -1.6048,0 -2.8391,-0.49294 -3.7032,-1.48047 -0.8641,-0.98753 -1.3589,-2.22183 -1.4824,-3.70313 v -0.92578 c 0,-1.35785 0.1844,-2.65426 0.5547,-3.88867 0.2469,-1.23441 0.3711,-2.4066 0.3711,-3.51758 v -0.18554 c -0.7407,0 -1.2957,0.49293 -1.666,1.48047 l -1.1113,2.22265 v 0.36914 c -0.1235,0 -0.1856,0.0621 -0.1856,0.18555 v 0.18555 c -0.1234,0 -0.1855,0.0621 -0.1855,0.18554 -0.3704,1.35786 -0.8012,3.08509 -1.295,5.1836 -0.4937,1.97506 -0.7402,3.88861 -0.7402,5.74023 0,2.83915 0.6171,5.12338 1.8516,6.85156 1.2344,1.72818 3.3323,2.71601 6.2949,2.96289 2.4688,-0.24688 4.8132,-1.29681 7.0351,-3.14843 2.222,-1.72818 3.5184,-3.76399 3.8887,-6.10938 0.7407,1.35786 1.7285,2.71441 2.9629,4.07227 1.3579,1.35785 3.1472,2.03711 5.3691,2.03711 1.6048,0 2.9633,-0.55505 4.0743,-1.66602 2.4688,-2.46883 4.0738,-5.92525 4.8144,-10.36914 0.7407,-4.56733 1.2957,-9.07369 1.666,-13.51758 z"
         id="path3" />
      <path
         style="font-style:normal;font-variant:normal;font-weight:normal;font-stretch:normal;font-size:185.162px;font-family:'Aref Ruqaa';-inkscape-font-specification:'Aref Ruqaa, Normal';font-variant-ligatures:normal;font-variant-caps:normal;font-variant-numeric:normal;font-variant-east-asian:normal;text-align:center;writing-mode:lr-tb;direction:ltr;text-anchor:middle;fill:#ebd59e;fill-opacity:1;stroke-width:17.3388"
         d="m 1206.627,427.8125 c -6.1721,2.22194 -12.6541,4.50618 -19.4434,6.85156 -6.6658,2.34539 -12.9615,4.75188 -18.8867,7.22071 l -6.1094,9.6289 c 5.6783,-2.83915 12.0361,-5.55421 19.0723,-8.14648 6.9127,-2.46883 13.5771,-4.81517 19.9961,-7.03711 z"
         id="path2" />
      <path
         style="font-style:normal;font-variant:normal;font-weight:normal;font-stretch:normal;font-size:185.162px;font-family:'Aref Ruqaa';-inkscape-font-specification:'Aref Ruqaa, Normal';font-variant-ligatures:normal;font-variant-caps:normal;font-variant-numeric:normal;font-variant-east-asian:normal;text-align:center;writing-mode:lr-tb;direction:ltr;text-anchor:middle;fill:#ebd59e;fill-opacity:1;stroke-width:17.3388"
         d="m 708.76482,481.92824 c -0.49377,0.12344 -0.74024,0.43202 -0.74024,0.92578 -0.49376,0.98753 -0.98865,2.03551 -1.48242,3.14649 -0.49376,1.11097 -0.9867,2.1609 -1.48047,3.14843 0.24689,1.11098 0.55546,2.22106 0.92578,3.33204 1.35786,3.45635 2.77847,6.91278 4.25977,10.36914 1.4813,3.33291 2.28281,7.34633 2.40625,12.03711 v 1.48046 c 0,1.97507 -0.18436,4.19719 -0.55469,6.66602 v 0.18555 h -0.18554 c 0,0.37032 0.12225,0.55468 0.36914,0.55468 h 0.18554 c 0.12344,0 0.36991,-0.18436 0.74024,-0.55468 1.60473,-1.72818 2.83903,-3.70384 3.70312,-5.92578 0.86409,-2.09851 1.29688,-4.5671 1.29688,-7.40625 v -0.3711 c 0,-1.23441 -0.12421,-2.4066 -0.3711,-3.51758 -0.12344,-1.11097 -0.3078,-2.28316 -0.55468,-3.51757 -0.86409,-3.5798 -2.03629,-6.97412 -3.51758,-10.1836 -1.4813,-3.33291 -2.83981,-6.60498 -4.07422,-9.81445 -0.12344,-0.37033 -0.36991,-0.55469 -0.74024,-0.55469 z"
         id="text1" />
    </g>
  </g>
</svg>
