<?xml version="1.0" encoding="UTF-8" standalone="no"?>
<!-- Created with Inkscape (http://www.inkscape.org/) -->

<svg
   version="1.1"
   id="svg2"
   width="1920"
   height="1080"
   viewBox="0 0 2619.0544 1473.2181"
   xmlns:xlink="http://www.w3.org/1999/xlink"
   xmlns="http://www.w3.org/2000/svg"
   xmlns:svg="http://www.w3.org/2000/svg">
  <defs
     id="defs6">
    <linearGradient
       id="linearGradient1">
      <stop
         style="stop-color:#ed8796;stop-opacity:1;"
         offset="0"
         id="stop1" />
      <stop
         style="stop-color:#eed49f;stop-opacity:1;"
         offset="1"
         id="stop2" />
    </linearGradient>
    <linearGradient
       xlink:href="#linearGradient1"
       id="linearGradient2"
       x1="1001.4044"
       y1="957.26874"
       x2="1532.1215"
       y2="426.55173"
       gradientUnits="userSpaceOnUse" />
  </defs>
  <rect
     style="fill:#1e1e28;fill-opacity:1;stroke-width:1.28237"
     id="rect9319"
     width="2619.0544"
     height="1473.2181"
     x="-2.1679687e-05"
     y="-1.982422e-05" />
  <g
     id="g2"
     transform="translate(42.764315,44.698815)">
    <path
       id="path297"
       style="display:none;fill:#eed49f;fill-opacity:1;stroke-width:1.34068"
       d="m 1587.2049,250.54512 c -0.1895,0.0306 -0.028,0.43916 0.5036,1.23887 6.8795,10.34384 21.8398,49.57346 43.6589,114.49571 10.5622,31.42757 12.093,38.03689 9.6952,41.82058 -3.5962,5.67465 -10.368,-2.93523 -25.7046,-32.67957 -7.6711,-14.87744 -9.4948,-17.63076 -8.8613,-13.37182 8.4764,56.98144 15.5592,159.15729 22.9578,331.14637 7.5287,175.01643 5.8623,255.63729 -6.7059,324.44584 -8.9204,48.837 -19.3423,68.2695 -45.2468,84.3578 -26.3713,16.3782 -89.8431,38.679 -119.4645,41.9751 l -9.2529,1.0311 11.8691,11.2324 11.8719,11.2324 8.7787,-0.7566 c 18.151,-1.5649 64.1372,-15.4887 91.5806,-27.7268 34.5145,-15.3914 48.4467,-26.4751 58.0191,-46.1632 20.3285,-41.8106 30.216,-142.38683 26.2428,-266.90094 -5.3156,-166.57881 -14.6147,-334.38209 -22.2171,-400.86153 -1.0119,-8.84845 -1.6819,-16.24565 -1.4893,-16.43836 0.1925,-0.19271 6.5727,5.48553 14.179,12.61784 l 13.8301,12.96685 2.4671,-3.04522 c 1.3566,-1.67535 2.4644,-4.03702 2.4644,-5.24856 0,-3.18133 -24.8249,-76.79797 -36.2416,-107.4701 -15.1928,-40.81661 -16.2698,-42.77067 -32.0988,-58.28558 -6.5208,-6.3914 -10.2667,-9.70447 -10.8355,-9.61258 z m -378.2128,3.36227 c -2.005,-1.85148 -1.4493,-1.08835 2.1501,2.73884 36.1243,38.41071 46.1411,61.77487 44.6206,104.06255 -0.7206,20.04159 -4.3685,44.90434 -6.8417,46.62952 -0.9635,0.67208 2.7497,5.05473 10.3692,12.23952 8.8346,8.33055 12.5487,11.01672 14.5254,10.49977 1.4608,-0.38198 2.0929,-1.06521 1.4041,-1.51595 -0.751,-0.49138 -0.2375,-6.45488 1.2815,-14.89577 3.6914,-20.51295 3.6789,-54.62934 -0.024,-68.54822 -6.5199,-24.50767 -20.1443,-44.1543 -54.2732,-78.25672 -6.6415,-6.63634 -11.207,-11.10205 -13.212,-12.95354 z m -38.2505,1.02307 c -0.1225,0.30375 -0.1971,0.95391 -0.1971,1.87562 0,1.84343 0.3021,2.59753 0.674,1.67581 0.3719,-0.92171 0.3719,-2.4299 0,-3.35161 -0.1859,-0.46086 -0.3543,-0.50357 -0.4769,-0.19982 z m 1.6012,12.15959 6.0319,6.33556 c 3.3181,3.4841 11.0967,10.6735 17.2856,15.97479 6.1888,5.30126 13.4297,11.58144 16.0893,13.95795 2.6596,2.37651 5.0206,4.3387 5.2459,4.3587 0.2252,0.0199 -2.1884,-3.00902 -5.3631,-6.72987 -5.1149,-5.99471 -17.7107,-17.02341 -33.9265,-29.70362 z m 391.217,38.78867 c -0.1225,0.30375 -0.1971,0.95125 -0.1971,1.87296 0,1.84343 0.3021,2.59752 0.674,1.67581 0.3719,-0.92172 0.3719,-2.42991 0,-3.35162 -0.1859,-0.46086 -0.3543,-0.5009 -0.4769,-0.19715 z m 10.6889,35.89797 c -0.1409,0.14096 -0.2342,0.60982 -0.2664,1.39073 -0.058,1.41329 0.2579,2.20655 0.7034,1.76106 0.4454,-0.44549 0.4938,-1.6032 0.1066,-2.57099 -0.214,-0.53475 -0.4026,-0.72176 -0.5436,-0.5808 z m -153.311,16.05737 c -0.055,0.10576 -0.366,1.70268 -0.6927,3.54611 -2.0642,11.64689 -11.6501,34.66499 -17.131,41.13586 -5.234,6.1793 -15.9885,10.28196 -183.8486,70.13079 -138.0587,49.22345 -136.5164,48.61388 -154.1769,60.88587 -4.4242,3.07431 -8.8795,6.1062 -9.9003,6.7352 -1.0208,0.62902 0.164,-2.64512 2.6323,-7.27604 6.9749,-13.0863 6.2951,-15.50764 -8.5549,-30.50555 l -12.2768,-12.40203 -14.1045,0.28507 -14.1045,0.28507 14.4135,0.42895 14.4109,0.4316 v 18.23406 18.23406 l -12.1862,12.42868 c -14.4333,14.71783 -28.25615,24.96891 -44.79122,33.21774 -24.83295,12.38843 -48.64604,18.39509 -74.45751,18.78289 l -15.46591,0.23446 10.59568,10.05484 c 5.82893,5.53028 11.88514,10.83447 13.45708,11.7866 3.8948,2.35911 26.47171,1.11893 43.75481,-2.40315 35.64123,-7.2632 63.79377,-22.27846 89.47847,-47.7192 l 13.7395,-13.60627 8.2112,6.59133 c 7.8224,6.27793 8.3304,6.48131 10.7289,4.31074 2.1502,-1.94596 2.5177,-4.2771 2.5177,-15.96679 0,-11.92705 0.3683,-14.15366 2.8507,-17.30957 2.5344,-3.22199 3.4597,-3.52826 8.3791,-2.77081 9.0104,1.38739 21.4724,5.84541 28.1184,10.06017 3.4156,2.16612 6.0654,3.23672 5.8879,2.3765 -0.3993,-1.93547 60.5285,-24.16751 63.3184,-23.10429 1.0836,0.41305 1.6074,0.38986 1.1642,-0.0533 -0.9656,-0.96563 2.4745,-5.34231 11.9598,-15.21814 3.8765,-4.03615 7.3783,-7.00591 7.7849,-6.59932 0.4066,0.4066 -0.1852,6.95335 -1.3161,14.54675 -1.131,7.59341 -2.7604,22.59082 -3.6207,33.32698 -2.0444,25.5124 -0.3646,37.36636 6.229,43.95995 3.2805,3.28058 5.5175,4.35993 8.8772,4.28943 8.514,-0.17862 8.4852,-0.11215 8.7947,-20.68516 0.1553,-10.32319 1.3872,-26.18321 2.7361,-35.24256 l 2.4511,-16.47034 -6.5273,-7.32665 c -4.378,-4.912 -5.9436,-7.52936 -4.7477,-7.94477 0.981,-0.34078 5.9774,-2.16962 11.1019,-4.06296 5.1245,-1.89335 10.1314,-3.12946 11.1285,-2.74684 0.9972,0.38263 1.4773,0.15175 1.0657,-0.51419 -0.4116,-0.66595 -0.2156,-1.41251 0.4343,-1.65983 0.6498,-0.24733 3.1492,-4.36841 5.5549,-9.15699 4.0655,-8.09239 4.4584,-8.47882 5.5656,-5.48567 2.0918,5.65478 7.6572,35.10089 9.7778,51.73155 2.6978,21.15741 4.2788,27.81745 8.9678,37.80823 4.5412,9.67581 10.1975,14.51757 15.4313,13.20397 3.0682,-0.77009 3.3536,-1.3405 2.5763,-5.15797 -0.4808,-2.36106 -2.0172,-12.74113 -3.4156,-23.06432 -1.3984,-10.32319 -4.0895,-26.0078 -5.9785,-34.85625 -1.889,-8.84846 -3.4355,-16.57654 -3.4395,-17.17369 0,-0.59716 -2.9844,-4.23561 -6.6233,-8.08331 l -6.618,-6.99363 18.3486,-6.52472 c 43.7471,-15.55467 113.0545,-40.9789 122.8774,-45.07628 5.8758,-2.45092 12.0822,-5.96849 13.7928,-7.81421 4.0242,-4.34222 9.9692,-16.86917 14.2883,-30.10858 3.2472,-9.95362 3.3139,-10.71651 1.2708,-14.74657 -1.6625,-3.27951 -20.2322,-24.10826 -20.6958,-23.21352 z m 154.8616,7.86484 c -0.1007,0.66389 -0.1638,2.18388 -0.1678,4.39599 -0.01,4.4242 0.2376,6.39458 0.5435,4.38001 0.3059,-2.01455 0.3117,-5.63368 0.013,-8.04334 -0.1492,-1.20483 -0.2882,-1.39655 -0.389,-0.73266 z m -161.4636,2.38449 c -0.069,-0.0692 -0.6126,0.33579 -1.6758,1.1696 -1.2904,1.01201 -2.3472,2.06615 -2.3472,2.34454 0,1.10342 1.102,0.3949 2.8534,-1.83833 0.8338,-1.0632 1.2388,-1.60661 1.1696,-1.67581 z m -168.5504,15.25544 c -0.141,0.14096 -0.237,0.60982 -0.2691,1.39073 -0.058,1.41329 0.2578,2.20389 0.7033,1.7584 0.4455,-0.4455 0.4939,-1.60053 0.1066,-2.56832 -0.214,-0.53475 -0.3999,-0.72177 -0.5408,-0.58081 z m 331.3009,7.99006 c -0.1106,0.42241 -0.1844,1.42128 -0.1919,2.89603 -0.015,2.94944 0.2479,4.31371 0.5835,3.0319 0.3356,-1.2818 0.3473,-3.69277 0.027,-5.36045 -0.1603,-0.83384 -0.3077,-0.98989 -0.4183,-0.56748 z m -329.8569,2.09409 c -0.121,0.29912 -0.2048,1.03866 -0.2185,2.14471 -0.027,2.21212 0.2509,3.27885 0.6181,2.37118 0.3673,-0.90768 0.3905,-2.71857 0.051,-4.02301 -0.1699,-0.65221 -0.3292,-0.792 -0.4502,-0.49288 z m 331.197,18.01559 c -0.1106,0.42241 -0.1844,1.42395 -0.1919,2.89869 -0.015,2.94945 0.248,4.31371 0.5835,3.03191 0.3356,-1.28181 0.3473,-3.69544 0.027,-5.36312 -0.1603,-0.83384 -0.3077,-0.98989 -0.4183,-0.56748 z m 1.3401,18.76957 c -0.1106,0.42241 -0.1817,1.42128 -0.1892,2.89603 -0.015,2.94945 0.2453,4.31638 0.5808,3.03457 0.3356,-1.28181 0.35,-3.69544 0.029,-5.36312 -0.1603,-0.83384 -0.3103,-0.98989 -0.4209,-0.56748 z m -89.9927,14.70394 c -1.3044,0.33991 -0.563,0.64142 1.6492,0.66872 2.2121,0.0273 3.2788,-0.25085 2.3711,-0.6181 -0.9076,-0.36726 -2.7159,-0.39053 -4.0203,-0.0506 z m 91.2955,5.00877 c -0.1111,0.42524 -0.1785,1.33388 -0.1785,2.62428 0,2.5808 0.2756,3.63759 0.6128,2.34719 0.3372,-1.2904 0.3372,-3.40399 0,-4.69439 -0.1686,-0.6452 -0.3232,-0.70232 -0.4343,-0.27708 z m -71.9904,5.46169 c -0.2197,0.0182 -0.1038,0.41251 0.3516,1.18559 3.5722,6.063 3.5692,13.37279 0,17.91701 -1.5283,1.94287 -3.4872,3.53278 -4.3534,3.53278 -0.8662,0 -4.3475,-3.01638 -7.737,-6.70322 -3.3895,-3.68686 -7.1203,-6.70323 -8.2911,-6.70323 -1.1708,0 -3.3209,1.67174 -4.777,3.71661 -4.8774,6.8497 -16.4049,43.66505 -19.6168,62.64694 -0.499,2.94948 -1.7345,6.64733 -2.7441,8.21652 -1.7173,2.66913 -1.1171,3.55526 9.3195,13.74215 6.1356,5.98885 11.8093,10.88874 12.6072,10.88874 1.5964,0 2.2109,-2.02578 8.3577,-27.48429 5.4566,-22.60007 12.4157,-41.94615 16.5875,-46.118 l 3.3143,-3.31431 7.4493,7.04691 c 4.401,4.16236 8.4007,6.86252 9.7751,6.59933 1.2795,-0.24502 3.5007,-2.62803 4.9341,-5.29651 4.4215,-8.23096 1.6901,-13.98057 -14.235,-29.9727 -6.5986,-6.62638 -10.2777,-9.955 -10.9367,-9.90032 z m -67.4985,11.32302 c -0.035,0.0839 0.3432,0.58396 1.1802,1.54526 6.3856,7.33397 10.8082,17.44194 15.2634,34.88289 1.3624,5.33336 2.8374,9.25517 3.2797,8.71473 0.4424,-0.54043 1.8412,-5.48276 3.1092,-10.98199 l 2.3072,-9.9989 -15.0236,-14.80518 c -6.1972,-6.1066 -10.0103,-9.60857 -10.1161,-9.35681 z m 140.829,1.98486 c -0.1111,0.42525 -0.1785,1.33387 -0.1785,2.62428 0,2.58079 0.2756,3.63759 0.6128,2.34719 0.3372,-1.2904 0.3372,-3.40399 0,-4.69439 -0.1686,-0.6452 -0.3232,-0.70233 -0.4343,-0.27708 z m -172.9465,2.68023 c -0.1111,0.42524 -0.1785,1.33387 -0.1785,2.62427 0,2.5808 0.2756,3.6376 0.6128,2.3472 0.3372,-1.2904 0.3372,-3.40132 0,-4.69173 -0.1686,-0.6452 -0.3231,-0.70499 -0.4343,-0.27974 z m -101.694,7.84885 c -0.4846,0.19563 -0.6822,0.8457 -0.6687,1.89427 0.012,0.96662 0.5182,0.81386 1.2788,-0.38898 0.9685,-1.53163 2.0065,-0.29121 4.5319,5.41907 4.3022,9.72808 8.0592,22.06948 10.9953,36.11643 2.9533,14.12916 3.3514,41.7956 0.7513,52.28571 -5.7263,23.10292 -21.105,37.3698 -35.882,33.28968 -6.8194,-1.88296 -15.9619,-10.82915 -18.7136,-18.31132 -2.5461,-6.92323 -4.5352,-9.91968 -4.5558,-6.86575 -0.027,3.97164 -6.6748,16.06291 -12.0184,21.86009 -3.036,3.29364 -8.1356,7.21946 -11.3337,8.72272 -12.8291,6.03039 -30.4722,4.78905 -39.0551,-2.74683 -2.5364,-2.22701 -4.6118,-3.78683 -4.6118,-3.46618 0,0.32063 6.7104,6.83724 14.9144,14.48015 11.4386,10.6562 16.5203,14.44975 21.7882,16.27051 18.166,6.27879 36.7339,-0.69671 47.2609,-17.75183 2.6963,-4.36827 5.1937,-7.9421 5.5523,-7.9421 0.3586,0 4.7726,3.8855 9.8071,8.6348 10.062,9.49201 15.6176,11.87912 23.5172,10.09747 12.4767,-2.81395 22.6033,-15.90665 26.7863,-34.63245 3.2395,-14.50226 2.0128,-41.92081 -2.6749,-59.82285 -6.8688,-26.23174 -9.1994,-30.74863 -23.3521,-45.22547 -8.8098,-9.01158 -12.8639,-12.50405 -14.3176,-11.91714 z m 275.9833,8.24049 c -0.1111,0.42525 -0.1812,1.33388 -0.1812,2.62428 0,2.58079 0.2756,3.63759 0.6128,2.34719 0.3372,-1.2904 0.3372,-3.40399 0,-4.69439 -0.1686,-0.6452 -0.3205,-0.70233 -0.4316,-0.27708 z m -164.8685,1.01241 c -1.6289,-0.32945 0.3907,1.76862 8.054,9.49535 5.8257,5.87397 12.7639,11.78269 15.4179,13.12938 2.6541,1.3467 5.0407,2.939 5.3019,3.53811 0.2611,0.59904 0.7134,0.84783 1.0071,0.55416 0.2937,-0.29368 -1.6733,-6.06889 -4.372,-12.83631 l -4.9076,-12.30612 -6.2103,0.82591 c -4.3163,0.57256 -7.8311,0.15106 -11.5202,-1.38007 -1.2802,-0.53136 -2.2278,-0.91059 -2.7708,-1.02041 z m -482.83488,1.99285 c -2.02778,0.30718 -0.36823,0.55683 3.68731,0.55683 4.05555,0 5.71508,-0.24965 3.68731,-0.55683 -2.02777,-0.30719 -5.34685,-0.30719 -7.37462,0 z m 311.94788,6.99363 c 0,-0.73737 -0.8618,0.16541 -1.9156,2.00884 -1.0538,1.84343 -1.9183,3.95702 -1.9183,4.69439 0,0.73737 0.8645,-0.16807 1.9183,-2.0115 1.0538,-1.84343 1.9156,-3.95436 1.9156,-4.69173 z m 337.0956,8.77068 c -0.1111,0.42525 -0.1812,1.33388 -0.1812,2.62428 0,2.58079 0.2756,3.63759 0.6128,2.34719 0.3372,-1.2904 0.3372,-3.40398 0,-4.69439 -0.1686,-0.6452 -0.3205,-0.70233 -0.4316,-0.27708 z m -395.0402,13.55033 c -0.065,-0.099 -0.5649,0.50483 -1.5479,1.73175 -1.1467,1.43133 -2.0834,3.19177 -2.0834,3.91111 0,1.70337 0.6192,0.94139 2.5736,-3.16246 0.7526,-1.58016 1.1223,-2.3814 1.0577,-2.4804 z m -191.32704,4.37734 c 0,-0.24987 -15.23321,-0.0884 -33.85183,0.35967 l -33.85183,0.81526 -4.81162,4.30008 c -2.64664,2.36452 -8.53071,6.91784 -13.07342,10.12145 -4.54273,3.20362 -8.25915,6.23016 -8.25915,6.72454 0,0.49438 4.81936,5.50307 10.71025,11.1312 5.89088,5.62811 11.17834,10.23334 11.7493,10.23334 1.55171,0 14.86659,-9.07911 22.09187,-15.06361 5.5614,-4.60635 7.0759,-5.20535 12.30879,-4.88355 5.65291,0.34762 6.78671,-0.25701 21.4791,-11.4589 8.53033,-6.50375 15.50854,-12.02962 15.50854,-12.27948 z m 587.70734,0.8419 c -0.1111,0.42525 -0.1812,1.33388 -0.1812,2.62428 0,2.58079 0.2783,3.63493 0.6155,2.34453 0.3372,-1.2904 0.3372,-3.40133 0,-4.69173 -0.1686,-0.6452 -0.3232,-0.70232 -0.4343,-0.27708 z m -392.28,10.13211 -2.8614,3.82052 c -1.5733,2.10202 -6.2984,8.70756 -10.4998,14.67996 -4.2013,5.97239 -8.625,11.96669 -9.831,13.31853 -1.2061,1.35186 -1.9909,2.61862 -1.7451,2.8161 0.2458,0.19748 4.5796,4.06885 9.6312,8.60283 5.0516,4.53398 9.6036,8.24316 10.1162,8.24316 0.5125,0 1.0078,-7.08954 1.1003,-15.75365 0.092,-8.66411 1.0505,-20.24559 2.1287,-25.73922 z m 393.6201,8.63746 c -0.1111,0.42525 -0.1785,1.33388 -0.1785,2.62428 0,2.58079 0.2756,3.63493 0.6128,2.34453 0.3372,-1.2904 0.3372,-3.40133 0,-4.69173 -0.1686,-0.6452 -0.3231,-0.70232 -0.4343,-0.27708 z m -451.1917,2.92001 c 11.6938,12.78591 19.757,34.34924 18.751,50.14899 -0.8809,13.83293 -4.1328,15.98061 -27.0554,17.87705 l -14.9224,1.2362 -17.4588,17.17103 c -21.4521,21.10258 -34.0993,30.21953 -60.2171,43.40047 -21.6652,10.93379 -36.66384,16.62851 -41.40764,15.72168 -1.98574,-0.3796 0.96863,3.22801 9.13834,11.1605 l 12.0743,11.72532 2.4298,-4.26279 c 1.3357,-2.34461 2.005,-3.05729 1.4867,-1.58255 -8.407,23.92057 -13.0493,49.86309 -13.1907,73.73816 -0.1235,20.858 1.3021,27.85922 6.7805,33.33764 2.8464,2.84638 4.7961,3.53012 10.0522,3.53012 h 6.5194 v -14.61336 c 0,-16.43215 3.5379,-39.84359 8.8985,-58.88503 2.5482,-9.05133 3.3123,-14.2472 2.7682,-18.84151 -0.6285,-5.30704 -0.3286,-6.60647 1.8357,-7.95808 3.3297,-2.07946 3.2666,-4.0493 -0.2478,-7.79024 l -2.8348,-3.01592 17.7598,-8.89856 c 28.3615,-14.21194 43.2513,-24.94135 64.4933,-46.46967 l 14.2457,-14.43752 14.7386,-1.39073 c 17.571,-1.65701 22.1612,-3.07457 25.3795,-7.84086 3.577,-5.29753 3.2262,-19.83168 -0.7673,-31.74175 -5.7935,-17.27826 -9.8413,-23.16854 -28.6006,-41.61809 -9.7139,-9.55356 -14.5066,-13.91845 -10.649,-9.7005 z m 117.4024,9.54331 c -0.1105,0.42241 -0.1843,1.42128 -0.1918,2.89602 -0.015,2.94945 0.2479,4.31372 0.5835,3.03191 0.3356,-1.28181 0.3473,-3.69277 0.027,-5.36045 -0.1604,-0.83384 -0.3077,-0.9899 -0.4183,-0.56748 z m 335.1294,6.30625 c -0.1111,0.42525 -0.1785,1.33388 -0.1785,2.62428 0,2.5808 0.2756,3.63493 0.6128,2.34453 0.3372,-1.2904 0.3372,-3.40133 0,-4.69173 -0.1686,-0.6452 -0.3231,-0.70232 -0.4343,-0.27708 z m -483.2238,4.24946 c -4.8494,-0.75549 -14.656,6.13318 -14.656,11.25908 0,2.42565 1.6142,4.2859 6.2956,7.25473 8.0991,5.13626 11.9012,5.22751 12.8443,0.30638 0.896,-4.67528 -0.8506,-16.09806 -2.7522,-17.9996 -0.4473,-0.44733 -1.0389,-0.71266 -1.7317,-0.82059 z m 17.8317,4.55053 c -0.3753,0.20629 -0.7188,0.60884 -1.1269,1.16693 -2.0913,2.86004 -3.8363,13.21927 -2.7175,16.13464 0.4347,1.13284 2.161,2.60941 3.8365,3.28234 4.5464,1.82602 12.2661,1.63217 15.0156,-0.37832 2.2383,-1.63666 2.2637,-2.08091 0.357,-5.76808 -1.136,-2.19692 -4.9162,-6.6221 -8.4003,-9.83371 -4.4138,-4.06847 -5.8382,-5.22267 -6.9644,-4.6038 z m 180.425,1.86763 c -0.3686,0 -1.7638,1.20547 -3.0985,2.68022 -1.3346,1.47474 -2.1244,2.68289 -1.7557,2.68289 0.3687,0 1.7612,-1.20815 3.0958,-2.68289 1.3347,-1.47475 2.1271,-2.68022 1.7584,-2.68022 z m -54.7128,2.68022 c -0.069,-0.0692 -0.6126,0.33846 -1.6758,1.17227 -1.2904,1.01201 -2.3472,2.06614 -2.3472,2.34453 0,1.10343 1.102,0.3949 2.8534,-1.83833 0.8338,-1.06319 1.2388,-1.60927 1.1696,-1.67847 z m 341.0227,5.42173 c -0.1111,0.42525 -0.1812,1.33388 -0.1812,2.62428 0,2.5808 0.2756,3.63493 0.6128,2.34453 0.3372,-1.2904 0.3372,-3.40133 0,-4.69173 -0.1686,-0.6452 -0.3205,-0.70232 -0.4316,-0.27708 z m -513.4789,2.68023 c -0.1112,0.42524 -0.1812,1.33387 -0.1812,2.62427 0,2.5808 0.2755,3.6376 0.6128,2.3472 0.3372,-1.2904 0.3372,-3.40133 0,-4.69173 -0.1686,-0.6452 -0.3205,-0.70499 -0.4316,-0.27974 z m 4.2015,15.362 5.2991,5.69615 c 2.9148,3.13383 5.4771,5.69881 5.6962,5.69881 1.0143,0 -2e-4,-1.1672 -5.2992,-6.09578 z m 510.6548,1.12431 c -0.1106,0.42241 -0.1843,1.42129 -0.1918,2.89603 -0.015,2.94945 0.2479,4.31372 0.5835,3.03191 0.3356,-1.28181 0.3473,-3.69278 0.027,-5.36045 -0.1604,-0.83384 -0.3077,-0.9899 -0.4183,-0.56749 z m -497.5441,12.11963 c -0.141,0.14096 -0.2369,0.60982 -0.2691,1.39073 -0.058,1.41328 0.2579,2.20657 0.7034,1.76107 0.4454,-0.44549 0.4938,-1.60321 0.1065,-2.57099 -0.214,-0.53475 -0.3999,-0.72177 -0.5408,-0.58081 z m 327.7628,4.18286 7.348,10.72623 c 10.3489,15.10543 19.9119,31.65911 31.7604,54.9686 11.165,21.96492 14.3261,30.11414 13.0094,33.54544 -0.7746,2.01872 -1.3533,1.93796 -5.8799,-0.81792 -11.5807,-7.05044 -14.7255,-8.20542 -17.8211,-6.5487 -2.6165,1.40029 -2.8342,2.27178 -2.0435,8.2325 0.4865,3.66747 6.3164,23.36908 12.9535,43.77879 27.2382,83.75992 35.3011,123.64376 35.2799,174.52636 -0.011,25.60256 -0.3458,30.0241 -2.9813,39.55064 -8.2068,29.66509 -25.0069,49.31669 -48.5931,56.83889 -14.972,4.7749 -38.4743,3.929 -55.0325,-1.9795 -12.3872,-4.4202 -17.4956,-7.3911 -26.0989,-15.1782 -3.7461,-3.3907 1.0785,1.5298 10.7236,10.934 22.7023,22.1356 34.5742,28.5612 58.6878,31.7658 23.7263,3.153 46.6103,-3.9823 62.1248,-19.369 20.1254,-19.9597 28.3073,-52.19413 24.876,-98.00678 -3.5079,-46.83593 -12.3883,-85.3963 -37.5924,-163.21666 -11.2122,-34.61872 -13.1421,-44.96329 -8.443,-45.28142 4.4692,-0.30259 6.3985,0.33971 12.8256,4.26278 11.1226,6.78905 13.0906,5.16255 8.499,-7.02827 -6.4018,-16.99668 -29.196,-58.87566 -42.5533,-78.18478 -3.5706,-5.1616 -12.016,-14.81613 -18.7696,-21.45246 z m -328.3409,0.67139 c -0.3687,0 -2.0888,1.50818 -3.8206,3.35161 -1.7318,1.84343 -2.8464,3.35161 -2.4777,3.35161 0.3687,0 2.0887,-1.50818 3.8205,-3.35161 1.7318,-1.84343 2.8464,-3.35161 2.4778,-3.35161 z m 499.4623,1.79569 c -0.1105,0.42241 -0.1817,1.42129 -0.1891,2.89603 -0.015,2.94945 0.2452,4.31372 0.5808,3.03191 0.3356,-1.2818 0.35,-3.69278 0.029,-5.36045 -0.1604,-0.83384 -0.3104,-0.9899 -0.421,-0.56749 z m -301.091,10.69426 c -1.0695,0.42797 -0.7519,0.74563 0.8099,0.80993 1.4133,0.0582 2.2065,-0.25786 1.7611,-0.70336 -0.4455,-0.44544 -1.6032,-0.49385 -2.571,-0.10657 z m 8.7227,5.95991 c -0.2067,0.0746 -0.1027,0.51513 0.2851,1.30015 5.7464,11.6345 12.5921,47.2495 26.7409,139.12128 10.3137,66.96959 16.4879,101.28624 20.3602,113.18756 6.0214,18.50707 16.6736,34.12407 29.8954,43.82941 3.3465,2.45646 6.2135,4.48171 6.3729,4.49991 0.1594,0.0183 -1.4176,-2.53035 -3.5035,-5.66418 -5.0343,-7.5632 -10.3794,-21.32917 -12.855,-33.09785 -2.7802,-13.21666 -11.0292,-63.2359 -20.7944,-126.10647 -8.9804,-57.81804 -14.1935,-85.76618 -19.2278,-103.07411 -3.2157,-11.05562 -3.4779,-11.44588 -16.1986,-24.13269 -7.0283,-7.00957 -10.4551,-10.08685 -11.0752,-9.86301 z m 293.7084,2.1154 c -0.1105,0.42241 -0.1817,1.42129 -0.1891,2.89603 -0.015,2.94945 0.2479,4.31372 0.5835,3.03191 0.3356,-1.2818 0.3473,-3.69544 0.027,-5.36312 -0.1604,-0.83384 -0.3104,-0.98723 -0.421,-0.56482 z m -315.2115,18.82286 c -0.141,0.14096 -0.2369,0.60982 -0.2691,1.39073 -0.058,1.41328 0.2579,2.20656 0.7034,1.76106 0.4454,-0.44549 0.4938,-1.6032 0.1065,-2.57099 -0.2139,-0.53475 -0.3998,-0.72176 -0.5408,-0.5808 z m 316.5543,1.28683 c -0.1106,0.42241 -0.1844,1.42128 -0.1918,2.89603 -0.015,2.94944 0.2479,4.31637 0.5835,3.03456 0.3356,-1.2818 0.3473,-3.69543 0.027,-5.36311 -0.1604,-0.83384 -0.3077,-0.98989 -0.4183,-0.56748 z m -317.8944,8.09662 c -0.141,0.14096 -0.2369,0.61249 -0.2691,1.3934 -0.058,1.41328 0.2579,2.2039 0.7034,1.7584 0.4454,-0.44549 0.4938,-1.60054 0.1065,-2.56833 -0.214,-0.53475 -0.3999,-0.72443 -0.5408,-0.58347 z m 113.9575,0 c -0.1409,0.14096 -0.2369,0.61249 -0.2691,1.3934 -0.058,1.41328 0.2579,2.2039 0.7034,1.7584 0.4454,-0.44549 0.4938,-1.60054 0.1066,-2.56833 -0.214,-0.53475 -0.3999,-0.72443 -0.5409,-0.58347 z m -115.1831,11.61609 c -0.1111,0.42524 -0.1785,1.33387 -0.1785,2.62427 0,2.5808 0.2756,3.6376 0.6128,2.3472 0.3372,-1.2904 0.3372,-3.40399 0,-4.69439 -0.1686,-0.6452 -0.3231,-0.70233 -0.4343,-0.27708 z m 320.4228,0 c -0.1111,0.42524 -0.1811,1.33387 -0.1811,2.62427 0,2.5808 0.2755,3.6376 0.6128,2.3472 0.3372,-1.2904 0.3372,-3.40399 0,-4.69439 -0.1687,-0.6452 -0.3205,-0.70233 -0.4317,-0.27708 z m -57.758,10.02287 -2.7096,5.34979 c -1.4903,2.94281 -3.134,7.31626 -3.6526,9.71915 -0.5639,2.61244 -1.5215,4.0112 -2.3818,3.4795 -0.8072,-0.49887 -1.0527,-0.26515 -0.5595,0.53284 0.4835,0.78229 -0.6026,7.06029 -2.4138,13.94996 -5.4725,20.81601 -7.8022,37.04293 -7.9581,55.42952 -0.166,19.56704 1.6187,28.21045 6.911,33.50281 2.7128,2.7128 4.6881,3.3646 10.2174,3.3676 l 6.8577,0.003 -0.4342,-12.12762 c -0.5257,-14.76408 2.5382,-36.62242 8.0513,-57.46499 4.3443,-16.42403 4.6751,-20.07555 2.3365,-25.79784 -1.1263,-2.75608 -0.9939,-4.43447 0.5968,-7.51049 2.0464,-3.95727 2.0409,-3.97182 -6.4048,-13.19865 z m -391.6033,2.65625 c 4.3447,5.58833 5.6599,13.11092 5.5096,31.5073 -0.1693,20.72854 -1.9656,37.04942 -11.2964,102.55991 -3.6758,25.80799 -7.0357,52.41033 -7.4652,59.11682 -1.9656,30.69448 8.349,58.8004 26.7224,72.81101 3.8442,2.93142 7.1962,5.12326 7.4492,4.87023 0.253,-0.25301 -0.8235,-2.98052 -2.3952,-6.06114 -1.5716,-3.08062 -4.027,-10.17309 -5.4563,-15.76164 -4.4447,-17.37838 -3.6124,-33.41602 4.8329,-93.02993 11.4613,-80.90344 13.4767,-106.20657 9.8337,-123.43424 -1.3804,-6.52781 -2.6512,-8.249 -15.6604,-21.18337 -7.7872,-7.74239 -13.2209,-12.86969 -12.0743,-11.39495 z m -19.0254,0.67138 c -0.069,-0.0692 -0.6126,0.33579 -1.6758,1.16961 -1.2904,1.012 -2.3472,2.06614 -2.3472,2.34453 0,1.10343 1.102,0.3949 2.8534,-1.83833 0.8338,-1.0632 1.2388,-1.60661 1.1696,-1.67581 z m 469.7642,5.81604 c -0.1106,0.42241 -0.1844,1.42395 -0.1919,2.89869 -0.015,2.94946 0.2479,4.31371 0.5835,3.03191 0.3356,-1.28181 0.3473,-3.69544 0.027,-5.36312 -0.1603,-0.83384 -0.3077,-0.98989 -0.4183,-0.56748 z m -366.2638,0.46624 -2.7575,5.40574 c -1.5171,2.97378 -2.3835,5.785 -1.9235,6.24498 0.4599,0.45999 0.096,0.83657 -0.8073,0.83657 -0.9037,0 -1.3045,0.54672 -0.8899,1.21756 1.1545,1.86792 -0.6901,5.5831 -2.2832,4.59848 -0.8381,-0.51797 -1.0071,-0.22263 -0.4183,0.73 0.5438,0.87982 -0.5514,7.46051 -2.4325,14.62135 -10.6352,40.4867 -10.6166,80.29677 0.04,88.67923 2.4086,1.89457 5.4755,2.76715 9.7085,2.76015 l 6.1864,-0.008 0.1412,-17.08578 c 0.1479,-18.10538 2.1336,-31.14943 8.5682,-56.27141 3.8858,-15.17103 3.9074,-18.54295 0.1758,-25.51542 -1.1218,-2.09615 -1.0419,-2.89389 0.3384,-3.42355 4.571,-1.75405 3.07,-5.82989 -5.2592,-14.28033 z m 44.4502,2.96796 c -0.121,0.29913 -0.2021,1.03866 -0.2158,2.14472 -0.027,2.21211 0.2509,3.27885 0.6181,2.37117 0.3673,-0.90768 0.3905,-2.7159 0.051,-4.02034 -0.1699,-0.65221 -0.3319,-0.79467 -0.4529,-0.49555 z m 117.7328,7.83553 -2.7389,5.36845 c -1.5063,2.9526 -2.3622,5.74236 -1.9022,6.20235 0.4599,0.45998 0.1497,0.83657 -0.6874,0.83657 -0.8688,0 -1.1547,0.95917 -0.6661,2.23263 0.6217,1.61988 0.3701,1.92912 -0.9191,1.1323 -1.1407,-0.70496 -1.4539,-0.57715 -0.8766,0.35701 0.4943,0.79981 -0.5673,6.5085 -2.3578,12.68711 -6.1232,21.12986 -9.1836,43.97747 -8.5815,64.03235 0.4606,15.34478 0.9903,18.95524 3.4795,23.72505 1.6147,3.09429 3.9956,6.24446 5.2912,6.99896 1.2955,0.7545 5.0688,1.38379 8.387,1.40139 l 6.0345,0.0346 0.1012,-14.40555 c 0.057,-7.92193 0.8497,-19.53018 1.7611,-25.79784 2.0426,-14.04775 7.7626,-38.09738 10.4065,-43.75214 1.8233,-3.8997 1.7269,-4.69322 -1.3454,-11.06193 -2.9022,-6.01598 -3.0521,-7.00404 -1.2283,-8.02469 1.5649,-0.87575 1.8144,-2.11851 1.0071,-5.02475 -0.5901,-2.12449 -1.0178,-5.0713 -0.9484,-6.54604 0.1142,-2.42742 0.059,-2.44283 -0.5862,-0.17584 -0.6104,2.14665 -1.6346,1.59645 -7.1721,-3.85782 z m -116.4939,3.53012 c -0.141,0.14096 -0.2369,0.61249 -0.2691,1.3934 -0.058,1.41329 0.2579,2.20389 0.7034,1.7584 0.4454,-0.44549 0.4938,-1.60054 0.1065,-2.56833 -0.214,-0.53475 -0.3999,-0.72443 -0.5408,-0.58347 z m 322.333,5.86133 c -0.3195,-1.65909 -0.5807,-0.30225 -0.5807,3.01592 0,3.31817 0.2612,4.67767 0.5807,3.01858 0.3196,-1.65908 0.3196,-4.37542 0,-6.0345 z m -189.6059,15.59113 c -0.141,0.14096 -0.2369,0.60983 -0.2691,1.39074 -0.058,1.41327 0.2579,2.20656 0.7034,1.76106 0.4454,-0.44549 0.4938,-1.6032 0.1065,-2.57099 -0.2139,-0.53475 -0.3999,-0.72177 -0.5408,-0.58081 z m 190.5278,5.30983 c -0.1106,0.42241 -0.1817,1.42129 -0.1892,2.89603 -0.015,2.94946 0.2479,4.3137 0.5835,3.03191 0.3356,-1.28181 0.3473,-3.69544 0.027,-5.36312 -0.1604,-0.83384 -0.3104,-0.98723 -0.421,-0.56482 z m -187.8476,18.82286 c -0.1409,0.14096 -0.2369,0.60982 -0.2691,1.39073 -0.058,1.41329 0.2579,2.20389 0.7034,1.7584 0.4454,-0.4455 0.4938,-1.60053 0.1066,-2.56833 -0.214,-0.53474 -0.3999,-0.72176 -0.5409,-0.5808 z m 189.606,1.83832 c -0.3196,-1.65909 -0.5808,-0.30225 -0.5808,3.01592 0,3.31817 0.2612,4.675 0.5808,3.01592 0.3195,-1.65909 0.3195,-4.37276 0,-6.03184 z m -628.12122,9.49269 c -0.46506,-0.11631 -0.77885,-0.0179 -0.96446,0.28241 -0.71536,1.15748 -0.51334,1.36517 0.63942,0.65274 1.20595,-0.74532 1.47443,-0.3218 0.93248,1.47066 -1.17522,3.88698 -6.06243,65.31482 -7.39593,92.95533 -1.90611,39.50915 1.20438,64.29177 10.58769,84.34451 5.55285,11.86677 12.35073,20.69482 19.67275,25.54473 3.42167,2.2664 6.35667,4.12158 6.52207,4.12158 0.1654,0 -1.7087,-4.6266 -4.1669,-10.2813 -6.81551,-15.67811 -9.33367,-31.75424 -9.30617,-59.43387 0.0274,-27.57538 3.20819,-79.33194 4.81428,-78.33931 0.61326,0.37901 0.12327,-1.90109 -1.08968,-5.06472 -1.5432,-4.02502 -2.3137,-10.95669 -2.56299,-23.0883 l -0.35435,-17.33621 -8.62148,-8.62148 c -4.57368,-4.57369 -7.31156,-6.85783 -8.70673,-7.20677 z m 441.19542,4.75567 c -0.1409,0.14096 -0.2342,0.60982 -0.2664,1.39073 -0.058,1.41329 0.2579,2.20655 0.7034,1.76106 0.4454,-0.4455 0.4938,-1.60319 0.1065,-2.57099 -0.2139,-0.53474 -0.4025,-0.72176 -0.5435,-0.5808 z m 89.8622,7.00162 c -0.1226,0.30375 -0.1998,0.95391 -0.1998,1.87562 0,1.84343 0.3048,2.59752 0.6767,1.67581 0.3719,-0.92172 0.3719,-2.4299 0,-3.35161 -0.186,-0.46086 -0.3543,-0.50357 -0.4769,-0.19982 z m -213.1685,1.34278 c -0.1226,0.30374 -0.1972,0.95124 -0.1972,1.87296 0,1.84343 0.3048,2.59752 0.6768,1.6758 0.3719,-0.9217 0.3719,-2.4299 0,-3.35161 -0.186,-0.46086 -0.3571,-0.5009 -0.4796,-0.19715 z m 311.5748,0.19715 c -0.3195,-1.65909 -0.5834,-0.30226 -0.5834,3.01592 0,3.31817 0.2639,4.67766 0.5834,3.01858 0.3196,-1.65908 0.3196,-4.37542 0,-6.0345 z m -484.8064,0.33569 c -3.5222,0 -16.7263,41.03487 -28.9043,89.82485 -9.6144,38.51948 -12.0858,51.23071 -15.5005,79.77001 -5.0829,42.48025 -8.1797,52.66566 -19.8513,65.27916 -10.3287,11.1623 -22.6371,17.1861 -35.0401,17.1444 -8.7576,-0.029 -17.4168,-2.8387 -23.47726,-7.6144 -1.488,-1.1726 3.0856,3.5875 10.16146,10.5771 7.827,7.7316 15.7018,14.1419 20.1096,16.3691 6.326,3.1963 8.5194,3.6078 17.299,3.237 12.6322,-0.5336 23.2217,-5.3852 32.93,-15.0876 12.5489,-12.5414 15.9265,-23.1417 21.3831,-67.11219 1.9217,-15.48479 4.6642,-33.55626 6.0958,-40.15809 1.4317,-6.60181 2.6053,-15.65093 2.6083,-20.10968 0.01,-13.24383 2.4865,-36.64749 8.1046,-76.48233 5.1531,-36.53711 6.555,-55.63733 4.0816,-55.63733 z m 80.6892,0.50887 c -0.1409,0.14096 -0.2342,0.60983 -0.2664,1.39074 -0.058,1.41329 0.2579,2.20389 0.7033,1.7584 0.4455,-0.4455 0.4939,-1.60053 0.1066,-2.56833 -0.214,-0.53475 -0.4025,-0.72176 -0.5435,-0.58081 z m 356.9176,4.79297 -0.1705,10.42251 c -0.2737,16.8928 -7.0028,31.86566 -17.0805,38.01071 -4.6794,2.85341 -12.8876,3.36308 -17.3602,1.07635 -3.7921,-1.93886 9.8742,12.30259 18.306,19.07596 10.3527,8.31643 19.8661,6.96591 29.3999,-4.1722 8.8935,-10.38997 13.31,-32.95338 8.078,-41.27174 -1.2591,-2.00183 -6.5404,-8.02802 -11.7333,-13.39047 z m -263.0697,4.59049 c -0.141,0.14096 -0.2369,0.60982 -0.2691,1.39073 -0.058,1.41329 0.2605,2.20655 0.706,1.76106 0.4454,-0.4455 0.4912,-1.60319 0.1039,-2.57099 -0.214,-0.53474 -0.3999,-0.72176 -0.5408,-0.5808 z m -95.0708,0.88985 c -0.1111,0.42525 -0.1811,1.33388 -0.1811,2.62428 0,2.5808 0.2755,3.63759 0.6127,2.3472 0.3373,-1.2904 0.3373,-3.40133 0,-4.69173 -0.1686,-0.6452 -0.3204,-0.70499 -0.4316,-0.27975 z m 163.4458,1.79037 c -0.1409,0.14096 -0.2369,0.61249 -0.2691,1.3934 -0.058,1.41329 0.2579,2.20389 0.7034,1.7584 0.4454,-0.4455 0.4938,-1.60053 0.1066,-2.56833 -0.214,-0.53474 -0.3999,-0.72443 -0.5409,-0.58347 z m -317.8571,0.94847 c -1.1983,-0.77831 -1.1418,0.14152 -0.762,2.15271 2.2259,11.7872 -6.3259,36.1858 -15.0023,42.80368 -5.316,4.05465 -14.6918,5.61987 -19.4889,3.25303 -1.7671,-0.87183 2.0559,3.59981 8.4962,9.93762 6.4403,6.33782 13.0758,12.07452 14.7466,12.74572 4.616,1.85437 11.4548,1.61098 15.6417,-0.55416 4.5895,-2.3733 11.6071,-10.17369 12.9482,-14.39222 0.9533,-2.99831 1.027,-3.01317 2.1501,-0.42362 0.9292,2.14262 1.0249,1.95861 0.4689,-0.92182 -0.3827,-1.98259 -0.1507,-3.94348 0.5169,-4.35604 1.462,-0.90359 3.5552,-15.89944 3.0052,-21.53505 -0.5289,-5.41993 -2.8526,-8.74917 -14.4348,-20.68249 -4.634,-4.77446 -7.0876,-7.24904 -8.2858,-8.02736 z m 205.5354,1.02573 -0.1145,11.16051 c -0.1375,13.25037 -3.5196,23.29363 -10.6437,31.61653 -7.7501,9.05437 -19.5551,10.80299 -27.431,4.06297 -1.971,-1.68677 2.1949,2.55782 9.2583,9.43141 7.0633,6.87357 14.6525,13.65784 16.8646,15.07693 14.3199,9.18635 31.6094,-6.42567 35.5996,-32.14405 0.9627,-6.20387 0.966,-10.13175 0.011,-12.64449 -0.7623,-2.00491 -6.3699,-8.80205 -12.4634,-15.10357 z m 45.3241,5.03009 c -0.1226,0.30375 -0.1998,0.95125 -0.1998,1.87296 0,1.84343 0.3048,2.59753 0.6767,1.67581 0.3719,-0.92171 0.3719,-2.4299 0,-3.35162 -0.186,-0.46085 -0.3543,-0.5009 -0.4769,-0.19715 z m 310.2321,2.88004 c -0.3196,-1.65908 -0.5808,-0.30224 -0.5808,3.01592 0,3.31818 0.2612,4.67501 0.5808,3.01592 0.3195,-1.65908 0.3195,-4.37275 0,-6.03184 z m -53.4367,0.3357 c -0.3687,0 -2.086,1.50818 -3.8178,3.35161 -1.7319,1.84343 -2.8465,3.35162 -2.4778,3.35162 0.3687,0 2.086,-1.50819 3.8179,-3.35162 1.7318,-1.84343 2.8464,-3.35161 2.4777,-3.35161 z m -46.3444,0.5062 c -0.141,0.14096 -0.2369,0.61249 -0.2691,1.3934 -0.058,1.41328 0.2578,2.2039 0.7033,1.7584 0.4455,-0.44549 0.4939,-1.6032 0.1066,-2.57099 -0.214,-0.53475 -0.3999,-0.72177 -0.5408,-0.58081 z m -93.0886,2.17402 c -0.6368,0 -0.7765,3.25347 -0.309,7.23075 1.9848,16.88807 -7.8635,37.69779 -20.0165,42.28948 -6.0489,2.28547 -10.9005,1.67414 -16.4836,-2.07811 -2.8681,-1.92753 1.0369,2.44568 8.6801,9.71915 7.6431,7.27346 15.4868,13.95136 17.4294,14.83982 8.7049,3.98113 18.9453,-0.11953 25.8059,-10.33459 3.7325,-5.55757 7.8914,-16.84585 7.8914,-21.42049 0,-1.19344 0.5196,-2.74435 1.1537,-3.44486 1.2471,-1.37776 -6.6115,-22.07363 -8.5363,-22.48086 -0.6291,-0.1331 -4.1397,-3.41017 -7.8009,-7.28137 -3.6612,-3.87119 -7.1773,-7.03892 -7.8142,-7.03892 z m -372.7618,0.63409 c -0.4128,-0.41278 -1.1617,0.3323 -1.6651,1.65449 -0.7276,1.91073 -0.5728,2.06553 0.7513,0.75132 0.9162,-0.90943 1.3266,-1.99303 0.9138,-2.40581 z m 321.6643,0.37033 c -0.2822,-3.13383 -0.5141,-0.56884 -0.5141,5.69881 0,6.26765 0.2319,8.83264 0.5141,5.69881 0.2823,-3.13383 0.2823,-8.26379 0,-11.39762 z m -162.7264,1.54526 c -0.121,0.29912 -0.2021,1.03599 -0.2158,2.14205 -0.027,2.21211 0.2509,3.27885 0.6181,2.37117 0.3673,-0.90767 0.3879,-2.71591 0.048,-4.02034 -0.1699,-0.65221 -0.3292,-0.792 -0.4502,-0.49288 z m 97.767,1.97953 c -0.141,0.14096 -0.2369,0.61249 -0.2691,1.3934 -0.058,1.41328 0.2578,2.2039 0.7033,1.7584 0.4455,-0.44549 0.4939,-1.60054 0.1066,-2.56833 -0.214,-0.53475 -0.3999,-0.72443 -0.5408,-0.58347 z m -259.1267,0.83391 c -0.069,-0.0692 -0.6126,0.33578 -1.6758,1.1696 -1.2904,1.012 -2.3445,2.0688 -2.3445,2.34719 0,1.10343 1.0993,0.39224 2.8507,-1.84099 0.8338,-1.06319 1.2388,-1.6066 1.1696,-1.6758 z m 207.6029,1.34011 c -0.3687,0 -2.0887,1.50819 -3.8205,3.35161 -1.7318,1.84343 -2.8464,3.35162 -2.4777,3.35162 0.3686,0 2.0887,-1.50819 3.8205,-3.35162 1.7318,-1.84342 2.8464,-3.35161 2.4777,-3.35161 z m 52.9678,9.25291 c -0.121,0.29912 -0.2048,1.03599 -0.2185,2.14204 -0.027,2.21211 0.2509,3.28152 0.6181,2.37384 0.3673,-0.90768 0.3905,-2.71856 0.051,-4.023 -0.1699,-0.65221 -0.3292,-0.79201 -0.4503,-0.49288 z m 109.2525,1.47332 c -0.3687,0 -2.0861,1.50819 -3.8179,3.35161 -1.7318,1.84343 -2.8464,3.35162 -2.4777,3.35162 0.3686,0 2.086,-1.50819 3.8178,-3.35162 1.7318,-1.84342 2.8464,-3.35161 2.4778,-3.35161 z m -451.22903,1.84898 c -0.14095,0.14096 -0.23689,0.60983 -0.26909,1.39074 -0.0582,1.41328 0.25786,2.20388 0.70336,1.75839 0.44544,-0.4455 0.49385,-1.60052 0.10657,-2.56832 -0.21399,-0.53475 -0.39989,-0.72177 -0.54084,-0.58081 z m 650.41293,1.87829 c -0.1048,0.54341 -0.1705,1.80125 -0.1759,3.64468 -0.01,3.68689 0.2413,5.35491 0.5595,3.70596 0.3181,-1.64895 0.3268,-4.66532 0.019,-6.70323 -0.1541,-1.01895 -0.2975,-1.19081 -0.4023,-0.64741 z m -651.75305,6.16505 c -0.14095,0.14096 -0.23688,0.60983 -0.26908,1.39074 -0.0582,1.41328 0.25785,2.20655 0.70336,1.76106 0.44544,-0.44549 0.49385,-1.6032 0.10657,-2.57099 -0.21399,-0.53475 -0.39989,-0.72176 -0.54085,-0.58081 z m 345.15765,9.84171 c -0.2812,-3.11159 -0.5076,-0.22885 -0.5036,6.40749 0,6.63634 0.2345,9.1836 0.5116,5.65885 0.2765,-3.52477 0.2731,-8.95478 -0.01,-12.06634 z m -346.46312,1.18292 c -0.12257,0.30374 -0.19982,0.95124 -0.19982,1.87296 0,1.84343 0.30481,2.59752 0.67672,1.67581 0.37192,-0.92171 0.37192,-2.4299 0,-3.35162 -0.18596,-0.46085 -0.35434,-0.5009 -0.4769,-0.19715 z m 654.81692,11.62408 c -0.2903,-2.78158 -0.5332,-0.83487 -0.5382,4.32672 -0.01,5.1616 0.2313,7.43675 0.5275,5.05673 0.296,-2.38 0.3009,-6.60186 0.011,-9.38345 z m -546.2571,0.1412 c -0.141,0.14096 -0.2369,0.61249 -0.2691,1.3934 -0.058,1.41329 0.2578,2.20389 0.7033,1.7584 0.4455,-0.44549 0.4939,-1.60054 0.1066,-2.56833 -0.214,-0.53475 -0.3999,-0.72443 -0.5408,-0.58347 z m -109.3511,3.84983 c -0.30717,-2.02777 -0.55683,-0.36823 -0.55683,3.68731 0,4.05554 0.24966,5.71507 0.55683,3.6873 0.30719,-2.02776 0.30719,-5.34683 0,-7.37461 z m 108.0083,4.19618 c -0.141,0.14096 -0.2343,0.60982 -0.2664,1.39073 -0.058,1.41328 0.2578,2.2039 0.7033,1.7584 0.4455,-0.44549 0.4939,-1.60054 0.1066,-2.56833 -0.214,-0.53475 -0.4025,-0.72176 -0.5435,-0.5808 z m 237.3358,7.00162 c -0.1226,0.30374 -0.1971,0.95391 -0.1971,1.87562 0,1.84343 0.3048,2.59752 0.6767,1.67581 0.3719,-0.92172 0.3719,-2.4299 0,-3.35161 -0.186,-0.46086 -0.357,-0.50357 -0.4796,-0.19982 z m -238.6759,2.38183 c -0.141,0.14096 -0.2369,0.61249 -0.2691,1.3934 -0.058,1.41327 0.2605,2.20389 0.706,1.75839 0.4455,-0.44549 0.4912,-1.6032 0.1039,-2.57099 -0.214,-0.53475 -0.3999,-0.72176 -0.5408,-0.5808 z m -1.3401,8.04334 c -0.141,0.14096 -0.237,0.61249 -0.2691,1.3934 -0.058,1.41329 0.2578,2.20388 0.7033,1.75839 0.4455,-0.44548 0.4939,-1.60053 0.1066,-2.56832 -0.214,-0.53475 -0.3999,-0.72443 -0.5408,-0.58347 z m -105.3281,10.55305 c -0.30717,-2.02776 -0.55683,-0.36822 -0.55683,3.68731 0,4.05554 0.24966,5.71508 0.55683,3.68731 0.30719,-2.02777 0.30719,-5.34685 0,-7.37462 z m 655.1925,7.41458 c -0.1047,0.54341 -0.1731,1.80392 -0.1785,3.64735 -0.01,3.68688 0.2413,5.3549 0.5595,3.70596 0.3182,-1.64895 0.3269,-4.66532 0.019,-6.70323 -0.1541,-1.01896 -0.2948,-1.19348 -0.3996,-0.65008 z m -555.2276,11.52817 c -0.1409,0.14096 -0.2368,0.60982 -0.269,1.39073 -0.058,1.41329 0.2605,2.20655 0.706,1.76106 0.4454,-0.44549 0.4912,-1.60319 0.1039,-2.57099 -0.214,-0.53474 -0.3999,-0.72176 -0.5409,-0.5808 z m 262.3664,1.52394 c -0.6975,0.43107 -3.7236,8.74846 -6.7245,18.48184 -21.6226,70.13045 -21.4588,69.75045 -37.1475,85.38085 -9.7654,9.7292 -13.8719,12.7369 -24.4711,17.933 -18.274,8.9587 -30.5928,11.8919 -50.2742,11.9705 -25.0648,0.1 -37.4528,-4.0444 -52.2271,-17.4774 -4.4571,-4.0525 -0.019,0.5135 9.863,10.1454 22.0407,21.4828 30.7361,26.5912 50.4714,29.6636 10.816,1.6839 30.8471,0.4459 42.6092,-2.6349 28.741,-7.528 52.6903,-25.5381 63.2597,-47.57 2.4762,-5.1616 7.5965,-19.6407 11.379,-32.17603 3.7825,-12.5353 7.3504,-23.99172 7.9261,-25.45948 0.6893,-1.75753 -0.4476,-7.25148 -3.3277,-16.08934 -2.4052,-7.3807 -5.6536,-17.81268 -7.22,-23.18422 -1.5665,-5.37152 -3.4188,-9.4149 -4.1163,-8.98382 z m -361.54002,0.11457 c -0.12257,0.30374 -0.19982,0.95391 -0.19982,1.87562 0,1.84343 0.30481,2.59752 0.67672,1.67581 0.37192,-0.92172 0.37192,-2.42991 0,-3.35162 -0.18596,-0.46085 -0.35434,-0.50356 -0.4769,-0.19981 z m 652.97592,7.10552 c -0.1211,0.29913 -0.2022,1.03866 -0.2158,2.14472 -0.027,2.21211 0.2508,3.27885 0.6181,2.37117 0.3672,-0.90767 0.3905,-2.71857 0.051,-4.023 -0.17,-0.65222 -0.3319,-0.79201 -0.4529,-0.49289 z m -651.67045,4.66242 c -0.14095,0.14096 -0.23688,0.61249 -0.26908,1.3934 -0.0582,1.41328 0.25785,2.2039 0.70336,1.7584 0.44544,-0.44549 0.49385,-1.60054 0.10657,-2.56833 -0.21399,-0.53475 -0.39989,-0.72443 -0.54085,-0.58347 z m 322.72735,4.85691 c -0.069,-0.0692 -0.6126,0.3358 -1.6758,1.1696 -1.2904,1.01201 -2.3472,2.06614 -2.3472,2.34454 0,1.10342 1.102,0.3949 2.8534,-1.83833 0.8338,-1.06319 1.2388,-1.60661 1.1696,-1.67581 z m 327.5363,2.14472 c -0.1225,0.30374 -0.1998,0.95391 -0.1998,1.87562 0,1.84343 0.3048,2.59752 0.6767,1.67581 0.372,-0.92172 0.372,-2.42991 0,-3.35162 -0.1859,-0.46085 -0.3543,-0.50356 -0.4769,-0.19981 z m -497.4269,5.06472 c -0.1409,0.14095 -0.2369,0.60982 -0.2691,1.39073 -0.058,1.41329 0.2579,2.20656 0.7034,1.76106 0.4454,-0.44549 0.4939,-1.6032 0.1066,-2.57099 -0.214,-0.53475 -0.3999,-0.72176 -0.5409,-0.5808 z m 496.0495,4.023 c -0.1409,0.14096 -0.2369,0.60982 -0.269,1.39073 -0.058,1.41329 0.2578,2.20655 0.7033,1.76106 0.4454,-0.44548 0.4939,-1.6032 0.1066,-2.57099 -0.214,-0.53475 -0.3999,-0.72176 -0.5409,-0.5808 z m -186.3742,3.89245 c -2.0379,0.30816 -0.6896,0.56744 2.9973,0.57814 3.6869,0.01 5.3549,-0.24127 3.7059,-0.55949 -1.6489,-0.31812 -4.6653,-0.32682 -6.7032,-0.0186 z m -308.3351,4.15089 c -0.141,0.14096 -0.237,0.60982 -0.2691,1.39073 -0.058,1.41328 0.2578,2.20656 0.7033,1.76107 0.4455,-0.44549 0.4939,-1.60321 0.1066,-2.571 -0.214,-0.53475 -0.3999,-0.72176 -0.5408,-0.5808 z m 493.3692,0 c -0.1409,0.14096 -0.2369,0.60982 -0.2691,1.39073 -0.058,1.41328 0.2579,2.20656 0.7034,1.76107 0.4454,-0.44549 0.4938,-1.60321 0.1066,-2.571 -0.214,-0.53475 -0.3999,-0.72176 -0.5409,-0.5808 z m -492.0291,8.04334 c -0.141,0.14096 -0.2369,0.61249 -0.2691,1.3934 -0.058,1.41329 0.2605,2.20388 0.706,1.7584 0.4454,-0.44549 0.4912,-1.60054 0.1039,-2.56833 -0.214,-0.53475 -0.3999,-0.72443 -0.5408,-0.58347 z m 81.7681,10.63032 c -1.3044,0.33992 -0.5629,0.64142 1.6492,0.66872 2.2121,0.0273 3.2815,-0.25085 2.3739,-0.6181 -0.9077,-0.36727 -2.7186,-0.39054 -4.0231,-0.0506 z m 14.0513,0.04 c -0.9218,0.37191 -0.1677,0.67672 1.6758,0.67672 1.8434,0 2.5975,-0.30481 1.6758,-0.67672 -0.9217,-0.37192 -2.4299,-0.37192 -3.3516,0 z m -171.4732,0.88986 c -0.3687,0 -2.0887,1.50818 -3.8205,3.35161 -1.7318,1.84343 -2.8464,3.35161 -2.4778,3.35161 0.3687,0 2.0861,-1.50818 3.8179,-3.35161 1.7318,-1.84343 2.8491,-3.35161 2.4804,-3.35161 z m 523.0649,87.14197 c -0.069,-0.069 -0.6126,0.3358 -1.6758,1.1696 -1.2904,1.012 -2.3445,2.0688 -2.3445,2.3472 0,1.1034 1.0993,0.3922 2.8507,-1.841 0.8338,-1.0632 1.2388,-1.6066 1.1696,-1.6758 z m -20.1097,20.1123 c -0.069,-0.069 -0.6126,0.3358 -1.6758,1.1696 -1.2904,1.012 -2.3472,2.0662 -2.3472,2.3446 0,1.1034 1.102,0.3949 2.8534,-1.8384 0.8338,-1.0632 1.2388,-1.6066 1.1696,-1.6758 z m -81.1101,51.6143 -4.3587,3.9378 c -2.3965,2.1657 -4.356,4.128 -4.356,4.3587 0,1.0357 1.1065,0.1238 4.7769,-3.9378 z" />
    <path
       id="path295"
       style="display:inline;fill:url(#linearGradient2);fill-opacity:1;stroke-width:1.34068"
       d="m 1189.4606,239.77893 c -11.4412,-1.50841 -17.7892,4.89372 -17.7892,17.93833 0,8.24871 1.6579,10.56416 14.4162,20.16563 27.7561,20.88818 45.6416,45.97284 53.799,75.45127 3.5157,12.70443 8.2032,39.97909 8.2032,47.72719 0,10.15393 2.1741,6.46989 4.6252,-7.84085 3.5452,-20.69996 4.204,-48.50932 1.5159,-64.01636 -4.1099,-23.70866 -17.5834,-45.96945 -44.7139,-73.87937 -12.9238,-13.29508 -14.9595,-14.87387 -20.0564,-15.54584 z m 395.4025,9.19962 c -0.5428,-0.13384 -0.9617,0.26314 -1.5266,1.12431 -3.2769,4.99464 -13.7956,31.63326 -16.1933,41.00798 -3.7543,14.67915 -3.4212,20.42193 1.9716,33.90511 5.5595,13.90017 5.7224,14.97621 7.4865,49.77067 0.7663,15.11611 5.2753,82.08171 10.0202,148.81379 8.7154,122.57358 14.7043,210.83151 18.972,279.53205 3.2193,51.82278 3.2443,112.94445 0.053,133.39582 -8.9157,57.14192 -27.578,99.73392 -57.2039,130.54512 -13.9796,14.5389 -21.2112,19.776 -49.9864,36.207 -27.9545,15.9623 -40.526,24.3975 -46.9493,31.5073 -5.135,5.6839 -5.7299,6.9986 -3.991,8.8027 1.8789,1.9493 19.7159,-0.5432 37.2034,-5.198 51.3074,-13.6567 92.6824,-32.383 110.3102,-49.9278 18.9566,-18.8674 29.2776,-59.4547 36.5934,-143.89031 2.3507,-27.1307 3.0573,-109.94737 1.3614,-159.76115 -6.7683,-198.80641 -16.6622,-356.7128 -26.4879,-422.76425 -0.6335,-4.25894 1.1902,-1.50562 8.8613,13.37182 15.3366,29.74434 22.1084,38.35422 25.7046,32.67957 2.417,-3.81403 0.8266,-10.53254 -10.3852,-43.84274 -21.9097,-65.09345 -37.7834,-106.36421 -43.5444,-113.21687 -1.061,-1.2621 -1.7272,-1.92829 -2.2699,-2.06212 z m -163.8828,110.39011 -2.9493,4.02034 c -7.1207,9.7059 -20.6705,19.594 -37.7229,27.52426 -5.9866,2.78408 -25.968,10.31516 -44.4023,16.73676 -18.4342,6.4216 -62.777,22.53942 -98.5395,35.81804 -35.7625,13.27862 -83.7271,31.03267 -106.5856,39.45207 -57.536,21.19205 -53.2485,18.91528 -62.7189,33.30832 -4.3666,6.63635 -9.4271,14.99271 -11.2457,18.56976 -1.8187,3.57704 -2.5092,6.01253 -1.5373,5.41373 0.9719,-0.5988 5.3855,-3.60494 9.8097,-6.67925 17.6695,-12.27825 16.2503,-11.71707 154.1769,-60.87255 173.7652,-61.92796 179.0305,-63.97595 185.186,-72.04638 4.3075,-5.64754 10.4764,-20.1431 14.4135,-33.87048 z m 71.9319,86.55317 c -3.1754,-0.32913 -6.1737,0.33267 -8.5895,2.02482 -5.8089,4.06872 -13.1613,23.365 -19.6328,51.52107 -1.2711,5.53027 -2.6211,10.96028 -3,12.06634 -0.3788,1.10606 -2.4566,-4.24304 -4.6171,-11.88784 -5.286,-18.70394 -9.3667,-26.84831 -17.0591,-34.04365 -10.0985,-9.44592 -21.2855,-9.72958 -27.6095,-0.7007 -3.0419,4.34285 -2.7108,14.64774 0.6047,18.86282 3.8931,4.94921 13.2467,8.18623 20.5067,7.09754 l 5.888,-0.88187 5.435,13.81142 c 2.9894,7.59595 6.4725,17.42131 7.7423,21.83611 1.2698,4.4148 3.1738,9.72511 4.2308,11.79992 3.7719,7.40387 5.4012,4.31773 11.1738,-21.19936 3.7492,-16.5725 12.6596,-42.81286 16.2519,-47.85774 1.4725,-2.06798 3.6355,-3.75924 4.8063,-3.75924 1.1708,0 4.9016,3.01637 8.2911,6.70323 3.3895,3.68684 6.8707,6.70322 7.737,6.70322 2.8735,0 7.1321,-6.95184 7.1321,-11.64272 0,-6.39944 -3.184,-11.8647 -9.6339,-16.53694 -3.1294,-2.26692 -6.4825,-3.58731 -9.6578,-3.91643 z m -233.5127,30.76664 c -1.0967,-0.088 -3.0397,3.63533 -8.6055,15.27142 l -8.2724,17.29092 5.3871,19.57683 c 6.8426,24.86964 7.5103,29.47898 5.4936,37.8855 -2.0744,8.647 -9.3393,16.02422 -19.5395,19.84059 -10.5253,3.93805 -14.6799,3.59676 -19.9205,-1.64384 -6.5936,-6.59359 -8.2735,-18.44755 -6.229,-43.95995 0.8603,-10.73616 2.4897,-25.73357 3.6207,-33.32698 1.1309,-7.5934 1.7079,-14.15492 1.2815,-14.58139 -0.4265,-0.42647 -4.2536,2.8055 -8.5043,7.18279 -8.8057,9.06821 -17.7418,25.42733 -27.6761,50.67118 -5.8858,14.95624 -7.4411,21.99314 -2.936,13.28124 1.7615,-3.40628 16.712,-24.41868 19.6861,-27.66813 0.5886,-0.64319 0.5312,1.16769 -0.1279,4.023 -0.6591,2.85529 -1.8312,11.2802 -2.603,18.72428 -3.1692,30.56816 5.1413,51.50905 22.3663,56.36199 8.4373,2.37711 21.3453,1.37843 29.0616,-2.24862 3.3481,-1.57382 8.5694,-5.55696 11.6054,-8.8506 5.3436,-5.79718 11.9916,-17.88845 12.0184,-21.86009 0.021,-3.05393 2.0097,-0.0575 4.5558,6.86575 2.7517,7.48217 11.8942,16.42836 18.7136,18.31132 14.775,4.07956 30.133,-10.16503 35.89,-33.28968 3.0559,-12.27498 2.1777,-39.4806 -1.8383,-56.97743 -3.3843,-14.74468 -10.8494,-36.17133 -13.0841,-37.55247 -0.6517,-0.40278 -2.4656,3.66005 -4.031,9.02645 -1.5654,5.36639 -3.9891,13.65203 -5.3844,18.41256 l -2.5364,8.65345 4.8037,12.79635 c 8.847,23.56392 7.3726,42.81123 -3.8019,49.62413 -2.4466,1.49165 -5.2607,2.71186 -6.253,2.71486 -3.9561,0.011 -9.7154,-5.91359 -13.4171,-13.80076 -4.689,-9.99078 -6.27,-16.65082 -8.9678,-37.80823 -2.1733,-17.04353 -7.7432,-46.33153 -9.8391,-51.73954 -0.2806,-0.72408 -0.5509,-1.17758 -0.9165,-1.2069 z m -274.81898,14.73591 c -60.85647,0 -58.06343,-0.50782 -66.1664,12.02904 -4.9105,7.59751 -12.31596,27.35362 -14.29365,38.1306 l -0.96445,5.24589 8.39235,-5.8853 c 4.61537,-3.23749 10.88394,-8.06879 13.93131,-10.73689 l 5.54162,-4.85158 33.85183,-0.82592 c 18.61862,-0.4546 33.85183,-0.59905 33.85183,-0.3197 0,0.74382 -39.09898,29.94573 -51.61698,38.55155 -15.80074,10.86265 -27.89546,17.49821 -42.54525,23.33874 -7.17906,2.86213 -13.06269,5.75009 -13.07342,6.41549 -0.0296,1.91185 29.76998,-0.27645 44.41554,-3.26103 34.95851,-7.12409 64.30255,-23.13585 89.51315,-48.84351 l 12.1862,-12.42868 V 509.70373 491.42438 Z M 1089.3331,525.508 c -1.1631,0.38456 -2.0285,1.26638 -3.2957,2.87738 -2.5667,3.26311 -2.8507,5.31538 -2.8507,20.72246 0,14.17477 -0.4529,18.10302 -2.6509,22.9471 -2.9494,6.49989 -3.5784,18.39423 -1.2176,23.02436 0.8212,1.61061 4.851,6.37482 8.9545,10.58502 6.832,7.00953 7.3341,7.93308 5.9546,10.96069 -0.8286,1.8185 -4.7069,5.70438 -8.6188,8.6348 -19.9248,14.92574 -53.6128,37.62478 -72.3394,48.74227 -20.18104,11.98088 -23.50438,14.61362 -21.84149,17.30423 2.33252,3.77409 17.49439,-1.29522 44.27439,-14.80251 26.0853,-13.15696 38.7402,-22.27845 60.1931,-43.38182 l 17.4588,-17.17103 14.9224,-1.2362 c 22.9226,-1.89644 26.1745,-4.04412 27.0554,-17.87705 0.9593,-15.06583 -6.9715,-37.17352 -17.4295,-48.59308 -10.5366,-11.50538 -27.05,-20.09935 -43.4857,-22.63005 -2.4597,-0.37873 -3.9203,-0.49113 -5.0834,-0.10657 z m 14.2164,41.39696 c 1.7042,-0.35326 3.1763,-0.1913 4.0709,0.70336 1.9016,1.90154 3.6482,13.32432 2.7522,17.9996 -0.9431,4.92113 -4.7452,4.82988 -12.8443,-0.30638 -4.6814,-2.96883 -6.2956,-4.82908 -6.2956,-7.25473 0,-4.39363 7.2042,-10.08206 12.3168,-11.14185 z m 20.1709,4.4333 c 1.1262,-0.61887 2.5506,0.53533 6.9644,4.6038 3.4841,3.21161 7.2643,7.63679 8.4003,9.83371 1.9067,3.68717 1.8813,4.13142 -0.357,5.76808 -4.6015,3.36473 -17.1908,1.42542 -18.8521,-2.90402 -1.1188,-2.91537 0.6262,-13.2746 2.7175,-16.13464 0.4081,-0.55809 0.7516,-0.96064 1.1269,-1.16693 z m 294.6916,43.42977 c -1.8344,0 -15.8876,25.60777 -21.1887,38.61017 -6.0796,14.91219 -5.9705,19.56652 0.7833,33.78522 7.007,14.75164 10.2462,26.71645 12.9642,47.8684 5.4646,42.52731 8.8364,58.61148 17.5014,83.50527 6.2048,17.82605 22.9595,55.94694 30.1539,68.60684 11.4209,20.0974 13.4074,30.77314 7.5344,40.47514 -9.6296,15.90776 -42.2671,23.63268 -67.2987,15.92949 -23.687,-7.28946 -41.7162,-26.5182 -50.6711,-54.04145 -3.8723,-11.90132 -10.0465,-46.21796 -20.3602,-113.18756 -14.2221,-92.34756 -20.8371,-126.70878 -26.8182,-139.31311 -2.3245,-4.89843 -6.7035,-7.1951 -10.7555,-5.64019 -7.9404,3.04702 -15.7572,48.25218 -12.7218,73.57298 0.8169,6.81401 4.141,23.55143 7.3879,37.19279 13.1384,55.19792 18.2451,114.94315 12.1969,142.69935 -3.3436,15.34461 -9.3011,30.76703 -15.647,40.50711 -11.2612,17.28433 -30.895,31.96203 -53.1836,39.75312 -10.0514,3.51349 -13.6916,4.10479 -25.7819,4.18819 -17.1817,0.11842 -25.9572,-2.29667 -37.8188,-10.40386 -9.2497,-6.32195 -16.73,-15.20467 -21.8814,-25.98167 -10.5208,-22.00989 -10.684,-40.92199 -0.9352,-108.31201 9.366,-64.74343 11.2339,-81.32917 11.4722,-101.89119 0.2323,-20.04364 -1.6207,-28.78948 -6.9963,-33.01792 -4.7088,-3.70396 -10.5166,-2.64361 -18.7962,3.4342 -15.3939,11.3002 -34.0934,43.26294 -45.5452,77.84909 -7.0829,21.39179 -11.0512,39.8198 -19.6914,91.44737 -9.0605,54.13949 -11.7466,67.19572 -17.4987,85.08783 -7.5287,23.41836 -15.156,32.04123 -28.4354,32.14406 -14.3716,0.11132 -27.20077,-10.03551 -36.42551,-28.80843 -13.82661,-28.13802 -15.33822,-55.49022 -7.97673,-144.34319 1.49674,-18.06559 3.03031,-34.0529 3.40756,-35.52764 0.65254,-2.55088 0.59266,-2.56408 -1.26018,-0.26109 -2.95501,3.67291 -12.43935,33.39846 -15.4819,48.5238 -4.55315,22.63492 -5.83823,36.50388 -5.83735,63.01193 0.002,73.53893 21.1716,134.69023 51.51571,148.81643 16.4115,7.6401 35.9898,2.3264 50.9323,-13.8221 11.6716,-12.6135 14.7684,-22.79891 19.8513,-65.27916 3.4147,-28.5393 5.8861,-41.25053 15.5005,-79.77001 12.178,-48.78998 25.3821,-89.82485 28.9043,-89.82485 2.4769,0 1.0698,19.11659 -4.0949,55.63733 -6.9521,49.15932 -8.6544,69.62964 -7.641,91.83635 1.9083,41.82022 13.7078,76.51894 32.9699,96.94374 12.5506,13.3081 22.5911,18.5225 40.4539,21.0101 20.8384,2.9022 44.6111,-1.2893 65.5509,-11.5548 10.5992,-5.1961 14.7057,-8.2038 24.4711,-17.933 15.6887,-15.6304 15.5249,-15.2505 37.1475,-85.38085 3.0009,-9.73338 6.027,-18.05077 6.7245,-18.48184 0.6975,-0.43108 2.5504,3.6123 4.1189,8.98382 13.4312,45.99703 24.8557,69.9121 41.9671,87.85327 9.2014,9.6476 15.0455,13.3541 28.8724,18.314 16.5187,5.9256 40.0387,6.7801 55.0325,1.9982 23.5862,-7.5221 40.3863,-27.1738 48.5931,-56.83889 2.6355,-9.52654 2.9706,-13.94808 2.9813,-39.55064 0.021,-50.8826 -8.0417,-90.76644 -35.2799,-174.52636 -6.6371,-20.40971 -12.467,-40.11132 -12.9535,-43.77879 -0.7907,-5.96072 -0.573,-6.83221 2.0435,-8.2325 3.0956,-1.65672 6.2404,-0.50174 17.8211,6.5487 4.5266,2.75588 5.1053,2.83664 5.8799,0.81792 1.3005,-3.38902 -1.81,-11.48892 -12.6258,-32.87672 -16.5967,-32.81949 -39.0252,-68.37239 -43.1314,-68.37239 z m 114.565,87.81335 c 0.4694,-1.47475 -1.3234,1.8314 -3.9857,7.34797 -12.2668,25.41781 -21.6353,57.63371 -22.9578,78.94676 -1.3604,21.92515 4.5754,41.03437 14.656,47.18102 16.5611,10.09812 34.4065,-7.80851 36.4042,-36.52939 l 0.682,-9.80174 -1.7823,6.03983 c -3.8809,13.14794 -8.5385,17.42147 -18.9854,17.42147 -13.4018,0 -17.512,-8.76162 -17.2962,-36.86775 0.1729,-22.53238 4.3386,-45.69262 13.2652,-73.73817 z m -513.5109,5.36844 c -1.6922,2.8031 -7.9347,16.42769 -11.9678,26.54116 -13.333,33.43395 -18.5321,66.09641 -13.58495,85.36757 2.79512,10.88821 7.79205,19.52183 13.29725,22.98174 5.7691,3.62578 15.2536,2.82217 21.3219,-1.80636 8.2492,-6.29198 15.8724,-25.71825 15.6604,-39.91297 -0.069,-4.58273 -0.1177,-4.53844 -2.0861,1.87296 -3.8266,12.46377 -8.9879,16.89661 -19.6701,16.89661 -7.1901,0 -12.1171,-4.2282 -14.6587,-12.58055 -2.4811,-8.15402 -1.9566,-40.25305 0.9219,-56.40728 2.0172,-11.32105 7.31,-31.9224 10.6916,-41.61809 0.698,-2.00139 0.6386,-2.26916 0.075,-1.33479 z m 206.6437,3.57808 c -1.429,2.10611 -7.1455,14.5315 -11.4082,25.241 -15.7641,39.60499 -19.7556,74.69726 -10.8009,94.94819 3.0226,6.83554 8.4589,13.28295 12.6845,15.04229 15.65,6.51601 31.9586,-11.35745 33.6946,-36.9237 l 0.6395,-9.38611 -2.659,7.36396 c -3.6955,10.2363 -9.0384,14.75722 -17.4374,14.75722 -8.8441,0 -12.9042,-3.3809 -15.799,-13.15868 -5.4395,-18.37378 -0.4216,-62.73311 10.8728,-96.10446 0.6894,-2.03698 0.6895,-2.48175 0.2131,-1.77971 z m 162.215,11.11254 c -0.9983,0.47076 -11.6714,25.16473 -15.5965,36.54804 -15.9407,46.22985 -14.0781,85.64682 4.5878,97.02896 12.9817,7.916 28.0433,-3.17717 33.8545,-24.93196 1.9386,-7.25727 2.4715,-21.65793 0.5702,-15.4073 -3.5339,11.61738 -9.6808,17.4188 -18.4552,17.4188 -7.8161,0 -10.5151,-1.61686 -14.0672,-8.42433 -6.6183,-12.68369 -4.156,-55.92903 4.9741,-87.35509 1.7266,-5.94279 3.4896,-12.01165 3.9191,-13.48639 0.3002,-1.03082 0.3558,-1.45798 0.2132,-1.39073 z" />
  </g>
</svg>
