<?xml version="1.0" encoding="UTF-8" standalone="no"?>
<!-- Created with Inkscape (http://www.inkscape.org/) -->

<svg
   version="1.1"
   id="svg2"
   width="1920"
   height="1080"
   viewBox="0 0 1920 1080"
   xmlns="http://www.w3.org/2000/svg"
   xmlns:svg="http://www.w3.org/2000/svg">
  <defs
     id="defs6" />
  <g
     id="g293">
    <rect
       style="fill:#1e1e28;fill-opacity:1"
       id="rect3811"
       width="1966.2797"
       height="1135.4568"
       x="-25.786085"
       y="-32.915436" />
    <path
       style="display:none;fill:#a0a0a0;stroke-width:1.35782"
       d="m 801.43721,912.23772 c -40.49273,-8.65836 -72.30781,-40.6501 -81.65847,-82.1119 -3.16389,-14.02898 -3.10954,-45.25906 0.10833,-62.27783 8.05262,-42.58822 31.37289,-91.69459 68.80562,-144.88655 5.88929,-8.36865 10.70777,-16.08798 10.70777,-17.15408 0,-4.83951 -15.90235,-15.82006 -31.90853,-22.03279 -10.73524,-4.16683 -12.89919,-6.16834 -12.89919,-11.93087 0,-10.35138 16.0313,-26.40345 36.5585,-36.6059 l 11.43902,-5.68544 h 17.75389 c 21.45024,0 29.31966,2.20451 38.11702,10.67793 12.65748,12.19141 11.66499,28.80317 -2.63422,44.09018 -3.40315,3.63821 -6.18752,6.99417 -6.18752,7.45763 0,2.53722 9.09671,5.24336 15.76631,4.69026 14.43915,-1.19741 22.39665,-9.8735 43.17753,-47.07666 13.56005,-24.27599 21.01734,-35.40206 32.14277,-47.95614 3.47148,-3.91726 6.80252,-9.69679 8.60404,-14.92844 3.03021,-8.79987 5.79985,-11.0373 9.67827,-7.81848 1.08433,0.8999 1.9849,2.93614 2.00131,4.52499 0.0514,4.98744 5.2023,14.56341 12.88378,23.95246 4.07176,4.97691 9.01101,12.56085 10.97611,16.85319 3.25025,7.09949 3.52326,8.98928 3.02316,20.92569 -0.4397,10.49499 -1.25797,14.65641 -4.08809,20.79025 -6.40702,13.88628 -17.81826,22.588 -33.52848,25.56737 -6.03403,1.14434 -8.32711,0.8149 -19.14756,-2.75094 -11.54434,-3.80437 -12.53827,-3.92391 -16.32852,-1.9639 -2.21975,1.14786 -9.75795,8.96032 -16.75157,17.36098 -21.55514,25.89185 -30.14096,31.39283 -49.08796,31.45087 -12.19244,0.0373 -18.32324,-2.36869 -27.76036,-10.89456 l -5.23412,-4.72872 -4.9872,5.80589 c -9.31808,10.84774 -26.75778,38.33534 -34.69657,54.68704 -14.55902,29.98753 -19.81706,51.70777 -18.57148,76.71626 1.21939,24.4825 8.83845,41.74426 26.07485,59.07523 10.85637,10.91593 23.97466,18.18004 39.37649,21.80435 12.95269,3.04798 40.60881,1.98978 54.89996,-2.10065 40.51599,-11.59653 74.98015,-42.47098 92.50026,-82.86562 7.56111,-17.43301 9.56467,-26.23807 19.61629,-86.20766 4.88171,-29.12503 9.85915,-57.5372 11.06095,-63.13816 4.8177,-22.4526 14.1043,-41.67755 23.4809,-48.60997 4.7613,-3.52017 6.895,-3.64628 14.846,-0.87737 3.269,1.13845 12.5051,2.71338 20.5248,3.49987 21.7612,2.13412 33.1152,-1.30754 47.3071,-14.33989 17.8327,-16.37587 13.7333,-33.21912 -10.1563,-41.7308 -10.9046,-3.8853 -26.1264,-3.81727 -41.2155,0.18422 -17.0856,4.53091 -15.6516,5.47741 -15.3711,-10.14537 0.401,-22.33073 7.4144,-42.45027 21.1513,-60.67714 7.3554,-9.75961 7.7051,-10.07941 46.4955,-42.5044 76.8757,-64.26084 124.0956,-108.67365 158.8118,-149.37109 49.6114,-58.15898 75.3702,-102.47134 84.0596,-144.60675 3.4042,-16.506272 5.7867,-18.518162 8.8437,-7.46794 2.3899,8.63876 2.5992,40.35556 0.3449,52.27567 -5.0739,26.82906 -19.7727,62.84118 -36.4081,89.20076 -14.6471,23.20885 -18.4095,28.36108 -35.0082,47.93803 -43.8732,51.74546 -95.3946,98.63597 -160.2766,145.87091 -11.2019,8.15514 -20.871,15.25465 -21.4869,15.77671 -0.6159,0.52204 1.6636,2.29656 5.0655,3.94338 16.2469,7.86499 27.7825,24.84375 30.7078,45.19753 1.9255,13.39704 -0.2671,37.4796 -4.9061,53.88563 -4.1771,14.77268 -16.0069,38.90834 -24.6722,50.33772 -9.4211,12.42609 -21.8708,23.51478 -31.9993,28.50101 -12.5934,6.19968 -23.474,7.71345 -41.2026,5.73234 -7.9745,-0.89114 -14.7566,-1.36282 -15.0712,-1.04822 -0.3146,0.31462 -2.3192,12.07087 -4.4547,26.125 -10.7957,71.04929 -16.1429,97.8901 -24.56687,123.31529 -26.00145,78.47778 -72.10913,125.72485 -134.61071,137.93719 -16.37191,3.19894 -45.8884,3.36729 -60.03493,0.3424 z m 76.61348,-135.68827 c -8.80072,-9.40776 -32.52616,-24.64015 -46.31495,-29.73546 -3.49926,-1.29308 -6.66494,-3.13968 -7.03481,-4.10356 -0.81015,-2.11119 37.36541,-65.76241 40.49077,-67.51145 2.52118,-1.41092 12.5784,1.53431 23.14533,6.77808 15.33126,7.60802 34.62415,24.30352 34.62415,29.96272 0,1.39604 -8.32172,17.29608 -18.49273,35.33338 -12.84608,22.78133 -19.20009,32.79512 -20.80935,32.79512 -1.27417,0 -3.79794,-1.58346 -5.60841,-3.51883 z M 660.22499,491.23662 c 0.7468,-0.72503 7.77345,-3.31639 15.61481,-5.75859 31.40157,-9.78003 60.86771,-28.76971 90.67529,-58.43639 11.46369,-11.40949 32.66414,-37.80122 39.05093,-48.6132 1.41176,-2.38992 3.34553,-4.3453 4.29728,-4.3453 0.95174,0 3.54001,3.99091 5.7517,8.8687 4.83604,10.66564 16.65632,23.04796 26.5565,27.81922 8.95752,4.31695 21.72353,5.19368 29.93908,2.05613 12.04817,-4.60123 24.08689,-20.73644 31.72507,-42.52041 4.41698,-12.59713 7.36015,-14.27374 9.60913,-5.47392 0.82312,3.22066 2.14677,7.52068 2.94147,9.55563 1.87512,4.8015 12.18803,14.28368 16.79177,15.43913 4.95477,1.24358 15.95219,-0.22836 20.927,-2.80092 8.07349,-4.17496 8.83625,-6.90653 9.66386,-34.60751 0.85439,-28.59757 1.32531,-30.27463 15.73375,-56.03063 9.4738,-16.93506 13.82897,-22.27452 16.16687,-19.82072 3.17279,3.33001 -1.86938,65.64792 -7.57822,93.66158 -6.83274,33.52887 -18.00501,58.70515 -32.47186,73.17412 -13.01798,13.01988 -19.0068,15.54271 -36.89604,15.54271 -13.9413,0 -14.74486,-0.16599 -24.13883,-4.98647 l -9.71745,-4.98646 -2.21647,3.62867 c -8.50957,13.93137 -11.83532,17.25061 -23.5065,23.46042 -5.5072,2.93019 -7.785,3.25099 -23.08277,3.25099 -15.94181,0 -17.42617,-0.23233 -24.44058,-3.82556 -9.09604,-4.65958 -16.46372,-11.48752 -22.61091,-20.95447 -2.5458,-3.92068 -4.97454,-7.1285 -5.39719,-7.1285 -0.42266,0 -4.60672,3.51334 -9.29794,7.80741 -15.30527,14.00956 -40.34499,24.8276 -74.77776,32.30662 -17.14256,3.72347 -41.71109,6.0469 -39.31199,3.71772 z m 365.34861,-61.3252 c -0.7885,-1.27575 2.436,-120.01615 4.5581,-167.84759 1.3592,-30.63616 2.5602,-36.88899 10.7937,-56.19792 9.4877,-22.25014 25.667,-45.04755 30.6211,-43.1465 1.8951,0.7272 2.2557,1.89798 1.6423,5.33042 -1.5708,8.78817 -9.3066,88.07847 -13.8088,141.53734 -5.4752,65.01157 -11.7052,94.30326 -24.2173,113.86266 -4.5647,7.13599 -7.8176,9.32794 -9.5891,6.46159 z"
       id="path297" />
    <path
       style="fill:#c6a0f6;fill-opacity:1;stroke-width:1.35782"
       d="m 804.6274,908.80132 c -14.3661,-1.40254 -23.93542,-4.16712 -38.31888,-11.07029 -9.62461,-4.61921 -13.69785,-7.69952 -24.60644,-18.60809 -11.62885,-11.62886 -13.82961,-14.64341 -19.92753,-27.29618 -7.31417,-15.17646 -10.40199,-26.64207 -11.87595,-44.09771 -1.82602,-21.62483 3.90189,-55.059 14.39034,-83.99721 9.98761,-27.5564 34.04675,-70.87991 57.25936,-103.10741 5.42971,-7.53839 10.36663,-14.51244 10.97092,-15.49788 2.89299,-4.71763 -13.71727,-18.14836 -31.62407,-25.57063 -13.1511,-5.45104 -14.86388,-7.45508 -13.00124,-15.21201 1.55515,-6.47648 19.90127,-22.68542 33.05238,-29.20205 l 11.62728,-5.76155 h 17.7539 c 21.14838,0 28.95605,2.121 36.33314,9.87017 11.59321,12.1779 10.22869,27.43334 -3.67423,41.07802 -3.34359,3.28149 -6.07925,6.94864 -6.07925,8.14922 0,3.32352 9.67639,8.11418 16.38935,8.11418 13.32416,0 27.07277,-12.23079 40.05088,-35.62938 16.82931,-30.34194 28.71568,-49.22311 35.99952,-57.18426 8.10131,-8.85463 12.03168,-15.27826 13.41278,-21.9213 1.19163,-5.7318 4.21454,-5.06201 6.12815,1.35782 2.35504,7.90078 5.01326,12.50293 12.9406,22.40386 11.95184,14.92739 12.90019,17.47855 12.87085,34.62415 -0.0209,12.22699 -0.53948,16.05661 -2.85908,21.11505 -5.98199,13.04507 -17.16295,21.91738 -30.7966,24.4377 -6.76145,1.24991 -8.72989,1.03044 -17.51877,-1.9533 -15.78109,-5.35752 -18.03953,-5.21134 -25.08246,1.62359 -2.92869,2.84221 -10.04271,11.09374 -15.80894,18.33675 -23.43017,29.43086 -47.51774,34.83502 -70.2892,15.76966 -3.6317,-3.04062 -7.28009,-5.10999 -8.10753,-4.59859 -0.82748,0.51139 -5.63788,6.51369 -10.6898,13.33844 -32.23844,43.55156 -49.02396,85.00225 -48.94726,120.87182 0.0553,25.9017 8.47471,46.09712 26.99637,64.75631 9.21518,9.28362 13.88217,12.81714 22.13204,16.757 26.86474,12.82969 64.00768,11.5838 95.61611,-3.20724 33.28213,-15.57424 59.19125,-42.81005 74.57593,-78.39461 6.79896,-15.72591 8.80469,-24.78717 19.56129,-88.372 5.32801,-31.49515 10.91978,-62.01694 12.42616,-67.8262 5.48178,-21.14014 17.88838,-41.11299 25.53828,-41.11299 1.3737,0 5.1713,0.99034 8.4391,2.20077 3.9214,1.45255 12.1736,2.42254 24.2718,2.85301 16.2759,0.5791 19.1675,0.33425 25.7985,-2.18444 9.2208,-3.50253 21.0646,-12.67506 26.4771,-20.50565 5.1293,-7.42058 5.7572,-18.82732 1.358,-24.66436 -3.7175,-4.9322 -13.6038,-11.36408 -21.433,-13.94415 -9.1212,-3.00574 -26.663,-2.75164 -39.6685,0.57461 -15.7227,4.02119 -14.7929,4.65186 -13.7383,-9.3176 1.5721,-20.82504 8.1321,-39.78174 19.0717,-55.11236 6.3286,-8.86864 16.6457,-18.53224 43.5477,-40.78922 30.4986,-25.23273 81.4162,-69.59773 100.1127,-87.22949 46.2738,-43.63855 89.5394,-94.10328 114.1773,-133.1759 16.8592,-26.73659 31.2928,-59.9047 34.3279,-78.88496 2.3652,-14.791022 5.3339,-3.607 5.1948,19.57045 -0.151,25.16426 -6.0061,48.5958 -20.2753,81.13981 -5.9996,13.68345 -25.6189,46.52081 -35.0801,58.71461 -27.7787,35.80185 -78.5403,87.6265 -117.6147,120.07813 -21.7795,18.08803 -69.437,54.67992 -80.5031,61.81116 -4.3077,2.77591 -4.7326,4.55859 -1.3578,5.69467 19.8337,6.6768 32.5397,23.00589 35.7226,45.90927 1.9331,13.90981 -0.1698,36.73658 -4.906,53.25097 -7.0104,24.44449 -24.3421,53.75724 -39.3902,66.6201 -17.257,14.75075 -34.1036,18.93806 -61.0909,15.18447 -5.7512,-0.79993 -10.9616,-0.94964 -11.5785,-0.33267 -0.617,0.61696 -3.0074,13.33898 -5.3119,28.27115 -10.69654,69.30729 -15.94159,96.64185 -22.54613,117.4992 -21.6604,68.40405 -60.02412,115.92016 -108.25836,134.08539 -22.38956,8.43201 -49.05008,11.99588 -72.56481,9.70017 z m 59.43592,-141.96156 c -11.22011,-9.54157 -28.30362,-20.15469 -38.35813,-23.83001 -4.29407,-1.56961 -7.80741,-3.66352 -7.80741,-4.65308 0,-1.81565 34.29004,-59.39053 37.41795,-62.82682 6.12659,-6.73058 54.91312,23.42494 54.91312,33.94244 0,2.0738 -35.38766,65.01353 -36.50827,64.93278 -0.45732,-0.033 -4.80309,-3.43732 -9.65726,-7.56531 z M 672.61213,484.73886 c 0,-0.34965 6.52783,-3.75398 14.50627,-7.5652 42.36938,-20.2394 72.78793,-47.59937 110.2775,-99.18913 l 2.46676,-3.39454 4.12627,8.17233 c 5.1685,10.23651 17.55892,22.66503 27.39138,27.4756 11.19504,5.47723 23.52757,5.88392 33.30878,1.09841 4.11987,-2.01568 10.04706,-6.5694 13.38911,-10.28654 6.41785,-7.1382 15.85864,-24.13763 18.65359,-33.58829 0.93864,-3.17388 2.0775,-5.77069 2.53081,-5.77069 0.45329,0 1.92449,3.098 3.26931,6.88445 6.72122,18.92402 26.15817,26.85861 42.83448,17.48599 9.37913,-5.27135 10.26152,-8.21115 11.028,-36.74146 l 0.6789,-25.27022 9.84009,-19.53752 c 9.31631,-18.49763 15.62972,-28.51686 17.01688,-27.00545 1.05278,1.14705 -2.88915,54.05946 -5.24898,70.45696 -7.66894,53.2882 -24.9751,89.50831 -48.52981,101.56813 -13.61214,6.96931 -36.34622,5.60004 -48.94214,-2.94776 -2.77547,-1.8835 -5.78295,-3.42308 -6.68328,-3.42131 -0.90033,9.7e-4 -3.38876,3.35585 -5.52983,7.45351 -9.49018,18.16255 -28.69764,26.94449 -51.7817,23.67538 -16.60845,-2.35204 -27.80281,-9.97045 -36.49842,-24.83928 -2.89761,-4.95465 -6.03182,-9.00846 -6.96494,-9.00846 -0.93312,0 -3.31321,2.1195 -5.28909,4.70999 -7.81423,10.24499 -29.16655,22.52801 -51.72112,29.7528 -15.21294,4.87308 -44.12882,11.31579 -44.12882,9.8323 z m 345.54827,-77.09947 c 0.3964,-9.21562 1.3253,-39.05771 2.0641,-66.31574 3.0266,-111.64503 2.7143,-106.99332 8.3839,-124.9185 4.128,-13.05155 18.0749,-39.36985 24.898,-46.98328 l 5.9599,-6.65021 0.061,4.90247 c 0.033,2.69637 -0.835,13.08362 -1.9297,23.08277 -1.8225,16.64468 -3.2935,32.21136 -11.662,123.41056 -5.1719,56.3616 -9.4293,77.89106 -19.3176,97.68695 -8.278,16.57222 -9.3289,16.04846 -8.4574,-4.21502 z"
       id="path295" />
  </g>
</svg>
