<?xml version="1.0" encoding="UTF-8" standalone="no"?>
<!-- Created with Inkscape (http://www.inkscape.org/) -->

<svg
   version="1.1"
   id="svg2"
   width="1920"
   height="1080"
   viewBox="0 0 1920 1080"
   xmlns:xlink="http://www.w3.org/1999/xlink"
   xmlns="http://www.w3.org/2000/svg"
   xmlns:svg="http://www.w3.org/2000/svg">
  <defs
     id="defs6">
    <linearGradient
       id="linearGradient8514">
      <stop
         style="stop-color:#1e1e2e;stop-opacity:1;"
         offset="0"
         id="stop8510" />
      <stop
         style="stop-color:#303446;stop-opacity:1;"
         offset="1"
         id="stop8512" />
    </linearGradient>
    <linearGradient
       id="linearGradient1634">
      <stop
         style="stop-color:#89b4fa;stop-opacity:1;"
         offset="0"
         id="stop1630" />
      <stop
         style="stop-color:#b4befe;stop-opacity:1;"
         offset="0.5"
         id="stop1056" />
      <stop
         style="stop-color:#74c7ec;stop-opacity:1;"
         offset="0.75"
         id="stop1058" />
      <stop
         style="stop-color:#89dceb;stop-opacity:1;"
         offset="0.875"
         id="stop1060" />
      <stop
         style="stop-color:#94e2d5;stop-opacity:1;"
         offset="0.9375"
         id="stop1062" />
    </linearGradient>
    <linearGradient
       xlink:href="#linearGradient1634"
       id="linearGradient1636"
       x1="470.78516"
       y1="482.85406"
       x2="2127.0522"
       y2="482.85406"
       gradientUnits="userSpaceOnUse"
       spreadMethod="pad" />
    <filter
       style="color-interpolation-filters:sRGB"
       id="filter2500"
       x="-0.066857442"
       y="-0.087211803"
       width="1.1337149"
       height="1.1744236">
      <feGaussianBlur
         stdDeviation="26.505765"
         id="feGaussianBlur2502" />
    </filter>
    <linearGradient
       xlink:href="#linearGradient8514"
       id="linearGradient8516"
       x1="997.97864"
       y1="1206.0834"
       x2="997.97864"
       y2="207.26697"
       gradientUnits="userSpaceOnUse" />
    <filter
       style="color-interpolation-filters:sRGB"
       id="filter880"
       x="-0.084375001"
       y="-0.15000001"
       width="1.16875"
       height="1.3">
      <feGaussianBlur
         stdDeviation="67.5"
         id="feGaussianBlur882" />
    </filter>
  </defs>
  <rect
     style="opacity:1;fill:url(#linearGradient8516);fill-opacity:1;fill-rule:nonzero;stroke-width:0.97015;filter:url(#filter880)"
     id="rect1762"
     width="1920"
     height="1080"
     x="-4.5564793e-06"
     y="4.9364138e-07" />
  <g
     id="g861"
     transform="matrix(1.0197342,0,0,1.0197342,-21.608188,-7.2025242)">
    <path
       id="path2498"
       style="display:inline;mix-blend-mode:normal;fill:#000000;fill-opacity:1;stroke:none;stroke-width:9.99999;stroke-linecap:round;stroke-linejoin:round;stroke-dasharray:none;stroke-dashoffset:0;stroke-opacity:1;paint-order:stroke fill markers;filter:url(#filter2500)"
       d="m 1115.9766,118.1582 c -1.3036,0.14068 -1.355,1.51655 -2.545,9.03907 -7.6181,48.15891 -28.0953,91.99727 -61.6191,131.91796 -20.3975,24.28982 -44.3285,47.85731 -84.50587,83.2168 -37.62288,33.11127 -64.83907,58.00448 -79.31832,72.55273 l -7.78909,7.82618 -0.42593,23.9414 c -0.23193,13.167 -0.33636,24.11684 -0.22644,24.33399 0.11047,0.21715 0.38857,0.39455 0.61918,0.39455 0.66308,0 83.91349,-70.46598 99.76563,-84.44531 9.03167,-7.96474 37.62174,-36.4806 44.91214,-44.79492 14.5107,-16.54916 25.2326,-30.4268 35.5859,-46.0625 27.5294,-41.57519 46.2854,-90.0646 55.5879,-143.7168 1.6738,-9.65371 4.0597,-26.82849 4.3515,-31.32422 l 0.1698,-2.63086 -2.7519,-0.1582 c -0.801,-0.0461 -1.376,-0.13674 -1.8105,-0.0898 z m 113.83,89.48047 c -0.3462,0 -2.1064,3.73102 -3.9101,8.29297 -6.9427,17.55862 -10.6197,24.14269 -17.5625,31.43555 -4.7907,5.03202 -9.449,8.55223 -15.3809,11.625 -4.0772,2.11208 -4.6185,2.55775 -4.6133,3.81445 0,1.58448 2.9179,14.83224 4.7442,21.57227 1.9946,7.36088 5.9294,12.28881 12.6875,15.88281 1.7278,0.91889 3.1379,1.83305 3.1269,2.0332 -0.011,0.20016 -2.1611,2.85243 -4.7812,5.89258 -23.0351,26.72801 -37.0345,52.00025 -41.7149,75.30274 -1.5753,7.84314 -1.7017,23.75656 -0.2616,33.06835 1.7577,11.36686 5.3213,23.47767 9.8262,33.38868 2.0951,4.60931 3.0237,5.07186 7.6504,3.82226 9.2183,-2.48974 20.2274,-11.97521 40.6582,-35.03125 11.5606,-13.04612 26.1075,-28.08638 29.2988,-30.29297 1.1266,-0.77892 2.3659,-1.29503 2.7539,-1.14648 0.3881,0.14855 1.1288,1.66626 1.6465,3.37304 1.1174,3.68222 0.7483,5.65487 -2.1191,11.33594 -3.5887,7.11032 -8.477,14.05879 -20.3399,28.90235 -38.8242,48.57931 -56.829,80.57668 -66.3574,117.93554 -4.5275,17.75157 -5.8653,28.24791 -6.2148,48.76758 -0.2979,17.47619 0.1956,27.68712 1.9902,41.22266 8.9424,67.43733 43.8891,103.59744 105.2266,108.8789 7.7856,0.67039 26.7032,0.27803 33.2383,-0.68946 27.9744,-4.14212 50.5724,-15.58788 70.7011,-35.80861 25.138,-25.25291 42.3357,-59.80342 49.0645,-98.57028 2.5638,-14.77152 3.1219,-22.26799 3.1054,-41.76758 -0.033,-40.40172 -5.5532,-69.79992 -17.875,-95.17969 -13.4777,-27.76094 -32.0265,-42.07223 -57.3789,-44.26758 -13.8915,-1.20292 -26.3077,1.80819 -36.9082,8.95117 -7.6707,5.16886 -17.1475,16.7769 -21.9921,26.93946 -5.1495,10.8018 -7.3946,20.34723 -7.8282,33.27734 -0.7711,23.00294 3.4944,46.55221 11.207,61.875 l 2.4727,4.91016 -0.8808,4.50976 c -3.5404,18.14516 -10.1799,27.00045 -20.3301,27.11133 -2.8072,0.0307 -3.864,-0.21847 -5.8223,-1.36719 -5.6339,-3.30479 -9.6559,-9.30751 -15.2832,-22.8125 -5.8167,-13.95941 -9.9342,-20.16792 -15.0195,-22.65039 -2.2791,-1.11278 -3.4258,-1.37177 -5.0801,-1.15039 -9.7674,1.30716 -19.1734,21.5315 -30.043,64.59961 -1.498,5.93552 -4.6,16.47695 -6.8926,23.42578 -2.2924,6.94885 -4.1679,12.89453 -4.1679,13.21094 0,0.31658 1.1593,2.21115 2.5761,4.21093 4.4389,6.26496 12.0724,13.18486 13.2501,12.00976 0.5746,-0.57338 1.4007,-2.54186 11.6972,-27.85155 9.0412,-22.22427 12.2717,-28.88763 15.75,-32.48828 2.85,-2.95022 4.5023,-3.22691 7.1641,-1.20117 2.5201,1.91785 7.3966,9.48127 12.0879,18.74805 5.046,9.9674 7.9546,14.53157 11.5058,18.05468 3.8276,3.79731 5.9897,4.71266 10.3926,4.39844 4.4887,-0.32047 8.1062,-2.21567 11.6817,-6.11914 3.2794,-3.58019 5.2618,-7.49242 9.9453,-19.62891 8.8918,-23.04223 12.924,-30.25165 21.9179,-39.1875 8.6725,-8.61633 20.2162,-15.61787 33.336,-20.2168 4.4506,-1.56009 5.7198,-2.22109 5.8456,-3.04687 0.1605,-1.0532 -2.7848,-38.87087 -3.3652,-43.20899 -0.3666,-2.73874 -0.1132,-2.74131 -9.2148,0.0644 -15.6849,4.83533 -31.827,6.76064 -40.793,4.86523 -4.0656,-0.85945 -10.4006,-3.59404 -11.7343,-5.06445 -1.6881,-1.86109 0.2099,-10.72551 3.5956,-16.78907 6.4422,-11.53789 20.0242,-22.12959 32.4434,-25.29882 10.1548,-2.5914 27.3598,-0.25264 38.8672,5.2832 16.8587,8.11017 30.5602,24.78383 37.211,45.2832 9.5221,29.35022 4.3033,68.49083 -13.1797,98.83204 -18.4831,32.07635 -47.3687,57.6304 -76.6797,67.83986 -13.7477,4.78859 -23.107,6.26398 -39.3555,6.20311 -23.3903,-0.0872 -41.1667,-3.8007 -57.7734,-12.07029 -9.1004,-4.53174 -15.5888,-9.20512 -22.9864,-16.55274 -15.7599,-15.6533 -23.6533,-36.00747 -23.6973,-61.08791 -0.038,-24.05416 10.5318,-52.68783 32.0684,-86.84961 4.9315,-7.82229 8.4478,-12.96376 17.3438,-25.3711 27.9304,-38.95505 42.9495,-68.57005 46.125,-90.94726 0.7938,-5.59531 0.3495,-22.53864 -0.8223,-31.34571 -1.5049,-11.31092 -4.6302,-22.16235 -8.2442,-28.62695 -2.6164,-4.68045 -5.6706,-8.48632 -6.8105,-8.48632 -1.4278,0 -18.1983,16.48533 -36.1464,35.5332 -19.2515,20.4308 -26.0199,26.87909 -34.7423,33.10351 -5.7446,4.0996 -6.385,3.93963 -5.5488,-1.38086 1.7792,-11.32038 12.0803,-29.02816 34.2266,-58.83398 10.5893,-14.25198 16.477,-22.79675 21.7617,-31.58594 9.6887,-16.11341 14.9799,-29.3848 15.9551,-40.00977 0.9972,-10.86598 -3.3439,-39.38368 -7.9336,-52.11718 -2.6232,-7.27755 -6.5385,-13.68555 -8.3613,-13.68555 z m -135.5878,121.29101 c -4.034,-0.0564 -7.5259,0.33078 -9.3574,1.17579 -6.3819,2.94433 -9.7819,8.74307 -10.6504,18.17187 -0.3342,3.62585 -0.065,3.80323 4.1289,2.75196 3.1629,-0.79273 4.3298,-0.82732 9.4862,-0.29102 7.0941,0.73782 14.1621,2.61498 14.3946,3.82421 0.5144,2.67544 -17.9619,12.5946 -32.2012,17.28711 -3.6912,1.21643 -4.4128,1.93874 -2.373,2.37305 0.6529,0.13901 1.6618,0.369 2.2422,0.50977 2.1729,0.52709 8.6309,-0.22758 13.205,-1.54297 10.8104,-3.10877 26.8525,-10.47307 30.2832,-13.90235 6.6329,-6.62989 14.8126,-17.9708 14.8126,-20.53711 0,-1.37655 -12.663,-6.31787 -21.3692,-8.33788 -3.9931,-0.9265 -8.5676,-1.426 -12.6015,-1.48243 z m -265.01958,11.89454 c -4.45745,0 -8.23788,3.00498 -11.23633,8.93164 -2.21495,4.37802 -3.70313,10.16927 -3.70313,14.41211 0,5.17597 1.8799,8.47145 8.35352,14.64648 l 5.02539,4.79297 -1.28125,2.42969 c -0.70442,1.33667 -3.41762,5.63228 -6.0293,9.54492 -13.32645,19.9649 -29.28128,35.55984 -48.72851,47.63086 -3.34609,2.07694 -6.17623,4.05294 -6.28907,4.39062 -0.34052,1.01935 1.16057,0.70545 5.50782,-1.15429 29.65909,-12.68818 50.16468,-30.0119 60.30078,-50.94141 3.90363,-8.06042 3.2155,-7.39248 6.38867,-6.18945 1.49276,0.56594 3.10394,0.90192 3.58203,0.74805 1.00396,-0.3231 5.88282,-7.21008 5.88282,-8.30469 0,-0.40344 -1.40397,-1.40276 -3.11914,-2.22071 -1.71517,-0.81793 -3.77048,-2.00778 -4.56836,-2.64257 l -1.45118,-1.1543 0.61133,-5.36914 c 2.10678,-18.48604 -1.3539,-29.55078 -9.24609,-29.55078 z m 45.16797,0.12503 c -0.53146,0.12958 -1.52254,1.17112 -3.14061,3.16797 -8.86975,10.94574 -19.11947,38.80002 -23.29299,63.30273 l -1.16406,6.84375 -0.3652,116.3418 c -0.20039,63.98808 -0.50052,117.05325 -0.66797,117.92187 -0.16746,0.86862 -0.57157,3.94837 -0.89649,6.84375 -1.21491,10.82645 -4.36533,23.11456 -8.29492,32.34956 l -1.89258,4.44926 2.07032,3.95896 c 1.29025,2.46602 3.40681,5.32364 5.61328,7.57816 1.94815,1.99069 3.84736,3.52613 4.2207,3.41207 1.00232,-0.30599 7.3107,-19.57656 10.10742,-30.87497 6.47551,-26.16104 7.55972,-37.34121 8.25,-85.09765 0.45765,-31.66148 1.04348,-51.52406 3.42578,-116.08008 2.53834,-68.78437 5.12247,-121.86277 6.41605,-131.80859 0.21544,-1.65488 0.14289,-2.43818 -0.38856,-2.30859 z M 826.125,353.49222 c 1.41836,0.0543 2.8283,0.40513 3.86719,1.0371 2.89122,1.7588 3.94643,4.9117 3.69922,11.05274 -0.13037,3.23843 -0.46694,5.44089 -0.91407,5.97851 -0.38933,0.46815 -0.90722,0.85157 -1.15234,0.85157 -0.97689,0 -8.35883,-7.86938 -9.9043,-10.5586 -2.33707,-4.06664 -2.19646,-6.23578 0.49217,-7.62304 1.06806,-0.55109 2.49374,-0.79274 3.91211,-0.73828 z m -83.90429,5.81054 c -1.39971,0.0439 -2.8664,0.45482 -4.23634,1.25586 -6.59644,3.85717 -12.98763,19.71668 -17.61328,43.70117 -1.56891,8.13506 -1.57553,8.16016 -2.0996,8.16016 -0.2593,0 -1.12051,-1.71726 -1.91407,-3.8164 -5.10174,-13.49554 -10.87694,-22.21149 -16.69922,-25.20508 -4.24577,-2.18303 -10.78994,-1.22566 -13.71875,2.00585 -0.49672,0.5481 -1.43947,2.17225 -2.09375,3.60938 -1.01107,2.22076 -1.19097,3.52067 -1.19921,8.66602 -0.008,5.31765 0.14229,6.36174 1.24023,8.58202 2.10447,4.25581 5.62681,6.15821 11.39844,6.15821 4.03872,0 6.37851,-1.35961 7.91211,-4.59766 0.59537,-1.25708 1.38025,-2.17489 1.79882,-2.10547 0.85046,0.14104 9.43025,16.66528 12.44336,23.96485 1.1104,2.69001 2.21331,4.69827 2.45118,4.46093 0.23781,-0.23733 1.39032,-6.82167 2.56054,-14.63085 2.33221,-15.56347 3.81569,-21.71774 6.61914,-27.45313 3.53421,-7.23034 7.91654,-8.83415 13.36719,-4.89453 1.19249,0.86191 2.50299,1.5664 2.91211,1.5664 0.91697,0 2.45064,-2.53222 3.9414,-6.50781 2.04236,-5.44649 1.31966,-16.09786 -1.37109,-20.19531 -1.21653,-1.85251 -3.36639,-2.79786 -5.69921,-2.72461 z m -121.89454,41.86133 c -0.077,0.0154 -0.13416,0.051 -0.16796,0.10545 -0.22407,0.36176 -0.84288,4.41739 -1.375,9.01368 l -0.96679,8.35742 4.61523,4.35937 c 14.13395,13.34916 17.91721,27.47114 15.25,56.93555 -0.51162,5.6515 0.58375,4.35799 3.21484,-3.79492 4.53715,-14.0591 6.14526,-27.76199 4.31641,-36.76758 -2.34982,-11.57104 -8.43998,-24.28256 -14.98633,-31.27734 -2.97646,-3.18038 -8.74528,-7.16533 -9.90039,-6.93165 z m 511.36333,15.9375 c -1.9644,-0.0439 -9.4884,1.30232 -17.9864,3.25586 -52.7256,12.1207 -154.40726,54.32733 -165.07221,68.51953 -2.28742,3.04389 -5.63286,10.71024 -5.63286,12.9082 0,0.6021 0.35504,0.54212 1.71484,-0.28904 12.5908,-7.69538 18.08571,-10.73385 30.20511,-16.70704 16.7986,-8.27932 28.63942,-13.46823 54.13672,-23.7207 41.3958,-16.64517 67.8337,-25.74878 87,-29.95703 3.3371,-0.73272 6.5835,-1.44657 7.2149,-1.58789 1.8499,-0.41402 9.6234,-11.16162 8.9081,-12.3164 -0.038,-0.0652 -0.2077,-0.0993 -0.488,-0.10546 z m -354.93754,45.95899 c -1.07373,0.41517 -4.04602,3.78659 -6.54883,7.53125 -7.15989,10.71243 -18.6481,37.89422 -21.07227,49.85741 -0.72411,3.57349 -0.82226,14.0701 -0.82226,87.95899 0,46.1454 0.15811,84.05893 0.35157,84.25195 0.68591,0.68426 1.32714,0.32025 4.18946,-2.3808 9.94489,-9.38454 16.15709,-30.22051 18.88281,-63.33599 1.02547,-12.45879 1.29378,-20.66413 1.91797,-58.69727 0.76856,-46.82987 1.84491,-79.74471 3.1914,-97.57812 0.30289,-4.01157 0.41347,-7.43068 0.24611,-7.59766 -0.0691,-0.0689 -0.18252,-0.069 -0.33591,-0.01 z m 59.71874,17.27148 c -1.16705,0 -11.34769,17.33677 -17.46484,29.74219 -18.00652,36.51662 -27.6161,75.06783 -30.11719,120.81835 -2.10569,38.51815 3.20662,72.13886 16.15235,102.23833 9.95226,23.13937 24.07297,43.31207 43.60937,62.29688 20.25348,19.68146 42.12393,33.23998 67.75002,41.99795 15.45567,5.28218 28.69943,7.99053 49.02144,10.0274 1.16075,0.1179 10.41967,0.14422 20.57619,0.0625 15.33056,-0.12338 19.85536,-0.33944 26.64456,-1.26953 24.2574,-3.32313 43.0782,-8.94124 63.5761,-18.97653 21.1128,-10.3364 38.3481,-22.74625 55.9414,-40.2832 13.3279,-13.28516 24.4621,-27.10772 36.2598,-45.01564 6.68,-10.13981 15.168,-24.62475 15.168,-25.88282 0,-0.44089 -0.4628,-1.22078 -1.0293,-1.73241 -2.8892,-2.60888 -8.0079,-11.44066 -11.5332,-19.89648 -0.332,-0.79624 -0.8213,-1.44726 -1.0879,-1.44726 -0.2665,0 -1.6052,1.79416 -2.9746,3.98632 -12.0611,19.30797 -32.1923,41.17299 -50.6445,55.00778 -39.6289,29.71237 -82.3699,43.45711 -127.80277,41.09769 -45.90496,-2.38393 -83.63144,-16.03578 -116.48241,-42.1504 -34.18926,-27.17851 -55.97772,-61.41077 -63.83986,-100.29496 -2.65969,-13.15414 -3.1268,-18.44252 -3.12891,-35.55859 -0.002,-14.09131 0.14515,-16.98495 1.19141,-23.63477 1.47156,-9.35298 4.54848,-21.52265 7.46875,-29.53515 4.42903,-12.15213 13.8721,-29.52095 21.39062,-39.34571 l 1.83204,-2.39453 v -19.92969 c 0,-11.5193 -0.20094,-19.92773 -0.47656,-19.92773 z m -284.96094,1.02539 c -0.18609,0.0104 -0.40653,0.0701 -0.66211,0.16797 -0.84866,0.32496 -10.88574,19.84302 -14.0039,27.23242 -6.79042,16.09199 -9.43888,28.34686 -8.07617,37.37695 1.10314,7.30996 4.39103,11.74648 10.1875,13.74414 5.60397,1.93134 12.52746,0.86597 16.26367,-2.50195 1.13482,-1.02295 2.67877,-3.11697 3.43164,-4.65234 3.24155,-6.61076 3.79013,-19.55661 1.00781,-23.81445 -1.00967,-1.54512 -2.00209,-1.07497 -3.16406,1.49609 -1.89778,4.19913 -6.08287,6.07557 -9.95117,4.46289 -1.48051,-0.61721 -2.19248,-1.3873 -3.03125,-3.2793 -0.96186,-2.16964 -1.06458,-3.19126 -0.83399,-8.31055 0.28898,-6.41567 2.09205,-14.23194 7.26953,-31.51172 2.44598,-8.16336 2.86533,-10.48228 1.5625,-10.41015 z m 111.02344,10.95508 c -0.95895,-0.0551 -2.46385,0.53235 -2.95312,1.32227 -0.20605,0.33269 -0.38269,2.88337 -0.39258,5.66796 -0.0209,5.9228 -0.67883,9.4364 -2.3125,12.33594 -3.10944,5.51878 -9.68136,6.10819 -13.53906,1.21484 -1.33211,-1.68973 -3.40377,-6.2492 -4.23047,-9.31249 -0.53229,-1.97235 -0.75191,-2.19844 -2.00195,-2.05274 -1.53818,0.17931 -1.39756,-0.22248 -2.99024,8.47852 -2.08265,11.37767 -7.01469,17.69482 -13.84179,17.73046 -4.43223,0.023 -6.67169,-3.49201 -7.76563,-12.19336 l -0.61719,-4.9043 -1.75586,0.084 c -0.96609,0.0461 -1.97343,0.30018 -2.23828,0.56445 -0.26485,0.26426 -1.09057,3.54394 -1.83594,7.28712 -2.76419,13.88146 -0.64322,24.13892 5.83985,28.23632 1.35554,0.85671 2.31409,0.97857 6.1543,0.78516 9.10506,-0.4586 15.28322,-4.89401 18.49999,-13.28125 1.2602,-3.28574 0.94322,-3.22741 5.97071,-1.0918 6.03295,2.56271 13.94831,1.54224 18.40625,-2.37304 5.42689,-4.76632 7.25418,-15.40003 5.00976,-29.16016 -0.57748,-3.54038 -1.9311,-8.09591 -2.6875,-9.05078 -0.14064,-0.17751 -0.39911,-0.26876 -0.71875,-0.28713 z m 449.0371,2.49609 c -0.8299,0.002 -1.9008,1.67163 -5.0117,7.81641 -2.9867,5.89949 -4.5538,8.37615 -6.3926,10.09765 -3.5063,3.2827 -5.1994,3.46893 -11.7207,1.29493 l -5.2305,-1.74415 -1.8105,0.97461 c -2.1917,1.17767 -5.4292,5.38113 -9.8203,12.75391 -3.7088,6.22717 -7.916,11.16383 -10.5938,12.43164 -2.7117,1.28397 -4.8231,1.06982 -12.5547,-1.27734 -10.1576,-3.0836 -13.383,-2.87746 -19.4238,1.24609 -5.4646,3.73021 -11.1628,10.05095 -19.2207,21.31445 -10.11034,14.13261 -19.75926,22.05696 -28.86913,23.71289 -3.36281,0.6113 -4.15428,0.1751 -4.15428,-2.29101 0,-2.77244 -2.52045,-10.67081 -5.05276,-15.83594 -8.92538,-18.20516 -21.31919,-28.68646 -34.05271,-28.79882 -3.37688,-0.0296 -4.50235,0.20021 -7.04494,1.4414 -3.58386,1.7495 -7.66565,5.66893 -10.76954,10.3418 -5.16977,7.78277 -10.75729,21.30113 -12.5488,30.36132 -1.19768,6.04812 -1.20191,17.02803 -0.011,21.57032 1.79448,6.84136 4.29712,10.16399 9.41599,12.5 5.64402,2.57557 8.98182,2.99745 26.55662,3.35937 l 16.35546,0.33791 0.17752,1.25196 c 0.31657,2.23415 -2.57304,8.88294 -6.2617,14.40819 -10.55603,15.81182 -26.66731,32.45481 -43.74411,45.18753 -8.91708,6.64872 -15.49486,10.64975 -31.55277,19.19139 -7.06555,3.75837 -11.85774,6.62135 -12.03905,7.19139 -0.16582,0.52095 -0.15076,1.42093 0.033,2.00001 h 0.002 c 0.32327,1.01871 0.7973,1.05079 13.62109,1.05079 31.56338,-0.003 48.12368,-3.16925 56.23636,-10.75585 9.22755,-8.62911 18.65338,-22.85785 25.65622,-38.72658 3.26569,-7.40025 8.19397,-22.31484 10.26369,-31.06055 2.87087,-12.13009 2.31644,-11.12393 6.6035,-11.98047 9.79549,-1.95719 16.81866,-8.2338 27.82034,-24.86914 7.6648,-11.58962 11.7934,-16.58209 15.5176,-18.75976 2.8834,-1.68606 4.7505,-1.49692 10.3535,1.05078 10.2291,4.6511 16.1396,4.99216 21.7871,1.25977 3.4974,-2.31139 6.0885,-5.84581 12.9141,-17.60743 l 5.9746,-10.29297 3.8672,0.34959 c 13.7235,1.24082 24.5281,-7.66967 32.1504,-26.51172 2.8958,-7.15843 3.9774,-12.5905 3.7812,-18.98633 -0.1412,-4.59324 -0.2369,-4.9974 -1.2051,-4.99804 z m -399.666,8.97266 -1.28907,1.30273 c -3.91915,3.96599 -17.16919,28.83619 -21.1582,39.71289 -3.99267,10.88678 -4.05357,11.36537 -3.65039,28.29883 0.38587,16.20599 0.17526,18.4527 -2.15625,23.05078 -2.51806,4.96601 -7.67961,8.30914 -14.68555,9.51172 -4.24474,0.72857 -8.4837,0.40843 -10.86132,-0.81836 -6.41173,-3.30819 -13.71406,-18.35491 -15.46094,-31.85742 -0.61577,-4.75953 -0.70843,-5 -1.92187,-5 -1.43085,0 -1.4125,-0.0461 -3.20313,7.63281 -2.53024,10.85082 -9.42398,27.04112 -15.35352,36.06055 -3.89223,5.92045 -10.94552,12.80309 -15.26367,14.89258 -10.09143,4.883 -21.09732,2.44827 -31.53906,-6.98047 -8.36857,-7.55661 -18.07664,-22.99323 -20.45508,-32.52344 -0.48776,-1.95438 -1.08132,-3.55274 -1.31836,-3.55274 -0.23704,0 -2.38226,3.23604 -4.76758,7.19141 -20.7534,34.41356 -46.86072,63.59134 -73.19336,81.79887 -4.44724,3.07499 -4.84179,3.48824 -4.84179,5.08395 0,2.19573 0.26957,2.19205 6.57617,-0.0861 23.04857,-8.3247 42.65567,-19.27129 54.17578,-30.24805 2.2183,-2.11366 4.19462,-3.82663 4.39258,-3.80469 0.19796,0.0208 1.87215,3.06689 3.7207,6.76953 3.9197,7.85105 8.02001,13.35068 13.17188,17.66797 11.21601,9.39902 27.76049,12.23344 42.35351,7.25588 6.45364,-2.20133 9.80348,-4.41927 15.95508,-10.56447 5.25621,-5.25077 6.95397,-7.6098 11.75391,-16.32618 l 0.9375,-1.70312 3.2832,3.13477 c 6.03976,5.76867 11.3037,7.99633 19.90234,8.42187 6.43119,0.31811 10.90818,-0.51854 15.69922,-2.93164 14.0883,-7.09596 24.68775,-23.53957 35.41797,-54.94922 4.93125,-14.43482 7.96243,-26.8657 10.04297,-41.18946 0.9787,-6.73801 3.73633,-45.34315 3.73633,-52.30468 z m 407.6465,73.41406 c -1.7087,0 -1.9247,0.24375 -5.4864,6.18555 -9.3557,15.60819 -23.6672,33.55442 -42.2128,52.92968 -10.3173,10.77888 -17.2256,17.21037 -26.2344,24.42774 -15.6268,12.51953 -32.9527,23.38001 -57.11328,35.80275 -11.86439,6.10024 -13.41881,7.2499 -12.61722,9.33398 0.27864,0.72527 2.5039,0.82546 18.66799,0.81449 23.82231,-0.011 31.50961,-0.99227 43.79881,-5.57226 14.1184,-5.26179 25.4271,-12.7601 37.6055,-24.93557 12.953,-12.95012 22.6907,-26.3868 30.3398,-41.86722 5.2156,-10.55542 8.4349,-19.25527 11.0079,-29.74414 1.9768,-8.05847 4.0161,-20.673 4.0214,-24.87305 0,-2.48905 -0.01,-2.50195 -1.7773,-2.50195 z M 704.49219,638.3457 c -1.64449,0.21463 -3.06678,1.8925 -6.03516,6.43946 -14.29283,21.89371 -22.83926,44.7526 -26.39648,70.59961 -1.12207,8.15296 -1.59006,26.12082 -0.85352,32.79493 3.54865,32.1558 20.17222,52.13716 47.12891,56.64844 5.93288,0.99299 19.5809,1.02014 26.91211,0.0548 18.61917,-2.45242 35.6982,-9.65769 50.28125,-21.21487 4.04162,-3.20282 15.36407,-14.05787 16.13476,-15.46872 0.36834,-0.67438 -0.4405,-2.24415 -3.43554,-6.66604 -4.2511,-6.27622 -7.55004,-12.74205 -9.04102,-17.72071 -1.40393,-4.68786 -1.69204,-4.85105 -4.62695,-2.61524 -7.17243,5.46435 -18.89153,11.57046 -27.77735,14.47271 -8.37553,2.73549 -15.05212,3.77663 -24.01367,3.73824 -15.46634,-0.0625 -26.96871,-4.45403 -37.33789,-14.25582 -7.16463,-6.77271 -10.46131,-11.84338 -13.36133,-20.55469 -1.3937,-4.18659 -1.48896,-5.03333 -1.48632,-13.16018 0.003,-8.49465 0.0506,-8.86606 2.17187,-16.84568 2.44856,-9.21208 7.49487,-24.85035 12.87695,-39.89845 4.54407,-12.70514 4.63364,-14.91605 0.64453,-16.12696 -0.66322,-0.20136 -1.237,-0.29223 -1.78515,-0.22072 z" />
    <path
       id="path859"
       style="display:inline;fill:url(#linearGradient1636);fill-opacity:1;stroke:none;stroke-width:9.99999;stroke-linecap:round;stroke-linejoin:round;stroke-dasharray:none;stroke-dashoffset:0;stroke-opacity:1;paint-order:stroke fill markers"
       d="m 1115.9766,118.1582 c -1.3036,0.14068 -1.355,1.51655 -2.545,9.03907 -7.6181,48.15891 -28.0953,91.99727 -61.6191,131.91796 -20.3975,24.28982 -44.3285,47.85731 -84.50587,83.2168 -37.62288,33.11127 -64.83907,58.00448 -79.31832,72.55273 l -7.78909,7.82618 -0.42593,23.9414 c -0.23193,13.167 -0.33636,24.11684 -0.22644,24.33399 0.11047,0.21715 0.38857,0.39455 0.61918,0.39455 0.66308,0 83.91349,-70.46598 99.76563,-84.44531 9.03167,-7.96474 37.62174,-36.4806 44.91214,-44.79492 14.5107,-16.54916 25.2326,-30.4268 35.5859,-46.0625 27.5294,-41.57519 46.2854,-90.0646 55.5879,-143.7168 1.6738,-9.65371 4.0597,-26.82849 4.3515,-31.32422 l 0.1698,-2.63086 -2.7519,-0.1582 c -0.801,-0.0461 -1.376,-0.13674 -1.8105,-0.0898 z m 113.83,89.48047 c -0.3462,0 -2.1064,3.73102 -3.9101,8.29297 -6.9427,17.55862 -10.6197,24.14269 -17.5625,31.43555 -4.7907,5.03202 -9.449,8.55223 -15.3809,11.625 -4.0772,2.11208 -4.6185,2.55775 -4.6133,3.81445 0,1.58448 2.9179,14.83224 4.7442,21.57227 1.9946,7.36088 5.9294,12.28881 12.6875,15.88281 1.7278,0.91889 3.1379,1.83305 3.1269,2.0332 -0.011,0.20016 -2.1611,2.85243 -4.7812,5.89258 -23.0351,26.72801 -37.0345,52.00025 -41.7149,75.30274 -1.5753,7.84314 -1.7017,23.75656 -0.2616,33.06835 1.7577,11.36686 5.3213,23.47767 9.8262,33.38868 2.0951,4.60931 3.0237,5.07186 7.6504,3.82226 9.2183,-2.48974 20.2274,-11.97521 40.6582,-35.03125 11.5606,-13.04612 26.1075,-28.08638 29.2988,-30.29297 1.1266,-0.77892 2.3659,-1.29503 2.7539,-1.14648 0.3881,0.14855 1.1288,1.66626 1.6465,3.37304 1.1174,3.68222 0.7483,5.65487 -2.1191,11.33594 -3.5887,7.11032 -8.477,14.05879 -20.3399,28.90235 -38.8242,48.57931 -56.829,80.57668 -66.3574,117.93554 -4.5275,17.75157 -5.8653,28.24791 -6.2148,48.76758 -0.2979,17.47619 0.1956,27.68712 1.9902,41.22266 8.9424,67.43733 43.8891,103.59744 105.2266,108.8789 7.7856,0.67039 26.7032,0.27803 33.2383,-0.68946 27.9744,-4.14212 50.5724,-15.58788 70.7011,-35.80861 25.138,-25.25291 42.3357,-59.80342 49.0645,-98.57028 2.5638,-14.77152 3.1219,-22.26799 3.1054,-41.76758 -0.033,-40.40172 -5.5532,-69.79992 -17.875,-95.17969 -13.4777,-27.76094 -32.0265,-42.07223 -57.3789,-44.26758 -13.8915,-1.20292 -26.3077,1.80819 -36.9082,8.95117 -7.6707,5.16886 -17.1475,16.7769 -21.9921,26.93946 -5.1495,10.8018 -7.3946,20.34723 -7.8282,33.27734 -0.7711,23.00294 3.4944,46.55221 11.207,61.875 l 2.4727,4.91016 -0.8808,4.50976 c -3.5404,18.14516 -10.1799,27.00045 -20.3301,27.11133 -2.8072,0.0307 -3.864,-0.21847 -5.8223,-1.36719 -5.6339,-3.30479 -9.6559,-9.30751 -15.2832,-22.8125 -5.8167,-13.95941 -9.9342,-20.16792 -15.0195,-22.65039 -2.2791,-1.11278 -3.4258,-1.37177 -5.0801,-1.15039 -9.7674,1.30716 -19.1734,21.5315 -30.043,64.59961 -1.498,5.93552 -4.6,16.47695 -6.8926,23.42578 -2.2924,6.94885 -4.1679,12.89453 -4.1679,13.21094 0,0.31658 1.1593,2.21115 2.5761,4.21093 4.4389,6.26496 12.0724,13.18486 13.2501,12.00976 0.5746,-0.57338 1.4007,-2.54186 11.6972,-27.85155 9.0412,-22.22427 12.2717,-28.88763 15.75,-32.48828 2.85,-2.95022 4.5023,-3.22691 7.1641,-1.20117 2.5201,1.91785 7.3966,9.48127 12.0879,18.74805 5.046,9.9674 7.9546,14.53157 11.5058,18.05468 3.8276,3.79731 5.9897,4.71266 10.3926,4.39844 4.4887,-0.32047 8.1062,-2.21567 11.6817,-6.11914 3.2794,-3.58019 5.2618,-7.49242 9.9453,-19.62891 8.8918,-23.04223 12.924,-30.25165 21.9179,-39.1875 8.6725,-8.61633 20.2162,-15.61787 33.336,-20.2168 4.4506,-1.56009 5.7198,-2.22109 5.8456,-3.04687 0.1605,-1.0532 -2.7848,-38.87087 -3.3652,-43.20899 -0.3666,-2.73874 -0.1132,-2.74131 -9.2148,0.0644 -15.6849,4.83533 -31.827,6.76064 -40.793,4.86523 -4.0656,-0.85945 -10.4006,-3.59404 -11.7343,-5.06445 -1.6881,-1.86109 0.2099,-10.72551 3.5956,-16.78907 6.4422,-11.53789 20.0242,-22.12959 32.4434,-25.29882 10.1548,-2.5914 27.3598,-0.25264 38.8672,5.2832 16.8587,8.11017 30.5602,24.78383 37.211,45.2832 9.5221,29.35022 4.3033,68.49083 -13.1797,98.83204 -18.4831,32.07635 -47.3687,57.6304 -76.6797,67.83986 -13.7477,4.78859 -23.107,6.26398 -39.3555,6.20311 -23.3903,-0.0872 -41.1667,-3.8007 -57.7734,-12.07029 -9.1004,-4.53174 -15.5888,-9.20512 -22.9864,-16.55274 -15.7599,-15.6533 -23.6533,-36.00747 -23.6973,-61.08791 -0.038,-24.05416 10.5318,-52.68783 32.0684,-86.84961 4.9315,-7.82229 8.4478,-12.96376 17.3438,-25.3711 27.9304,-38.95505 42.9495,-68.57005 46.125,-90.94726 0.7938,-5.59531 0.3495,-22.53864 -0.8223,-31.34571 -1.5049,-11.31092 -4.6302,-22.16235 -8.2442,-28.62695 -2.6164,-4.68045 -5.6706,-8.48632 -6.8105,-8.48632 -1.4278,0 -18.1983,16.48533 -36.1464,35.5332 -19.2515,20.4308 -26.0199,26.87909 -34.7423,33.10351 -5.7446,4.0996 -6.385,3.93963 -5.5488,-1.38086 1.7792,-11.32038 12.0803,-29.02816 34.2266,-58.83398 10.5893,-14.25198 16.477,-22.79675 21.7617,-31.58594 9.6887,-16.11341 14.9799,-29.3848 15.9551,-40.00977 0.9972,-10.86598 -3.3439,-39.38368 -7.9336,-52.11718 -2.6232,-7.27755 -6.5385,-13.68555 -8.3613,-13.68555 z m -135.5878,121.29101 c -4.034,-0.0564 -7.5259,0.33078 -9.3574,1.17579 -6.3819,2.94433 -9.7819,8.74307 -10.6504,18.17187 -0.3342,3.62585 -0.065,3.80323 4.1289,2.75196 3.1629,-0.79273 4.3298,-0.82732 9.4862,-0.29102 7.0941,0.73782 14.1621,2.61498 14.3946,3.82421 0.5144,2.67544 -17.9619,12.5946 -32.2012,17.28711 -3.6912,1.21643 -4.4128,1.93874 -2.373,2.37305 0.6529,0.13901 1.6618,0.369 2.2422,0.50977 2.1729,0.52709 8.6309,-0.22758 13.205,-1.54297 10.8104,-3.10877 26.8525,-10.47307 30.2832,-13.90235 6.6329,-6.62989 14.8126,-17.9708 14.8126,-20.53711 0,-1.37655 -12.663,-6.31787 -21.3692,-8.33788 -3.9931,-0.9265 -8.5676,-1.426 -12.6015,-1.48243 z m -265.01958,11.89454 c -4.45745,0 -8.23788,3.00498 -11.23633,8.93164 -2.21495,4.37802 -3.70313,10.16927 -3.70313,14.41211 0,5.17597 1.8799,8.47145 8.35352,14.64648 l 5.02539,4.79297 -1.28125,2.42969 c -0.70442,1.33667 -3.41762,5.63228 -6.0293,9.54492 -13.32645,19.9649 -29.28128,35.55984 -48.72851,47.63086 -3.34609,2.07694 -6.17623,4.05294 -6.28907,4.39062 -0.34052,1.01935 1.16057,0.70545 5.50782,-1.15429 29.65909,-12.68818 50.16468,-30.0119 60.30078,-50.94141 3.90363,-8.06042 3.2155,-7.39248 6.38867,-6.18945 1.49276,0.56594 3.10394,0.90192 3.58203,0.74805 1.00396,-0.3231 5.88282,-7.21008 5.88282,-8.30469 0,-0.40344 -1.40397,-1.40276 -3.11914,-2.22071 -1.71517,-0.81793 -3.77048,-2.00778 -4.56836,-2.64257 l -1.45118,-1.1543 0.61133,-5.36914 c 2.10678,-18.48604 -1.3539,-29.55078 -9.24609,-29.55078 z m 45.16797,0.12503 c -0.53146,0.12958 -1.52254,1.17112 -3.14061,3.16797 -8.86975,10.94574 -19.11947,38.80002 -23.29299,63.30273 l -1.16406,6.84375 -0.3652,116.3418 c -0.20039,63.98808 -0.50052,117.05325 -0.66797,117.92187 -0.16746,0.86862 -0.57157,3.94837 -0.89649,6.84375 -1.21491,10.82645 -4.36533,23.11456 -8.29492,32.34956 l -1.89258,4.44926 2.07032,3.95896 c 1.29025,2.46602 3.40681,5.32364 5.61328,7.57816 1.94815,1.99069 3.84736,3.52613 4.2207,3.41207 1.00232,-0.30599 7.3107,-19.57656 10.10742,-30.87497 6.47551,-26.16104 7.55972,-37.34121 8.25,-85.09765 0.45765,-31.66148 1.04348,-51.52406 3.42578,-116.08008 2.53834,-68.78437 5.12247,-121.86277 6.41605,-131.80859 0.21544,-1.65488 0.14289,-2.43818 -0.38856,-2.30859 z M 826.125,353.49222 c 1.41836,0.0543 2.8283,0.40513 3.86719,1.0371 2.89122,1.7588 3.94643,4.9117 3.69922,11.05274 -0.13037,3.23843 -0.46694,5.44089 -0.91407,5.97851 -0.38933,0.46815 -0.90722,0.85157 -1.15234,0.85157 -0.97689,0 -8.35883,-7.86938 -9.9043,-10.5586 -2.33707,-4.06664 -2.19646,-6.23578 0.49217,-7.62304 1.06806,-0.55109 2.49374,-0.79274 3.91211,-0.73828 z m -83.90429,5.81054 c -1.39971,0.0439 -2.8664,0.45482 -4.23634,1.25586 -6.59644,3.85717 -12.98763,19.71668 -17.61328,43.70117 -1.56891,8.13506 -1.57553,8.16016 -2.0996,8.16016 -0.2593,0 -1.12051,-1.71726 -1.91407,-3.8164 -5.10174,-13.49554 -10.87694,-22.21149 -16.69922,-25.20508 -4.24577,-2.18303 -10.78994,-1.22566 -13.71875,2.00585 -0.49672,0.5481 -1.43947,2.17225 -2.09375,3.60938 -1.01107,2.22076 -1.19097,3.52067 -1.19921,8.66602 -0.008,5.31765 0.14229,6.36174 1.24023,8.58202 2.10447,4.25581 5.62681,6.15821 11.39844,6.15821 4.03872,0 6.37851,-1.35961 7.91211,-4.59766 0.59537,-1.25708 1.38025,-2.17489 1.79882,-2.10547 0.85046,0.14104 9.43025,16.66528 12.44336,23.96485 1.1104,2.69001 2.21331,4.69827 2.45118,4.46093 0.23781,-0.23733 1.39032,-6.82167 2.56054,-14.63085 2.33221,-15.56347 3.81569,-21.71774 6.61914,-27.45313 3.53421,-7.23034 7.91654,-8.83415 13.36719,-4.89453 1.19249,0.86191 2.50299,1.5664 2.91211,1.5664 0.91697,0 2.45064,-2.53222 3.9414,-6.50781 2.04236,-5.44649 1.31966,-16.09786 -1.37109,-20.19531 -1.21653,-1.85251 -3.36639,-2.79786 -5.69921,-2.72461 z m -121.89454,41.86133 c -0.077,0.0154 -0.13416,0.051 -0.16796,0.10545 -0.22407,0.36176 -0.84288,4.41739 -1.375,9.01368 l -0.96679,8.35742 4.61523,4.35937 c 14.13395,13.34916 17.91721,27.47114 15.25,56.93555 -0.51162,5.6515 0.58375,4.35799 3.21484,-3.79492 4.53715,-14.0591 6.14526,-27.76199 4.31641,-36.76758 -2.34982,-11.57104 -8.43998,-24.28256 -14.98633,-31.27734 -2.97646,-3.18038 -8.74528,-7.16533 -9.90039,-6.93165 z m 511.36333,15.9375 c -1.9644,-0.0439 -9.4884,1.30232 -17.9864,3.25586 -52.7256,12.1207 -154.40726,54.32733 -165.07221,68.51953 -2.28742,3.04389 -5.63286,10.71024 -5.63286,12.9082 0,0.6021 0.35504,0.54212 1.71484,-0.28904 12.5908,-7.69538 18.08571,-10.73385 30.20511,-16.70704 16.7986,-8.27932 28.63942,-13.46823 54.13672,-23.7207 41.3958,-16.64517 67.8337,-25.74878 87,-29.95703 3.3371,-0.73272 6.5835,-1.44657 7.2149,-1.58789 1.8499,-0.41402 9.6234,-11.16162 8.9081,-12.3164 -0.038,-0.0652 -0.2077,-0.0993 -0.488,-0.10546 z m -354.93754,45.95899 c -1.07373,0.41517 -4.04602,3.78659 -6.54883,7.53125 -7.15989,10.71243 -18.6481,37.89422 -21.07227,49.85741 -0.72411,3.57349 -0.82226,14.0701 -0.82226,87.95899 0,46.1454 0.15811,84.05893 0.35157,84.25195 0.68591,0.68426 1.32714,0.32025 4.18946,-2.3808 9.94489,-9.38454 16.15709,-30.22051 18.88281,-63.33599 1.02547,-12.45879 1.29378,-20.66413 1.91797,-58.69727 0.76856,-46.82987 1.84491,-79.74471 3.1914,-97.57812 0.30289,-4.01157 0.41347,-7.43068 0.24611,-7.59766 -0.0691,-0.0689 -0.18252,-0.069 -0.33591,-0.01 z m 59.71874,17.27148 c -1.16705,0 -11.34769,17.33677 -17.46484,29.74219 -18.00652,36.51662 -27.6161,75.06783 -30.11719,120.81835 -2.10569,38.51815 3.20662,72.13886 16.15235,102.23833 9.95226,23.13937 24.07297,43.31207 43.60937,62.29688 20.25348,19.68146 42.12393,33.23998 67.75002,41.99795 15.45567,5.28218 28.69943,7.99053 49.02144,10.0274 1.16075,0.1179 10.41967,0.14422 20.57619,0.0625 15.33056,-0.12338 19.85536,-0.33944 26.64456,-1.26953 24.2574,-3.32313 43.0782,-8.94124 63.5761,-18.97653 21.1128,-10.3364 38.3481,-22.74625 55.9414,-40.2832 13.3279,-13.28516 24.4621,-27.10772 36.2598,-45.01564 6.68,-10.13981 15.168,-24.62475 15.168,-25.88282 0,-0.44089 -0.4628,-1.22078 -1.0293,-1.73241 -2.8892,-2.60888 -8.0079,-11.44066 -11.5332,-19.89648 -0.332,-0.79624 -0.8213,-1.44726 -1.0879,-1.44726 -0.2665,0 -1.6052,1.79416 -2.9746,3.98632 -12.0611,19.30797 -32.1923,41.17299 -50.6445,55.00778 -39.6289,29.71237 -82.3699,43.45711 -127.80277,41.09769 -45.90496,-2.38393 -83.63144,-16.03578 -116.48241,-42.1504 -34.18926,-27.17851 -55.97772,-61.41077 -63.83986,-100.29496 -2.65969,-13.15414 -3.1268,-18.44252 -3.12891,-35.55859 -0.002,-14.09131 0.14515,-16.98495 1.19141,-23.63477 1.47156,-9.35298 4.54848,-21.52265 7.46875,-29.53515 4.42903,-12.15213 13.8721,-29.52095 21.39062,-39.34571 l 1.83204,-2.39453 v -19.92969 c 0,-11.5193 -0.20094,-19.92773 -0.47656,-19.92773 z m -284.96094,1.02539 c -0.18609,0.0104 -0.40653,0.0701 -0.66211,0.16797 -0.84866,0.32496 -10.88574,19.84302 -14.0039,27.23242 -6.79042,16.09199 -9.43888,28.34686 -8.07617,37.37695 1.10314,7.30996 4.39103,11.74648 10.1875,13.74414 5.60397,1.93134 12.52746,0.86597 16.26367,-2.50195 1.13482,-1.02295 2.67877,-3.11697 3.43164,-4.65234 3.24155,-6.61076 3.79013,-19.55661 1.00781,-23.81445 -1.00967,-1.54512 -2.00209,-1.07497 -3.16406,1.49609 -1.89778,4.19913 -6.08287,6.07557 -9.95117,4.46289 -1.48051,-0.61721 -2.19248,-1.3873 -3.03125,-3.2793 -0.96186,-2.16964 -1.06458,-3.19126 -0.83399,-8.31055 0.28898,-6.41567 2.09205,-14.23194 7.26953,-31.51172 2.44598,-8.16336 2.86533,-10.48228 1.5625,-10.41015 z m 111.02344,10.95508 c -0.95895,-0.0551 -2.46385,0.53235 -2.95312,1.32227 -0.20605,0.33269 -0.38269,2.88337 -0.39258,5.66796 -0.0209,5.9228 -0.67883,9.4364 -2.3125,12.33594 -3.10944,5.51878 -9.68136,6.10819 -13.53906,1.21484 -1.33211,-1.68973 -3.40377,-6.2492 -4.23047,-9.31249 -0.53229,-1.97235 -0.75191,-2.19844 -2.00195,-2.05274 -1.53818,0.17931 -1.39756,-0.22248 -2.99024,8.47852 -2.08265,11.37767 -7.01469,17.69482 -13.84179,17.73046 -4.43223,0.023 -6.67169,-3.49201 -7.76563,-12.19336 l -0.61719,-4.9043 -1.75586,0.084 c -0.96609,0.0461 -1.97343,0.30018 -2.23828,0.56445 -0.26485,0.26426 -1.09057,3.54394 -1.83594,7.28712 -2.76419,13.88146 -0.64322,24.13892 5.83985,28.23632 1.35554,0.85671 2.31409,0.97857 6.1543,0.78516 9.10506,-0.4586 15.28322,-4.89401 18.49999,-13.28125 1.2602,-3.28574 0.94322,-3.22741 5.97071,-1.0918 6.03295,2.56271 13.94831,1.54224 18.40625,-2.37304 5.42689,-4.76632 7.25418,-15.40003 5.00976,-29.16016 -0.57748,-3.54038 -1.9311,-8.09591 -2.6875,-9.05078 -0.14064,-0.17751 -0.39911,-0.26876 -0.71875,-0.28713 z m 449.0371,2.49609 c -0.8299,0.002 -1.9008,1.67163 -5.0117,7.81641 -2.9867,5.89949 -4.5538,8.37615 -6.3926,10.09765 -3.5063,3.2827 -5.1994,3.46893 -11.7207,1.29493 l -5.2305,-1.74415 -1.8105,0.97461 c -2.1917,1.17767 -5.4292,5.38113 -9.8203,12.75391 -3.7088,6.22717 -7.916,11.16383 -10.5938,12.43164 -2.7117,1.28397 -4.8231,1.06982 -12.5547,-1.27734 -10.1576,-3.0836 -13.383,-2.87746 -19.4238,1.24609 -5.4646,3.73021 -11.1628,10.05095 -19.2207,21.31445 -10.11034,14.13261 -19.75926,22.05696 -28.86913,23.71289 -3.36281,0.6113 -4.15428,0.1751 -4.15428,-2.29101 0,-2.77244 -2.52045,-10.67081 -5.05276,-15.83594 -8.92538,-18.20516 -21.31919,-28.68646 -34.05271,-28.79882 -3.37688,-0.0296 -4.50235,0.20021 -7.04494,1.4414 -3.58386,1.7495 -7.66565,5.66893 -10.76954,10.3418 -5.16977,7.78277 -10.75729,21.30113 -12.5488,30.36132 -1.19768,6.04812 -1.20191,17.02803 -0.011,21.57032 1.79448,6.84136 4.29712,10.16399 9.41599,12.5 5.64402,2.57557 8.98182,2.99745 26.55662,3.35937 l 16.35546,0.33791 0.17752,1.25196 c 0.31657,2.23415 -2.57304,8.88294 -6.2617,14.40819 -10.55603,15.81182 -26.66731,32.45481 -43.74411,45.18753 -8.91708,6.64872 -15.49486,10.64975 -31.55277,19.19139 -7.06555,3.75837 -11.85774,6.62135 -12.03905,7.19139 -0.16582,0.52095 -0.15076,1.42093 0.033,2.00001 h 0.002 c 0.32327,1.01871 0.7973,1.05079 13.62109,1.05079 31.56338,-0.003 48.12368,-3.16925 56.23636,-10.75585 9.22755,-8.62911 18.65338,-22.85785 25.65622,-38.72658 3.26569,-7.40025 8.19397,-22.31484 10.26369,-31.06055 2.87087,-12.13009 2.31644,-11.12393 6.6035,-11.98047 9.79549,-1.95719 16.81866,-8.2338 27.82034,-24.86914 7.6648,-11.58962 11.7934,-16.58209 15.5176,-18.75976 2.8834,-1.68606 4.7505,-1.49692 10.3535,1.05078 10.2291,4.6511 16.1396,4.99216 21.7871,1.25977 3.4974,-2.31139 6.0885,-5.84581 12.9141,-17.60743 l 5.9746,-10.29297 3.8672,0.34959 c 13.7235,1.24082 24.5281,-7.66967 32.1504,-26.51172 2.8958,-7.15843 3.9774,-12.5905 3.7812,-18.98633 -0.1412,-4.59324 -0.2369,-4.9974 -1.2051,-4.99804 z m -399.666,8.97266 -1.28907,1.30273 c -3.91915,3.96599 -17.16919,28.83619 -21.1582,39.71289 -3.99267,10.88678 -4.05357,11.36537 -3.65039,28.29883 0.38587,16.20599 0.17526,18.4527 -2.15625,23.05078 -2.51806,4.96601 -7.67961,8.30914 -14.68555,9.51172 -4.24474,0.72857 -8.4837,0.40843 -10.86132,-0.81836 -6.41173,-3.30819 -13.71406,-18.35491 -15.46094,-31.85742 -0.61577,-4.75953 -0.70843,-5 -1.92187,-5 -1.43085,0 -1.4125,-0.0461 -3.20313,7.63281 -2.53024,10.85082 -9.42398,27.04112 -15.35352,36.06055 -3.89223,5.92045 -10.94552,12.80309 -15.26367,14.89258 -10.09143,4.883 -21.09732,2.44827 -31.53906,-6.98047 -8.36857,-7.55661 -18.07664,-22.99323 -20.45508,-32.52344 -0.48776,-1.95438 -1.08132,-3.55274 -1.31836,-3.55274 -0.23704,0 -2.38226,3.23604 -4.76758,7.19141 -20.7534,34.41356 -46.86072,63.59134 -73.19336,81.79887 -4.44724,3.07499 -4.84179,3.48824 -4.84179,5.08395 0,2.19573 0.26957,2.19205 6.57617,-0.0861 23.04857,-8.3247 42.65567,-19.27129 54.17578,-30.24805 2.2183,-2.11366 4.19462,-3.82663 4.39258,-3.80469 0.19796,0.0208 1.87215,3.06689 3.7207,6.76953 3.9197,7.85105 8.02001,13.35068 13.17188,17.66797 11.21601,9.39902 27.76049,12.23344 42.35351,7.25588 6.45364,-2.20133 9.80348,-4.41927 15.95508,-10.56447 5.25621,-5.25077 6.95397,-7.6098 11.75391,-16.32618 l 0.9375,-1.70312 3.2832,3.13477 c 6.03976,5.76867 11.3037,7.99633 19.90234,8.42187 6.43119,0.31811 10.90818,-0.51854 15.69922,-2.93164 14.0883,-7.09596 24.68775,-23.53957 35.41797,-54.94922 4.93125,-14.43482 7.96243,-26.8657 10.04297,-41.18946 0.9787,-6.73801 3.73633,-45.34315 3.73633,-52.30468 z m 407.6465,73.41406 c -1.7087,0 -1.9247,0.24375 -5.4864,6.18555 -9.3557,15.60819 -23.6672,33.55442 -42.2128,52.92968 -10.3173,10.77888 -17.2256,17.21037 -26.2344,24.42774 -15.6268,12.51953 -32.9527,23.38001 -57.11328,35.80275 -11.86439,6.10024 -13.41881,7.2499 -12.61722,9.33398 0.27864,0.72527 2.5039,0.82546 18.66799,0.81449 23.82231,-0.011 31.50961,-0.99227 43.79881,-5.57226 14.1184,-5.26179 25.4271,-12.7601 37.6055,-24.93557 12.953,-12.95012 22.6907,-26.3868 30.3398,-41.86722 5.2156,-10.55542 8.4349,-19.25527 11.0079,-29.74414 1.9768,-8.05847 4.0161,-20.673 4.0214,-24.87305 0,-2.48905 -0.01,-2.50195 -1.7773,-2.50195 z M 704.49219,638.3457 c -1.64449,0.21463 -3.06678,1.8925 -6.03516,6.43946 -14.29283,21.89371 -22.83926,44.7526 -26.39648,70.59961 -1.12207,8.15296 -1.59006,26.12082 -0.85352,32.79493 3.54865,32.1558 20.17222,52.13716 47.12891,56.64844 5.93288,0.99299 19.5809,1.02014 26.91211,0.0548 18.61917,-2.45242 35.6982,-9.65769 50.28125,-21.21487 4.04162,-3.20282 15.36407,-14.05787 16.13476,-15.46872 0.36834,-0.67438 -0.4405,-2.24415 -3.43554,-6.66604 -4.2511,-6.27622 -7.55004,-12.74205 -9.04102,-17.72071 -1.40393,-4.68786 -1.69204,-4.85105 -4.62695,-2.61524 -7.17243,5.46435 -18.89153,11.57046 -27.77735,14.47271 -8.37553,2.73549 -15.05212,3.77663 -24.01367,3.73824 -15.46634,-0.0625 -26.96871,-4.45403 -37.33789,-14.25582 -7.16463,-6.77271 -10.46131,-11.84338 -13.36133,-20.55469 -1.3937,-4.18659 -1.48896,-5.03333 -1.48632,-13.16018 0.003,-8.49465 0.0506,-8.86606 2.17187,-16.84568 2.44856,-9.21208 7.49487,-24.85035 12.87695,-39.89845 4.54407,-12.70514 4.63364,-14.91605 0.64453,-16.12696 -0.66322,-0.20136 -1.237,-0.29223 -1.78515,-0.22072 z" />
  </g>
</svg>
