<?xml version="1.0" encoding="UTF-8" standalone="no"?>
<!-- Created with Inkscape (http://www.inkscape.org/) -->

<svg
   version="1.1"
   id="svg1"
   width="1920"
   height="1080"
   viewBox="0 0 1920 1080"
   sodipodi:docname="والذين_هم_عن_اللغو_معرضون.svg"
   inkscape:export-filename="والذين_هم_عن_اللغو_معرضون.svg"
   inkscape:export-xdpi="96"
   inkscape:export-ydpi="96"
   inkscape:version="1.4.2 (ebf0e940d0, 2025-05-08)"
   xmlns:inkscape="http://www.inkscape.org/namespaces/inkscape"
   xmlns:sodipodi="http://sodipodi.sourceforge.net/DTD/sodipodi-0.dtd"
   xmlns:xlink="http://www.w3.org/1999/xlink"
   xmlns="http://www.w3.org/2000/svg"
   xmlns:svg="http://www.w3.org/2000/svg">
  <sodipodi:namedview
     id="namedview1"
     pagecolor="#ffffff"
     bordercolor="#000000"
     borderopacity="0.25"
     inkscape:showpageshadow="2"
     inkscape:pageopacity="0.0"
     inkscape:pagecheckerboard="0"
     inkscape:deskcolor="#d1d1d1"
     inkscape:zoom="0.66458333"
     inkscape:cx="960"
     inkscape:cy="540.18809"
     inkscape:window-width="1920"
     inkscape:window-height="1060"
     inkscape:window-x="0"
     inkscape:window-y="20"
     inkscape:window-maximized="1"
     inkscape:current-layer="svg1" />
  <defs
     id="defs1">
    <linearGradient
       xlink:href="#linearGradient1"
       id="linearGradient3"
       gradientUnits="userSpaceOnUse"
       gradientTransform="matrix(1.7893793,0,0,1.7893793,-694.69435,28.223293)"
       x1="924.7309"
       y1="-8.6637268"
       x2="924.7309"
       y2="580.67969" />
    <linearGradient
       id="linearGradient1">
      <stop
         style="stop-color:#f9ef8e;stop-opacity:1;"
         offset="0"
         id="stop1" />
      <stop
         style="stop-color:#f5e8bf;stop-opacity:1;"
         offset="0.5"
         id="stop3" />
      <stop
         style="stop-color:#f9ef8e;stop-opacity:1;"
         offset="1"
         id="stop2" />
    </linearGradient>
    <linearGradient
       xlink:href="#linearGradient1"
       id="linearGradient3-2"
       gradientUnits="userSpaceOnUse"
       gradientTransform="matrix(1.7893793,0,0,1.7893793,-473.41488,-175.9013)"
       x1="924.7309"
       y1="-8.6637268"
       x2="924.7309"
       y2="580.67969" />
  </defs>
  <rect
     style="fill:#1b1f25;fill-opacity:1;stroke-width:1.7"
     id="rect9"
     width="1920"
     height="1080"
     x="0"
     y="0"
     ry="1.8119611"
     sodipodi:insensitive="true" />
  <g
     id="g76"
     transform="translate(-221.27554,204.12457)"
     style="display:inline">
    <g
       id="g78"
       inkscape:label="letters"
       style="fill:#b7bdf9;fill-opacity:1">
      <path
         style="font-size:132.469px;font-family:QCF2342;-inkscape-font-specification:'QCF2342, Normal';text-align:center;text-anchor:middle;fill:#b7bdf9;fill-opacity:1;stroke-width:17.8938;stroke-linecap:round;stroke-linejoin:round;paint-order:markers stroke fill"
         d="m 659.56356,343.37317 q 0.26494,-0.63585 0.63586,-0.8478 0.37091,-0.26494 0.74182,-0.26494 0.52988,0 1.16573,0.58286 0.68884,0.58287 0.68884,1.58963 0,0.47689 -0.15896,1.05975 -0.10598,0.58287 -0.26494,1.05976 l -0.4239,1.16572 q -1.11274,2.96731 -1.64262,6.04059 l -1.16573,6.09357 q -0.10597,0.63585 -0.15896,1.2717 -0.053,0.58287 -0.053,1.16573 0,3.28523 1.37768,6.14656 1.37768,2.86133 3.49718,5.08681 2.17249,2.22548 4.82187,3.76212 2.64938,1.53664 5.24578,2.17249 1.96054,0.47689 3.97407,0.74183 2.06651,0.26494 4.18602,0.26494 3.49718,0 6.99436,-0.63585 3.49718,-0.68884 6.19955,-1.96054 1.43066,-0.74183 2.80834,-1.37768 1.43067,-0.63585 2.80834,-1.32469 1.37768,-0.68884 2.75536,-1.48365 1.37768,-0.84781 2.64938,-1.90756 l 2.22548,-1.85456 q 0.8478,-0.68884 1.64261,-1.53664 0.8478,-0.90079 1.48366,-1.85457 0.68883,-0.95378 1.11274,-1.96054 0.4239,-1.00677 0.4239,-2.01353 0,-1.96054 -0.47689,-4.08004 -0.47689,-2.1725 -1.21872,-4.23901 -0.68884,-2.11951 -1.53664,-4.02706 -0.8478,-1.96054 -1.64261,-3.55017 l -2.38444,-4.76888 q -0.21196,-0.37092 -0.37092,-0.68884 -0.15896,-0.37091 -0.31792,-0.74183 l -0.74183,-1.48365 q -0.74183,-1.48365 -1.43067,-2.91432 -0.63585,-1.48365 -0.63585,-2.49042 0,-1.21871 0.47689,-2.38444 0.47689,-1.16572 0.58287,-2.5434 v -1.16573 q 0,-0.47689 0.053,-1.05975 0.053,-0.58287 0.21195,-1.11274 0.21195,-0.52988 0.52988,-0.90079 0.31793,-0.37091 0.79481,-0.37091 0.37092,0 0.79482,0.52987 0.47689,0.52988 0.79481,1.16573 0.37091,0.63585 0.58287,1.16573 0.21195,0.52987 0.21195,0.52987 0.21195,0.37092 0.4239,0.74183 0.21195,0.37091 0.47688,0.79481 l 2.49042,4.76889 q 2.80834,5.72266 4.34498,11.23337 1.58963,5.45772 1.58963,11.39233 0,4.39797 -0.8478,8.68997 -0.8478,4.29199 -2.80834,8.26606 -1.96054,3.92108 -5.24577,7.36528 -3.28523,3.44419 -8.10711,6.04058 -2.1195,1.16573 -4.39797,2.06652 -2.27846,0.90079 -4.87486,1.53664 -2.5434,0.63585 -5.51071,0.95378 -2.9673,0.37091 -6.46448,0.37091 -2.70237,0 -5.40474,-0.37091 -2.64938,-0.31793 -5.08681,-1.16573 -2.43743,-0.79481 -4.45096,-2.1195 -2.01352,-1.32469 -3.44419,-3.33822 -1.85457,-1.53664 -2.91432,-3.49718 -1.00676,-1.96054 -1.85456,-4.18602 L 654.37078,374 q -0.21195,-1.05975 -0.31793,-2.1195 -0.053,-1.11274 -0.053,-2.17249 -0.053,-2.22548 0.26494,-4.292 0.31792,-2.1195 0.74182,-4.23901 l 0.79482,-4.29199 q 0.31792,-1.64262 0.68883,-3.39121 0.37092,-1.80158 0.79482,-3.55017 0.47689,-1.74859 1.00676,-3.44419 0.58287,-1.69561 1.2717,-3.12627 z"
         id="path76" />
      <path
         style="font-size:132.469px;font-family:QCF2342;-inkscape-font-specification:'QCF2342, Normal';text-align:center;text-anchor:middle;fill:#b7bdf9;fill-opacity:1;stroke-width:17.8938;stroke-linecap:round;stroke-linejoin:round;paint-order:markers stroke fill"
         d="m 683.67292,316.61443 1.32469,1.21872 q 0.90079,0.8478 1.64262,1.90755 0.79481,1.00677 0.79481,2.06652 0,0.15896 -0.10597,0.68884 l -0.95378,2.9673 -0.68884,1.80158 q -0.4239,1.05975 -0.90079,1.16573 -0.47689,0.10597 -0.74183,0.37091 -0.58286,0.74183 -1.11273,0.74183 -0.42391,0.053 -1.37768,-0.58287 -0.90079,-0.68884 -1.80158,-1.2717 l -5.45772,-3.28523 q -0.68884,-0.37091 -0.68884,-1.11274 0,-0.58286 0.21195,-1.21871 0.26494,-0.63586 0.58286,-1.21872 0.37092,-0.63585 0.68884,-1.16573 0.31793,-0.58286 0.47689,-1.00676 0.15896,-0.47689 0.31792,-1.32469 0.15897,-0.90079 0.47689,-1.6956 0.31793,-0.84781 0.79482,-1.43067 0.47689,-0.63585 1.2717,-0.63585 0.15896,0 0.79481,0.21195 0.68884,0.15896 1.48366,0.52988 0.8478,0.31792 1.64261,0.90079 0.8478,0.58286 1.32469,1.37767 z"
         id="path74" />
      <path
         style="font-size:132.469px;font-family:QCF2342;-inkscape-font-specification:'QCF2342, Normal';text-align:center;text-anchor:middle;fill:#b7bdf9;fill-opacity:1;stroke-width:17.8938;stroke-linecap:round;stroke-linejoin:round;paint-order:markers stroke fill"
         d="m 814.23436,317.35626 q 0.68884,-0.95378 1.53664,-0.95378 1.00677,0 2.11951,0.74183 1.11274,0.68884 2.06651,1.6956 1.00677,0.95378 1.80158,1.96054 0.79482,0.95378 1.16573,1.48366 0.79481,1.21871 0.79481,2.43743 0,1.90755 -1.05975,3.65614 -1.00676,1.74859 -2.33145,3.44419 -0.37092,0.52988 -1.05976,0.52988 -0.63585,0 -1.43066,-0.31793 -0.79481,-0.37091 -1.58963,-0.90079 -0.79481,-0.58286 -1.58963,-1.16572 -0.74182,-0.63585 -1.37767,-1.21872 l -1.7486,-1.53664 q -0.63585,-0.47689 -0.63585,-1.43066 0,-0.63585 0.26494,-1.32469 l 0.31793,-0.90079 q 0.053,-0.10598 0.10597,-0.26494 0.053,-0.15896 0.15897,-0.31793 l 0.95377,-1.32469 q 0.26494,-0.37091 0.31793,-0.74182 0.10597,-0.4239 0.26494,-0.8478 l 0.26493,-0.90079 q 0.053,-0.47689 0.31793,-0.90079 z"
         id="path72" />
      <path
         style="font-size:132.469px;font-family:QCF2342;-inkscape-font-specification:'QCF2342, Normal';text-align:center;text-anchor:middle;fill:#b7bdf9;fill-opacity:1;stroke-width:17.8938;stroke-linecap:round;stroke-linejoin:round;paint-order:markers stroke fill"
         d="m 851.48464,360.22323 7.78918,-4.23901 q 0.58286,-0.31793 1.43067,-0.74183 0.90078,-0.47689 1.6956,-1.00676 0.79481,-0.52988 1.32469,-1.16573 0.58286,-0.63585 0.58286,-1.2717 0,-0.58287 -0.47689,-1.11274 -0.47688,-0.58287 -1.11274,-1.00677 -0.58286,-0.47688 -1.11274,-0.74182 -0.47688,-0.31793 -0.52987,-0.37092 -1.05975,-0.74182 -2.49042,-1.32469 -1.43066,-0.63585 -2.9673,-1.05975 -1.53664,-0.47689 -3.0203,-0.68884 -1.48365,-0.26493 -2.64938,-0.26493 -3.28523,0 -6.19955,1.53664 -1.05975,0.4239 -3.23224,1.96054 -2.17249,1.53664 -4.82187,3.65614 -2.64938,2.06652 -5.45772,4.39797 -2.80835,2.33146 -5.08681,4.34498 -2.27847,1.96055 -3.76212,3.28524 -1.48365,1.32469 -1.48365,1.43066 0,0.15896 0.52987,0.26494 0.52988,0.053 1.05975,0.053 1.37768,0 2.06652,0 0.74183,-0.053 1.64262,-0.15897 l 6.09357,-0.47688 q 3.97407,-0.42391 7.73619,-1.43067 3.81511,-1.00676 7.52424,-2.17249 z m -158.53889,49.38444 q 0.8478,-0.52988 2.06652,-0.52988 0.8478,0 1.80158,0.21195 0.95377,0.21195 1.90755,0.52988 l 3.23224,1.05975 q 1.74859,0.58286 2.75536,0.58286 l 3.23224,0.10598 q 0.63585,0.053 1.2717,0.053 0.63585,0 1.27171,0 h 0.63585 l 3.23224,-0.15897 q 0.79481,-0.053 1.58963,-0.10597 0.79481,-0.053 1.58963,-0.21195 l 4.45095,-0.79482 q 3.55017,-0.79481 7.04736,-2.06651 3.55016,-1.27171 7.10033,-3.17926 3.60316,-1.90755 7.2593,-4.60992 3.65615,-2.70237 7.47126,-6.35851 0.47688,-0.4239 1.16572,-1.2717 l 2.11951,-2.80835 1.16572,-1.2717 q 0.4239,-0.47689 0.95378,-1.00676 0.52988,-0.52988 0.79481,-1.05976 l 2.54341,-3.65614 q 0.58286,-0.79481 0.95378,-1.58963 0.37091,-0.79481 0.4239,-1.53664 0,0.10598 -0.63585,0.26494 -0.58287,0.15896 -1.43067,0.31793 -0.79481,0.15896 -1.6956,0.31792 -0.90079,0.10598 -1.48366,0.15896 -0.68883,0.10598 -1.11273,0.15897 -0.42391,0.053 -0.74183,0.053 -0.31793,0 -0.63585,0 -0.26494,0 -0.68884,0 -0.52988,0 -1.05975,0 -0.47689,0 -1.00677,-0.053 l -2.06651,-0.15897 q -2.06652,-0.31792 -3.97407,-1.11274 -1.90756,-0.8478 -3.39121,-2.22547 -1.43067,-1.37768 -2.27847,-3.28524 -0.8478,-1.96054 -0.8478,-4.45095 0,-1.64262 0.58287,-3.0203 0.63585,-1.43066 1.00676,-3.12627 l 0.63585,-2.22547 q 0.26494,-1.05976 0.58286,-2.06652 0.37092,-1.05975 1.11274,-2.17249 l 1.21872,-1.85457 q 1.80158,-2.70237 4.08004,-4.34498 2.27847,-1.64262 4.23901,-1.64262 1.43067,0 2.64938,0.79482 1.21872,0.79481 2.27847,2.06651 1.05975,1.21872 1.90755,2.80835 0.8478,1.53664 1.53664,3.12626 0.68884,1.53664 1.16573,2.91432 0.52988,1.37768 0.8478,2.27847 l 0.90079,2.49042 1.05975,2.49041 q 0.21195,0.47689 0.79482,0.47689 0.10597,0 0.10597,0 0.053,-0.053 0.10598,-0.053 l 2.70236,-0.63585 q 2.38445,-0.74182 4.55694,-1.32469 2.17249,-0.58286 4.18602,-2.01353 1.00676,-0.68883 1.96054,-1.48365 0.95378,-0.79481 1.90755,-1.58963 l 3.70913,-3.17925 q 0.52988,-0.4239 1.21872,-0.90079 0.74182,-0.52988 1.48365,-0.95378 0.74183,-0.4239 1.48365,-0.68884 0.74183,-0.26493 1.32469,-0.26493 0.84781,0 1.64262,0.4239 0.79481,0.4239 1.48365,1.00676 0.68884,0.58286 1.2717,1.21872 0.63586,0.63585 1.11274,1.05975 0.58287,0.63585 1.37768,1.21871 l 1.74859,1.11274 q 0.90079,0.58286 1.85457,1.00677 1.00676,0.37091 1.80158,0.63585 l 1.74859,0.63585 q 1.32469,0.58286 2.75535,1.00676 1.48366,0.4239 2.86133,0.4239 1.74859,0 3.39121,-0.90079 1.64261,-0.90079 3.12627,-2.1195 1.53664,-1.2717 2.80834,-2.59639 1.2717,-1.32469 2.22548,-2.17249 l 7.47125,-6.62345 q 1.90755,-1.69561 3.70913,-3.28523 1.80158,-1.64262 3.8681,-3.12627 l 5.35174,-4.292 q 3.17926,-2.5434 6.51748,-4.02706 3.33822,-1.53664 7.2593,-1.53664 3.02029,0 5.88162,0.74183 2.86133,0.74183 5.03382,2.06652 2.22548,1.2717 3.55017,3.12627 1.37768,1.80157 1.37768,3.97406 0,0.74183 -0.21195,1.43067 -0.15896,0.63585 -0.31792,1.37768 l -0.42391,1.85456 q -0.79481,3.92109 -2.64938,7.41827 -1.85456,3.49718 -4.87485,6.46448 -2.96731,2.96731 -7.15333,5.29876 -4.13303,2.33146 -9.59076,3.97407 l -3.49718,1.11274 q -4.98083,1.43067 -9.85569,2.17249 -4.87486,0.74183 -9.85569,1.16573 -0.26494,0.053 -0.58287,0.10598 -0.26493,0 -0.52987,0 -0.52988,0 -1.05975,0 -0.47689,-0.053 -1.00677,-0.10598 l -3.17925,-0.21195 q -0.37092,0 -0.68884,0 -0.31793,0 -0.58287,0.053 l -2.5434,0.10597 q -0.58287,-0.10597 -1.2717,-0.26493 -0.63586,-0.15897 -1.11274,-0.15897 -1.05976,0 -1.80158,0.79482 -0.68884,0.74182 -1.16573,1.74859 -0.4239,0.95377 -0.74183,1.96054 -0.26493,0.95378 -0.47688,1.37768 -0.79482,2.5434 -1.96055,4.92784 -1.16572,2.38445 -1.96054,4.82187 l -0.63585,1.64262 q -0.4239,1.16573 -1.00676,2.27847 -0.52988,1.16572 -1.05975,1.16572 -0.21195,0 -0.4239,-0.4239 -0.15897,-0.37091 -0.15897,-1.11274 0,-1.21871 0.37092,-2.70236 0.4239,-1.43067 0.95377,-2.86133 0.58287,-1.37768 1.16573,-2.54341 0.58286,-1.16573 0.90079,-1.80158 l 0.90079,-2.06651 q 0.79481,-1.53664 1.48365,-3.4442 0.68884,-1.96054 0.68884,-3.33822 l -3.23224,-1.11274 q -2.43743,-0.8478 -4.76889,-1.96054 -2.33145,-1.11274 -4.39797,-2.64938 -1.32469,-0.63585 -2.59639,-1.90755 l -1.16573,-1.11274 q -0.47689,-0.4239 -1.05975,-0.90079 -0.52988,-0.47689 -1.11274,-0.47689 -0.74183,0 -1.53664,0.47689 -0.79481,0.47689 -1.58963,1.11274 -0.74182,0.63585 -1.43066,1.32469 -0.63585,0.68884 -1.16573,1.11274 -2.96731,2.96731 -6.35851,4.82187 -3.39121,1.80158 -7.6832,3.02029 -0.58287,0.15897 -1.16573,0.95378 -0.52988,0.74183 -1.00676,1.80158 -0.47689,1.11274 -0.90079,2.27847 -0.4239,1.21871 -0.74183,2.17249 l -0.74183,2.22548 q -0.15896,0.47689 -0.4239,0.95377 -0.26494,0.47689 -0.47689,0.90079 l -0.95377,1.85457 q -0.90079,1.43066 -1.64262,2.86133 -0.68884,1.43066 -1.53664,2.86133 -0.79481,1.48365 -1.85456,2.91432 -1.00677,1.48365 -2.49042,2.9673 -0.58286,0.52988 -1.05975,1.05976 -0.4239,0.58286 -0.90079,1.05975 l -4.18602,4.13303 q -2.54341,2.33145 -5.29876,3.65614 -2.75536,1.37768 -5.61669,2.06652 -2.86133,0.68884 -5.77565,0.8478 -2.86133,0.21195 -5.61668,0.21195 -0.63585,0 -1.2717,-0.053 -0.63585,0 -1.32469,-0.053 L 717.532,416.2841 q -3.0203,-0.26493 -5.9876,-0.47688 -2.96731,-0.15897 -5.9876,-0.15897 -1.37768,0.053 -2.64938,-0.10597 -1.2717,-0.15897 -2.43743,-0.4239 l -2.49042,-0.52988 q -0.8478,-0.21195 -1.90755,-0.4239 -1.05975,-0.21195 -2.01353,-0.52988 -0.90079,-0.31792 -1.53664,-0.8478 -0.63585,-0.52987 -0.63585,-1.32469 0,-0.79481 1.05975,-1.85456 z m 52.35175,-42.60203 q 0.79481,0.31792 1.32469,0.68884 l 1.32469,0.79481 q 0.58286,0.31793 1.2717,0.68884 0.74183,0.31793 1.48365,0.4239 l 2.49042,0.26494 2.49042,0.10597 q 0,-0.15896 -0.21195,-0.63585 l -1.85457,-3.3912 q -0.58286,-0.95378 -1.2717,-1.85457 -0.68884,-0.95378 -1.43067,-1.64262 -0.68884,-0.74182 -1.37767,-1.16572 -0.68884,-0.47689 -1.32469,-0.47689 -0.74183,0 -1.27171,0.37091 -0.52987,0.31793 -1.11274,0.90079 l -0.95377,1.21872 q -0.4239,0.58286 -0.58287,0.90079 -0.15896,0.26493 -0.10597,0.68883 0,0.58287 0.47689,1.21872 z"
         id="path71" />
      <path
         style="font-size:132.469px;font-family:QCF2342;-inkscape-font-specification:'QCF2342, Normal';text-align:center;text-anchor:middle;fill:#b7bdf9;fill-opacity:1;stroke-width:17.8938;stroke-linecap:round;stroke-linejoin:round;paint-order:markers stroke fill"
         d="m 1017.2828,350.10259 q -0.3179,-0.90078 -1.1657,-1.74859 -0.7948,-0.8478 -1.7486,-1.48365 -0.9538,-0.63585 -1.9605,-1.00676 -0.9538,-0.4239 -1.5897,-0.4239 -1.1127,0 -2.1724,0.63585 -1.0068,0.63585 -1.9076,1.53664 -0.9008,0.90079 -1.6426,1.85456 -0.6888,0.90079 -1.1657,1.48366 -0.106,0.10597 -0.106,0.21195 0,0.4239 0.9008,1.00676 0.9008,0.52988 2.1195,1.11274 1.2717,0.58286 2.5964,1.16573 1.3776,0.52987 2.2784,0.90079 l 2.3315,0.79481 q 0.4239,0.10598 0.7948,0.15896 0.3709,0.053 0.7948,0.10598 l 4.6629,0.47689 -0.5828,-1.64262 q -0.3709,-1.53664 -1.0598,-3.02029 -0.6358,-1.48365 -1.3777,-2.11951 z m -189.69556,51.08005 q 0.21195,-0.63585 0.90079,-0.63585 0.74182,0 1.6956,0.37091 1.00676,0.4239 1.90755,0.90079 0.95378,0.52988 1.69561,0.95378 0.74182,0.4239 1.00676,0.47689 0.26494,0.053 0.52988,0.10597 0.31792,0.053 0.68884,0.15896 l 2.5434,0.90079 q 1.2717,0.58287 2.64938,0.79482 1.37768,0.21195 2.75535,0.31792 l 4.23901,0.37091 q 1.58963,0.15897 3.12627,0.26494 1.58963,0.10598 3.17926,0.10598 6.94137,0 13.19391,-1.53664 6.30552,-1.48365 11.76325,-4.7159 5.45772,-3.23224 10.01465,-8.31905 4.55693,-5.08681 8.1071,-12.29312 l 0.15897,-0.37092 q 0.053,-0.10597 0.10597,-0.15896 0.053,-0.10598 0.10598,-0.21195 l 0.31792,-0.79481 q 0.4239,-0.74183 0.4239,-1.21872 0,-0.52987 -0.58286,-1.00676 -0.52988,-0.52988 -1.21872,-0.90079 -0.68883,-0.37092 -1.32469,-0.63585 -0.58286,-0.26494 -0.68883,-0.37092 l -1.00677,-0.79481 q -1.43066,-0.95378 -2.17249,-2.22548 -0.74183,-1.32469 -1.05975,-2.49042 -0.31793,-1.16572 -0.37091,-2.06651 -0.053,-0.90079 -0.053,-1.05976 0,-0.10597 0.053,-0.79481 0.053,-0.68884 0.15896,-1.58963 0.10597,-0.95377 0.26494,-2.01353 0.21195,-1.05975 0.47688,-1.90755 0.31793,-0.90079 0.74183,-1.48365 0.4239,-0.58287 1.00676,-0.58287 0.26494,0 0.68884,0.47689 0.47689,0.4239 0.95378,1.00677 l 1.32469,2.17249 q 0.52988,0.79481 1.37768,1.53664 0.8478,0.74183 1.80158,1.37768 0.95377,0.58286 1.85456,1.05975 0.95378,0.4239 1.69561,0.63585 l 2.17249,0.74183 q 3.92108,1.11274 7.36527,1.64261 3.49718,0.52988 7.57723,0.52988 6.8354,0 13.14092,-1.21872 6.35852,-1.21871 12.29313,-3.92108 1.85456,-0.8478 3.33821,-2.01353 0,-0.15896 -1.16572,-0.79481 l -3.0203,-1.64262 q -0.74182,-0.37091 -1.58962,-0.74182 -0.79482,-0.4239 -1.53664,-0.68884 -0.68884,-0.31793 -1.27171,-0.52988 -0.52987,-0.21195 -0.74182,-0.21195 -1.11274,0 -2.01353,0.21195 -0.8478,0.21195 -1.53664,0.47689 -0.68884,0.21195 -1.21872,0.4239 -0.52987,0.21195 -0.8478,0.21195 -0.31792,0 -0.4239,-0.26494 -0.10597,-0.26494 -0.10597,-0.58286 0,-0.90079 0.21195,-1.53664 0.21195,-0.68884 0.47689,-1.21872 0.31792,-0.52987 0.58286,-0.95377 0.31792,-0.4239 0.52987,-0.90079 l 0.79482,-1.80158 q 0.79481,-1.74859 1.90755,-3.23224 1.16573,-1.53664 3.17926,-2.64938 2.01353,-1.11274 5.13979,-1.69561 3.12627,-0.63585 7.84217,-0.63585 2.33145,0 4.92785,0.37092 2.64938,0.31792 4.92784,1.2717 2.33146,0.90079 4.02706,2.5434 1.6956,1.64262 2.22548,4.18602 0.053,0.26494 0.053,0.47689 0.053,0.21195 0.053,0.31793 0,0.8478 -0.37091,1.64261 -0.37091,0.79482 -0.8478,1.53664 -0.47689,0.74183 -0.95378,1.43067 -0.4239,0.68884 -0.58286,1.32469 l -0.4239,1.11274 q -0.26494,0.63585 -0.63585,1.16572 -0.31793,0.52988 -0.74183,1.11274 l -0.79481,0.84781 -0.63585,0.47688 q -0.42391,0.26494 -0.79482,0.63585 l -0.74182,0.68884 q -0.37092,0.4239 -0.37092,0.68884 0,0.4239 1.11274,0.95378 1.16573,0.47689 2.70237,1.00676 1.58963,0.47689 3.23224,0.90079 1.69561,0.4239 2.75536,0.63585 0.8478,0.15897 1.37768,0.26494 0.52987,0.10598 0.79481,0.15896 0.31792,0.053 0.4239,0.10598 0.15896,0 0.31793,0 2.38444,0 5.03382,-0.4239 2.70236,-0.4239 5.19278,-1.32469 2.54341,-0.90079 4.7159,-2.27847 2.17249,-1.37768 3.65614,-3.33822 l 1.16573,-1.53664 q 0.37091,-0.37091 0.63585,-0.74182 0.31793,-0.37092 0.58286,-0.79482 l 2.38445,-3.02029 q 0.4239,-0.52988 0.90079,-1.21871 0.47688,-0.74183 0.8478,-1.48366 0.42385,-0.74182 0.74175,-1.43066 0.318,-0.74183 0.4239,-1.32469 0.053,-0.15897 0.106,-0.31793 0.053,-0.21195 0.159,-0.4239 l 0.5299,-0.79481 q 0.3709,-0.58287 0.5298,-0.8478 0.159,-0.31793 0.212,-0.52988 0.106,-0.21195 0.1589,-0.37091 0.106,-0.15897 0.371,-0.52988 l 1.2717,-1.58963 2.2784,-2.5434 1.0598,-1.37768 q 0.6358,-0.79481 1.3247,-1.58963 0.7418,-0.79481 1.5896,-1.37768 0.9008,-0.63585 1.9076,-1.00676 1.0067,-0.4239 2.1195,-0.4239 2.3314,0 3.974,1.2717 1.6426,1.21872 2.7554,3.0203 1.1657,1.80157 1.9075,3.86809 0.7948,2.06652 1.3247,3.65614 0.7419,2.22548 1.1128,4.39797 0.4239,2.1725 0.4239,4.45096 0,1.80158 -0.318,3.55017 -0.2649,1.6956 -0.9537,3.39121 -0.4769,1.16573 -0.7949,2.06651 -0.2649,0.90079 -0.7948,1.53664 -0.4769,0.63586 -1.4306,0.95378 -0.9008,0.31793 -2.6494,0.31793 -1.5896,0 -3.2323,-0.15897 -1.5896,-0.21195 -3.1262,-0.47688 l -2.5434,-0.47689 q -1.5367,-0.31793 -3.1793,-0.90079 -1.5896,-0.58287 -3.0733,-1.37768 -1.4836,-0.79481 -2.8083,-1.80158 -1.27168,-1.00676 -2.17247,-2.17249 0,-0.053 -0.053,-0.053 0,0.053 -0.58287,0.95378 l -1.32469,2.1195 q -0.68884,1.11274 -1.37768,2.11951 -0.63585,0.95377 -0.63585,1.00676 l -1.11274,1.48366 q -0.58286,0.74182 -1.21871,1.43066 -0.58286,0.63585 -1.21872,1.21871 l -1.11274,1.37768 q -1.43066,1.74859 -3.44419,3.07328 -2.01353,1.27171 -4.29199,2.11951 -2.22548,0.8478 -4.60993,1.2717 -2.33145,0.37091 -4.39797,0.37091 -4.6629,0 -8.84893,-2.01353 -4.18602,-2.01352 -8.00112,-5.19278 -0.31793,-0.26494 -0.8478,-0.79481 -0.52988,-0.58287 -1.11274,-1.11274 -0.52988,-0.58287 -1.16573,-0.95378 -0.58286,-0.4239 -1.05975,-0.4239 -0.52988,0 -1.48366,0.52987 -0.90078,0.47689 -1.48365,0.79482 l -2.43743,1.37768 q -3.12627,1.85456 -6.8354,3.3912 -3.70913,1.53664 -7.6832,2.64938 -3.92108,1.05975 -7.94814,1.64262 -4.02706,0.58286 -7.78918,0.58286 -1.64261,0 -3.23224,-0.10597 -1.58963,-0.15897 -3.12627,-0.37092 l -2.70236,-0.31792 q -0.37092,-0.053 -0.68884,-0.10598 -0.31793,-0.053 -0.63585,-0.15896 l -1.90756,-0.52988 -1.80158,-0.63585 q -0.58286,-0.15896 -0.8478,-0.15896 -0.47689,0 -0.68884,0.47689 -0.15896,0.4239 -0.26494,1.11274 -0.053,0.68884 -0.10597,1.48365 0,0.79481 -0.21195,1.48365 -0.21195,0.58287 -0.4239,1.16573 -0.15896,0.58286 -0.4239,1.16573 l -2.91432,6.62345 -1.05975,2.22548 q -1.37768,3.33821 -3.8681,6.88838 -2.43743,3.60316 -5.51071,6.51748 -3.07328,2.9673 -6.57046,4.87486 -3.44419,1.90755 -6.78241,1.90755 -0.52988,0 -1.05975,-0.15896 -0.52988,-0.10598 -1.05976,-0.10598 -0.8478,0 -1.53664,0.37092 l -1.05975,0.31792 q -0.58286,0.26494 -1.00676,0.21195 -0.37092,0 -0.8478,0.10598 l -0.90079,0.10597 q -0.21195,0 -0.4239,0 -0.21195,0 -0.47689,0.053 h -0.8478 q -0.31793,0 -0.63585,0 -0.26494,0.053 -0.58287,0.053 -4.50394,0 -8.9549,-1.16573 -4.39797,-1.11274 -8.58399,-2.49042 l -5.61669,-1.6956 q -1.43066,-0.37091 -2.80834,-0.90079 -1.37768,-0.47689 -2.75536,-1.00676 l -1.80157,-0.68884 q -0.79482,-0.31793 -1.7486,-0.79482 -0.95377,-0.4239 -1.80157,-0.95377 -0.79482,-0.47689 -1.37768,-1.00677 -0.58286,-0.52987 -0.58286,-0.95377 0,-0.47689 0.8478,-0.95378 z"
         id="path68" />
      <path
         style="font-size:132.469px;font-family:QCF2342;-inkscape-font-specification:'QCF2342, Normal';text-align:center;text-anchor:middle;fill:#b7bdf9;fill-opacity:1;stroke-width:17.8938;stroke-linecap:round;stroke-linejoin:round;paint-order:markers stroke fill"
         d="m 1064.2829,370.34386 1.9076,0.63585 q 0.4769,0.053 0.9537,0.26494 l 0.9538,0.21195 q 0.3709,0.15896 0.9538,0.15896 0.7418,0 1.3777,-0.053 0.6358,-0.053 1.5366,-0.053 0.6359,0 1.2187,0.053 0.5829,0.053 1.0598,0.26494 -0.3179,-1.2717 -1.1128,-3.02029 -0.7418,-1.80158 -1.7485,-3.4442 -1.0068,-1.6956 -2.1725,-2.86133 -1.1658,-1.16572 -2.3315,-1.16572 -0.5829,0 -1.1127,0.31792 -0.4769,0.31793 -0.9538,0.79481 -0.4769,0.47689 -0.9008,1.05976 -0.3709,0.52987 -0.6888,0.95377 l -0.8478,1.21872 q -0.4239,0.74182 -0.4239,1.37768 0,1.05975 0.5298,1.80157 0.5829,0.74183 1.8016,1.48366 z m -55.6899,37.9921 q 3.6561,1.05976 7.4712,1.58963 3.7621,0.52988 7.4183,0.63585 l 5.0338,0.10598 q 2.9143,0 5.6167,-0.37091 2.7023,-0.37092 5.3517,-0.95378 2.7024,-0.58286 5.4577,-1.37768 2.7554,-0.74183 5.7757,-1.53664 3.3912,-0.90079 6.2525,-2.91432 2.8614,-1.96054 5.5107,-4.34498 l 5.1398,-4.66291 1.7486,-1.74859 1.5897,-1.85457 q 0.6358,-0.8478 1.1127,-1.43066 0.4769,-0.58286 1.4307,-1.74859 l 1.4306,-1.74859 q 0.7419,-0.90079 1.2717,-1.80158 0.5829,-0.8478 0.5299,-1.53664 0,0.10597 -0.4769,0.15896 -0.4239,0.10598 -1.1127,0.10598 -0.6889,0.053 -1.5897,0.053 -0.9007,0 -1.7485,0 l -3.4972,-0.15897 q -2.2255,-0.10597 -3.8681,-0.52987 -1.5896,-0.37092 -2.8084,-1.27171 -1.2187,-0.90079 -2.1725,-2.43743 -0.9537,-1.53664 -1.8015,-3.92108 -0.3709,-0.79481 -0.3709,-2.5434 0,-1.85457 0.4239,-4.18602 0.4768,-2.38444 1.2187,-4.82187 0.7948,-2.49042 1.8545,-4.82188 1.1128,-2.38444 2.3315,-4.239 1.2717,-1.85457 2.6494,-2.96731 1.4306,-1.16573 2.8613,-1.16573 1.8016,0 3.3382,1.48366 1.5896,1.48365 2.7554,3.3912 1.2187,1.85457 1.9605,3.60316 0.7948,1.6956 0.9538,2.17249 l 1.3247,3.55017 0.9008,3.23224 q 0.1059,0.4239 0.1589,0.84781 0.106,0.37091 0.212,0.79481 l 0.5299,1.58963 q 0.2119,0.58286 0.5828,0.74182 0.3709,0.10598 0.9008,0.10598 0.6889,0 1.5367,-0.26494 0.9007,-0.31792 1.5896,-0.4239 l 7.4712,-1.80158 q 1.9606,-0.63585 4.0801,-1.21871 2.1195,-0.63585 4.186,-1.32469 2.1195,-0.74183 4.08,-1.64262 1.9606,-0.90079 3.6032,-2.06651 0,-0.10598 -0.8478,-0.63586 l -1.9605,-1.16572 q -1.5897,-0.95378 -2.3845,-1.37768 -0.7948,-0.47689 -1.2717,-0.68884 -0.4769,-0.21195 -0.9008,-0.26494 -0.3709,-0.10597 -1.1127,-0.31792 -1.8546,-0.47689 -3.7091,-0.47689 -1.1128,0 -2.0666,0.26494 -0.9537,0.21195 -1.5896,0.8478 -0.7418,0.74182 -1.2717,0.74182 -0.3709,0 -0.6358,-0.26493 -0.265,-0.31793 -0.265,-0.90079 -0.053,-0.79482 0.4769,-1.74859 0.5829,-1.00677 1.0068,-1.80158 l 0.6358,-1.32469 q 0.5299,-1.11274 1.1657,-2.70237 0.6359,-1.64261 2.2255,-3.28523 1.6426,-1.6956 4.6629,-3.12627 3.0203,-1.43066 8.2661,-2.17249 0.7418,-0.10598 1.5366,-0.15896 0.7949,-0.053 1.5897,-0.053 2.2254,0.053 4.345,0.37091 2.1724,0.31793 4.08,1.21872 l 2.2785,1.05975 q 1.1127,0.52988 2.1195,1.2717 1.0597,0.68884 1.8545,1.58963 0.8478,0.90079 1.3247,2.06652 0.4769,1.11274 0.4769,2.43743 0,1.6956 -0.6888,3.44419 -0.6359,1.74859 -1.5367,3.17926 l -2.2784,3.65614 q -0.4239,0.58286 -0.7419,0.90079 l -0.7418,0.95378 -0.8478,0.8478 q -0.159,0.21195 -0.4769,0.37091 l -0.5299,0.4239 q -0.2649,0.26494 -0.3179,0.47689 0,0.31793 0.5829,0.74183 0.5828,0.37091 1.3247,0.79481 0.7948,0.4239 1.5366,0.79481 0.7418,0.31793 1.0598,0.47689 1.9605,1.00677 4.239,1.43067 2.2784,0.4239 4.9808,0.4239 1.8016,0 3.6562,-0.26494 1.9075,-0.26494 3.7091,-0.74183 1.8016,-0.52987 3.3912,-1.32469 1.6426,-0.79481 2.9143,-1.90755 l 1.9606,-1.53664 q 0.6358,-0.52988 1.3246,-1.16573 0.6889,-0.68884 1.2188,-1.43066 0.5828,-0.74183 0.9007,-1.53664 0.371,-0.79482 0.371,-1.53664 0,-1.16573 -0.212,-2.43743 -0.2119,-1.32469 -0.5299,-2.64938 -0.3179,-1.32469 -0.6358,-2.59639 -0.265,-1.27171 -0.4239,-2.49042 l -0.4239,-3.17926 q -0.4769,-3.65614 -0.9538,-7.2593 -0.4239,-3.60316 -0.9008,-7.31229 l -0.9538,-7.31229 q -0.3709,-3.49718 -0.6888,-7.04735 -0.2649,-3.55016 -0.7418,-7.04735 l -0.9538,-6.8354 -0.4769,-2.80834 q -0.159,-1.00676 -0.3179,-1.96054 -0.106,-1.00676 -0.106,-2.06652 0,-2.43743 0.8478,-4.45095 l 0.9008,-2.54341 q 0.106,-0.31793 0.159,-0.63585 0.1059,-0.31793 0.2119,-0.63585 l 0.4769,-1.21872 q 0.5299,-0.95377 1.0068,-0.95377 0.5298,0 0.7948,0.90079 0.3179,0.8478 0.4769,2.06651 0.2119,1.21872 0.3179,2.49042 0.106,1.2717 0.2119,2.01353 l 0.4769,2.91432 q 0.159,1.21871 0.4769,2.38444 0.3709,1.16572 0.4769,2.27846 l 0.2649,3.92109 q 0.053,0.52987 0,1.00676 0,0.47689 0.106,0.95378 l 0.6359,6.88839 q 0.1589,1.6956 0.3179,3.3912 0.159,1.6956 0.4239,3.49718 l 1.8546,14.5186 1.1127,9.48478 q 0.3709,3.07329 1.0068,6.25254 0.6358,3.17926 1.6956,6.14656 1.0597,2.96731 2.5964,5.66968 1.5366,2.64938 3.6561,4.71589 2.1195,2.06652 4.8749,3.4442 2.7553,1.32469 6.2525,1.6956 0.2649,0.053 0.4769,0.053 0.2649,0 0.5299,0 0.9537,0 1.8015,-0.15897 0.8478,-0.15896 1.4837,-0.58286 0.6358,-0.4239 1.0068,-1.11274 0.3709,-0.74183 0.3709,-1.80158 0,-5.5637 -0.9538,-11.33934 -0.9008,-5.77565 -1.8546,-11.23337 l -1.4306,-7.20632 q -0.318,-1.32469 -0.5299,-2.64938 -0.159,-1.32469 -0.3179,-2.70237 l -0.4239,-2.59639 q -0.371,-2.22548 -1.0598,-4.34498 -0.6358,-2.1195 -0.9008,-4.34498 l -1.0067,-6.09358 -1.0068,-7.2593 q -0.106,-0.90079 -0.212,-1.80158 -0.053,-0.95377 -0.1589,-1.85456 l -0.3179,-3.60316 q -0.053,-0.053 -0.053,-0.4239 0,-0.31793 0.053,-0.4239 v -1.6956 q -0.159,-0.74183 -0.265,-1.21872 -0.053,-0.52987 -0.6358,-1.53664 l -0.6359,-1.00676 q -0.3179,-0.47689 -0.4239,-0.8478 l -0.6358,-2.38445 q -0.159,-0.68884 -0.159,-1.37767 0,-1.32469 0.4239,-2.43743 0.4769,-1.16573 1.4837,-2.38445 0.3179,-0.37091 0.6358,-1.16572 0.3179,-0.79482 0.6888,-1.64262 0.371,-0.8478 0.7949,-1.48365 0.4239,-0.63585 0.9007,-0.63585 0.318,0 0.5829,0.58286 0.3179,0.58287 0.6888,1.53664 0.4239,0.95378 0.9538,2.22548 0.5299,1.2717 1.2717,2.64938 l 1.1128,1.53664 1.3247,1.43067 q 0.7418,0.79481 1.4306,1.80157 0.6889,0.95378 0.6889,2.01353 0.053,0.52988 -0.159,1.11274 -0.159,0.58287 -0.4239,1.00677 l -1.6956,3.23224 -0.7948,0.90079 q -0.265,0.26494 -0.3179,0.52988 v 1.05975 q 0,0.15896 -0.053,0.21195 l -0.053,-0.10598 q -0.053,0 -0.106,-0.053 l -1.0068,-0.37092 q -0.2649,-0.10597 -0.3179,-0.10597 -0.3709,0 -0.3709,0.47689 0,0.053 0.106,0.58286 l 0.2119,0.95378 q 0.159,0.47688 0.159,0.68883 l 0.5829,4.60993 q 0.2119,1.48365 0.4768,3.07328 0.318,1.58962 0.7419,3.12626 l 0.9537,4.66291 q 0.7949,3.97407 1.4837,8.05412 0.6888,4.02706 1.3247,8.16009 l 1.0597,6.72942 q 0.7419,4.66291 1.3777,9.27283 0.6889,4.60992 0.6889,9.27283 0,2.70237 -0.318,5.61669 -0.3179,2.91432 -1.1657,5.13979 L 1184.7767,374 q -0.106,0.26494 -0.2649,0.47689 -0.159,0.15896 -0.265,0.37091 l -1.0067,1.80158 -0.9538,2.70237 q -1.3247,2.59639 -3.0733,3.65614 -1.7486,1.05975 -4.292,1.05975 -1.8545,0 -3.8681,-0.63585 -1.9605,-0.63585 -3.8151,-1.64261 -1.8016,-0.95378 -3.3912,-2.17249 -1.5896,-1.21872 -2.6494,-2.33146 l -1.1657,-1.32469 q -0.5829,-0.68884 -1.0597,-1.43066 -0.4769,-0.74183 -0.9008,-1.48366 l -0.8478,-1.53664 q -0.4239,-0.90079 -0.6359,-1.64261 l -1.0068,-3.4442 q -0.1059,-0.4239 -0.3179,-0.79481 -0.1589,-0.37091 -0.3709,-0.79481 v 0.053 q -0.053,0.21195 -0.3179,0.79482 -0.265,0.52987 -0.6359,1.11274 l -1.1657,1.80158 q -0.3179,0.4239 -0.5829,0.95377 -0.2649,0.47689 -0.5828,1.00677 l -1.1128,1.96054 q -1.5896,2.80834 -4.133,4.60992 -2.5434,1.80158 -5.2458,2.86133 -2.7023,1.00676 -5.1398,1.43066 -2.3844,0.42391 -3.7091,0.42391 -2.1725,0 -4.292,-0.47689 -2.1195,-0.52988 -4.08,-1.43067 -1.9606,-0.90079 -3.7622,-2.1195 -1.7485,-1.21872 -3.2322,-2.70237 l -0.7418,-0.79481 q -0.5829,-0.58287 -1.0598,-1.32469 -0.4769,-0.74183 -0.5828,-0.74183 -0.4769,0 -0.6359,-0.37091 -0.159,-0.4239 -0.159,-0.63585 0,-0.31793 0.053,-0.4239 l 0.106,-0.74183 q 0,-0.52988 -0.4769,-0.52988 -0.3709,0.053 -1.0067,0.47689 -0.5829,0.37091 -1.1128,0.79482 l -1.3777,1.16572 q -0.3709,0.26494 -0.6358,0.47689 -0.212,0.15896 -0.4239,0.26494 l -3.4442,1.64261 q -0.8478,0.42391 -1.6956,0.84781 -0.8478,0.37091 -1.7486,0.68883 l -11.7632,4.13304 q -1.2188,0.4239 -2.5435,0.8478 -1.2717,0.37091 -2.4904,0.58286 l -3.0203,0.47689 q -0.4769,0.10598 -1.0067,0.95378 -0.4769,0.8478 -0.9008,1.85456 -0.3709,1.00677 -0.6359,1.90756 -0.2649,0.90079 -0.2649,1.05975 h 0.053 l -1.8016,3.39121 q -0.2649,0.47688 -0.5299,0.8478 -0.2649,0.37091 -0.4239,0.79481 l -0.8478,1.6956 q -0.2649,0.58287 -0.5828,1.05976 -0.265,0.52987 -0.5829,0.95377 l -2.8613,3.49718 q -0.6359,0.74183 -1.0068,1.64262 -0.3709,0.90079 -0.9538,1.64262 l -2.3314,2.27846 -2.2255,2.43743 -2.9673,2.64938 -3.1263,2.22548 -3.7621,2.17249 -3.4442,1.2717 -0.4239,0.15897 q -0.7418,0.26493 -1.4307,0.31792 -0.6888,0.053 -1.4306,0.053 -0.212,0 -0.3709,-0.053 -0.159,0 -0.371,0 -1.8545,0 -3.7091,0.4239 -1.8016,0.4239 -3.7621,0.4239 -2.5434,-0.053 -5.1398,-0.4239 -2.5434,-0.37091 -5.1398,-0.8478 -2.5434,-0.47689 -5.0868,-1.00676 -2.5434,-0.52988 -5.0338,-0.90079 -2.1195,-0.31793 -4.9279,-0.74183 -2.8083,-0.4239 -5.3517,-1.11274 -2.5434,-0.63585 -4.292,-1.64261 -1.8016,-0.95378 -1.8016,-2.33146 0,-0.37091 0.4769,-1.05975 0.4769,-0.68884 1.1657,-0.68884 0.4239,0 0.8478,0.21195 0.4239,0.21195 0.8478,0.47689 0.4239,0.26494 0.8478,0.47689 0.3709,0.26494 0.7419,0.31792 z"
         id="path65" />
      <path
         style="font-size:132.469px;font-family:QCF2342;-inkscape-font-specification:'QCF2342, Normal';text-align:center;text-anchor:middle;fill:#b7bdf9;fill-opacity:1;stroke-width:17.8938;stroke-linecap:round;stroke-linejoin:round;paint-order:markers stroke fill"
         d="m 1097.7711,310.25592 q 0.4769,0.10598 1.2717,0.52988 0.7948,0.37091 1.5366,0.95377 l 1.4837,1.11274 q 0.6888,0.52988 1.5366,1.16573 0.9008,0.63585 1.6956,1.43067 0.7948,0.74182 1.3247,1.64261 0.5299,0.90079 0.5299,1.90755 0,0.68884 -0.4239,1.37768 -0.3709,0.68884 -0.8478,1.32469 l -1.0598,1.43067 -2.3314,2.5434 q -0.4769,0.47689 -1.0068,0.47689 -0.3179,0 -0.6358,-0.15896 l -1.6956,-1.05975 q -0.371,-0.21195 -0.7419,-0.42391 -0.3709,-0.21195 -0.7948,-0.47688 l -3.0203,-1.96054 -1.4306,-1.05976 q -0.6889,-0.47688 -1.0598,-0.8478 -0.3179,-0.4239 -0.3179,-1.00676 0,-0.37092 0.2649,-0.95378 0.265,-0.63585 0.6359,-1.21871 0.3709,-0.63586 0.6888,-1.05976 0.3179,-0.47688 0.4769,-0.63585 l 0.9008,-1.96054 q 0.106,-0.52987 0.3709,-1.05975 0.3179,-0.58286 0.6888,-1.00676 0.4239,-0.42391 0.8478,-0.68884 0.4239,-0.31793 0.8478,-0.31793 z"
         id="path63" />
      <path
         style="font-size:132.469px;font-family:QCF2342;-inkscape-font-specification:'QCF2342, Normal';text-align:center;text-anchor:middle;fill:#b7bdf9;fill-opacity:1;stroke-width:17.8938;stroke-linecap:round;stroke-linejoin:round;paint-order:markers stroke fill"
         d="m 1201.2029,287.04735 q 0.4769,-1.21871 0.7948,-1.21871 0.3179,0 0.5828,0.8478 0.318,0.79481 0.5299,1.80158 0.212,1.00676 0.3179,1.96054 0.159,0.90079 0.159,1.05975 0.159,2.22548 0.8478,4.45096 0.6889,2.17249 1.0598,4.55693 0.3179,2.06652 0.7948,4.23901 l 0.9538,4.18602 q 1.2187,5.40474 1.8545,10.91545 0.6359,5.51071 1.5367,10.91544 1.2717,7.73619 2.2254,15.3664 1.0068,7.57723 1.0068,15.4194 0,2.38444 -0.2119,4.76888 -0.212,2.33145 -0.5299,4.7159 l -0.212,1.48365 q -0.053,0.37091 -0.1059,0.74182 -0.053,0.37092 -0.159,0.79482 l -0.3179,1.48365 -0.7948,2.11951 q -0.265,0.47688 -0.6359,0.95377 -0.3179,0.4239 -0.5299,0.4239 -0.1589,0 -0.2649,-0.58286 l -0.159,-2.27847 v -1.80158 q 0,-0.68883 0,-1.37767 0,-0.68884 0.106,-1.43067 l -0.159,-6.19955 q -0.053,-1.00676 -0.1059,-1.96054 -0.053,-0.95378 -0.159,-1.96054 l -1.6956,-13.82976 -1.5366,-12.13416 q -0.212,-1.53664 -0.4769,-3.0203 -0.265,-1.48365 -0.5299,-2.9673 l -2.1195,-11.86922 q -0.265,-1.53664 -0.5299,-3.0203 -0.2119,-1.48365 -0.4769,-2.9673 l -1.2717,-7.10034 q -0.2649,-0.90079 -0.4769,-1.74859 -0.1589,-0.8478 -0.2649,-1.74859 l -0.3179,-2.22548 q -0.053,-0.74183 -0.106,-1.48365 -0.053,-0.74183 -0.053,-1.48366 0,-1.37767 0.3179,-2.5434 0.3709,-1.21871 0.5299,-2.5434 l 0.3179,-2.49042 q 0.053,-0.26494 0.106,-0.52988 0.053,-0.31792 0.159,-0.68884 z"
         id="path60" />
      <path
         style="font-size:132.469px;font-family:QCF2342;-inkscape-font-specification:'QCF2342, Normal';text-align:center;text-anchor:middle;fill:#b7bdf9;fill-opacity:1;stroke-width:17.8938;stroke-linecap:round;stroke-linejoin:round;paint-order:markers stroke fill"
         d="m 1240.7315,364.83315 q 0.053,0 0.212,0.15896 l 1.5366,1.32469 q 0.4239,0.26494 0.4769,0.52988 -0.053,0.52987 -0.4239,0.95377 -0.3179,0.37092 -0.4239,0.8478 l -0.6358,2.1725 q -0.4239,1.37767 -0.6889,2.75535 -0.2649,1.37768 -0.2649,2.80834 0,0.74183 0.106,1.43067 0.1059,0.63585 0.1059,1.32469 v 2.70237 q 0,0.95377 0.106,1.74859 0.106,0.8478 0.3179,1.64261 0.212,0.8478 0.5299,1.80158 0.3179,1.00676 0.7418,2.27847 1.3247,3.65614 3.8151,5.9876 2.5434,2.38444 5.5108,3.76211 3.0202,1.37768 6.1465,1.90756 3.1263,0.52987 5.6167,0.52987 3.6032,0 7.3123,-0.63585 3.7091,-0.58286 7.1533,-1.74859 3.4442,-1.11274 6.4645,-2.80834 3.0733,-1.64262 5.3517,-3.70913 2.2785,-2.06652 3.5502,-4.50395 1.3247,-2.43743 1.3247,-5.19278 0,-2.70237 -0.7418,-5.24577 -0.6889,-2.5964 -1.6426,-4.92785 -0.9008,-2.33146 -1.8546,-4.292 -0.9538,-2.01353 -1.4307,-3.55017 -0.1589,-0.47688 -0.3179,-0.95377 -0.159,-0.47689 -0.2649,-0.95378 l -0.4239,-1.90755 q -0.212,-0.58287 -0.212,-1.27171 0,-0.4239 0.053,-0.90078 0.053,-0.52988 0.212,-1.05976 l 0.4239,-1.53664 q 0.1059,-0.37091 0.1059,-0.58286 0.053,-0.26494 0.106,-0.58286 0.053,-0.31793 0.053,-0.74183 0.053,-0.47689 0.159,-1.21871 l 0.4768,-2.06652 q 0.159,-0.47689 0.371,-0.79481 0.2649,-0.37092 0.5298,-0.37092 0.5299,0 0.7419,0.58287 0.2119,0.58286 0.4239,1.64261 0.2119,1.00677 0.6358,2.38444 0.4239,1.32469 1.3247,2.91432 0.5829,1.00677 1.4307,1.37768 0.8478,0.31792 1.8545,0.63585 l 1.9606,0.47689 q 1.6956,0.4239 3.4442,0.47689 1.8015,0.053 4.3979,0.053 1.1128,0 2.1195,-0.15896 1.0598,-0.21195 1.3247,-0.68884 -1.4306,-1.48365 -2.7023,-3.07328 -1.2717,-1.58963 -2.2785,-3.3912 -0.9538,-1.80158 -1.5366,-3.81511 -0.5299,-2.01353 -0.5299,-4.34498 0,-1.58963 0.4239,-3.23225 0.4239,-1.6956 1.0067,-3.28523 0.6359,-1.64261 1.2718,-3.12627 0.6888,-1.48365 1.1657,-2.75535 1.5366,-3.49718 3.9211,-6.30553 2.3844,-2.86133 5.2987,-4.82187 2.9143,-1.96054 6.2526,-3.02029 3.3382,-1.05975 6.8354,-1.05975 3.1792,0 6.0405,0.90079 2.8614,0.8478 5.7227,2.70236 0.3179,0.21195 1.3247,0.90079 1.0597,0.63585 2.1725,1.48366 1.1657,0.79481 2.0135,1.74859 0.9008,0.90079 0.9008,1.58962 0,0.63586 -0.4239,1.00677 -0.3709,0.37091 -0.7948,0.58286 -0.5299,0.21195 -1.1657,0.37092 -0.4239,0 -0.7419,-0.15897 -0.3179,-0.21195 -0.6888,-0.47689 l -1.2187,-0.90079 q -1.6956,-1.21871 -3.5502,-1.80157 -1.8546,-0.58287 -3.8681,-0.58287 -2.3314,0 -4.8219,0.58287 -2.4374,0.52987 -4.7688,1.37767 -2.2785,0.79482 -4.239,1.74859 -1.9606,0.90079 -3.1793,1.64262 l -4.133,2.5434 q -0.8478,0.52988 -1.7486,1.21872 -0.8478,0.63585 -1.5897,1.37768 -0.6888,0.74182 -1.1657,1.53664 -0.4239,0.74182 -0.4239,1.53664 0,2.01353 1.0068,4.08004 1.0067,2.06652 2.3844,3.8681 1.3777,1.74859 2.8084,3.07328 1.4306,1.32469 2.2254,1.85456 2.0136,1.64262 4.292,2.64938 2.2785,0.95378 4.0801,0.95378 2.7553,0 5.2987,-0.90079 2.5435,-0.90079 5.3518,-1.96054 2.1195,-0.79481 4.451,-1.80158 2.3844,-1.05975 4.6629,-2.27846 2.2784,-1.27171 4.3449,-2.70237 2.0666,-1.48365 3.6032,-3.07328 l 0.9008,-1.05975 0.5299,-0.42391 q 0.1589,-0.15896 0.4239,-0.15896 0.5828,0 0.7418,0.31793 0.2119,0.26494 0.2119,0.63585 0,0.31792 -0.1059,0.74182 -0.106,0.37092 -0.212,0.63586 l -0.3179,0.68883 q -0.5829,1.58963 -1.4307,3.12627 -0.8478,1.48366 -1.7486,2.86133 l -1.3776,1.80158 q -1.0068,1.16573 -2.3315,2.33146 -1.3247,1.16572 -2.8613,2.22548 -1.4837,1.05975 -3.0203,1.96054 -1.5367,0.8478 -2.9143,1.43066 l -5.3518,2.27847 -5.4047,2.06651 q -2.7554,1.05976 -5.5107,1.96055 -2.7024,0.90078 -5.4578,1.64261 -0.3709,0.10598 -0.7418,0.26494 -0.3709,0.10597 -0.7418,0.26494 l -1.5366,0.63585 q -0.6359,0.31792 -1.1658,0.47689 -0.5298,0.10597 -1.0597,0.21195 -0.5299,0.053 -1.1128,0.10597 -0.5828,0 -1.3776,0.053 l -1.8016,0.15896 q -0.9008,0.10598 -1.8016,0.31793 -0.8478,0.15896 -1.4307,0.4239 l -5.1398,0.68884 q -0.9007,0.10597 -1.2187,0.4239 -0.2649,0.26494 -0.2649,0.90079 0,0.37091 0.053,0.47689 l 0.1589,1.11274 q 0.053,0.4239 0.053,0.90078 0.053,0.42391 0.053,0.84781 0,0.79481 -0.053,1.58962 -0.053,0.79482 -0.1589,1.53664 l -0.318,2.54341 q -0.2119,0.58286 -0.2119,1.16573 0,0.63585 -0.053,1.21871 l -0.2119,1.96054 q -0.265,1.53664 -0.7419,3.4442 -0.4239,1.90755 -1.3777,4.02705 -0.9007,2.1725 -2.3844,4.45096 -1.4836,2.27847 -3.8151,4.55694 l -2.0665,2.01352 q -0.7948,0.79482 -1.7486,1.53664 -0.9538,0.79482 -1.9606,1.43067 -1.0067,0.63585 -2.0135,1.05975 -1.0067,0.4239 -1.9605,0.47689 -0.9008,0.053 -1.7486,0.4239 -0.8478,0.4239 -1.6956,0.90079 l -1.6956,1.00676 q -1.2717,0.68884 -2.8084,1.11274 -1.4836,0.4239 -3.0203,0.63585 -1.5366,0.26494 -3.0732,0.31793 -1.4837,0.10598 -2.8084,0.10598 -2.4904,0 -5.6167,-0.42391 -3.0732,-0.4239 -6.0935,-1.37767 -3.0203,-0.90079 -5.5637,-2.38444 -2.4905,-1.48366 -3.7622,-3.55017 l -0.7948,-1.32469 -1.9605,-2.49042 q -1.1657,-1.43067 -1.6956,-2.80834 -0.5299,-1.37768 -0.9008,-3.12627 l -0.3179,-1.64262 q -0.318,-1.53664 -0.5299,-3.07328 -0.212,-1.53664 -0.212,-3.07328 0,-3.33822 0.5829,-6.78241 0.6359,-3.49718 1.4307,-6.57046 0.8478,-3.12627 1.6956,-5.61669 0.9008,-2.49042 1.4836,-3.86809 z"
         id="path58" />
      <path
         style="font-size:132.469px;font-family:QCF2342;-inkscape-font-specification:'QCF2342, Normal';text-align:center;text-anchor:middle;fill:#b7bdf9;fill-opacity:1;stroke-width:17.8938;stroke-linecap:round;stroke-linejoin:round;paint-order:markers stroke fill"
         d="m 1258.1115,335.42503 q 0.3179,-0.31793 0.8478,-0.31793 0.9008,0 2.0665,0.68884 1.2187,0.68884 2.3314,1.58963 1.1658,0.90079 2.0136,1.74859 0.9008,0.8478 1.1657,1.11274 0.7948,0.90079 1.0597,1.80158 0.318,0.8478 0.4239,1.74859 -0.053,0.58286 -0.2119,1.21872 -0.159,0.63585 -0.5299,1.32469 l -0.6358,1.16572 q -0.265,0.4239 -0.6359,1.05975 -0.3179,0.58287 -0.7418,1.11274 -0.4239,0.52988 -0.9008,0.90079 -0.4239,0.37092 -0.8478,0.37092 -0.5299,0 -1.3247,-0.4239 -0.7948,-0.47689 -1.5896,-1.00677 -0.7948,-0.52987 -1.4307,-0.95378 -0.5828,-0.47688 -0.6358,-0.52987 -0.5829,-0.31793 -1.3777,-0.63585 -0.7418,-0.31793 -1.4307,-0.68884 -0.6888,-0.4239 -1.1657,-0.95378 -0.4239,-0.52987 -0.4239,-1.32469 0,-0.4239 0.2119,-1.11274 0.265,-0.68884 0.5299,-1.2717 l 1.3247,-2.70237 0.2649,-0.95377 q 0.265,-0.79482 0.6359,-1.64262 0.3709,-0.90079 1.0068,-1.32469 z"
         id="path57" />
      <path
         style="font-size:132.469px;font-family:QCF2342;-inkscape-font-specification:'QCF2342, Normal';text-align:center;text-anchor:middle;fill:#b7bdf9;fill-opacity:1;stroke-width:17.8938;stroke-linecap:round;stroke-linejoin:round;paint-order:markers stroke fill"
         d="m 1453.8475,352.75197 q -1.7486,-2.86133 -3.7091,-5.03382 -1.9605,-2.17249 -4.7159,-4.45096 l -1.3777,-1.21871 q -0.7418,-0.63585 -1.6956,-1.43067 -0.9008,-0.79481 -1.8545,-1.48365 -0.9008,-0.68884 -1.6427,-1.16573 -0.7418,-0.47688 -1.1127,-0.47688 -0.5829,0 -0.7948,1.64261 -0.212,1.64262 -0.212,3.92108 v 1.80158 q 0,1.16573 -0.4769,2.33146 -0.4239,1.16572 -0.6888,2.22548 0,0.15896 0.6359,0.4239 0.6358,0.21195 1.4306,0.63585 l 2.5434,0.95377 q 0.9008,0.31793 2.1195,0.90079 1.2187,0.52988 2.5434,1.05976 1.3777,0.47688 2.7024,0.8478 1.3777,0.37091 2.5964,0.37091 1.2717,0 2.1725,-0.37091 0.9538,-0.37092 1.5366,-1.48366 z m -92.4103,44.61556 5.1927,-3.28523 6.1996,-4.34498 q 0.2649,-0.26494 0.5299,-0.47689 0.3179,-0.21195 0.5828,-0.4239 l 3.1263,-2.91432 q 0.6359,-0.63585 0.6359,-1.2717 0,-0.58287 -0.5299,-1.58963 -0.6889,-1.21871 -1.0068,-2.43743 -0.2649,-1.2717 -0.2649,-2.80834 0.053,-2.64938 1.0067,-5.35175 0.9538,-2.70237 2.4375,-4.98083 1.4836,-2.33146 3.2852,-3.97407 1.8546,-1.64262 3.7091,-2.22548 1.8546,-0.58287 3.5502,-0.58287 0.5829,0 1.0598,0 0.4768,0 1.0067,0.10598 l 3.0733,0.4239 q 1.4837,0.21195 2.7024,0.31793 1.2717,0.10597 2.6493,0.10597 2.2255,0 4.345,-0.52988 2.1195,-0.52987 4.504,-1.48365 l 2.4374,-1.00676 2.3844,-1.16573 q 0.265,-0.15896 0.265,-0.47689 0,-0.63585 -0.3709,-1.43066 -0.318,-0.8478 -0.4769,-1.48366 -0.106,-0.4239 -0.265,-0.8478 -0.1059,-0.4239 -0.2649,-0.79481 l -0.5829,-1.48365 q -0.2649,-0.63585 -0.5298,-1.27171 -0.212,-0.63585 -0.212,-1.43066 0,-3.65615 0.6359,-7.57723 0.6888,-3.92108 1.7486,-7.2593 l 1.9075,-5.03382 v -0.21195 q 0,-0.47689 -0.5829,-0.95378 l -1.2717,-0.79481 q -1.0597,-0.63585 -1.4306,-1.6956 -0.3179,-1.05976 -0.3179,-2.27847 -0.053,-1.05975 0.2649,-1.90755 0.3179,-0.84781 0.4239,-1.80158 l 0.2119,-2.49042 q 0,-2.22548 0.9538,-3.23224 1.0068,-1.00677 2.5434,-1.00677 2.3845,0 4.6099,1.00677 2.2785,1.00676 4.2391,2.43743 2.0135,1.43066 3.6561,2.9673 1.6956,1.53664 2.8083,2.54341 2.5964,2.33145 5.7227,4.29199 3.1793,1.96054 6.3055,4.08005 3.1793,2.1195 6.0406,4.71589 2.8613,2.54341 4.8749,6.04059 l 0.9008,1.58963 q 0.2649,0.4239 0.4768,0.90079 0.212,0.4239 0.4239,0.8478 l 0.7949,1.80158 q 0.2649,0.68883 0.3709,1.32469 0.106,0.58286 0.106,1.21871 0,0.74183 -0.212,1.64262 -0.159,0.8478 -0.3179,1.6956 l -1.1658,4.08004 q -0.4239,1.37768 -0.9537,3.23225 -0.5299,1.85456 -1.3777,3.55017 -0.7948,1.6956 -1.9605,2.91431 -1.1658,1.16573 -2.7554,1.16573 -1.0068,0 -2.0665,-0.26494 -1.0598,-0.31792 -2.0665,-0.68884 -0.9538,-0.4239 -1.8546,-0.79481 -0.9008,-0.4239 -1.6426,-0.68884 l -4.7159,-1.64261 q -0.5829,-0.26494 -1.1657,-0.4239 -0.5829,-0.21195 -1.1658,-0.47689 l -2.2784,-0.95378 q -1.1128,-0.4239 -2.1195,-0.58286 -0.9538,-0.21195 -2.0136,-0.26494 -0.9008,0.053 -1.7486,0.31792 -0.7948,0.26494 -1.5896,0.63586 -0.7948,0.37091 -1.5896,0.8478 -0.7948,0.47689 -1.7486,1.00676 l -2.8083,1.53664 q -1.3247,0.74183 -2.4905,1.58963 -1.1657,0.79481 -2.3314,1.58963 -1.1128,0.79481 -2.3315,1.48365 -1.2187,0.63585 -2.6494,1.00676 l -1.5366,0.42391 q -1.0597,0.31792 -1.4836,0.47688 -0.4239,0.10598 -0.4239,0.52988 0,0.053 0,0.10598 0.053,0 0.053,0.053 l 0.318,0.95378 q 0.3179,0.90079 0.5298,1.64262 l 0.5299,3.28523 q 0.053,0.26493 0.053,0.47688 0.053,0.15897 0.053,0.42391 0,1.64261 -0.159,3.12626 -0.1589,1.43067 -0.5298,2.5964 l -1.0068,3.33821 q -0.3709,1.16573 -1.0598,2.01353 -0.6358,0.8478 -2.0665,1.16573 l -2.1195,0.47689 q -0.5299,0.10597 -1.0597,0.15896 -0.4769,0.053 -1.0068,0.10598 l -2.1195,0.15896 q -0.2649,0.053 -0.5299,0.053 -0.2649,0 -0.5299,0 -2.0665,-0.053 -4.08,-0.37092 -1.9605,-0.26493 -4.08,-0.8478 l -2.2785,-0.63585 q -0.9008,-0.26494 -1.5366,-0.58286 -0.5829,-0.31793 -1.1658,-0.31793 -0.4769,0 -0.8478,0.31793 -0.3179,0.31792 -0.7948,1.16572 l -1.0597,1.7486 q -2.0666,3.23224 -4.557,5.45772 -2.4374,2.27846 -5.3517,4.02706 -2.9143,1.74859 -6.2526,3.17925 -3.2852,1.48365 -7.0473,3.17926 l -2.3845,0.8478 q -0.5828,0.21195 -1.1657,0.4239 -0.6358,0.26494 -1.2187,0.47689 l -4.8219,1.64261 -3.0203,0.90079 q -0.7948,0.26494 -1.7486,0.52988 -1.0067,0.26494 -1.5896,0.31792 -0.053,0 -0.053,-0.053 -0.053,0 -0.1059,0 l -0.371,-0.15897 q -0.1589,-0.053 -0.3179,-0.31792 l -0.1589,-0.37091 q -0.053,-0.053 -0.053,-0.26494 0,-0.4239 0.6358,-0.90079 l 0.6359,-0.4239 q 1.8015,-1.05975 3.5501,-2.22548 1.7486,-1.11274 3.6562,-2.17249 l 6.7824,-3.76212 q 0.4239,-0.15897 0.9008,-0.47689 0.4769,-0.26494 0.9538,-0.58286 l 3.7091,-2.22548 q 0.4239,-0.26494 0.9008,-0.52988 0.4769,-0.21195 0.9538,-0.47689 z m 56.7497,-49.49041 q 0.7948,0.31792 1.5896,0.47688 0.7948,0.10598 1.6956,0.10598 0.2649,0 0.5299,0 0.3179,0 0.5828,-0.053 l 2.2785,-0.15896 q 0.265,0 0.5829,0 0.3179,-0.053 0.5828,-0.053 0.4769,0 0.9538,0.053 0.5299,0.053 0.9538,0.053 1.8546,-0.053 3.4442,-1.00677 l 1.3777,-0.79481 q 1.0597,-0.58287 1.0067,-1.96054 -0.053,-0.95378 -0.4239,-2.01353 -0.3709,-1.11274 -0.9008,-2.17249 -0.4768,-1.11274 -1.1127,-2.06652 -0.5829,-0.95378 -1.0597,-1.64262 l -1.1658,-1.2717 q -1.2717,-1.37768 -3.0733,-2.38444 -1.8015,-1.00676 -3.3912,-1.00676 -1.3247,0 -2.4374,0.68883 -1.1127,0.68884 -2.0135,1.80158 -0.8478,1.11274 -1.4837,2.5964 -0.6358,1.43066 -1.0597,2.9673 l -0.4769,1.6956 q -0.3179,1.05976 -0.3179,2.01353 0,0.68884 0.4239,1.37768 0.4768,0.63585 1.0067,1.21872 0.5829,0.52987 1.1128,0.95377 0.5828,0.4239 0.7948,0.58287 z m -36.0316,27.28861 q 1.2187,1.32469 3.0203,2.27847 1.8016,0.90078 3.8681,1.53664 2.0665,0.58286 4.186,0.8478 2.1195,0.26493 3.9741,0.26493 1.1127,0 2.1195,-0.15896 1.0597,-0.21195 1.9605,-0.21195 0.265,0 0.318,0.053 l 0.4239,0.15896 q 0.1059,0.053 0.1059,0.053 0.212,0 0.212,-0.15896 0,-0.15897 -0.106,-0.37092 l -1.4307,-2.5434 q -0.2119,-0.37091 -0.8478,-1.11274 -0.6358,-0.74183 -1.5896,-1.64262 -0.9008,-0.95377 -2.0665,-1.90755 -1.1127,-0.95378 -2.3315,-1.74859 -1.1657,-0.79481 -2.3314,-1.2717 -1.1657,-0.52988 -2.1195,-0.52988 -0.6889,0 -1.4307,0.21195 -0.6888,0.21195 -1.4836,0.26494 -0.7948,0.053 -1.8546,0.26494 -1.0597,0.15896 -2.0135,0.58286 -0.9538,0.4239 -1.6426,1.11274 -0.6889,0.63585 -0.6889,1.64262 0,0.74182 0.5299,1.37767 0.5299,0.63586 1.2187,1.00677 z"
         id="path52" />
      <path
         style="font-size:132.469px;font-family:QCF2342;-inkscape-font-specification:'QCF2342, Normal';text-align:center;text-anchor:middle;fill:#b7bdf9;fill-opacity:1;stroke-width:17.8938;stroke-linecap:round;stroke-linejoin:round;paint-order:markers stroke fill"
         d="m 1691.8148,370.13191 q 0.4769,0.21195 1.6426,0.21195 0.9008,0 1.8545,-0.21195 1.0068,-0.21195 1.8546,-0.58287 0.8478,-0.4239 1.3777,-0.95377 0.5299,-0.58287 0.5299,-1.27171 0,-0.68883 -0.4769,-1.64261 -0.4769,-1.00677 -1.1128,-1.90756 -0.5828,-0.95377 -1.1657,-1.6956 -0.5829,-0.74182 -0.8478,-1.00676 -1.0068,-1.00677 -2.0665,-1.58963 -1.0598,-0.63585 -1.9605,-0.63585 -0.5829,0 -1.1128,0.37091 -0.5299,0.31793 -1.2717,1.00677 l -1.0068,0.95377 q -0.8478,0.79482 -1.6426,1.90756 -0.7948,1.05975 -0.7948,1.80157 0,0.42391 0.3179,1.00677 0.371,0.58286 1.0068,1.21871 0.6359,0.58287 1.4837,1.21872 0.8478,0.63585 1.8545,1.16573 0.9538,0.52987 1.5367,0.63585 z m 10.5975,6.72942 q -0.053,-0.053 -0.159,-0.52987 l -0.6358,-1.96055 Q 1701.5645,374 1701.4585,374 q -0.2119,0 -0.4769,0.47689 -0.2119,0.47689 -0.4239,0.95378 l -0.6888,1.6956 q -0.4769,0.90079 -1.3777,1.74859 -0.9008,0.79481 -2.0135,1.43067 -1.0598,0.63585 -2.2255,1.00676 -1.1657,0.37091 -2.1725,0.37091 -1.5896,0 -3.1793,-0.68884 -1.5366,-0.68883 -2.9143,-1.6956 -1.3247,-1.05975 -2.3314,-2.27847 -1.0068,-1.21871 -1.4837,-2.33145 -0.3709,-0.8478 -0.5828,-1.64262 -0.159,-0.79481 -0.159,-1.6956 -0.053,-1.53664 0.4769,-3.12627 0.5299,-1.58962 0.6888,-3.44419 l 0.212,-2.86133 q 0.053,-0.68884 0.3179,-1.43067 l 0.6359,-1.58962 q 0.3179,-0.79482 0.5828,-1.64262 0.265,-0.90079 0.7418,-1.64262 l 0.7949,-1.48365 q 0.5298,-0.95377 1.4306,-2.1195 0.9008,-1.21872 1.9606,-2.22548 1.1127,-1.05975 2.2254,-1.74859 1.1658,-0.68884 2.2255,-0.68884 1.1128,0 2.1725,0.63585 1.0598,0.58286 1.9606,1.43067 0.9007,0.79481 1.5366,1.64261 0.6358,0.8478 0.9538,1.2717 2.8613,4.292 4.345,8.90192 1.5366,4.60992 1.5366,9.69673 0,3.70913 -0.7418,7.47125 -0.6889,3.76212 -1.8546,7.36528 -1.1657,3.65614 -2.6494,6.99436 -1.4306,3.39121 -2.9143,6.30552 -0.7948,1.58963 -1.8546,3.07329 -1.0067,1.53664 -2.0665,2.64938 l -4.292,4.76888 -2.2255,2.27847 q -1.7485,1.80157 -4.133,3.55016 -2.3844,1.80158 -6.0406,3.23225 -2.0135,0.79481 -4.292,0.95378 -2.2784,0.21195 -4.3979,0.47688 -2.2255,0.26494 -4.451,0.37092 -2.2255,0.15896 -4.451,0.15896 -2.1195,0 -4.186,-0.21195 -2.0665,-0.21195 -4.186,-0.47689 -2.1195,-0.26494 -4.345,-0.58286 -2.1725,-0.26494 -4.5569,-0.4239 l -8.2661,-0.74183 -1.3777,-0.15896 q -0.5828,-0.053 -1.2187,-0.21195 -0.5828,-0.10598 -1.1127,-0.31793 -0.4769,-0.21195 -0.7948,-0.52987 -0.3179,-0.31793 -0.3179,-0.74183 0,-1.2717 0.7948,-1.80158 0.8478,-0.47689 1.5896,-0.47689 0.2649,0 0.4769,0 0.2649,0 0.5299,0.053 l 1.4836,0.21195 q 0.2649,0.053 0.4769,0.053 0.2119,0.053 0.4769,0.053 0.5299,0 0.6888,-0.053 l 2.0665,-0.15897 q 0.7419,0 1.4307,0.15897 0.6888,0.21195 1.3777,0.37091 0.6888,0.21195 1.4306,0.37091 0.7949,0.21195 1.6957,0.21195 0.2649,0 0.5298,0 0.318,0 0.5829,-0.053 l 2.2255,-0.21195 q 0.4239,-0.053 0.7948,-0.10598 0.3709,0 0.7418,0 0.7418,0 1.3777,0 0.6888,0.053 1.4307,0.053 4.4509,0 8.9019,-0.74183 4.4509,-0.68884 8.0011,-2.27846 0.4239,-0.26494 0.9538,-0.4239 0.5298,-0.10598 1.1127,-0.31793 l 4.398,-1.53664 q 0.9008,-0.4239 1.6956,-1.00677 0.8478,-0.52987 1.5896,-0.95377 l 1.4307,-0.8478 q 0.6888,-0.4239 1.3777,-0.84781 0.7418,-0.37091 1.4306,-1.00676 l 1.7486,-1.43066 q 0.8478,-0.74183 1.6426,-1.48366 0.8478,-0.74182 1.6956,-1.58963 l 1.5897,-1.58962 q 1.3247,-1.37768 2.6493,-2.91432 1.3247,-1.53664 2.5434,-3.17926 1.2717,-1.58962 2.3315,-3.23224 1.0598,-1.64262 1.8546,-3.23224 l 2.3314,-4.76889 q 0.159,-0.31792 0.4239,-0.90079 0.265,-0.63585 0.4769,-1.32469 0.212,-0.68884 0.3709,-1.2717 0.159,-0.63585 0.159,-0.90079 z"
         id="path50" />
      <path
         style="font-size:132.469px;font-family:QCF2342;-inkscape-font-specification:'QCF2342, Normal';text-align:center;text-anchor:middle;fill:#b7bdf9;fill-opacity:1;stroke-width:17.8938;stroke-linecap:round;stroke-linejoin:round;paint-order:markers stroke fill"
         d="m 1477.7979,357.3619 q 0.4239,-0.21195 0.9007,-0.21195 0.6359,0 0.7949,0.47688 0.1589,0.47689 0.1589,1.16573 0,0.52988 -0.1589,1.05975 -0.106,0.52988 -0.318,1.11274 l -0.4769,1.37768 q -0.9007,1.58963 -1.5366,3.39121 -0.5829,1.74859 -0.9538,3.60315 -0.3179,1.85457 -0.4769,3.70913 -0.1589,1.80158 -0.1589,3.55017 0,4.02706 1.6426,7.41827 1.6956,3.44419 4.7159,5.93461 3.0733,2.49042 7.3123,3.86809 4.239,1.43067 9.4318,1.43067 3.7091,0 6.9413,-0.68884 3.2853,-0.68884 6.2526,-2.01353 3.0203,-1.2717 5.8286,-3.17926 2.8084,-1.85456 5.6697,-4.239 l 1.1127,-1.00677 1.0068,-1.11274 q 0.2649,-0.26494 0.4769,-0.58286 0.2649,-0.31793 0.4769,-0.58286 l 0.7948,-1.21872 q 0.6888,-1.2717 0.9008,-2.38444 0.2649,-1.11274 0.2649,-2.43743 0,-1.85457 -0.4769,-3.92108 -0.4769,-2.06652 -0.6358,-4.18602 -0.159,-1.64262 -0.6359,-3.28523 -0.4769,-1.64262 -1.2187,-3.17926 l -0.8478,-2.06652 q -0.2119,-0.47688 -0.5299,-1.00676 -0.2649,-0.58286 -0.6358,-1.2717 l -1.3777,-2.70237 q -0.6358,-1.21872 -1.1127,-2.49042 -0.4239,-1.32469 -0.4239,-2.33145 l 0.2119,-2.38444 q 0.053,-1.00677 0.265,-2.22548 0.2119,-1.27171 0.4768,-2.33146 0.318,-1.05975 0.7419,-1.80158 0.4239,-0.74182 0.9008,-0.74182 0.5828,0.053 1.1127,0.79481 0.5829,0.68884 1.0068,1.58963 l 1.9605,4.66291 q 0.6359,1.37768 2.1725,1.80158 1.5896,0.37091 3.7091,0.37091 3.7092,0 8.0011,-1.21871 l 1.8546,-0.52988 q 0.7948,-0.21195 1.6956,-0.58286 0.9008,-0.37092 1.6956,-0.79482 0.7948,-0.4239 1.3247,-0.8478 0.5299,-0.47689 0.5299,-0.90079 0,-0.47689 -0.212,-1.11274 -0.1589,-0.68884 -0.3709,-1.21871 l -0.7948,-2.06652 q -0.4239,-1.05975 -0.9538,-2.01353 -0.4769,-0.95377 -1.0597,-1.96054 l -0.7948,-1.37768 q -0.3709,-0.63585 -0.6889,-1.2717 -0.3179,-0.68884 -0.3179,-1.58963 0,-0.58286 0.159,-1.21871 0.1589,-0.68884 0.2649,-1.2717 l 0.4239,-2.5964 0.106,-1.32469 q 0.106,-1.37767 0.4239,-1.90755 0.3709,-0.58286 0.8478,-0.58286 1.1127,0 2.1195,1.2717 1.0597,1.2717 1.9075,3.07328 0.9008,1.80158 1.5367,3.76212 0.6358,1.90755 0.9538,3.17925 0.3709,1.53665 0.5298,3.12627 0.159,1.58963 0.159,3.12627 0,3.17926 -0.7418,6.14656 -0.7419,2.96731 -2.3315,5.66968 -0.2649,0.37091 -0.4239,0.68883 -0.1589,0.26494 -0.2649,0.52988 l -0.4769,0.95378 q -0.265,0.52987 -0.6889,0.90079 -0.3709,0.31792 -1.1127,0.8478 l -2.8083,1.58963 -1.5367,0.63585 -6.0406,1.74859 q -1.9075,0.58286 -3.5501,0.58286 -0.6889,0 -0.7948,-0.26494 0.2649,0.4239 0.3179,1.16573 0.106,0.68884 0.106,1.37768 v 1.43066 q -0.053,0.37092 -0.053,0.68884 0,0.26494 0,0.52988 0,0.90079 0,1.80158 0.053,0.8478 0.053,1.74859 0,3.97407 -0.318,7.36527 -0.3179,3.33822 -1.4306,6.62345 -1.0598,3.28523 -3.1793,6.62345 -2.0665,3.39121 -5.6697,7.36528 -1.2187,1.37768 -2.8613,2.5434 -1.5896,1.21872 -3.3912,2.17249 -1.8016,1.00677 -3.7091,1.7486 -1.9076,0.74182 -3.7621,1.11274 -0.371,0.053 -0.6889,0.053 -0.3179,0.053 -0.6358,0.15897 l -1.2717,0.4239 q -0.6359,0.21195 -1.2188,0.37091 -0.5828,0.21195 -1.2187,0.15896 -0.4239,0 -0.8478,-0.053 -0.3709,0 -0.7418,0 -0.3179,0 -0.6888,0 -0.318,0.053 -0.6359,0.053 l -5.3517,0.21195 q -0.3709,0.053 -0.6889,0.053 -0.3179,0 -0.6888,0 -3.0203,0 -6.2526,-0.95378 -3.2322,-0.90079 -6.1465,-2.64938 -2.9143,-1.74859 -5.2458,-4.29199 -2.2785,-2.49042 -3.4972,-5.66967 -0.2649,-0.74183 -0.4769,-1.43067 -0.2119,-0.63585 -0.1589,-1.32469 0,-0.37091 0,-0.68884 0.053,-0.31792 0.053,-0.68884 0,-0.58286 -0.053,-1.21871 0,-0.58287 -0.053,-1.16573 l -0.2649,-3.17926 q -0.053,-0.31792 -0.053,-0.58286 0,-0.26494 0,-0.63585 0,-1.58963 0.3709,-3.17926 0.3709,-1.58962 0.7418,-3.12626 l 0.5829,-2.49042 q 0.7948,-4.13303 1.9075,-7.84217 1.1658,-3.76212 3.2853,-7.52423 z"
         id="path49" />
      <path
         style="font-size:132.469px;font-family:QCF2342;-inkscape-font-specification:'QCF2342, Normal';text-align:center;text-anchor:middle;fill:#b7bdf9;fill-opacity:1;stroke-width:17.8938;stroke-linecap:round;stroke-linejoin:round;paint-order:markers stroke fill"
         d="m 1495.4427,327.68884 q 0.212,-0.15896 0.6359,-0.15896 0.5299,0 1.3247,0.37091 0.7948,0.37091 1.5896,0.95378 0.8478,0.52987 1.6426,1.16573 0.7948,0.58286 1.4307,1.11273 l 1.4836,1.43067 0.9008,1.21871 q 0.7948,1.05976 0.7948,2.1725 0,0.8478 -0.4769,1.85456 l -0.7948,1.32469 q -0.3709,0.58287 -0.8478,1.2717 -0.4769,0.63586 -1.0067,1.21872 -0.4769,0.52987 -1.0068,0.90079 -0.5299,0.37091 -1.0068,0.37091 -0.2649,0.053 -0.9537,-0.21195 -0.6359,-0.31792 -1.4837,-0.74183 l -2.5964,-1.21871 q -1.7486,-0.90079 -2.8613,-1.80158 -1.1128,-0.95378 -1.1128,-2.01353 0.053,-0.47689 0.265,-0.95377 0.2119,-0.52988 0.4769,-1.00677 l 0.8478,-1.37768 q 0.4769,-0.68883 0.5828,-1.32469 0.159,-0.63585 0.318,-1.32469 0.1589,-0.74182 0.5298,-1.48365 0.371,-0.79481 1.3247,-1.74859 z"
         id="path47" />
      <path
         style="font-size:132.469px;font-family:QCF2342;-inkscape-font-specification:'QCF2342, Normal';text-align:center;text-anchor:middle;fill:#b7bdf9;fill-opacity:1;stroke-width:17.8938;stroke-linecap:round;stroke-linejoin:round;paint-order:markers stroke fill"
         d="m 1533.8587,407.54115 q 0.6889,-0.95378 1.1128,-1.48365 0.4239,-0.52988 1.3247,-0.52988 0.4239,0 1.3776,0.26494 1.0068,0.26494 2.1195,0.8478 l 3.0733,1.58963 q 0.4769,0.26494 1.1128,0.52988 0.6358,0.31792 1.0597,0.26493 1.0068,0 1.6956,-1.2717 0.6889,-1.2717 1.3247,-2.80834 0.6359,-1.53664 1.3247,-2.80834 0.7418,-1.27171 1.8546,-1.27171 0.7948,0.10598 1.9075,0.68884 1.1128,0.58287 2.1725,1.32469 1.0598,0.74183 1.9076,1.43067 0.9008,0.74182 1.3247,1.11274 0.7948,0.74182 1.1127,1.32469 0.3709,0.58286 0.3709,1.37767 0,1.11274 -0.6358,2.11951 -0.5829,1.05975 -1.4837,2.01353 l -1.9075,2.06651 -0.6359,0.52988 q -0.4239,0.4239 -0.9008,0.4239 -0.4769,-0.053 -1.4836,-0.4239 -0.9538,-0.31793 -1.6427,-0.63585 l -1.0067,-0.47689 q -0.5299,-0.26494 -1.0598,-0.58286 -0.5298,-0.26494 -0.9537,-0.63586 l -1.0068,-0.52987 q -0.5829,-0.15896 -1.1128,-0.15896 -0.6358,0 -1.1127,0.4239 -0.4239,0.4239 -0.7948,1.00676 -0.3709,0.63585 -0.6888,1.21872 -0.318,0.63585 -0.6889,1.00676 -0.4239,0.4239 -0.7948,1.00676 -0.3709,0.63586 -0.7948,1.16573 -0.3709,0.58287 -0.8478,0.95378 -0.4239,0.4239 -1.0068,0.4239 -0.4769,0 -1.0067,-0.31793 l -1.5367,-0.79481 q -0.4239,-0.21195 -0.7948,-0.4239 -0.3709,-0.15896 -0.7948,-0.31793 l -3.2323,-1.32469 q -1.2187,-0.47689 -1.2187,-1.58962 0,-0.63586 0.3709,-1.32469 l 0.5829,-1.16573 q 0.3179,-0.4239 0.4769,-1.05975 0.2119,-0.58287 0.4769,-1.16573 l 0.4769,-1.11274 q 0.2119,-0.52988 0.5828,-0.90079 z"
         id="path46" />
      <path
         style="font-size:132.469px;font-family:QCF2342;-inkscape-font-specification:'QCF2342, Normal';text-align:center;text-anchor:middle;fill:#b7bdf9;fill-opacity:1;stroke-width:17.8938;stroke-linecap:round;stroke-linejoin:round;paint-order:markers stroke fill"
         d="m 1556.2725,369.12514 q 0.3179,-0.58286 0.6888,-0.58286 0.5299,0 1.2717,0.63585 l 1.0068,1.11274 q 0.6358,0.68884 1.3247,1.11274 0.7418,0.37091 1.4836,0.58286 0.7419,0.21195 1.3777,0.31793 0.6889,0.053 1.1657,0.10597 1.3247,0.15897 2.5434,0.15897 3.6562,0 7.2064,-0.63586 3.6031,-0.63585 6.7824,-1.74859 3.2322,-1.11274 5.9346,-2.5434 2.7024,-1.48365 4.6629,-3.12627 2.0135,-1.64261 3.1263,-3.39121 1.1127,-1.74859 1.1127,-3.3912 0,-2.01353 -0.6888,-4.08005 -0.6889,-2.1195 -1.0068,-3.97407 l -2.1725,-10.70349 q -0.4769,-2.1195 -0.4769,-4.292 0,-1.05975 0.159,-2.1195 l 0.2649,-1.74859 q 0.106,-0.8478 0.265,-1.85457 0.2119,-1.00676 0.4239,-1.85456 0.2649,-0.8478 0.5828,-1.43067 0.3709,-0.58286 0.7948,-0.58286 0.3709,0 0.7419,0.8478 0.3709,0.79481 0.6888,1.96054 0.3709,1.11274 0.5829,2.38444 0.2649,1.27171 0.4239,2.11951 l 1.0597,6.35851 1.6426,8.79594 q 1.2187,5.93461 2.8614,11.28636 1.6426,5.29876 4.186,10.59752 1.0067,1.90755 2.4374,3.76212 1.4307,1.80158 3.2323,3.28523 1.8545,1.48365 4.027,2.38444 2.2255,0.90079 4.7159,0.90079 2.3845,0 3.9211,-1.2717 1.5366,-1.27171 1.5366,-4.13304 0,-1.64261 -0.4239,-3.23224 -0.4239,-1.64261 -0.6888,-2.91432 l -2.0135,-12.29312 q -0.4769,-3.65614 -1.2717,-7.20631 l -1.2717,-7.20632 q -0.212,-1.05975 -0.4239,-2.06651 -0.159,-1.05975 -0.265,-2.11951 l -0.6358,-4.239 q -0.318,-2.01353 -0.6889,-4.13304 -0.3179,-2.1195 -0.9008,-4.13303 l -0.8478,-3.81511 q -0.4239,-1.85456 -0.6888,-3.76212 -0.2649,-1.96054 -0.5299,-3.97407 l -0.6888,-5.40473 q -0.159,-0.68884 -0.265,-1.48365 -0.1059,-0.8478 -0.2119,-1.64262 -0.106,-0.8478 -0.2649,-1.58963 -0.159,-0.79481 -0.4239,-1.37767 l -1.6427,-2.43743 q -0.4239,-0.58287 -0.7948,-1.64262 -0.3179,-1.11274 -0.2649,-3.55017 0.106,-1.00676 0.3709,-1.80158 0.2649,-0.79481 1.1657,-0.79481 h 0.318 q 0.1059,-0.74183 0.3179,-1.53664 0.2649,-0.79482 0.6888,-1.58963 l 0.7948,-1.48365 0.9008,-1.32469 q 0.4239,-0.58287 0.8478,-0.58287 0.4239,0 0.8478,0.63586 l 0.4769,1.11274 q 0.4239,0.90078 0.4239,1.48365 0.053,0.52987 0.4239,1.11274 l 0.7948,1.37768 q 0.212,0.31792 0.4239,0.63585 0.265,0.31792 0.5299,0.68884 l 1.0598,1.2717 q 1.1657,1.37768 1.9605,2.75535 0.8478,1.37768 0.8478,2.64938 0,1.96054 -1.8546,3.81511 -1.2187,1.21871 -1.7486,2.38444 -0.4768,1.11274 -0.4768,2.22548 0,0.26494 0,0.52988 0.053,0.21195 0.1059,0.47688 l 0.4239,2.27847 q 0.3709,1.53664 0.6889,3.12627 0.3709,1.58963 0.6358,3.17926 l 1.1128,6.4115 q 0.6358,4.50394 1.4306,9.00789 0.7948,4.45095 1.5367,8.9549 l 1.6426,10.49154 q 0.5299,3.33822 1.1127,6.57047 0.5829,3.17925 0.8478,6.19955 l 0.159,3.76212 q 0.053,1.05975 0.053,2.1195 0,1.00676 0,2.06652 0,2.70236 -0.5829,5.08681 -0.5299,2.38444 -1.2717,4.60992 l -1.1127,3.33821 q -1.0598,3.17926 -3.1793,4.39798 -2.1195,1.21871 -4.7159,1.21871 -1.8545,0 -3.7621,-0.63585 -1.8546,-0.58286 -3.6032,-1.53664 -1.6956,-0.95378 -3.1262,-2.17249 -1.4307,-1.21872 -2.4375,-2.43743 l -1.4306,-1.74859 -1.2717,-1.85457 -1.1128,-2.01353 q -0.9008,-1.85456 -1.6426,-3.76212 -0.7418,-1.96054 -1.3777,-3.92108 l -2.1724,-7.94814 v 0.15896 q 0,0.10598 -0.053,0.26494 0,0.15896 -0.053,0.4239 l -0.4769,1.37768 q -0.106,0.37091 -0.2649,0.74183 -0.159,0.31792 -0.318,0.68884 l -0.4769,0.90078 q -0.2119,0.31793 -0.4239,0.63586 -0.1589,0.31792 -0.3179,0.68883 l -0.6888,1.37768 q -0.6889,1.21872 -1.4837,2.33146 -0.7948,1.05975 -1.9605,2.27846 l -0.9538,1.00677 q -1.2187,1.05975 -2.5964,1.6956 -1.3777,0.63585 -2.5964,1.11274 l -2.1195,0.8478 q -1.4836,0.58286 -2.9143,1.32469 -1.4307,0.68884 -3.0733,1.11274 -3.0733,0.8478 -6.4645,1.21872 -3.3912,0.4239 -6.5704,0.4239 -1.6956,0 -3.2853,-0.52988 -1.5896,-0.47689 -2.8083,-1.37768 -1.2187,-0.90079 -1.9605,-2.17249 -0.7419,-1.32469 -0.7419,-2.86133 0.053,-1.16573 0.265,-2.27847 0.2649,-1.16572 0.6358,-2.38444 l 0.4239,-1.53664 q 0.106,-0.37091 0.212,-0.68884 0.1589,-0.37091 0.3179,-0.63585 z"
         id="path45" />
      <path
         style="font-size:132.469px;font-family:QCF2342;-inkscape-font-specification:'QCF2342, Normal';text-align:center;text-anchor:middle;fill:#b7bdf9;fill-opacity:1;stroke-width:17.8938;stroke-linecap:round;stroke-linejoin:round;paint-order:markers stroke fill"
         d="m 1578.5803,302.09583 q 0.2649,-0.21195 0.6888,-0.21195 0.5299,0 1.2187,0.31793 0.7418,0.31792 1.4837,0.8478 0.7948,0.47689 1.5366,1.05975 0.7418,0.52988 1.3247,1.00676 l 1.4307,1.16573 q 1.0067,0.79482 1.3776,1.64262 0.371,0.79481 0.371,1.53664 0,0.90079 -0.6889,2.17249 -0.6358,1.2717 -1.4836,2.49042 -0.8478,1.16572 -1.6426,2.06651 -0.7419,0.8478 -0.9538,0.90079 -0.3179,0.10598 -0.5829,0.10598 -0.5299,0 -1.1657,-0.31793 -0.6359,-0.31792 -1.3247,-0.68884 -0.6359,-0.4239 -1.2717,-0.8478 -0.5829,-0.4239 -1.0068,-0.63585 -0.4769,-0.21195 -1.2187,-0.58286 -0.6888,-0.37092 -1.3777,-0.84781 -0.6358,-0.47688 -1.1127,-1.05975 -0.4769,-0.58286 -0.4769,-1.21871 0,-0.47689 0.212,-1.00677 0.2649,-0.52987 0.6358,-1.00676 l 1.0068,-1.32469 q 0.2649,-0.26494 0.4239,-0.52988 0.1589,-0.26494 0.2649,-0.52987 l 0.8478,-2.49042 q 0.5299,-1.43067 1.4837,-2.01353 z"
         id="path43" />
      <path
         style="font-size:132.469px;font-family:QCF2342;-inkscape-font-specification:'QCF2342, Normal';text-align:center;text-anchor:middle;fill:#b7bdf9;fill-opacity:1;stroke-width:17.8938;stroke-linecap:round;stroke-linejoin:round;paint-order:markers stroke fill"
         d="m 1643.5431,298.86359 q 0.1589,-0.15897 0.2649,-0.95378 l 0.4769,-4.82187 q 0.053,-0.37091 0.2649,-0.79481 0.212,-0.42391 0.4769,-0.74183 0.265,-0.37091 0.5299,-0.58286 0.3179,-0.26494 0.5829,-0.26494 0.6358,0 0.7948,1.21871 l 0.2649,2.86133 q 0.053,0.37092 0.053,0.74183 0,0.31792 0,0.68884 l 0.106,1.43066 q 0.1589,2.22548 0.4239,4.34499 0.2649,2.1195 0.8478,4.34498 l 0.8478,4.34498 q 0.5299,2.49042 0.9008,4.92785 0.4239,2.43743 0.8478,4.92785 0.4239,2.43742 0.8478,4.98083 0.4769,2.49042 1.0597,5.08681 l 1.1657,5.08681 q 0.6889,3.02029 1.1128,5.93461 0.4769,2.86133 0.9538,5.88162 l 1.6426,11.92221 q 0.2649,1.96054 0.3709,3.8681 0.159,1.85456 0.159,3.8151 0,1.37768 -0.053,2.75536 -0.053,1.37768 -0.053,2.75535 0,0.58287 0,1.21872 0.053,0.58286 0.053,1.16573 v 0.58286 l -0.159,2.91432 q -0.053,0.68884 -0.159,1.43066 -0.1059,0.68884 -0.2649,1.43067 l -0.5299,2.38444 -0.4769,1.16573 q -0.2649,0.4239 -0.5828,0.74182 -0.318,0.31793 -0.5299,0.31793 l -0.3179,-0.68884 q 0,-0.63585 -0.3709,-1.74859 -0.318,-1.05975 -0.318,-2.49042 0,-0.74182 0,-1.37768 0.053,-0.68883 0.053,-1.43066 0,-1.96054 -0.2649,-3.97407 -0.212,-2.06652 -0.4769,-4.08005 -0.7948,-8.63697 -2.3315,-16.6381 -1.4836,-8.05412 -2.8613,-15.94927 l -2.2255,-12.45208 q -0.1589,-0.74183 -0.3179,-1.53664 -0.106,-0.84781 -0.3179,-1.74859 l -0.7418,-3.23225 q -0.4239,-1.64261 -0.7419,-3.28523 -0.2649,-1.64261 -0.5298,-3.28523 l -0.371,-2.17249 q -0.3179,-1.90756 -0.5298,-4.23901 -0.212,-2.38444 -0.212,-4.39797 0,-1.96054 0.6359,-2.38444 z"
         id="path40" />
    </g>
    <g
       id="g77"
       inkscape:label="harakat"
       style="fill:#ebd59e;fill-opacity:1">
      <path
         style="font-size:132.469px;font-family:QCF2342;-inkscape-font-specification:'QCF2342, Normal';text-align:center;text-anchor:middle;fill:#ebd59e;fill-opacity:1;stroke-width:17.8938;stroke-linecap:round;stroke-linejoin:round;paint-order:markers stroke fill"
         d="m 661.36514,291.81624 q 3.17926,-0.90079 6.19955,-2.11951 l 6.14656,-2.49041 18.65164,-6.99437 2.75535,-1.16572 q 1.53664,-0.63586 3.12627,-1.11274 1.58963,-0.52988 2.96731,-0.52988 1.16572,0 1.80157,0.4239 0.63586,0.37091 0.63586,1.58963 0,2.27847 -1.32469,3.55017 -1.27171,1.2717 -3.07328,2.01353 -1.80158,0.68884 -3.70914,1.11274 -1.90755,0.37091 -3.12626,0.90079 l -1.21872,0.52987 q -0.63585,0.26494 -1.2717,0.37091 -0.63585,0.10598 -1.2717,0.37092 l -4.98084,1.90755 q -2.86133,1.21872 -5.66967,2.33146 -2.75536,1.11274 -5.77565,2.06651 l -1.64261,0.47689 q -0.79482,0.26494 -1.64262,0.58286 -0.8478,0.26494 -1.64262,0.52988 l -1.58962,0.63585 q -0.26494,0.053 -0.58287,0.31793 -0.26494,0.21195 -0.79481,0.47689 l -2.11951,1.05975 q -1.16572,0.4239 -1.90755,0.4239 -0.79481,-0.053 -0.79481,-1.00677 0,-0.15896 0.053,-1.05975 0.053,-0.90079 0.26494,-1.96054 0.21195,-1.05975 0.58287,-2.01353 0.37091,-0.95377 0.95377,-1.21871 z"
         id="path75" />
      <path
         style="font-size:132.469px;font-family:QCF2342;-inkscape-font-specification:'QCF2342, Normal';text-align:center;text-anchor:middle;fill:#ebd59e;fill-opacity:1;stroke-width:17.8938;stroke-linecap:round;stroke-linejoin:round;paint-order:markers stroke fill"
         d="m 818.31441,281.58963 q 0.74182,-0.58286 0.74182,-2.01353 0,-1.05975 -0.26493,-2.17249 -0.26494,-1.11274 -0.63586,-2.1195 l -0.63585,-1.74859 q -0.58286,-1.48366 -1.48365,-2.01353 -0.90079,-0.58287 -1.80158,-0.58287 -1.05975,0 -2.1195,0.52988 -1.05975,0.52988 -1.96054,1.2717 -0.8478,0.74183 -1.43067,1.58963 -0.52987,0.79481 -0.52987,1.32469 0,0.90079 1.37767,1.80158 l 5.51071,2.70237 q 0.58287,0.26493 1.16573,0.58286 0.58286,0.26494 1.05975,0.47689 0.47689,0.15896 0.74183,0.31792 0.26494,0.10598 0.26494,0.053 z m -24.69222,23.47351 q 0.79481,-0.90079 1.80158,-1.64262 1.00676,-0.74183 2.06651,-1.48365 l 2.11951,-1.43067 q 0.58286,-0.4239 1.05975,-0.74182 0.52987,-0.37092 0.95377,-0.68884 l 3.17926,-2.43743 q 2.38444,-1.85457 4.7159,-3.81511 2.38444,-1.96054 4.39797,-4.08004 0.58286,-0.74183 0.58286,-1.11274 0,-1.05975 -2.22548,-1.64262 l -2.59639,-0.90079 -2.1195,-1.00676 q -2.38445,-1.00677 -3.33822,-2.70237 -0.95378,-1.6956 -0.95378,-3.49718 0,-2.54341 1.21871,-4.98084 1.27171,-2.49041 3.12627,-4.45095 1.90756,-1.96054 4.02706,-3.17926 2.17249,-1.21871 3.97407,-1.21871 1.21871,0 2.38444,0.63585 1.21872,0.58286 2.17249,1.96054 0.95378,1.37768 1.53664,3.60315 0.58287,2.1725 0.58287,5.40474 0,4.50395 -1.16573,8.26607 -1.11274,3.76211 -3.23224,6.99436 -2.11951,3.17925 -5.08681,5.93461 -2.91432,2.70237 -6.51748,5.08681 l -4.87486,3.07328 q -0.58286,0.37091 -1.21871,0.68884 -0.58286,0.31792 -1.21872,0.63585 l -2.59639,1.11274 q -1.37768,0.58286 -2.75535,1.00676 -1.32469,0.37092 -2.5964,0.79482 l -0.8478,0.21195 q -0.31792,0.10597 -0.68884,0.15896 -0.31792,0.053 -0.68883,0.10598 l -1.32469,0.15896 q -0.95378,0 -0.95378,-0.37092 0,-0.37091 1.00676,-1.05975 1.00677,-0.68884 2.06652,-1.2717 l 2.59639,-1.37768 q 0.58287,-0.31792 0.95378,-0.47689 0.37091,-0.15896 0.47689,-0.26493 z"
         id="path73" />
      <path
         style="font-size:132.469px;font-family:QCF2342;-inkscape-font-specification:'QCF2342, Normal';text-align:center;text-anchor:middle;fill:#ebd59e;fill-opacity:1;stroke-width:17.8938;stroke-linecap:round;stroke-linejoin:round;paint-order:markers stroke fill"
         d="m 904.04834,417.02593 q 1.05975,0.37091 1.32469,0.95378 0.31793,0.58286 0.31793,1.32469 0,1.90755 -0.74183,3.02029 -0.68884,1.16573 -1.58963,1.74859 -0.90079,0.58286 -1.6956,0.74183 -0.74183,0.15896 -0.79482,0.15896 -0.63585,0.15896 -0.95377,0.31793 l -3.81511,1.43066 q -1.00676,0.47689 -1.96054,0.74183 -0.95378,0.31792 -1.90755,0.63585 l -3.8681,1.37768 q -0.95378,0.37091 -1.90755,0.63585 -0.95378,0.26494 -1.96054,0.58286 l -3.07328,0.95378 q -2.27847,0.8478 -4.60992,1.48365 -2.27847,0.68884 -4.55694,1.53664 l -4.55693,1.6956 -1.53664,0.4239 q -0.47689,0.15897 -0.79482,0.15897 -0.52987,0 -0.79481,-0.37092 -0.26494,-0.31792 -0.26494,-0.79481 0,-0.4239 0.053,-0.90079 0.053,-0.4239 0.21195,-0.90079 l 0.4239,-1.32469 q 0.26494,-0.79481 0.52988,-1.32469 0.26493,-0.47689 0.58286,-0.8478 0.37091,-0.37091 0.8478,-0.58286 0.47689,-0.21195 1.11274,-0.4239 l 1.74859,-0.52988 q 0.74183,-0.26494 1.48366,-0.58286 0.74182,-0.26494 1.48365,-0.4239 l 5.9876,-2.01353 q 1.32469,-0.4239 2.5434,-0.8478 1.2717,-0.37092 2.59639,-0.84781 l 8.42503,-3.02029 q 0.52988,-0.15896 1.05975,-0.31792 0.52988,-0.15897 1.05976,-0.37092 l 4.239,-1.53664 q 0.52988,-0.15896 1.16573,-0.52987 0.68884,-0.31793 1.37768,-0.63586 0.68884,-0.31792 1.32469,-0.58286 0.68884,-0.21195 1.16572,-0.21195 z"
         id="path70" />
      <path
         style="font-size:132.469px;font-family:QCF2342;-inkscape-font-specification:'QCF2342, Normal';text-align:center;text-anchor:middle;fill:#ebd59e;fill-opacity:1;stroke-width:17.8938;stroke-linecap:round;stroke-linejoin:round;paint-order:markers stroke fill"
         d="m 937.37754,294.35964 0.52988,-0.4239 1.43066,-1.90755 q 1.05975,-1.2717 2.49042,-2.11951 l 1.43066,-0.79481 q 1.37768,-0.58286 3.17926,-0.8478 1.85456,-0.31793 3.49718,-0.31793 2.86133,0 5.72266,0.52988 2.86133,0.52987 5.5637,0.95378 1.2717,0.21195 2.38444,0.47688 1.16573,0.26494 2.06652,0.74183 0.90079,0.4239 1.43066,1.11274 0.52988,0.68884 0.52988,1.6956 0,1.74859 -1.90756,3.81511 -1.85456,2.01353 -5.82863,4.292 l -4.50395,2.59639 -4.66291,2.17249 -2.33145,1.00676 q -0.31793,0.15897 -1.21872,0.37092 -0.90078,0.21195 -2.06651,0.4239 -1.11274,0.21195 -2.27847,0.37091 -1.16573,0.15896 -1.96054,0.15896 -1.05975,0 -1.64261,-0.15896 -0.52988,-0.15896 -0.52988,-0.74183 0,-0.053 0.10597,-0.15896 0.10598,-0.15896 0.42391,-0.37091 0.31792,-0.21195 0.90078,-0.52988 0.63586,-0.37091 1.69561,-0.95377 l 6.72942,-3.65615 q 1.64262,-0.90079 3.28523,-1.80158 1.64262,-0.95377 2.91432,-1.74859 1.32469,-0.8478 2.11951,-1.48365 0.8478,-0.63585 0.8478,-0.95378 0,-0.21195 -0.8478,-0.4239 -0.79482,-0.26494 -1.85457,-0.4239 -1.00677,-0.21195 -2.01353,-0.31792 -1.00676,-0.10598 -1.37768,-0.15897 -0.58286,-0.10597 -1.16572,-0.053 -0.52988,0 -1.11274,0 -1.85457,0 -3.33822,0.21195 -1.48365,0.21195 -2.75536,0.63585 -1.21871,0.4239 -2.33145,1.16572 -1.05975,0.68884 -2.11951,1.69561 -0.26493,0.26493 -0.68883,0.68884 -0.37092,0.37091 -0.74183,0.74182 -0.37091,0.31793 -0.74183,0.58287 -0.31792,0.21195 -0.47689,0.21195 -0.21195,0 -0.31792,-0.37092 -0.053,-0.37091 -0.053,-0.79481 0,-0.58286 0.15896,-1.37768 0.15897,-0.8478 0.37092,-1.58963 0.26494,-0.74182 0.52987,-1.32469 0.26494,-0.63585 0.52988,-0.8478 z"
         id="path69" />
      <path
         style="font-size:132.469px;font-family:QCF2342;-inkscape-font-specification:'QCF2342, Normal';text-align:center;text-anchor:middle;fill:#ebd59e;fill-opacity:1;stroke-width:17.8938;stroke-linecap:round;stroke-linejoin:round;paint-order:markers stroke fill"
         d="m 1014.8984,288.16009 q 0.106,-0.21195 0.106,-0.4239 0,-0.21195 0,-0.47689 0,-1.11274 -0.212,-2.75535 -0.2119,-1.64262 -0.7418,-3.12627 -0.4769,-1.48365 -1.3247,-2.5434 -0.7948,-1.05976 -2.0135,-1.05976 -1.1658,0 -2.2785,0.68884 -1.0597,0.68884 -1.9075,1.64262 -0.7949,0.90079 -1.3247,1.80158 -0.4769,0.90079 -0.4769,1.32469 0,0.68884 0.5828,1.16572 0.5829,0.4239 1.3777,0.74183 0.7948,0.26494 1.6426,0.47689 0.9008,0.15896 1.4837,0.37091 l 2.7024,1.16573 1.6426,0.74182 q 0.6888,0.26494 0.6888,0.26494 z m -3.8681,5.61669 q -0.5299,-0.21195 -1.1127,-0.37091 -0.5299,-0.21196 -1.1128,-0.37092 l -2.3314,-0.63585 -2.2785,-0.79481 q -0.5829,-0.21195 -1.1127,-0.52988 -0.4769,-0.31792 -0.9008,-0.68884 l -1.0598,-0.8478 q -1.90753,-1.58963 -1.90753,-3.44419 l 0.26493,-1.74859 0.5299,-1.64262 q 0,0.053 0.1589,-0.31793 0.159,-0.37091 0.371,-0.63585 l 0.3709,-0.52987 q 0.053,-0.10598 0.053,-0.10598 h 0.053 q 0.053,0 0.053,0.053 0.159,-1.80158 1.6956,-3.60316 l 1.4837,-1.6956 1.5366,-1.48365 q 0.5299,-0.47689 1.2187,-1.11274 0.7419,-0.68884 1.5367,-1.2717 0.7948,-0.63586 1.6426,-1.00677 0.9008,-0.4239 1.7486,-0.4239 0.9538,0 1.7486,0.47689 0.8478,0.47689 1.4836,1.11274 0.6359,0.63585 1.0598,1.32469 0.4769,0.63585 0.6888,1.00676 1.0598,2.01353 1.3247,4.292 0.265,2.22548 0.3179,4.34498 0,0.26494 -0.053,0.52988 0,0.21195 0,0.47689 l -0.159,1.43066 q -0.053,0.37091 -0.106,0.74183 -0.053,0.31792 -0.1589,0.68884 l -0.6359,2.86133 q -0.4239,1.6956 -1.0068,3.02029 -0.5298,1.2717 -1.2187,2.64938 l -0.9538,1.90755 q -1.2187,2.43743 -3.2322,4.292 -2.0135,1.80158 -4.239,3.28523 l -8.95491,5.51071 q -0.47689,0.37091 -1.05975,0.52988 -0.52988,0.15896 -1.05976,0.4239 l -2.59639,1.21871 q -0.58286,0.26494 -1.16573,0.52988 -0.58286,0.21195 -1.11273,0.21195 -0.90079,0 -1.27171,-0.26494 -0.31792,-0.31793 -0.31792,-0.58286 0.10597,-0.68884 0.79481,-1.32469 0.68884,-0.68884 1.53664,-1.32469 l 5.40474,-4.08005 q 1.00676,-0.74183 2.01353,-1.53664 1.05978,-0.79481 2.11948,-1.53664 l 1.9076,-1.32469 q 1.0597,-0.74183 2.4374,-1.80158 1.3777,-1.11274 2.5964,-2.17249 1.2717,-1.11274 2.1195,-2.06652 0.8478,-0.95377 0.8478,-1.43066 z"
         id="path67" />
      <path
         style="font-size:132.469px;font-family:QCF2342;-inkscape-font-specification:'QCF2342, Normal';text-align:center;text-anchor:middle;fill:#ebd59e;fill-opacity:1;stroke-width:17.8938;stroke-linecap:round;stroke-linejoin:round;paint-order:markers stroke fill"
         d="m 1044.9954,431.54453 q 1.2187,-0.10597 2.2785,-0.47689 1.1127,-0.31792 2.3315,-0.74182 l 4.5039,-1.43067 6.2525,-1.53664 q 0.5299,-0.10597 1.0068,-0.26494 0.5299,-0.15896 1.0598,-0.31792 l 8.478,-2.38444 q 0.6888,-0.15897 1.2187,-0.26494 0.5299,-0.053 1.0597,-0.15896 0.5829,-0.10598 1.3247,-0.37092 0.7419,-0.21195 1.8016,-0.68884 1.3777,-0.63585 2.8613,-1.11274 1.4837,-0.4239 2.6494,-0.4239 1.0598,0 1.4837,0.4239 0.4769,0.42391 0.4769,1.64262 -0.053,1.48365 -0.7419,2.5434 -0.6358,1.05976 -1.6426,1.80158 -1.0068,0.79482 -2.2785,1.21872 -1.2717,0.47689 -2.5434,0.79481 l -3.3382,0.79482 q -1.3247,0.31792 -2.5964,0.58286 -1.2717,0.26494 -2.5434,0.58286 l -15.2074,4.02706 q -0.4769,0.15896 -0.9538,0.26494 -0.4769,0.15896 -1.0068,0.26494 l -2.0665,0.52987 q -0.7948,0.21195 -1.5896,0.52988 -0.7948,0.31792 -1.5366,0.63585 -0.6889,0.31792 -1.2717,0.52988 -0.5299,0.21195 -0.8478,0.21195 -0.5829,0 -0.7949,-0.58287 -0.1589,-0.58286 -0.1589,-1.21871 0,-0.79482 0.2649,-1.74859 0.265,-0.90079 0.5829,-1.74859 0.3709,-0.79482 0.7418,-1.37768 0.4239,-0.52988 0.7418,-0.52988 z"
         id="path66" />
      <path
         style="font-size:132.469px;font-family:QCF2342;-inkscape-font-specification:'QCF2342, Normal';text-align:center;text-anchor:middle;fill:#ebd59e;fill-opacity:1;stroke-width:17.8938;stroke-linecap:round;stroke-linejoin:round;paint-order:markers stroke fill"
         d="m 1086.7497,280.63585 q 1.0597,-1.53664 2.1725,-2.75535 1.1657,-1.2717 2.5434,-2.1195 1.4306,-0.90079 3.1792,-1.37768 1.7486,-0.47689 3.9741,-0.47689 2.5434,0 4.8219,0.47689 2.3314,0.4239 4.8748,1.00676 l 1.9606,0.31793 q 1.3776,0.21195 2.6493,0.52987 1.2717,0.31793 2.2255,0.74183 0.9538,0.4239 1.5367,1.05975 0.5828,0.58287 0.5828,1.43067 0,0.8478 -0.4769,1.74859 -0.4769,0.8478 -1.2187,1.64261 -0.6888,0.79482 -1.4836,1.53664 -0.7949,0.68884 -1.4837,1.21872 l -2.1725,1.6956 q -1.1657,1.00677 -2.7024,1.85457 -1.5366,0.79481 -3.1262,1.48365 -1.5896,0.63585 -3.1263,1.11274 -1.4836,0.47689 -2.5434,0.79481 l -3.4972,0.90079 q -0.8478,0.26494 -1.7486,0.58287 -0.8478,0.31792 -1.5896,0.68884 l -0.7418,0.37091 q -0.5829,0.26494 -1.1128,0.52987 -0.5298,0.21195 -1.0067,0.21195 -0.4769,0 -0.9538,-0.26493 -0.4239,-0.26494 -0.4239,-0.79482 0,-0.63585 0.5829,-1.05975 0.053,-0.10597 0.8478,-0.47689 0.8478,-0.4239 2.3844,-1.32469 l 13.2469,-7.57722 q 1.4837,-0.84781 2.1195,-1.37768 0.6888,-0.52988 0.6888,-0.63585 -0.2119,-0.26494 -0.9537,-0.4239 -0.7419,-0.21195 -1.5897,-0.31793 -0.9537,-0.15896 -2.1724,-0.26494 l -3.4442,-0.52987 q -0.371,-0.10598 -0.6889,-0.10598 -0.3179,0 -0.6888,0 -1.8546,0.053 -3.3912,0.21195 -1.4837,0.10598 -2.5964,0.68884 l -1.6956,0.8478 -1.7486,1.05975 q -0.9538,0.58287 -1.5896,0.58287 -0.7419,0 -1.1658,-0.47689 -0.4239,-0.47689 -0.4239,-1.05975 0,-1.21872 1.1658,-1.90756 z"
         id="path64" />
      <path
         style="font-size:132.469px;font-family:QCF2342;-inkscape-font-specification:'QCF2342, Normal';text-align:center;text-anchor:middle;fill:#ebd59e;fill-opacity:1;stroke-width:17.8938;stroke-linecap:round;stroke-linejoin:round;paint-order:markers stroke fill"
         d="m 1163.3167,233 q 1.3777,0.58287 1.3777,2.1725 0,0.79481 -0.3179,1.58962 -0.2649,0.74183 -0.7418,1.43067 -0.4769,0.63585 -1.0598,1.16573 -0.5299,0.47688 -1.0068,0.68883 l -7.4182,2.86133 q -5.6167,2.1725 -11.1804,4.292 -5.5107,2.06652 -10.6505,3.76212 -0.2649,0.10597 -0.5829,0.21195 -0.3179,0.053 -0.6358,0.15896 l -1.1657,0.4239 q -0.265,0.10598 -0.5829,0.21195 -0.3179,0.10598 -0.6359,0.21195 l -2.3314,1.21872 q -0.7418,0.52987 -1.9076,1.05975 -1.1657,0.52988 -1.9075,0.52988 -0.5829,0 -0.9538,-0.21195 -0.3179,-0.26494 -0.3179,-1.00677 0,-0.4239 0.1589,-0.90079 0.159,-0.52987 0.318,-0.95377 l 0.2649,-0.84781 q 0.4239,-1.37767 0.8478,-1.96054 0.4239,-0.63585 1.0068,-0.90079 l 1.3247,-0.63585 q 3.0202,-1.58962 6.3585,-2.64938 3.3912,-1.11274 6.4645,-2.38444 0.9007,-0.4239 1.8015,-0.79481 0.9538,-0.4239 2.0136,-0.74183 l 3.8151,-1.43066 q 2.5434,-0.95378 4.9808,-1.90756 2.4904,-0.95377 4.9278,-2.17249 1.6957,-0.8478 3.6562,-1.64261 2.0135,-0.79482 3.6031,-0.84781 z"
         id="path62" />
      <path
         style="font-size:132.469px;font-family:QCF2342;-inkscape-font-specification:'QCF2342, Normal';text-align:center;text-anchor:middle;fill:#ebd59e;fill-opacity:1;stroke-width:17.8938;stroke-linecap:round;stroke-linejoin:round;paint-order:markers stroke fill"
         d="m 1134.5445,267.70688 q 0.8478,0.15896 1.0067,0.95378 0.212,0.79481 0.318,1.6956 0.1059,0.90079 0.4239,1.64262 0.3709,0.68883 1.5366,0.68883 0.7948,0 1.9076,-0.053 1.1127,-0.10598 2.1724,-0.4239 1.0598,-0.37092 1.8546,-1.05976 0.8478,-0.68883 1.0598,-1.96054 0.2119,-0.95377 0.3179,-2.06651 l 0.159,-2.11951 q 0.3179,-3.92108 1.6426,-3.92108 0.4239,0 0.7948,0.58286 0.4239,0.58287 0.4239,1.64262 0,0.4239 -0.106,1.64262 -0.106,1.21871 -0.106,2.5434 0.106,1.00676 0.4239,1.90755 0.318,0.90079 1.4307,0.90079 0.6359,0 1.6426,-0.15896 1.0598,-0.21195 2.0665,-0.52988 1.0598,-0.37091 1.8016,-0.79481 0.7418,-0.4239 0.7418,-0.90079 0.053,-0.90079 0.053,-2.59639 0,-1.6956 0.159,-3.33822 0.1589,-1.64262 0.6358,-2.86133 0.4769,-1.21872 1.5367,-1.21872 0.5828,0 0.8478,0.74183 0.3179,0.74183 0.4239,1.74859 l 0.106,7.31229 q 0,1.58963 -0.371,2.96731 -0.3179,1.37767 -1.2187,2.5434 -0.9008,1.16573 -2.4374,2.1195 -1.5366,0.90079 -3.9211,1.58963 -1.4306,0.4239 -2.5964,0.4239 -0.7418,0 -1.3777,-0.15896 -0.6358,-0.21195 -1.2187,-0.21195 -0.9008,0 -1.8015,0.37091 -0.9008,0.37092 -1.8016,0.8478 -0.8478,0.42391 -1.6426,0.84781 -0.7949,0.4239 -1.4307,0.52987 -0.7948,0.21195 -2.0665,0.21195 -1.0068,0 -1.9606,-0.31792 -0.9537,-0.31793 -1.6956,-0.95378 -0.7418,-0.68884 -1.2187,-1.6956 -0.4239,-1.00677 -0.4239,-2.38444 0,-0.84781 0.106,-2.01353 0.106,-1.16573 0.3179,-2.22548 0.265,-1.05975 0.6359,-1.74859 0.3709,-0.74183 0.8478,-0.74183 z"
         id="path61" />
      <path
         style="font-size:132.469px;font-family:QCF2342;-inkscape-font-specification:'QCF2342, Normal';text-align:center;text-anchor:middle;fill:#ebd59e;fill-opacity:1;stroke-width:17.8938;stroke-linecap:round;stroke-linejoin:round;paint-order:markers stroke fill"
         d="m 1218.5298,271.8929 q 0.6359,-0.15896 1.9076,-0.68884 1.2717,-0.58286 2.5434,-1.32469 1.3247,-0.74182 2.2784,-1.58963 1.0068,-0.8478 1.0068,-1.58962 0,-0.84781 -0.4769,-1.64262 -0.4769,-0.79481 -1.1657,-1.37768 -0.6359,-0.58286 -1.4307,-0.90079 -0.7418,-0.37091 -1.3777,-0.37091 -1.2187,0 -2.2254,0.63585 -1.0068,0.63585 -1.8016,1.2717 l -2.6494,2.49042 q -0.053,0.053 -0.2649,0.31793 -0.212,0.21195 -0.5829,0.63585 l -1.4836,1.90755 -1.3247,1.96054 q -0.5299,0.8478 -0.5299,1.11274 0,0.21195 0.2649,0.31793 0.265,0.053 0.6359,0.053 0.7418,0 1.8016,-0.15897 1.0597,-0.15896 2.0665,-0.31792 1.0067,-0.21195 1.8015,-0.4239 0.7949,-0.21195 1.0068,-0.31793 z m -19.9233,3.07328 q 0.4769,-0.21195 0.9008,-0.74183 0.4769,-0.58286 0.9008,-1.21871 l 0.8478,-1.21871 q 0.4239,-0.58287 1.0597,-0.90079 0.6359,-0.37092 1.0598,-0.37092 0.8478,0 1.3776,0.37092 l 1.8546,1.05975 1.0068,0.4239 q 0.053,0.053 0.3709,0.053 0.4239,0 0.6888,-0.15897 0.265,-0.15896 0.4769,-0.63585 l 1.2717,-3.02029 q 0.212,-0.37091 0.3709,-0.74183 0.159,-0.37091 0.318,-0.74182 l 0.7418,-1.43067 q 0.8478,-1.64261 2.1195,-3.44419 1.2717,-1.85457 2.8613,-3.33822 1.5896,-1.53664 3.4442,-2.49042 1.9076,-1.00676 3.9741,-1.00676 1.5366,0 2.5964,0.79481 1.0597,0.79482 1.7486,2.01353 0.6888,1.21872 0.9537,2.70237 0.318,1.48365 0.318,2.91432 0,4.08004 -1.9606,7.10033 -1.9075,3.0203 -4.8219,4.98084 -2.8613,1.96054 -6.2525,2.91432 -3.3912,0.95377 -6.3055,0.95377 -1.3777,0 -3.0203,-0.21195 -1.5896,-0.21195 -2.4904,-0.8478 l -1.1128,-0.63585 q -0.3709,-0.15896 -0.7418,-0.26494 -0.3709,-0.15896 -0.6888,-0.15896 -0.5829,0 -1.0598,0.31792 -0.4769,0.26494 -0.9008,0.68884 -0.3709,0.37092 -0.6888,0.8478 -0.2649,0.42391 -0.4769,0.79482 l -0.8478,1.48365 q -0.4239,0.74183 -1.1127,1.32469 -0.6889,0.58286 -0.9538,0.58286 -0.4239,0 -0.5299,-0.58286 -0.106,-0.63585 -0.106,-1.05975 0,-0.58286 0.106,-1.05975 0.106,-0.52988 0.212,-0.79482 l 0.4768,-1.37767 q 0.106,-0.37092 0.265,-0.68884 0.1589,-0.31793 0.3179,-0.68884 l 0.6359,-1.2717 z"
         id="path59" />
      <path
         style="font-size:132.469px;font-family:QCF2342;-inkscape-font-specification:'QCF2342, Normal';text-align:center;text-anchor:middle;fill:#ebd59e;fill-opacity:1;stroke-width:17.8938;stroke-linecap:round;stroke-linejoin:round;paint-order:markers stroke fill"
         d="m 1262.5094,430.06088 q 1.5897,-0.79481 3.5502,-1.37768 1.9605,-0.52987 3.8151,-1.00676 l 12.2931,-4.02706 5.8287,-1.90755 q 2.0135,-0.63585 4.08,-1.37768 2.0665,-0.68884 3.4442,-2.01353 0.6888,-0.68884 1.4837,-0.68884 1.1127,0 1.7486,1.11274 0.6358,1.11274 0.6358,2.27847 0,1.96054 -0.9538,2.80834 -0.9008,0.8478 -1.9605,1.16573 l -1.6956,0.52987 q -0.5829,0.15897 -1.1657,0.37092 -0.5299,0.21195 -1.1128,0.47689 l -4.5039,1.85456 q -0.5829,0.26494 -1.1658,0.47689 -0.5298,0.21195 -1.1127,0.37091 l -3.1263,0.95378 q -1.5896,0.4239 -3.1792,0.8478 -1.5896,0.47689 -3.1263,1.05975 l -3.0203,1.11274 -4.6099,1.48366 q -1.8546,0.58286 -3.5502,1.43066 -1.6956,0.8478 -3.3912,1.05975 -0.4769,0 -0.7948,-0.26494 -0.2649,-0.21195 -0.2649,-0.95377 v -0.47689 l 0.2119,-1.16573 q 0.053,-0.52987 0.212,-1.2717 0.1589,-0.68884 0.3709,-1.32469 0.2119,-0.58286 0.4769,-1.05975 0.2649,-0.4239 0.5828,-0.47689 z"
         id="path56" />
      <path
         style="font-size:132.469px;font-family:QCF2342;-inkscape-font-specification:'QCF2342, Normal';text-align:center;text-anchor:middle;fill:#ebd59e;fill-opacity:1;stroke-width:17.8938;stroke-linecap:round;stroke-linejoin:round;paint-order:markers stroke fill"
         d="m 1298.3291,298.22774 q 1.4836,-0.21195 3.0732,-0.84781 1.6426,-0.68883 3.2323,-1.48365 1.5896,-0.8478 3.0733,-1.6956 1.4836,-0.8478 2.5963,-1.43067 0.9538,-0.47688 1.9076,-0.95377 0.9538,-0.47689 1.9076,-0.90079 l 7.7891,-3.4442 11.6573,-5.56369 2.6494,-1.16573 q 0.7418,-0.31793 1.4306,-0.74183 0.7419,-0.47689 1.4307,-0.47689 0.6889,0 1.3247,0.63586 0.6888,0.58286 0.6888,1.96054 0,1.53664 -0.4768,2.43743 -0.4239,0.8478 -1.2188,1.37767 -0.7948,0.52988 -1.8545,0.90079 -1.0068,0.37092 -2.1195,0.8478 -1.6956,0.74183 -3.2853,1.53664 -1.5366,0.74183 -3.1262,1.64262 l -3.2323,1.53664 q -1.0597,0.52988 -2.1725,1.00677 -1.0597,0.4239 -2.1195,0.8478 l -4.345,1.85456 q -2.2254,0.90079 -4.3979,1.85457 -2.1195,0.95378 -4.1331,2.01353 l -4.9278,2.5434 q -0.6888,0.31793 -1.5896,0.79482 -0.9008,0.47688 -1.8016,0.95377 -0.8478,0.47689 -1.5896,0.79482 -0.6889,0.31792 -1.0068,0.31792 -0.5829,0 -0.7948,-0.63585 -0.159,-0.63585 -0.159,-1.37768 0,-0.68884 0.159,-1.48365 0.1589,-0.79481 0.3709,-1.48365 0.2649,-0.74183 0.5299,-1.32469 0.3179,-0.58287 0.5299,-0.8478 z"
         id="path55" />
      <path
         style="font-size:132.469px;font-family:QCF2342;-inkscape-font-specification:'QCF2342, Normal';text-align:center;text-anchor:middle;fill:#ebd59e;fill-opacity:1;stroke-width:17.8938;stroke-linecap:round;stroke-linejoin:round;paint-order:markers stroke fill"
         d="m 1379.6119,308.61331 q 1.6956,-0.90079 3.7091,-1.27171 2.0136,-0.37091 4.239,-0.37091 2.9144,0 5.4048,0.52988 2.4904,0.47688 5.1398,0.79481 1.1657,0.21195 2.4904,0.47689 1.3777,0.26494 2.4904,0.74182 1.1657,0.47689 1.9076,1.21872 0.7418,0.68884 0.7418,1.80158 0,0.90079 -0.5829,1.85456 -0.5828,0.95378 -1.4836,1.85457 -0.8478,0.8478 -1.9076,1.64262 -1.0597,0.79481 -2.0665,1.43066 -0.9538,0.63585 -1.6956,1.05975 -0.7418,0.37092 -0.9538,0.52988 -1.7486,0.95378 -3.6031,1.6956 -1.8016,0.74183 -3.6562,1.32469 -1.8545,0.58286 -3.7621,1.16573 -1.8546,0.58286 -3.6561,1.21871 l -1.2188,0.47689 q -0.7418,0.31793 -1.5896,0.58287 -0.8478,0.21195 -1.6426,0.21195 -0.4239,0 -0.9008,-0.26494 -0.4239,-0.26494 -0.4239,-0.52988 0,-0.21195 0.212,-0.47689 0.2649,-0.31792 0.5828,-0.52987 0.3709,-0.26494 0.7419,-0.47689 0.3709,-0.21195 0.6888,-0.37091 l 3.7621,-1.69561 q 2.2255,-1.00676 4.345,-2.1195 2.1195,-1.16573 3.9741,-2.75536 l 2.2254,-1.64261 q 0.5299,-0.37092 1.1128,-0.74183 0.6358,-0.37091 1.2187,-0.68884 -0.106,-0.10597 -0.159,-0.053 -0.053,0.053 -0.1589,-0.053 l -0.7419,-0.31793 q -0.3709,-0.10597 -0.8478,-0.21195 -0.4239,-0.15896 -0.4768,-0.21195 l -3.0203,-0.52987 -1.5367,-0.15897 q -0.5828,-0.053 -1.2187,-0.053 -0.6358,0 -1.2187,0 -2.7024,0 -4.8219,0.68883 -2.1195,0.68884 -4.027,2.70237 -1.1658,1.21872 -1.7486,1.32469 -0.7419,0 -0.7419,-1.05975 0,-0.95378 0.212,-1.80158 0.2649,-0.90079 0.6358,-1.64261 0.371,-0.79482 0.7949,-1.43067 0.4769,-0.63585 0.8478,-1.11274 l 1.1657,-1.37768 q 0.2649,-0.37091 0.5829,-0.68884 0.3179,-0.31792 0.6358,-0.68883 z"
         id="path54" />
      <path
         style="font-size:132.469px;font-family:QCF2342;-inkscape-font-specification:'QCF2342, Normal';text-align:center;text-anchor:middle;fill:#ebd59e;fill-opacity:1;stroke-width:17.8938;stroke-linecap:round;stroke-linejoin:round;paint-order:markers stroke fill"
         d="m 1430.8509,273.00564 0.6359,-0.31793 q 0.2649,-0.10597 0.3709,-0.10597 0.106,-0.053 0.106,-0.31793 0,-0.21195 -0.053,-0.68884 -0.053,-0.52987 -0.053,-1.11273 l -0.3709,-3.17926 q -0.318,-2.1195 -1.1128,-3.55017 -0.7948,-1.48365 -2.4374,-1.48365 -0.4769,0.053 -1.3777,0.4239 -0.9008,0.31792 -1.8016,0.90079 -0.9007,0.52987 -1.5896,1.32469 -0.6358,0.74182 -0.6358,1.64261 0,0.79482 0.4768,1.32469 0.5299,0.47689 2.1196,1.58963 l 2.2254,1.58963 q 1.0068,0.74183 1.9606,1.43066 1.0067,0.63586 1.3777,0.58287 0.1059,0 0.1589,-0.053 z m -3.5502,5.61669 q 0,-0.053 -0.3709,-0.31793 -0.3179,-0.31793 -0.9008,-0.68884 -0.5298,-0.4239 -1.2717,-0.90079 -0.6888,-0.47689 -1.3776,-0.95377 l -2.8614,-1.90756 q -0.9537,-0.63585 -1.5366,-1.05975 -0.5829,-0.47689 -0.9538,-0.95378 -0.3179,-0.47689 -0.4769,-1.00676 -0.1059,-0.52988 -0.1589,-1.32469 0,-1.43067 0.4239,-2.96731 0.4769,-1.58962 1.1657,-3.02029 0.7418,-1.48365 1.5896,-2.70237 0.9008,-1.2717 1.8016,-2.17249 l 1.5366,-1.32469 q 1.1128,-0.95378 2.6494,-1.74859 1.5896,-0.79481 2.8084,-0.79481 1.4836,0 2.4904,0.8478 1.0067,0.79481 1.6426,2.06651 0.6358,1.21872 1.0068,2.70237 0.3709,1.48365 0.5298,2.80834 0.159,1.32469 0.159,2.27847 0.053,0.95378 0.053,1.16573 0,3.3912 -0.7418,6.57046 -0.6889,3.12627 -2.0136,5.88162 -1.3247,2.75536 -3.2322,5.03383 -1.8546,2.22547 -4.186,3.8151 l -4.398,2.96731 q -0.5829,0.4239 -1.1127,0.8478 -0.4769,0.37091 -1.0598,0.68884 l -3.9741,2.86133 -2.3314,1.48365 q -1.2187,0.79482 -2.4904,1.37768 -1.2717,0.52987 -2.1195,0.58286 h -0.5299 q -0.5829,0 -0.9008,-0.37091 -0.2649,-0.4239 -0.2649,-0.90079 0,-0.4239 0.3179,-0.74183 0.3709,-0.37091 0.7948,-0.63585 0.4239,-0.26494 0.7948,-0.4239 0.4239,-0.21195 0.5299,-0.31792 0.5828,-0.4239 1.0597,-0.90079 0.5299,-0.47689 1.0598,-0.95378 l 4.133,-3.86809 q 0.4769,-0.42391 1.0068,-0.84781 0.5828,-0.4239 1.1657,-0.90079 l 2.8613,-2.27846 1.3247,-1.2717 q 0.3709,-0.26494 0.6889,-0.58287 0.3179,-0.31792 0.6888,-0.63585 l 2.7554,-2.06652 q 0.7418,-0.58286 1.4306,-1.21871 0.6889,-0.68884 0.7948,-1.21871 z"
         id="path53" />
      <path
         style="font-size:132.469px;font-family:QCF2342;-inkscape-font-specification:'QCF2342, Normal';text-align:center;text-anchor:middle;fill:#ebd59e;fill-opacity:1;stroke-width:17.8938;stroke-linecap:round;stroke-linejoin:round;paint-order:markers stroke fill"
         d="m 1669.9839,316.45547 q 0.4769,-0.37091 1.3247,-0.68884 0.8478,-0.37091 1.7486,-0.63585 l 3.7091,-1.74859 q 0.3709,-0.15896 0.6888,-0.31793 0.3709,-0.15896 0.7419,-0.37091 l 1.3776,-0.63585 q 1.2717,-0.4239 2.7554,-1.05975 1.5366,-0.63585 2.5964,-1.21872 l 6.6234,-3.33822 q 2.0136,-1.05975 4.239,-1.74859 2.2785,-0.68884 4.292,-1.64261 l 1.8016,-0.8478 1.6956,-0.95378 q 0.9008,-0.47689 1.6956,-1.00676 0.8478,-0.52988 1.4837,-0.52988 0.9008,0 1.3247,0.74183 0.4768,0.68883 0.4768,1.74859 0,2.06651 -1.3776,3.49718 -1.3247,1.37768 -3.2853,2.38444 -1.9605,1.00676 -4.08,1.74859 -2.1195,0.68884 -3.6032,1.37768 l -2.8083,1.2717 q -0.7418,0.26494 -1.4307,0.58286 -0.6888,0.31793 -1.3776,0.63586 l -2.8084,1.2717 -2.7024,1.37767 q -0.7948,0.42391 -1.5896,0.84781 -0.7948,0.37091 -1.5896,0.68884 l -6.4645,2.75535 q -0.9538,0.26494 -1.6956,0.68884 -0.7418,0.4239 -1.4837,0.8478 l -1.3776,0.68884 q -1.0068,0.47689 -1.5897,0.4239 -0.3709,0 -0.6888,-0.26494 -0.3179,-0.26494 -0.3179,-0.90079 0.053,-0.31792 0,-0.58286 -0.053,-0.26494 0.1589,-1.16573 l 0.318,-1.64261 q 0.1589,-0.79482 0.4768,-1.48366 0.318,-0.68883 0.7419,-0.79481 z"
         id="path51" />
      <path
         style="font-size:132.469px;font-family:QCF2342;-inkscape-font-specification:'QCF2342, Normal';text-align:center;text-anchor:middle;fill:#ebd59e;fill-opacity:1;stroke-width:17.8938;stroke-linecap:round;stroke-linejoin:round;paint-order:markers stroke fill"
         d="m 1477.003,303.84442 q 0.212,-0.21195 0.7419,-0.47689 l 1.1127,-0.4239 q 0.5829,-0.21195 1.1127,-0.37091 0.5829,-0.15896 0.8479,-0.37091 l 4.3979,-2.01353 q 1.2187,-0.52988 2.4375,-1.00677 1.2187,-0.52987 2.4374,-1.00676 l 2.4904,-0.95378 q 4.292,-1.58963 8.3191,-2.9673 4.08,-1.37768 8.213,-2.91432 l 4.7159,-1.74859 q 1.1128,-0.4239 2.3845,-1.05975 1.3247,-0.68884 2.3844,-0.68884 1.2187,0 1.6956,0.90079 0.5299,0.8478 0.5299,1.6956 0,0.58286 -0.212,1.37768 -0.2119,0.79481 -0.5828,1.48365 -0.318,0.68884 -0.7948,1.16573 -0.4769,0.47689 -1.0068,0.47689 l -0.4239,0.10597 q -0.106,0.053 -0.4769,0.053 l -2.8613,1.05975 q -0.6359,0.26494 -1.3247,0.47689 -0.6359,0.15896 -1.2187,0.4239 l -2.4904,0.95378 q -1.6956,0.63585 -3.3913,1.21871 -1.6956,0.58286 -3.3912,1.16573 l -8.531,2.80834 q -1.0597,0.4239 -2.1195,0.79481 -1.0597,0.31793 -2.1195,0.74183 l -2.8613,1.16573 q -1.4307,0.58286 -2.8613,1.21871 -1.4307,0.58287 -2.8084,1.32469 l -2.7023,1.43067 q -1.3777,0.74182 -1.9606,0.74182 -0.6358,0 -0.9538,-0.52987 -0.2649,-0.52988 -0.2649,-1.2717 0,-1.16573 0.4769,-2.64938 0.5299,-1.48366 1.0597,-2.33146 z"
         id="path48" />
      <path
         style="font-size:132.469px;font-family:QCF2342;-inkscape-font-specification:'QCF2342, Normal';text-align:center;text-anchor:middle;fill:#ebd59e;fill-opacity:1;stroke-width:17.8938;stroke-linecap:round;stroke-linejoin:round;paint-order:markers stroke fill"
         d="m 1571.374,411.56821 q 1.2187,-0.79482 2.8613,-1.32469 l 3.1263,-1.00677 q 1.0067,-0.37091 2.0135,-0.68884 1.0067,-0.31792 2.0135,-0.63585 l 4.0271,-1.2717 q 3.2322,-1.00676 6.3585,-2.27847 3.1262,-1.2717 6.7824,-2.43742 l 2.5964,-0.95378 q 0.7948,-0.21195 1.5366,-0.58287 0.7419,-0.37091 1.4307,-0.74182 0.6888,-0.31793 1.2717,-0.58287 0.5829,-0.21195 1.0597,-0.21195 0.7419,0 1.2717,0.84781 0.5299,0.8478 0.5299,1.6956 0,0.74183 -0.3179,1.48365 -0.2649,0.74183 -0.7418,1.37768 -0.4239,0.68884 -1.0068,1.16573 -0.5829,0.47688 -1.2187,0.63585 l -1.6426,0.47689 -3.2853,1.32469 -1.5896,0.74182 q -1.5366,0.74183 -3.0733,1.2717 -1.5366,0.52988 -3.2322,1.05976 l -3.2322,0.95377 q -0.8479,0.26494 -1.6427,0.47689 -0.7948,0.26494 -1.5366,0.52988 l -2.8083,0.8478 q -0.7419,0.26494 -1.4837,0.4239 -0.6888,0.21195 -1.4307,0.47689 l -2.8083,0.95378 q -1.4307,0.52987 -2.7024,1.16572 l -0.9538,0.47689 q -1.1127,0.58286 -2.4904,0.68884 -0.4239,0 -0.7948,-0.15896 -0.3709,-0.15897 -0.3709,-0.8478 0,-0.58287 0.159,-1.43067 0.2119,-0.8478 0.4239,-1.64262 0.2649,-0.79481 0.4769,-1.43066 0.2649,-0.63585 0.4239,-0.8478 z"
         id="path44" />
      <path
         style="font-size:132.469px;font-family:QCF2342;-inkscape-font-specification:'QCF2342, Normal';text-align:center;text-anchor:middle;fill:#ebd59e;fill-opacity:1;stroke-width:17.8938;stroke-linecap:round;stroke-linejoin:round;paint-order:markers stroke fill"
         d="m 1587.1643,259.75874 q 0.4239,-0.4239 1.2187,-0.90079 0.8478,-0.47689 1.7486,-0.74182 l 1.9075,-0.52988 q 0.4769,-0.10598 0.8478,-0.26494 0.4239,-0.15896 0.6889,-0.26494 l 6.7294,-3.17925 q 3.6561,-1.85457 8.0011,-3.39121 4.345,-1.53664 8.3721,-3.07328 0.5298,-0.21195 1.6426,-0.47689 1.1657,-0.31792 2.3314,-0.68884 1.1657,-0.4239 2.1195,-0.8478 0.9538,-0.47689 1.1658,-0.95378 0.3709,-0.95377 1.3246,-0.95377 0.6359,0 1.0598,0.37091 0.4769,0.31793 0.7418,0.79482 0.3179,0.47688 0.4239,1.00676 0.159,0.52988 0.159,0.8478 0,1.05975 -0.6359,1.96054 -0.6358,0.8478 -1.6426,1.58963 -1.0067,0.68884 -2.1725,1.21871 -1.1657,0.47689 -2.2784,0.84781 -1.0598,0.37091 -1.8546,0.58286 -0.7948,0.21195 -1.0068,0.26494 -2.0135,0.47689 -4.027,1.21871 -2.0136,0.74183 -4.0271,1.58963 -1.9605,0.79481 -3.8681,1.64262 -1.9075,0.8478 -3.6561,1.53664 l -10.2796,4.45095 q -0.8478,0.42391 -1.7486,0.74183 -0.8478,0.26494 -1.6956,0.63585 l -0.7418,0.31793 q -0.4769,0.21195 -0.9538,0.37091 -0.4769,0.10598 -0.9538,0.10598 -0.6888,0 -0.6888,-0.63585 0,-0.68884 0.1589,-1.32469 l 0.4769,-1.32469 q 0.106,-0.37092 0.265,-0.68884 0.1589,-0.31793 0.2649,-0.63585 z"
         id="path42" />
      <path
         style="font-size:132.469px;font-family:QCF2342;-inkscape-font-specification:'QCF2342, Normal';text-align:center;text-anchor:middle;fill:#ebd59e;fill-opacity:1;stroke-width:17.8938;stroke-linecap:round;stroke-linejoin:round;paint-order:markers stroke fill"
         d="m 1598.8215,271.15107 q 0.318,-0.74182 0.6889,-1.00676 0.4239,-0.26494 0.7418,-0.26494 0.9538,0 0.9538,1.32469 0,0.47689 -0.212,1.11274 -0.1589,0.63585 -0.1589,1.11274 0,1.21872 0.8478,1.74859 0.9008,0.52988 2.2254,0.52988 1.6427,0 2.7024,-0.4239 1.1127,-0.47689 1.7486,-1.27171 0.6888,-0.79481 1.0068,-1.85456 0.3179,-1.11274 0.4769,-2.38444 l 0.7948,-4.50395 q 0.1059,-0.68884 0.3709,-1.43066 0.3179,-0.74183 0.9008,-0.74183 1.0597,0 1.0597,1.48365 0,0.31793 0,0.63585 0,0.26494 -0.053,0.58287 l -0.1589,1.80158 q -0.053,0.4239 -0.053,0.90078 0,0.47689 0,0.90079 0,1.53664 0.6358,2.54341 0.6359,1.00676 2.0136,1.00676 0.7418,0 1.5896,-0.26494 0.9008,-0.31792 1.6426,-0.74182 0.7948,-0.47689 1.3247,-0.95378 0.5299,-0.52987 0.5829,-1.00676 0.053,-0.26494 0.053,-0.47689 0,-0.26494 0,-0.52988 l -0.1589,-1.96054 q -0.053,-0.15896 -0.053,-0.31792 0,-0.21195 0,-0.37092 0,-0.053 0.053,-1.00676 0.106,-1.00677 0.2649,-2.11951 0.212,-1.16572 0.5829,-2.06651 0.3709,-0.95378 0.9538,-0.95378 0.6358,0 1.0597,0.68884 0.4239,0.63585 0.6359,1.58963 0.2649,0.90079 0.3179,1.96054 0.106,1.00676 0.106,1.74859 0,2.49042 -0.265,4.39797 -0.2649,1.90755 -0.9537,3.39121 -0.6359,1.48365 -1.7486,2.64938 -1.1128,1.11274 -2.8084,2.01353 -0.9008,0.47688 -1.9075,0.79481 -1.0068,0.31792 -2.0666,0.31792 -0.6888,0 -1.3246,-0.053 -0.6359,-0.10598 -1.3777,-0.10598 -0.9538,0 -1.7486,0.47689 -0.7948,0.47689 -1.8016,1.05975 -0.9538,0.58287 -2.3314,1.05975 -1.3247,0.47689 -3.2853,0.47689 -1.3777,0 -2.3314,-0.52987 -0.9538,-0.58287 -1.5897,-1.48366 -0.5828,-0.90079 -0.9007,-2.01352 -0.265,-1.11274 -0.265,-2.22548 0,-2.91432 1.2187,-5.24578 z"
         id="path41" />
      <path
         style="font-size:132.469px;font-family:QCF2342;-inkscape-font-specification:'QCF2342, Normal';text-align:center;text-anchor:middle;fill:#ebd59e;fill-opacity:1;stroke-width:17.8938;stroke-linecap:round;stroke-linejoin:round;paint-order:markers stroke fill"
         d="m 1659.2804,276.55581 1.5366,-1.05975 1.5896,-0.8478 q 0.4769,-0.26494 1.0598,-0.58287 0.5829,-0.37091 1.1127,-0.79481 0.5299,-0.47689 0.8478,-0.95378 0.371,-0.52987 0.371,-1.05975 0,-0.68884 -0.4239,-1.2717 -0.371,-0.58287 -0.9538,-1.00677 -0.5829,-0.4239 -1.2187,-0.63585 -0.6359,-0.26494 -1.1658,-0.26494 -2.2254,0 -4.3449,1.58963 l -3.8152,4.45096 -1.5366,2.17249 q -0.5829,0.79482 -0.5829,1.16573 0,0.10597 0.053,0.15896 h 1.7486 q 1.4837,0 2.9143,-0.15896 1.4837,-0.15896 2.8084,-0.90079 z m -16.3202,-1.16573 q 0.4769,0 1.0598,0.15896 l 2.2784,0.95378 q 0.5829,0.26494 1.1128,0.47689 0.5828,0.15896 1.0067,0.10598 0.8478,0 1.2717,-0.63586 0.4769,-0.63585 0.7948,-1.43066 l 0.5829,-1.53664 q 0.6888,-1.6956 1.8016,-3.81511 1.1127,-2.1195 2.6494,-3.97407 1.5366,-1.90755 3.4442,-3.17925 1.9605,-1.27171 4.2919,-1.27171 1.4307,0 2.6494,0.52988 1.2717,0.47689 2.1725,1.48365 0.9538,0.95378 1.4837,2.38444 0.5298,1.37768 0.5298,3.12627 0,1.80158 -0.5298,3.28523 -0.5299,1.48366 -1.3777,2.80835 -0.7948,1.32469 -1.9076,2.59639 -1.0597,1.2717 -2.1724,2.64938 -0.4239,0.52987 -1.2718,1.05975 -0.7948,0.52988 -1.6426,1.00676 l -1.8545,0.84781 q -0.4239,0.21195 -0.7948,0.31792 -0.371,0.10598 -0.6359,0.21195 l -3.0733,0.74183 q -0.5828,0.15896 -1.3247,0.26494 -0.6888,0.053 -1.3247,0.053 -2.3844,0 -4.6099,-0.37091 -2.2255,-0.4239 -4.4509,-1.32469 -0.4239,-0.21195 -1.0598,-0.21195 -0.8478,0 -1.3777,0.63585 -0.5298,0.63585 -0.9008,1.37768 l -0.7418,1.48365 q -0.2649,0.31793 -0.4769,1.16573 l -0.6888,1.37768 q -0.3179,0.58286 -0.7948,1.11274 -0.4769,0.47688 -1.0598,0.47688 -0.7418,0 -0.7418,-0.79481 0,-0.58286 0.2649,-1.37768 0.265,-0.79481 0.5299,-1.53664 l 1.0068,-2.49041 q 0.106,-0.42391 0.2649,-0.74183 0.159,-0.37091 0.3179,-0.74183 l 0.6359,-1.48365 q 0.159,-0.37091 0.3179,-0.68884 0.159,-0.37091 0.3709,-0.74183 l 1.0598,-1.74859 q 0.3179,-0.52987 0.7418,-1.05975 0.4239,-0.58286 0.9538,-0.74182 l 0.4239,-0.10598 q 0.2649,-0.10597 0.4239,-0.21195 0.2119,-0.10597 0.3709,-0.47689 z"
         id="text3-0" />
    </g>
  </g>
</svg>
