<?xml version="1.0" encoding="UTF-8" standalone="no"?>
<!-- Created with Inkscape (http://www.inkscape.org/) -->

<svg
   version="1.1"
   id="svg1"
   width="1920"
   height="1080"
   viewBox="0 0 1920 1080"
   xmlns="http://www.w3.org/2000/svg"
   xmlns:svg="http://www.w3.org/2000/svg">
  <defs
     id="defs1" />
  <g
     id="g1">
    <rect
       style="fill:#1b1f25;fill-opacity:1;stroke-width:1.7"
       id="rect9"
       width="1920"
       height="1080"
       x="0"
       y="0"
       ry="1.8119611" />
    <g
       id="g149"
       transform="matrix(0.85464295,0,0,0.85464295,139.54277,78.492805)">
      <path
         style="fill:#ebd59e;fill-opacity:1"
         d="m 754.01531,69.196258 c 0.0404,-1.834784 2.27707,-3.51819 10.89935,-8.203108 9.02063,-4.901361 13.37071,-5.867149 7.94597,-1.764133 -3.68304,2.785673 -18.86396,10.814824 -18.84532,9.967241 z"
         transform="matrix(1.8318491,0,0,1.8318491,46.599153,298.63875)"
         id="path149" />
      <path
         style="fill:#ebd59e;fill-opacity:1"
         d="m 451.02954,68.089634 c 1.57749,-2.383672 19.98246,-12.924292 19.95515,-11.428422 -0.0338,1.852612 -1.90143,3.212772 -11.48469,8.36419 -8.16896,4.391172 -9.71994,4.952244 -8.47046,3.064232 z"
         transform="matrix(1.8318491,0,0,1.8318491,46.599153,298.63875)"
         id="path148" />
      <path
         style="fill:#ebd59e;fill-opacity:1"
         d="m 758.0408,83.607322 c -0.50033,-1.315974 -0.6271,-3.453474 -0.28172,-4.75 L 758.38706,76.5 758.98861,79 c 0.77122,3.205097 5.30745,3.595731 5.80624,0.5 0.72067,-4.472804 1.26872,-5.005469 2.53557,-2.464409 0.6829,1.369745 2.10391,2.464409 3.19911,2.464409 1.60064,0 1.92428,-0.599349 1.72434,-3.193377 -0.13537,-1.756357 0.20213,-3.470415 0.75,-3.809017 1.52455,-0.942223 1.21338,7.823023 -0.3538,9.966278 -1.01543,1.388686 -2.10808,1.694514 -4.40955,1.23422 -2.18254,-0.436508 -3.21988,-0.194283 -3.61868,0.844987 -0.93831,2.445181 -5.54462,1.790201 -6.58104,-0.935769 z"
         transform="matrix(1.8318491,0,0,1.8318491,46.599153,298.63875)"
         id="path147" />
      <path
         style="fill:#ebd59e;fill-opacity:1"
         d="m 455.2,86.8 c -0.66,-0.66 -1.17148,-2.7975 -1.13661,-4.75 0.0538,-3.015064 0.19396,-3.226376 0.92992,-1.402327 2.07081,5.13242 6.95385,3.458483 7.09688,-2.432857 l 0.0902,-3.714816 0.9384,3.25 c 0.73249,2.536837 1.48072,3.25 3.40981,3.25 2.22739,0 2.4799,-0.419631 2.55736,-4.25 0.0757,-3.745386 0.18154,-3.933502 0.89096,-1.584362 1.84703,6.116161 -1.86489,12.634436 -5.79659,10.179045 -1.48302,-0.926158 -2.04956,-0.783711 -3.01193,0.757295 C 459.82499,88.253099 456.98522,88.58522 455.2,86.8 Z"
         transform="matrix(1.8318491,0,0,1.8318491,46.599153,298.63875)"
         id="path146" />
      <path
         style="fill:#ebd59e;fill-opacity:1"
         d="M 787.72139,86.29966 C 786.77463,84.539473 786,82.18662 786,81.071099 c 0,-1.812675 0.27179,-1.904385 2.55746,-0.862965 2.35258,1.071908 2.86405,0.829858 6.38448,-3.021438 4.19797,-4.592512 4.32569,-4.649016 7.1238,-3.151512 2.32548,1.244557 2.50394,4.706467 0.39765,7.713624 -1.5942,2.276038 -8.67466,4.767832 -11.0059,3.873253 -0.8148,-0.312669 -1.46539,0.341586 -1.6738,1.683233 -0.31134,2.004355 -0.49021,1.917135 -2.0623,-1.005634 z m 11.12939,-5.397485 c 3.63434,-1.266938 4.02763,-2.488604 1.10026,-3.417715 C 797.81624,76.806901 793,79.258724 793,81.023053 c 0,1.277125 1.95641,1.236706 5.85078,-0.120878 z"
         transform="matrix(1.8318491,0,0,1.8318491,46.599153,298.63875)"
         id="path145" />
      <path
         style="fill:#ebd59e;fill-opacity:1"
         d="m 499.62201,85.615487 c -2.34826,-4.383956 -1.63694,-7.266272 1.33516,-5.410163 1.77759,1.110127 2.50394,0.758548 6.46575,-3.129674 4.42854,-4.346287 4.48343,-4.367033 7.06986,-2.672334 1.97262,1.292504 2.4533,2.241727 1.97614,3.902321 -1.01527,3.533254 -5.09463,6.515689 -9.8972,7.235878 -2.6943,0.404036 -4.58593,1.246901 -4.76873,2.124833 -0.17875,0.858447 -1.07309,0.01746 -2.18098,-2.050861 z m 11.27421,-4.729154 c 1.75707,-0.612517 3.02647,-1.625017 2.8209,-2.25 -0.7108,-2.160959 -4.2895,-1.720416 -6.67805,0.822079 -2.70592,2.880325 -1.54358,3.310626 3.85715,1.427921 z"
         transform="matrix(1.8318491,0,0,1.8318491,46.599153,298.63875)"
         id="path144" />
      <path
         style="fill:#ebd59e;fill-opacity:1"
         d="m 420,90.134775 c 0,-0.55 0.7875,-1.264923 1.75,-1.588718 0.9625,-0.323796 3.325,-1.917015 5.25,-3.540487 l 3.5,-2.951768 -6.05,-0.0269 c -3.40788,-0.01515 -6.57406,0.497155 -7.25,1.173099 -1.97538,1.975376 -1.36446,0.02077 1.32521,-4.239936 l 2.52521,-4.000193 7.97176,0.270065 c 4.38446,0.148535 7.97312,0.455668 7.97479,0.682517 0.0125,1.702264 -6.78674,10.404512 -9.333,11.945134 C 423.53688,90.354698 420,91.405607 420,90.134775 Z"
         transform="matrix(1.8318491,0,0,1.8318491,46.599153,298.63875)"
         id="path143" />
      <path
         style="fill:#ebd59e;fill-opacity:1"
         d="m 329.32724,90.906634 c 6.89819,-4.569169 6.81313,-5.134306 -0.71444,-4.747048 -3.63935,0.187228 -6.61605,0.168529 -6.6149,-0.04155 0.008,-1.394359 4.41008,-7.108346 5.80175,-7.530202 0.93519,-0.283484 4.74421,-0.194217 8.46448,0.198371 l 6.76414,0.713797 -3.53376,5.239686 c -2.15039,3.188502 -5.07636,6.026666 -7.47429,7.25 -6.13034,3.127466 -7.94679,2.396931 -2.69298,-1.083052 z"
         transform="matrix(1.8318491,0,0,1.8318491,46.599153,298.63875)"
         id="path142" />
      <path
         style="fill:#ebd59e;fill-opacity:1"
         d="m 672.02584,93.087596 c 0.84183,-1.267855 8.89052,-6.141666 17.99848,-10.898817 12.37311,-6.462558 16.10217,-8.041449 14.97568,-6.340736 -0.825,1.245542 -8.92432,6.150009 -17.99848,10.898817 -12.50203,6.542726 -16.12961,8.078649 -14.97568,6.340736 z"
         transform="matrix(1.8318491,0,0,1.8318491,46.599153,298.63875)"
         id="path141" />
      <path
         style="fill:#ebd59e;fill-opacity:1"
         d="m 161.94137,95.10955 c 0.62095,-1.160253 2.12567,-2.736268 3.34381,-3.502257 6.08396,-3.825673 33.01004,-17.645406 33.47467,-17.180776 1.27367,1.273674 -6.38752,6.333883 -21.60366,14.269191 -12.31032,6.4199 -16.06519,8.002776 -15.21482,6.413842 z"
         transform="matrix(1.8318491,0,0,1.8318491,46.599153,298.63875)"
         id="path140" />
      <path
         style="fill:#ebd59e;fill-opacity:1"
         d="m 612,101.13478 c 0,-0.55 0.7875,-1.264928 1.75,-1.588723 0.9625,-0.323796 3.325,-1.917015 5.25,-3.540487 l 3.5,-2.951768 -6.05,-0.0269 c -3.40788,-0.01515 -6.57406,0.497155 -7.25,1.173099 -1.8108,1.810803 -1.44559,0.330572 0.89878,-3.64284 1.15432,-1.956438 2.61682,-3.647136 3.25,-3.757106 2.24458,-0.389842 15.64049,-0.293606 15.64581,0.112399 0.0222,1.692146 -6.78226,10.403243 -9.33062,11.945134 C 615.53688,101.3547 612,102.40561 612,101.13478 Z"
         transform="matrix(1.8318491,0,0,1.8318491,46.599153,298.63875)"
         id="path139" />
      <path
         style="fill:#ebd59e;fill-opacity:1"
         d="m 355,102.60425 c 0,-0.21767 2.1375,-1.76751 4.75,-3.444084 2.6125,-1.676579 6.28884,-4.636176 8.16965,-6.576883 l 3.41964,-3.528557 -2.66964,-2.099943 c -3.09721,-2.436263 -3.27414,-3.878654 -1.05057,-8.56449 1.79473,-3.782099 5.99263,-5.624817 7.46225,-3.27564 1.34711,2.153355 0.96738,15.984207 -0.43004,15.663302 -0.63928,-0.146804 -3.05367,1.624429 -5.36532,3.936073 C 364.3324,99.667598 355,104.82193 355,102.60425 Z M 373.98469,82.75 c -0.0265,-3.900646 -1.38187,-5.142985 -4.05184,-3.714061 l -2.3215,1.242429 2.94432,2.355849 c 3.58951,2.872081 3.44774,2.867294 3.42902,0.115783 z"
         transform="matrix(1.8318491,0,0,1.8318491,46.599153,298.63875)"
         id="path138" />
      <path
         style="fill:#ebd59e;fill-opacity:1"
         d="m 630.5083,103.2149 c 0.54544,-0.47767 3.9167,-2.91806 7.4917,-5.423084 3.575,-2.505025 7.35348,-5.503805 8.39662,-6.663955 1.87331,-2.083449 1.8641,-2.134938 -0.75,-4.191192 -3.25312,-2.558902 -3.4788,-6.609006 -0.57404,-10.30181 2.38282,-3.029264 5.43919,-3.428223 6.77878,-0.884859 1.36329,2.588364 1.16879,15.427243 -0.22636,14.942265 -0.61875,-0.215087 -3.62788,1.903663 -6.68696,4.708334 -3.16805,2.904578 -7.68376,5.870561 -10.4917,6.891101 -2.71135,0.98543 -4.48347,1.40087 -3.93804,0.9232 z M 650.98635,83.25 c -0.083,-4.560218 -2.64896,-6.566382 -4.91158,-3.840095 -0.92823,1.118454 -0.70083,1.738604 1.10006,3 2.45926,1.722531 3.83309,2.025337 3.81152,0.840095 z"
         transform="matrix(1.8318491,0,0,1.8318491,46.599153,298.63875)"
         id="path137" />
      <path
         style="fill:#ebd59e;fill-opacity:1"
         d="m 252.5,100.19498 c 3.3,-2.227603 7.53884,-5.645451 9.41965,-7.595219 l 3.41964,-3.545035 -2.66964,-2.099943 c -3.0948,-2.434363 -3.36223,-4.973755 -0.95328,-9.051775 2.19363,-3.713527 5.1976,-4.741142 6.93076,-2.370912 1.67707,2.293532 1.68746,15.629412 0.0119,15.254369 -0.63746,-0.142682 -3.31562,1.902936 -5.95147,4.545818 -2.63584,2.642882 -6.23584,5.395397 -8,6.116687 -7.23008,2.95611 -7.88953,2.58152 -2.20755,-1.25399 z m 14.47176,-20.729009 c -0.87081,-1.049258 -1.68041,-1.157083 -3.07677,-0.409774 -2.55704,1.368489 -2.39074,2.177726 0.85501,4.160493 2.63769,1.611318 2.76334,1.59811 3.07676,-0.323425 0.17972,-1.101842 -0.20503,-2.644124 -0.855,-3.427294 z"
         transform="matrix(1.8318491,0,0,1.8318491,46.599153,298.63875)"
         id="path136" />
      <path
         style="fill:#ebd59e;fill-opacity:1"
         d="m 554,104.34978 c 0,-2.45755 4.99866,-5.749412 23.73126,-15.628202 31.33721,-16.525933 28.44404,-15.197457 27.20238,-12.49067 -0.68148,1.485597 -6.1154,4.941346 -15.73726,10.008243 -8.08301,4.256533 -19.30888,10.181016 -24.94638,13.165519 -5.6375,2.9845 -10.25,5.2098 -10.25,4.94511 z"
         transform="matrix(1.8318491,0,0,1.8318491,46.599153,298.63875)"
         id="path135" />
      <path
         style="fill:#b7bdf9;fill-opacity:1"
         d="m 747.57297,114.66649 -2.92702,-2.36053 2.24512,-3.15298 c 2.60417,-3.65722 2.86114,-3.71027 5.85893,-1.20942 2.79135,2.32863 2.79092,2.87837 -0.005,6.31995 l -2.245,2.76351 z"
         transform="matrix(1.8318491,0,0,1.8318491,46.599153,298.63875)"
         id="path134" />
      <path
         style="fill:#b7bdf9;fill-opacity:1"
         d="m 176.22632,117.7409 -2.18557,-2.32642 2.22963,-3.18996 c 1.22629,-1.75448 2.48868,-3.19774 2.80531,-3.20724 0.31662,-0.01 1.64823,1.1244 2.95913,2.51978 2.28203,2.42911 2.31363,2.6525 0.74273,5.25 -2.14642,3.54914 -3.87644,3.80103 -6.55123,0.95384 z"
         transform="matrix(1.8318491,0,0,1.8318491,46.599153,298.63875)"
         id="path133" />
      <path
         style="fill:#ebd59e;fill-opacity:1"
         d="m 811.01531,121.33879 c 0.0338,-1.85261 1.90143,-3.21277 11.48469,-8.36419 8.16896,-4.39117 9.71994,-4.95225 8.47046,-3.06423 -1.57749,2.38367 -19.98246,12.92429 -19.95515,11.42842 z"
         transform="matrix(1.8318491,0,0,1.8318491,46.599153,298.63875)"
         id="path132" />
      <path
         style="fill:#b7bdf9;fill-opacity:1"
         d="m 435.30466,119.86022 -2.13978,-2.13979 2.16756,-3.34784 c 1.19216,-1.84131 2.39256,-3.33918 2.66756,-3.32861 0.275,0.0106 1.75549,1.12389 3.28998,2.47404 l 2.78997,2.45482 -2.22803,3.01358 c -2.64585,3.57871 -3.70147,3.71959 -6.54726,0.8738 z"
         transform="matrix(1.8318491,0,0,1.8318491,46.599153,298.63875)"
         id="path131" />
      <path
         style="fill:#b7bdf9;fill-opacity:1"
         d="m 262.71909,121.81391 c -3.26173,-2.37601 -3.33494,-3.14029 -0.66052,-6.89617 l 2.05858,-2.891 2.94142,2.17469 c 1.61779,1.19608 2.94143,2.45263 2.94143,2.79235 0,0.33971 -1.02641,2.00888 -2.28091,3.70926 l -2.2809,3.09159 z"
         transform="matrix(1.8318491,0,0,1.8318491,46.599153,298.63875)"
         id="path130" />
      <path
         style="fill:#b7bdf9;fill-opacity:1"
         d="m 687.74509,125.25582 -2.74592,-2.86613 2.36019,-3.19906 2.3602,-3.19907 2.64022,2.0768 c 3.21823,2.53147 3.27573,3.6251 0.38076,7.24262 l -2.24952,2.81098 z"
         transform="matrix(1.8318491,0,0,1.8318491,46.599153,298.63875)"
         id="path129" />
      <path
         style="fill:#b7bdf9;fill-opacity:1"
         d="m 536.78202,128.32748 -2.67252,-2.67252 2.01335,-2.82748 c 2.40866,-3.38266 3.52649,-3.50554 6.49767,-0.71426 l 2.24943,2.11323 -2.18498,3.3744 c -1.20173,1.85591 -2.4202,3.37996 -2.7077,3.38677 -0.2875,0.007 -1.72536,-1.19025 -3.19525,-2.66014 z"
         transform="matrix(1.8318491,0,0,1.8318491,46.599153,298.63875)"
         id="path128" />
      <path
         style="fill:#b7bdf9;fill-opacity:1"
         d="m 800,155.76775 c 0,-1.99773 -1.32414,-11.42523 -2.94252,-20.95 -4.84423,-28.50993 -5.2037,-32.10983 -3.64277,-36.480621 1.61847,-4.531914 2.16958,-3.511208 3.05754,5.662871 0.34603,3.575 1.76742,13.25 3.15866,21.5 2.87016,17.01998 3.5495,30.71934 1.61909,32.6499 -1.00002,1.0001 -1.25,0.5237 -1.25,-2.38215 z"
         transform="matrix(1.8318491,0,0,1.8318491,46.599153,298.63875)"
         id="path127" />
      <path
         style="fill:#b7bdf9;fill-opacity:1"
         d="m 512,155.02407 c 0,-2.18676 -1.575,-13.51108 -3.5,-25.16515 -3.75934,-22.75929 -4.13558,-28.6629 -2.12598,-33.35892 1.23849,-2.894102 1.30844,-2.735256 1.98155,4.5 0.38376,4.125 1.78147,14.025 3.10604,22 3.14251,18.92056 3.90447,26.87369 3.05589,31.89639 -0.88571,5.24252 -2.5175,5.32528 -2.5175,0.12768 z"
         transform="matrix(1.8318491,0,0,1.8318491,46.599153,298.63875)"
         id="path126" />
      <path
         style="fill:#b7bdf9;fill-opacity:1"
         d="m 766.21679,170.4393 c -2.56768,-1.79848 -4.75182,-5.71308 -7.19039,-12.88724 l -1.71671,-5.05048 -1.40485,3.91119 c -1.18368,3.29546 -2.26035,4.2901 -6.83928,6.31816 -7.41162,3.28271 -14.1612,4.03057 -16.37715,1.81462 -1.70118,-1.70118 -2.21414,-6.01194 -1.07014,-8.99315 0.56523,-1.47297 0.72174,-1.46967 1.82455,0.0385 0.80694,1.10355 2.60815,1.63034 5.44083,1.59125 4.42491,-0.0611 16.69625,-3.69341 17.64079,-5.22172 0.30039,-0.48604 -0.59472,-4.81902 -1.98914,-9.62885 -2.3167,-7.9911 -3.48124,-18.61087 -1.86342,-16.99305 0.36953,0.36953 2.34115,6.48536 4.38136,13.59073 5.27066,18.35588 7.77628,22.59914 14.44676,24.46548 5.13427,1.43653 5.13482,0.58689 0.0194,-30.0568 -2.64771,-15.86088 -5.2399,-29.3849 -5.76044,-30.05337 -1.25432,-1.61082 0.0192,-8.855539 1.81923,-10.349467 1.12509,-0.93374 1.42183,-0.856551 1.42183,0.369852 0,0.852426 1.21133,2.502698 2.69185,3.667273 l 2.69185,2.117408 -1.76663,5.205174 c -1.75248,5.16351 -1.74252,5.33722 1.24466,21.70517 4.89821,26.83927 5.4212,31.45352 4.20677,37.1162 -1.59756,7.44915 -2.62805,8.8838 -6.38118,8.8838 -1.78327,0 -4.24501,-0.70232 -5.47053,-1.5607 z"
         transform="matrix(1.8318491,0,0,1.8318491,46.599153,298.63875)"
         id="path125" />
      <path
         style="fill:#b7bdf9;fill-opacity:1"
         d="m 172.5,170.95299 c -3.75033,-1.22064 -5.66895,-2.71337 -7.90624,-6.15124 -2.24671,-3.45234 -2.29269,-12.88473 -0.0885,-18.16002 2.04211,-4.88746 2.6786,-4.37147 1.24286,1.00757 -1.52013,5.69514 0.50774,10.92778 5.25191,13.55187 5.11058,2.82675 15.88666,2.06749 23.49614,-1.65548 3.10785,-1.52053 5.88433,-3.37361 6.16996,-4.11796 0.71968,-1.87544 -2.3073,-10.81917 -5.9281,-17.51562 -2.47165,-4.57114 -2.89545,-6.25928 -2.32918,-9.27779 0.81547,-4.34681 1.86143,-3.98506 4.72879,1.63543 5.36044,10.50733 7.4824,22.57636 5.0513,28.73025 -3.27302,8.28505 -20.11953,15.06759 -29.68891,11.95299 z"
         transform="matrix(1.8318491,0,0,1.8318491,46.599153,298.63875)"
         id="path124" />
      <path
         style="fill:#b7bdf9;fill-opacity:1"
         d="m 799,182.3421 c -4.125,-0.80692 -7.8126,-1.7765 -8.19467,-2.15462 -0.38207,-0.37811 2.57839,-0.71343 6.57881,-0.74516 6.24607,-0.0495 8.37163,-0.57919 15.04781,-3.74969 9.88131,-4.69261 21.83159,-15.96883 20.86018,-19.68354 l -0.60234,-2.30335 -1.9283,2.64713 C 829.33082,158.31686 827.95742,159 825.43965,159 c -4.89181,0 -6.88714,-3.3753 -6.16003,-10.4203 1.01746,-9.85828 5.54695,-14.85514 9.89845,-10.91983 6.40546,5.7928 8.18552,17.973 3.9051,26.7209 -2.84868,5.82187 -11.53154,14.787 -17.04622,17.60038 -4.56405,2.3284 -6.74325,2.37457 -17.03695,0.36095 z m 28.28065,-34.30731 c 0.67998,-2.60023 -2.90385,-3.84017 -5.01048,-1.73353 -1.90501,1.90501 -0.85158,3.69874 2.17222,3.69874 1.46963,0 2.51333,-0.72265 2.83826,-1.96521 z"
         transform="matrix(1.8318491,0,0,1.8318491,46.599153,298.63875)"
         id="path123" />
      <path
         style="fill:#b7bdf9;fill-opacity:1"
         d="m 678.20685,184.07095 c -5.89655,-2.76317 -8.71603,-8.92526 -7.85464,-17.16662 C 670.99097,160.79302 673.64292,153 675.08383,153 c 0.47667,0 0.42781,1.15429 -0.10858,2.5651 -1.44386,3.79764 -1.18283,12.1328 0.4807,15.34971 4.10305,7.93443 20.23691,8.16116 31.92025,0.4486 l 3.8762,-2.55882 -0.64374,-5.47717 c -0.35405,-3.01244 -1.49748,-7.90623 -2.54095,-10.87508 -1.54687,-4.40114 -1.69731,-6.04926 -0.81468,-8.92513 1.20762,-3.93477 2.30813,-4.48523 3.22044,-1.61079 C 712.35736,147.85202 727,145.13073 727,138.84501 727,137.83026 727.45,137 728,137 c 1.27806,0 1.25495,1.52133 -0.0987,6.5 -1.45673,5.35766 -5.4392,9.40248 -9.97102,10.12715 l -3.65464,0.5844 -0.61432,7.26738 c -0.33787,3.99706 -1.10351,8.56196 -1.70141,10.14422 -4.08432,10.8086 -22.64439,17.65338 -33.75301,12.4478 z"
         transform="matrix(1.8318491,0,0,1.8318491,46.599153,298.63875)"
         id="path122" />
      <path
         style="fill:#b7bdf9;fill-opacity:1"
         d="m 201,185.91771 c -9.46129,-1.81481 -9.84935,-2.26931 -2.4813,-2.90611 8.65821,-0.74831 18.43976,-5.08859 24.91091,-11.05348 C 225.94332,169.64106 228,167.35259 228,166.87264 228,166.39269 226.17955,166 223.95455,166 c -3.01308,0 -4.70248,-0.65702 -6.62007,-2.57461 -2.25663,-2.25663 -2.51527,-3.1921 -2.09418,-7.57449 0.80886,-8.41792 6.40571,-13.29121 10.7497,-9.35995 1.00378,0.90841 2.78129,3.87447 3.95002,6.59125 1.96031,4.55687 2.33551,4.88893 4.84247,4.28564 1.49463,-0.35967 4.74251,-1.64951 7.21751,-2.86629 4.43978,-2.18274 4.55353,-2.18786 8.5,-0.38317 2.2,1.00605 4.83971,1.84097 5.86602,1.8554 2.08984,0.0294 7.92193,-4.05733 19.35299,-13.56114 6.56506,-5.4582 8.29095,-6.41264 11.59589,-6.41264 4.96719,0 10.57057,2.65453 11.93786,5.6554 1.30653,2.86752 -0.25544,8.80699 -3.35099,12.74235 C 291.20363,160.37047 277.45197,165 264.40862,165 h -8.17119 l -1.13311,4.5 c -1.50899,5.99273 -2.4754,5.71367 -1.87438,-0.54126 0.42143,-4.38587 0.21046,-5.18214 -1.62277,-6.12496 -1.15894,-0.59604 -3.09809,-1.98564 -4.30921,-3.088 l -2.20203,-2.00429 -3.04762,2.5644 c -1.67618,1.41042 -4.54077,3.10433 -6.36574,3.76425 -2.49733,0.90305 -3.85667,2.37376 -5.49518,5.94536 -1.29885,2.83122 -4.81592,7.21405 -8.7188,10.86501 -6.17516,5.77655 -6.8059,6.11335 -11.25518,6.00992 -2.59237,-0.0603 -6.73841,-0.49798 -9.21341,-0.97272 z m 23,-29.81072 c 0,-2.38131 -2.54698,-3.41981 -5.07244,-2.06822 C 215.67818,155.77779 216.5603,158 220.5,158 c 2.7674,0 3.5,-0.39624 3.5,-1.89301 z m 54.5,-0.55914 c 6.61028,-1.56728 15.07367,-5.04902 16.02847,-6.59392 0.82329,-1.3321 -7.2505,-4.90453 -11.14638,-4.93197 -2.30521,-0.0162 -5.17239,1.56481 -11,6.0657 -4.33515,3.34821 -8.06959,6.27321 -8.29876,6.5 -0.98751,0.97726 8.92461,0.26235 14.41667,-1.03981 z"
         transform="matrix(1.8318491,0,0,1.8318491,46.599153,298.63875)"
         id="path121" />
      <path
         style="fill:#b7bdf9;fill-opacity:1"
         d="m 717.67739,185.45391 -2.8226,-2.48288 2.1624,-3.49885 2.16241,-3.49884 3.06814,2.58167 3.06815,2.58167 2.18163,-2.73603 2.18164,-2.73603 2.62899,1.91769 c 3.20091,2.33486 3.24704,2.82925 0.60969,6.53308 l -2.08217,2.92413 -3.07416,-2.58674 -3.07416,-2.58674 -1.94188,3.06698 c -1.06803,1.68684 -2.01018,3.05276 -2.09367,3.03538 -0.0835,-0.0174 -1.42197,-1.1489 -2.97441,-2.51449 z"
         transform="matrix(1.8318491,0,0,1.8318491,46.599153,298.63875)"
         id="path120" />
      <path
         style="fill:#b7bdf9;fill-opacity:1"
         d="m 527.46742,187.00228 c -5.59195,-2.76804 -7.9305,-7.0502 -7.9199,-14.50228 0.009,-6.03077 3.02689,-16.5 4.75701,-16.5 0.5002,0 0.57756,0.7875 0.17192,1.75 -1.76949,4.19861 -1.76158,12.56508 0.015,15.86398 3.78387,7.02622 16.20979,8.65653 27.00855,3.5436 3.3,-1.56247 6.62361,-3.59435 7.38579,-4.5153 1.65794,-2.00328 0.97277,-9.98302 -1.43745,-16.74088 C 555.83036,151.36482 556.21906,143 558.04785,143 c 0.50892,0 1.5767,1.55898 2.37283,3.46441 1.72374,4.1255 4.39235,5.04111 12.31069,4.22387 7.47445,-0.77143 8.17141,-1.82508 3.32759,-5.03056 -4.12508,-2.72986 -5.71836,-6.00478 -4.61407,-9.48408 1.23755,-3.89917 6.72693,-10.32665 11.29201,-13.22174 6.16332,-3.90867 9.36508,-3.80179 14.0244,0.46816 3.90435,3.57807 4.00591,5.59609 0.17854,3.54774 -5.51071,-2.94924 -20.79106,2.42578 -19.26582,6.77695 1.02941,2.93666 6.28445,7.93277 10.20201,9.69935 3.56891,1.60935 4.02097,1.57699 12.56738,-0.89966 4.87591,-1.41299 9.06993,-2.36443 9.32004,-2.11433 0.2501,0.25011 -0.52171,1.82603 -1.71514,3.50205 -1.57393,2.21037 -3.73242,3.49948 -7.8591,4.69368 -3.12906,0.9055 -9.70363,3.17474 -14.61014,5.04275 -4.90651,1.86802 -11.99401,3.92337 -15.75,4.56745 L 563,159.4071 v 4.11495 c 0,7.22348 -2.73019,14.65021 -6.69475,18.21118 -7.56712,6.79679 -20.84898,9.22356 -28.83783,5.26905 z"
         transform="matrix(1.8318491,0,0,1.8318491,46.599153,298.63875)"
         id="path119" />
      <path
         style="fill:#b7bdf9;fill-opacity:1"
         d="m 388,187.02771 c -7.85215,-1.64615 -8.14476,-1.79133 -3.83909,-1.90484 9.88346,-0.26055 22.37051,-5.91604 29.6523,-13.42977 l 3.31321,-3.41875 -4.78021,-0.5388 c -8.43261,-0.95047 -11.31303,-6.81527 -7.48273,-15.23555 3.99959,-8.79242 8.51212,-8.30177 12.94428,1.40744 3.07385,6.73366 2.70788,6.66531 15.64726,2.92233 l 6.95501,-2.01188 -2.45501,-1.87135 c -2.79391,-2.12967 -7.4093,-3.40185 -8.93062,-2.46162 -1.49039,0.92111 -1.27263,-0.078 0.97887,-4.49132 2.53306,-4.96523 4.49989,-5.9936 11.46311,-5.9936 11.89775,0 17.84151,6.34996 11.14548,11.90716 -2.39482,1.98753 -2.01155,2.65652 2.25416,3.93455 5.77297,1.72963 11.06836,1.49288 11.84443,-0.52954 0.35622,-0.9283 -0.77799,-11.1658 -2.52049,-22.75 C 459.75581,103.08363 459.75217,103.04082 461.25207,98 l 1.33898,-4.5 1.76767,13 c 0.97223,7.15 2.83311,18.24441 4.13531,24.65425 3.51629,17.30837 6.74218,22.53123 14.56438,23.58041 l 4.21364,0.56517 -0.68411,-4.89992 c -2.27364,-16.28477 -6.79874,-43.4609 -7.76721,-46.6471 -0.86475,-2.84495 -0.84867,-4.716201 0.0668,-7.771731 l 1.20579,-4.024549 3.47659,3.686268 c 3.31153,3.511241 3.42114,3.856508 2.30844,7.271732 -0.64249,1.97201 -1.48418,3.81047 -1.87042,4.08547 -0.38624,0.275 0.58966,8.15 2.16867,17.5 4.77044,28.24784 3.92894,39.5057 -2.95227,39.49626 -3.67047,-0.005 -8.8224,-3.28701 -11.13862,-7.09573 l -1.89602,-3.11776 -2.0404,4.61267 c -3.26213,7.37459 -7.67509,7.89696 -17.59606,2.08288 l -4.63159,-2.71429 -6.21082,3.05045 c -3.41594,1.67775 -9.05651,3.83886 -12.53459,4.80245 -5.68863,1.57603 -6.52835,2.15297 -8.36043,5.74416 -2.43983,4.78245 -11.21159,14.2751 -15.0025,16.23546 -3.35504,1.73496 -5.12835,1.67117 -15.81329,-0.56884 z M 411.81955,157.75 c -0.42449,-2.9889 -4.2995,-3.59023 -5.7439,-0.89135 -1.17792,2.20096 -0.29275,2.92501 3.7439,3.0624 1.85087,0.063 2.25498,-0.37568 2,-2.17105 z"
         transform="matrix(1.8318491,0,0,1.8318491,46.599153,298.63875)"
         id="path118" />
      <path
         style="fill:#b7bdf9;fill-opacity:1"
         d="m 287,188.92456 c -6.79467,-1.29296 -12.99978,-3.10867 -13.00182,-3.80452 -10e-4,-0.34102 2.68526,-0.46826 5.96947,-0.28276 8.03443,0.45382 15.28333,-2.86838 22.59132,-10.35367 5.34767,-5.47743 6.56447,-7.94246 4.29415,-8.69924 -0.81487,-0.27162 -0.8801,-1.51037 -0.22534,-4.27898 l 0.92154,-3.89669 9.47534,-1.68483 c 5.21144,-0.92665 11.02432,-2.32347 12.91751,-3.10402 l 3.44217,-1.4192 -3.72307,-2.30098 c -2.48269,-1.53439 -4.53051,-2.09832 -6.14669,-1.69268 l -2.42364,0.60829 1.90138,-4.25764 c 1.04575,-2.3417 2.83944,-4.88443 3.98598,-5.6505 2.95018,-1.97119 12.27811,-1.7462 17.0632,0.41157 5.3108,2.39484 6.05552,5.35424 2.51537,9.99562 l -2.66504,3.49405 2.80408,1.06857 c 7.92162,3.01875 12.46789,2.35602 14.30771,-2.08569 1.67122,-4.03467 2.17606,-4.23196 6.35803,-2.48462 6.78326,2.83423 8.38395,1.61476 4.2015,-3.20088 -2.18373,-2.51431 -2.66128,-2.66872 -4.59738,-1.48647 -3.10005,1.89299 -3.31311,0.99306 -0.68897,-2.91019 3.10176,-4.61368 5.77785,-4.81963 9.24196,-0.71125 5.19275,6.15851 6.93029,13.43819 4.12364,17.27652 -1.3138,1.79673 -1.61824,1.77508 -9.43578,-0.67101 l -8.07819,-2.52764 -1.20136,2.90036 c -2.41276,5.82491 -6.71489,6.20607 -16.03876,1.42098 l -6.61169,-3.39317 -5.88831,2.90876 c -3.23857,1.59981 -9.16599,3.69144 -13.17204,4.64805 -6.27714,1.49893 -7.36778,2.08479 -7.8919,4.2393 -0.86113,3.53986 -4.16308,9.90889 -7.21866,13.92387 -2.85932,3.7571 -9.76634,9.13982 -11.50575,8.96656 -0.60498,-0.0603 -3.12496,-0.4949 -5.59996,-0.96587 z"
         transform="matrix(1.8318491,0,0,1.8318491,46.599153,298.63875)"
         id="path117" />
      <path
         style="fill:#b7bdf9;fill-opacity:1"
         d="m 604.55271,183.89172 c 6.02101,-3.90955 11.07238,-7.22214 11.22527,-7.36131 0.15289,-0.13917 -0.15072,-1.3806 -0.67469,-2.75873 -1.1898,-3.12941 0.0984,-9.22551 2.68033,-12.68368 1.31121,-1.75622 3.30587,-2.79968 6.31638,-3.30425 6.91072,-1.15827 12.13378,-3.81477 11.21556,-5.70435 -0.68682,-1.41339 -0.82973,-6.91049 -0.40501,-15.5794 0.0808,-1.65 0.0215,-4.575 -0.13179,-6.5 -0.26034,-3.26871 -0.0693,-3.52031 2.89123,-3.80739 6.51723,-0.63197 20.33302,8.97264 24.4143,16.9726 2.31442,4.53665 2.40244,6.99288 0.39003,10.88445 -1.73021,3.34586 -3.53141,3.61132 -12.83452,1.89155 -5.45559,-1.00852 -5.95094,-0.92234 -10.43366,1.81518 -2.58838,1.58068 -5.49524,3.16863 -6.4597,3.52877 -1.64586,0.61459 -1.63074,0.85624 0.24626,3.93482 2.57449,4.22256 2.538,7.24932 -0.11944,9.90676 -1.83753,1.83753 -2.95941,2.06089 -8.25,1.64253 -5.97022,-0.4721 -6.17329,-0.40653 -8.12493,2.62327 -1.34303,2.08498 -4.79796,4.498 -10.5,7.33352 -12.96139,6.44545 -13.65197,5.09147 -1.44562,-2.83434 z m 24.20035,-15.13255 c -0.7613,-2.2839 -6.63549,-5.00549 -9.33909,-4.32693 -3.47722,0.87272 -2.7774,3.86235 1.09824,4.69174 5.25784,1.12518 8.68691,0.97338 8.24085,-0.36481 z M 662,150.13684 c 0,-0.47474 -2.32109,-3.03426 -5.15798,-5.68784 l -5.15797,-4.82468 -1.32685,4.43784 c -1.78264,5.96235 -1.85883,5.76464 2.3928,6.20937 7.19373,0.75249 9.25,0.72255 9.25,-0.13469 z m -16.62412,-3.44804 c 2.81228,-2.25038 2.84074,-2.36923 1.28698,-5.37386 -2.0072,-3.8815 -4.30584,-4.77889 -7.26858,-2.83763 -4.92563,3.2274 -4.88715,6.63707 0.10572,9.36796 2.6686,1.45961 2.58635,1.4758 5.87588,-1.15647 z"
         transform="matrix(1.8318491,0,0,1.8318491,46.599153,298.63875)"
         id="path116" />
      <path
         style="fill:#ebd59e;fill-opacity:1"
         d="m 739.89457,190.25 c 0.53072,-0.9625 5.54156,-4.16701 11.1352,-7.12113 7.94798,-4.1975 9.93031,-4.92279 9.07213,-3.31928 C 759.17379,181.54379 741.58078,192 739.59105,192 c -0.36378,0 -0.22719,-0.7875 0.30352,-1.75 z"
         transform="matrix(1.8318491,0,0,1.8318491,46.599153,298.63875)"
         id="path115" />
      <path
         style="fill:#ebd59e;fill-opacity:1"
         d="m 401.12803,201.95847 c 1.41603,-2.10711 19.88393,-12.52521 19.85666,-11.20154 -0.0377,1.82924 -2.08648,3.36115 -10.88475,8.13872 -5.17003,2.80739 -9.61241,5.10435 -9.87197,5.10435 -0.25955,0 0.14547,-0.91869 0.90006,-2.04153 z"
         transform="matrix(1.8318491,0,0,1.8318491,46.599153,298.63875)"
         id="path114" />
      <path
         style="fill:#ebd59e;fill-opacity:1"
         d="m 540,206.15499 c 0,-1.47375 3.25025,-3.71297 12.25,-8.43951 8.35991,-4.39051 9.67647,-4.7217 7.94636,-1.99896 C 559.52116,196.77912 541.63245,207 540.44789,207 540.20155,207 540,206.61974 540,206.15499 Z"
         transform="matrix(1.8318491,0,0,1.8318491,46.599153,298.63875)"
         id="path113" />
      <path
         style="fill:#ebd59e;fill-opacity:1"
         d="m 295,205.15326 c 1.54568,-2.34212 20.01204,-12.94655 19.98469,-11.47635 -0.0348,1.87116 -1.96324,3.27927 -11.48469,8.38592 -8.07118,4.32883 -9.71068,4.92492 -8.5,3.09043 z"
         transform="matrix(1.8318491,0,0,1.8318491,46.599153,298.63875)"
         id="path2" />
    </g>
  </g>
</svg>
