<?xml version="1.0" encoding="UTF-8" standalone="no"?>
<!-- Created with Inkscape (http://www.inkscape.org/) -->

<svg
   version="1.1"
   id="svg1"
   width="1920"
   height="1080"
   viewBox="0 0 1920 1080"
   xmlns="http://www.w3.org/2000/svg"
   xmlns:svg="http://www.w3.org/2000/svg">
  <defs
     id="defs1" />
  <g
     id="g1">
    <rect
       style="fill:#1e1e28;fill-opacity:1"
       id="rect4"
       width="1920"
       height="1080"
       x="0"
       y="0"
       ry="1.8119611" />
    <g
       id="g29"
       transform="translate(36.160155,-58.528063)">
      <g
         id="g33"
         transform="translate(-17.812691)">
        <g
           id="g34">
          <g
             id="g48">
            <path
               style="font-style:normal;font-variant:normal;font-weight:normal;font-stretch:normal;font-size:118.081px;font-family:'Aref Ruqaa';-inkscape-font-specification:'Aref Ruqaa, Normal';font-variant-ligatures:normal;font-variant-caps:normal;font-variant-numeric:normal;font-variant-east-asian:normal;text-align:center;writing-mode:lr-tb;direction:ltr;text-anchor:middle;fill:#ffffff;fill-opacity:1;stroke-width:2.21403"
               d="m 740.11934,835.78536 c -1.57442,1.96802 -3.18866,3.9767 -4.8418,6.02344 -1.65313,2.04673 -3.26543,4.09193 -4.83984,6.13867 l 8.38281,7.79492 c 1.65313,-2.04674 3.26738,-4.09389 4.8418,-6.14062 1.65313,-1.96802 3.26738,-3.9767 4.84179,-6.02344 z"
               id="path38" />
            <path
               style="font-style:normal;font-variant:normal;font-weight:normal;font-stretch:normal;font-size:118.081px;font-family:'Aref Ruqaa';-inkscape-font-specification:'Aref Ruqaa, Normal';font-variant-ligatures:normal;font-variant-caps:normal;font-variant-numeric:normal;font-variant-east-asian:normal;text-align:center;writing-mode:lr-tb;direction:ltr;text-anchor:middle;fill:#ffffff;fill-opacity:1;stroke-width:2.21403"
               d="m 707.11153,831.28536 c -0.13469,-9.2e-4 -0.27045,0.004 -0.40821,0.0137 -2.20418,0.0787 -4.64576,1.88921 -7.32226,5.43164 -2.59779,3.46371 -5.23366,9.13184 -7.91016,17.00391 -1.18081,3.38499 -2.1255,6.80777 -2.83398,10.27148 -0.70849,3.38499 -0.98362,6.41725 -0.82618,9.09375 0.23617,2.59778 1.18085,4.52563 2.83399,5.78516 1.65313,1.25953 4.25054,1.4173 7.79297,0.47265 3.30627,-0.86592 5.94214,-2.24351 7.91015,-4.13281 1.96802,-1.96801 3.46492,-4.25182 4.48828,-6.84961 1.10209,-2.6765 1.9679,-5.47014 2.59766,-8.38281 1.18081,-5.353 1.61371,-10.1938 1.29883,-14.52344 -0.31488,-4.40835 -1.18068,-7.91198 -2.59766,-10.50976 -1.32841,-2.43542 -3.00314,-3.65999 -5.02343,-3.67383 z m -5.10157,16.42578 c 0.68881,0 1.38722,0.23666 2.09571,0.70898 0.3936,0.23617 0.90539,0.90573 1.53515,2.00782 0.62977,1.10209 1.22044,2.3219 1.77149,3.66015 0.55104,1.33825 0.90506,2.59849 1.0625,3.7793 0.15744,1.10209 -3.4e-4,1.81012 -0.47266,2.125 -1.73185,1.02337 -3.85789,1.88917 -6.37695,2.59766 -2.44034,0.70848 -4.80109,0.55071 -7.08399,-0.47266 -0.31488,-0.15744 -0.66889,-0.43257 -1.0625,-0.82617 -0.3936,-0.3936 -0.55137,-0.70915 -0.47265,-0.94531 0.15744,-0.47233 0.54992,-1.4959 1.17968,-3.07032 0.62977,-1.65313 1.41668,-3.30585 2.36133,-4.95898 1.02337,-1.73186 2.16625,-3.03056 3.42578,-3.89649 0.66913,-0.47232 1.34831,-0.70898 2.03711,-0.70898 z"
               id="path37" />
            <path
               style="font-style:normal;font-variant:normal;font-weight:normal;font-stretch:normal;font-size:118.081px;font-family:'Aref Ruqaa';-inkscape-font-specification:'Aref Ruqaa, Normal';font-variant-ligatures:normal;font-variant-caps:normal;font-variant-numeric:normal;font-variant-east-asian:normal;text-align:center;writing-mode:lr-tb;direction:ltr;text-anchor:middle;fill:#ffffff;fill-opacity:1;stroke-width:2.21403"
               d="m 838.12715,815.83028 -8.73828,13.93359 3.30664,50.1836 8.73828,-13.9336 z"
               id="path36" />
            <path
               style="font-style:normal;font-variant:normal;font-weight:normal;font-stretch:normal;font-size:118.081px;font-family:'Aref Ruqaa';-inkscape-font-specification:'Aref Ruqaa, Normal';font-variant-ligatures:normal;font-variant-caps:normal;font-variant-numeric:normal;font-variant-east-asian:normal;text-align:center;writing-mode:lr-tb;direction:ltr;text-anchor:middle;fill:#ffffff;fill-opacity:1;stroke-width:2.21403"
               d="m 719.6916,804.14083 -11.33593,2.125 -11.33594,2.125 -7.08399,14.05078 11.33594,-2.125 11.33594,-2.125 z"
               id="path34" />
            <path
               style="font-style:normal;font-variant:normal;font-weight:normal;font-stretch:normal;font-size:118.081px;font-family:'Aref Ruqaa';-inkscape-font-specification:'Aref Ruqaa, Normal';font-variant-ligatures:normal;font-variant-caps:normal;font-variant-numeric:normal;font-variant-east-asian:normal;text-align:center;writing-mode:lr-tb;direction:ltr;text-anchor:middle;fill:#ffffff;fill-opacity:1;stroke-width:2.21403"
               d="m 815.80879,797.05489 -8.73633,13.93359 c 0.15744,2.67651 0.35368,5.90501 0.58985,9.6836 0.23616,3.77859 0.47282,7.71316 0.70898,11.80664 0.23616,4.09347 0.4324,8.07042 0.58984,11.92773 0.15745,3.7786 0.23633,7.08403 0.23633,9.91797 -1.65313,0.70849 -4.29096,1.65318 -7.91211,2.83399 -1.49569,0.47232 -3.38507,0.98411 -5.66797,1.53515 -2.28289,0.47233 -4.68406,0.90523 -7.20312,1.29883 -2.19919,0.2749 -4.33682,0.40009 -6.41602,0.375 l 4.64454,-7.3418 c 0.86592,-1.33825 1.73368,-3.14874 2.5996,-5.43164 0.23617,-0.70848 0.35352,-1.41651 0.35352,-2.125 0,-2.04673 -0.82733,-3.46474 -2.48047,-4.25195 -1.57441,-0.78721 -3.58114,-1.22011 -6.02148,-1.29883 h -1.18164 c -2.75523,0 -5.03708,0.23666 -6.84766,0.70899 -0.31488,0.31488 -0.98444,1.02291 -2.00781,2.125 -1.02337,1.02336 -2.32207,2.52026 -3.89649,4.48828 -2.91266,3.46371 -4.36914,5.86292 -4.36914,7.20117 v 0.23633 0.11914 l 2.36133,7.67578 -3.66016,0.70703 0.11915,-0.11719 c -1.96802,0.31489 -3.8574,0.63043 -5.66797,0.94532 -1.81058,0.31488 -3.50371,0.54959 -5.07813,0.70703 -3.14882,0.31488 -6.45621,3.34518 -9.91992,9.09179 -0.3936,0.62977 -0.78608,1.29933 -1.17969,2.00782 -0.31488,0.70848 -0.66889,1.45693 -1.0625,2.24414 v 0.11718 c -0.30705,0.36847 -0.57552,0.72705 -0.80273,1.07422 -0.49972,0.22629 -1.01816,0.41995 -1.5586,0.58008 -5.66788,1.49569 -11.57267,2.75398 -17.71289,3.77734 -6.14021,1.02337 -11.88723,2.47985 -17.24023,4.36915 -1.10209,0.47232 -1.33875,0.98411 -0.70899,1.53515 0.94465,0.78721 4.01538,1.96856 9.21094,3.54297 2.59778,0.78721 4.6834,1.41635 6.25781,1.88867 1.65314,0.47233 2.79602,0.78787 3.42579,0.94531 5.03812,1.02337 8.97269,0.98491 11.80664,-0.11718 2.83394,-1.18081 5.15622,-3.50309 6.96679,-6.9668 0.78721,-1.57441 1.61455,-3.07131 2.48047,-4.48828 0.51509,-0.8897 1.09955,-1.6954 1.75391,-2.41797 1.45994,-0.84598 3.59219,-1.65456 6.39453,-2.42383 2.99139,-0.86592 5.8235,-1.65284 8.5,-2.36133 2.6765,-0.70848 5.39321,-1.61275 8.14844,-2.71484 0.75865,-0.25288 1.67439,-0.66454 2.74804,-1.23242 0.26186,0.28187 0.56601,0.53581 0.91211,0.75976 1.33825,0.86593 2.83515,1.37772 4.48828,1.53516 9.21032,0.94465 18.45901,-1.02361 27.74805,-5.9043 7.79335,-4.09347 12.83234,-10.70629 15.11524,-19.83789 0.55104,-2.04673 0.94352,-4.13235 1.17968,-6.25781 0.31489,-2.12546 0.39377,-4.28996 0.23633,-6.49414 z"
               id="text33" />
          </g>
          <g
             id="g39"
             style="fill:#f00000;fill-opacity:1">
            <path
               style="font-style:normal;font-variant:normal;font-weight:normal;font-stretch:normal;font-size:118.081px;font-family:'Aref Ruqaa';-inkscape-font-specification:'Aref Ruqaa, Normal';font-variant-ligatures:normal;font-variant-caps:normal;font-variant-numeric:normal;font-variant-east-asian:normal;text-align:center;writing-mode:lr-tb;direction:ltr;text-anchor:middle;fill:#f00000;fill-opacity:1;stroke-width:2.21403"
               d="m 784.04512,879.94747 c -3.93603,1.41697 -8.0688,2.87345 -12.39844,4.36914 -4.25091,1.49569 -8.26437,3.03105 -12.04297,4.60547 l -3.89648,6.14062 c 3.62115,-1.81057 7.67503,-3.50371 12.16211,-5.07812 4.40836,-1.65314 8.65848,-3.1885 12.75195,-4.60547 z"
               id="path39" />
            <path
               style="font-style:normal;font-variant:normal;font-weight:normal;font-stretch:normal;font-size:118.081px;font-family:'Aref Ruqaa';-inkscape-font-specification:'Aref Ruqaa, Normal';font-variant-ligatures:normal;font-variant-caps:normal;font-variant-numeric:normal;font-variant-east-asian:normal;text-align:center;writing-mode:lr-tb;direction:ltr;text-anchor:middle;fill:#f00000;fill-opacity:1;stroke-width:2.21403"
               d="m 752.16426,815.83028 c -3.93603,1.41697 -8.0688,2.87345 -12.39844,4.36914 -4.25091,1.49569 -8.26633,3.03106 -12.04492,4.60547 l -3.89648,6.13867 c 3.62115,-1.81057 7.67503,-3.54218 12.16211,-5.19531 4.40835,-1.57441 8.66043,-3.06936 12.7539,-4.48633 z"
               id="path35" />
          </g>
        </g>
        <g
           id="g3">
          <g
             id="g47"
             style="fill:#f00000;fill-opacity:1">
            <path
               style="font-style:normal;font-variant:normal;font-weight:normal;font-stretch:normal;font-size:239.118px;font-family:Amiri;-inkscape-font-specification:'Amiri, Normal';font-variant-ligatures:normal;font-variant-caps:normal;font-variant-numeric:normal;font-variant-east-asian:normal;text-align:center;writing-mode:lr-tb;direction:ltr;text-anchor:middle;fill:#f00000;fill-opacity:1;stroke-width:1.46682"
               d="m 846.7793,691.82617 c -1.63398,-0.11956 -3.08799,0.258 -4.36328,1.13477 -0.79706,0.31882 -1.19727,1.43471 -1.19727,3.34765 0,1.75354 -0.15774,2.79055 -0.47656,3.10938 -8.92707,10.36178 -15.06446,21.99778 -18.41211,34.91015 -3.34765,12.75296 -3.26878,23.03452 0.23828,30.84571 3.50706,7.9706 10.68147,11.79734 21.52148,11.47851 7.81119,0 14.74508,-2.78972 20.80274,-8.36914 6.05765,-5.57942 10.12295,-13.15207 12.19531,-22.71679 2.23177,-10.04296 1.19475,-19.68575 -3.10937,-28.93164 -4.30413,-9.40531 -11.5574,-17.05879 -21.75977,-22.95704 -1.99265,-1.11588 -3.80548,-1.732 -5.43945,-1.85156 z m -2.86524,31.97656 c 6.32355,0.26154 12.9974,4.72651 20.02149,13.39454 2.71,3.34765 3.10825,5.73912 1.19531,7.17382 -5.10118,3.9853 -11.71569,5.97852 -19.8457,5.97852 -7.81119,0 -12.43444,-2.94941 -13.86914,-8.84766 -0.63765,-2.55059 0.23968,-6.13681 2.63086,-10.75976 2.39117,-4.62295 5.25976,-6.93555 8.60742,-6.93555 0.41845,-0.0199 0.83819,-0.0213 1.25976,-0.004 z"
               id="path11" />
            <path
               style="font-style:normal;font-variant:normal;font-weight:normal;font-stretch:normal;font-size:239.118px;font-family:Amiri;-inkscape-font-specification:'Amiri, Normal';font-variant-ligatures:normal;font-variant-caps:normal;font-variant-numeric:normal;font-variant-east-asian:normal;text-align:center;writing-mode:lr-tb;direction:ltr;text-anchor:middle;fill:#f00000;fill-opacity:1;stroke-width:1.46682"
               d="m 1056.7578,675.23242 c -1.8158,-0.0971 -3.4403,0.15416 -4.875,0.75196 -21.2018,8.92707 -33.7959,23.83187 -37.7812,44.71484 -1.7536,8.44883 1.0362,15.70211 8.3691,21.75976 -5.1012,2.07236 -9.0857,3.74619 -11.9551,5.02149 -1.2981,0.5345 -2.3228,0.95838 -3.0722,1.27344 -0.4423,0.14215 -0.9311,0.35577 -1.4688,0.63867 v 0 c -0.9852,0.42603 -1.8726,0.89853 -2.6622,1.41797 -2.7106,1.47443 -5.33061,2.99515 -7.85933,4.56054 -3.18824,1.91295 -6.13765,3.98503 -8.84765,6.2168 -6.85472,5.42001 -13.39036,12.03647 -19.60743,19.84766 -6.21706,7.81118 -12.27558,16.89603 -18.17382,27.25781 -4.78236,8.44884 -9.72304,14.34766 -14.82422,17.69531 -5.10119,3.66648 -10.92114,4.38411 -17.45703,2.15235 -10.20237,-3.34766 -14.42541,-11.23774 -12.67188,-23.67188 0.95647,-6.37648 3.02856,-12.75438 6.2168,-19.13086 1.75353,-3.66647 3.10798,-6.53506 4.06445,-8.60742 l 1.67383,-3.34766 c 0.15941,-0.47823 0.0805,-1.19587 -0.23828,-2.15234 -0.31883,-0.79706 -0.95759,-1.03562 -1.91406,-0.7168 -0.95648,0.31883 -1.75298,0.95564 -2.39063,1.91211 -8.92707,16.89767 -13.8697,30.60772 -14.82617,41.12891 -0.95647,10.99943 0.39993,19.13003 4.0664,24.39062 4.14472,6.37648 9.56447,10.1224 16.25977,11.23828 11.9559,2.23177 23.83242,-6.29708 35.62891,-25.58593 2.23176,-3.66648 4.94066,-7.65291 8.1289,-11.95703 3.18824,-4.30413 6.85529,-8.92542 11,-13.86719 9.08649,-10.99943 20.56475,-20.08623 34.43364,-27.25977 l 54.9961,-23.91211 c 7.0141,-2.86941 13.39,-5.42057 19.1289,-7.65234 5.8982,-2.39118 11.1602,-4.3844 15.7832,-5.97852 2.3911,-0.95647 3.8245,-2.07236 4.3027,-3.34765 l 4.7832,-19.12891 c 0.9565,-4.14471 -0.7174,-4.94122 -5.0215,-2.39062 -1.2753,0.63764 -2.7106,1.43415 -4.3047,2.39062 -1.5941,0.95647 -3.2679,1.99349 -5.0215,3.10938 -16.5788,10.6806 -31.3239,15.06333 -44.2363,13.15039 -4.4635,-0.79706 -8.9271,-3.18853 -13.3906,-7.17383 -4.623,-4.14471 -6.3757,-7.49042 -5.2598,-10.04102 2.8694,-6.6953 9.963,-11.31855 21.2813,-13.86914 11.637,-2.71 22.0783,-2.15206 31.3242,1.67383 1.9129,0.79706 3.5059,0.47768 4.7812,-0.95703 1.2753,-1.43471 1.0368,-3.10854 -0.7168,-5.02149 -4.6229,-5.26059 -10.2812,-9.64527 -16.9765,-13.15234 -4.085,-2.09228 -7.6417,-3.21896 -10.668,-3.38086 z"
               id="path10" />
            <path
               style="font-style:normal;font-variant:normal;font-weight:normal;font-stretch:normal;font-size:239.118px;font-family:Amiri;-inkscape-font-specification:'Amiri, Normal';font-variant-ligatures:normal;font-variant-caps:normal;font-variant-numeric:normal;font-variant-east-asian:normal;text-align:center;writing-mode:lr-tb;direction:ltr;text-anchor:middle;fill:#f00000;fill-opacity:1;stroke-width:1.46682"
               d="m 963.70703,656.79492 c -0.59779,0 -1.01479,0.17843 -1.25391,0.53711 l -11.71679,17.45703 c -0.47824,0.47824 -0.3205,0.95536 0.47656,1.4336 5.10118,3.02882 9.00679,5.42029 11.7168,7.17382 2.71,1.75354 4.38383,2.86942 5.02148,3.34766 1.11589,0.95647 1.91434,1.03534 2.39258,0.23828 l 11.23828,-18.17187 c 0.47824,-0.63765 0.39741,-1.27642 -0.24023,-1.91407 -4.94178,-4.46353 -10.60009,-7.8112 -16.97657,-10.04296 -0.23911,-0.0399 -0.45893,-0.0586 -0.6582,-0.0586 z"
               id="path9" />
            <path
               style="font-style:normal;font-variant:normal;font-weight:normal;font-stretch:normal;font-size:239.118px;font-family:Amiri;-inkscape-font-specification:'Amiri, Normal';font-variant-ligatures:normal;font-variant-caps:normal;font-variant-numeric:normal;font-variant-east-asian:normal;text-align:center;writing-mode:lr-tb;direction:ltr;text-anchor:middle;fill:#f00000;fill-opacity:1;stroke-width:1.46682"
               d="m 1038.3125,627.86133 c -0.5978,0 -1.0167,0.17843 -1.2559,0.53711 l -11.7168,17.45703 c -0.4782,0.47823 -0.3185,0.95536 0.4786,1.43359 5.1011,3.02883 9.0068,5.4203 11.7168,7.17383 2.71,1.75353 4.3838,2.86942 5.0214,3.34766 1.1159,0.95647 1.9124,1.03729 2.3907,0.24023 l 11.2382,-18.17383 c 0.4783,-0.63764 0.3994,-1.27446 -0.2382,-1.91211 -4.9418,-4.46353 -10.6001,-7.8112 -16.9766,-10.04296 -0.2391,-0.0399 -0.4589,-0.0606 -0.6582,-0.0606 z"
               id="path8" />
            <path
               style="font-style:normal;font-variant:normal;font-weight:normal;font-stretch:normal;font-size:239.118px;font-family:Amiri;-inkscape-font-specification:'Amiri, Normal';font-variant-ligatures:normal;font-variant-caps:normal;font-variant-numeric:normal;font-variant-east-asian:normal;text-align:center;writing-mode:lr-tb;direction:ltr;text-anchor:middle;fill:#f00000;fill-opacity:1;stroke-width:1.46682"
               d="m 857.06055,623.79688 c -0.5978,0 -1.01479,0.17843 -1.25391,0.5371 l -8.60937,12.67383 c -2.07236,-1.75353 -4.30414,-3.26767 -6.69532,-4.54297 -2.39118,-1.4347 -4.94234,-2.55059 -7.65234,-3.34765 -0.95647,-0.15941 -1.59329,2.8e-4 -1.91211,0.47851 l -11.7168,17.45508 c -0.47823,0.47824 -0.39936,0.95536 0.23828,1.4336 5.10119,3.02882 9.0068,5.42029 11.7168,7.17382 2.71001,1.75354 4.38384,2.86942 5.02149,3.34766 1.11588,0.95647 1.91434,1.03729 2.39257,0.24023 l 9.08594,-14.10937 c 4.14471,2.39118 7.33269,4.30553 9.56445,5.74023 2.23177,1.2753 3.58622,2.15067 4.06446,2.62891 1.11588,0.79706 1.83352,0.95675 2.15234,0.47852 l 11.47852,-18.17188 c 0.47823,-0.79706 0.39741,-1.5147 -0.24024,-2.15234 -2.55059,-2.23177 -5.25949,-4.14417 -8.1289,-5.73828 -2.71001,-1.59412 -5.65942,-2.95053 -8.84766,-4.06641 -0.23912,-0.0399 -0.45894,-0.0586 -0.6582,-0.0586 z"
               id="path7" />
          </g>
          <g
             id="g28">
            <path
               style="font-style:normal;font-variant:normal;font-weight:normal;font-stretch:normal;font-size:239.118px;font-family:Amiri;-inkscape-font-specification:'Amiri, Normal';font-variant-ligatures:normal;font-variant-caps:normal;font-variant-numeric:normal;font-variant-east-asian:normal;text-align:center;writing-mode:lr-tb;direction:ltr;text-anchor:middle;fill:#ffffff;fill-opacity:1;stroke-width:1.46682"
               d="m 983.55469,598.83789 c -0.77714,0 -1.91372,0.44901 -3.40821,1.3457 l -49.73632,30.84571 c -2.86942,2.39118 -4.30469,4.2247 -4.30469,5.5 v 4.06445 c 0,1.43471 0.31938,2.3909 0.95703,2.86914 0.79706,0.31882 1.91295,0.0803 3.34766,-0.7168 l 46.38867,-26.78125 c 3.02883,-1.75353 4.78348,-3.66592 5.26172,-5.73828 l 2.39062,-7.65234 c 0.69743,-2.49081 0.39874,-3.73633 -0.89648,-3.73633 z"
               id="path6" />
            <path
               style="font-style:normal;font-variant:normal;font-weight:normal;font-stretch:normal;font-size:239.118px;font-family:Amiri;-inkscape-font-specification:'Amiri, Normal';font-variant-ligatures:normal;font-variant-caps:normal;font-variant-numeric:normal;font-variant-east-asian:normal;text-align:center;writing-mode:lr-tb;direction:ltr;text-anchor:middle;fill:#ffffff;fill-opacity:1;stroke-width:1.46682"
               d="m 1075.8535,529.19071 c -0.7771,0 -1.9117,0.44706 -3.4062,1.34375 l -49.7383,30.84765 c -2.8694,2.39118 -4.3028,4.22275 -4.3028,5.49805 v 4.06641 c 10e-5,1.4347 0.3175,2.3909 0.9551,2.86914 0.7971,0.31882 1.913,0.0803 3.3477,-0.7168 l 46.3906,-26.78125 c 3.0288,-1.75353 4.7815,-3.66788 5.2598,-5.74023 l 2.3906,-7.65039 c 0.6974,-2.49082 0.3987,-3.73633 -0.8965,-3.73633 z"
               id="path5" />
            <path
               style="font-style:normal;font-variant:normal;font-weight:normal;font-stretch:normal;font-size:239.118px;font-family:Amiri;-inkscape-font-specification:'Amiri, Normal';font-variant-ligatures:normal;font-variant-caps:normal;font-variant-numeric:normal;font-variant-east-asian:normal;text-align:center;writing-mode:lr-tb;direction:ltr;text-anchor:middle;fill:#ffffff;fill-opacity:1;stroke-width:1.46682"
               d="m 857.76613,568.68141 c -0.77714,0 -1.91177,0.44706 -3.40625,1.34375 l -49.73633,30.84765 c -2.86942,2.39118 -4.30469,4.22275 -4.30469,5.49805 v 4.06641 c 0,1.4347 0.31939,2.3909 0.95703,2.86914 0.79706,0.31882 1.91295,0.0803 3.34766,-0.7168 l 46.38867,-26.78125 c 3.02883,-1.75353 4.78153,-3.66788 5.25977,-5.74023 l 2.39062,-7.65039 c 0.69743,-2.49082 0.39874,-3.73633 -0.89648,-3.73633 z"
               id="text2" />
          </g>
        </g>
        <g
           id="g4"
           transform="translate(41.371205)">
          <g
             id="g46">
            <path
               style="font-style:normal;font-variant:normal;font-weight:normal;font-stretch:normal;font-size:104.702px;font-family:'Aref Ruqaa';-inkscape-font-specification:'Aref Ruqaa, Normal';font-variant-ligatures:normal;font-variant-caps:normal;font-variant-numeric:normal;font-variant-east-asian:normal;text-align:center;writing-mode:lr-tb;direction:ltr;text-anchor:middle;fill:#ffffff;stroke-width:0.437868"
               d="m 1109.6681,772.87716 c -2.3035,0 -4.3273,1.08225 -6.0723,3.24609 -1.745,2.09404 -3.2118,4.78184 -4.3984,8.0625 -1.1867,3.28066 -1.7793,6.77123 -1.7793,10.4707 0,3.07126 0.6283,5.54896 1.8847,7.4336 -3.2108,0.90741 -6.4913,1.60514 -9.8418,2.09375 -1.7527,0.21908 -3.6196,0.45755 -5.6015,0.71484 0.053,-0.13423 0.1042,-0.26759 0.1562,-0.40039 0.698,-1.60543 1.1876,-2.96716 1.4668,-4.08398 v -0.73243 c 0.07,-0.4188 0.07,-0.76767 0,-1.04687 -0.07,-0.27921 -0.2105,-0.17611 -0.4199,0.3125 -0.4886,1.04702 -1.1507,2.05989 -1.9883,3.03711 -0.7678,0.90742 -1.64,1.64081 -2.6172,2.19922 -1.8148,0.90741 -4.015,1.67452 -6.5976,2.30273 -2.5129,0.55841 -5.0956,1.01232 -7.7481,1.36133 -2.6524,0.34901 -5.0251,0.59282 -7.1191,0.73242 -2.0941,0.0698 -3.6302,0.10547 -4.6074,0.10547 -6.0728,0 -10.7843,-0.48958 -14.1348,-1.4668 -3.2807,-0.97722 -5.5483,-2.37266 -6.8047,-4.1875 -1.2564,-1.88463 -1.8491,-4.04914 -1.7793,-6.49218 0.1396,-2.16385 0.5222,-4.25702 1.1504,-6.28125 0.698,-2.09404 1.6752,-4.32793 2.9316,-6.70118 0.4886,-1.18662 0.3836,-1.92001 -0.3144,-2.19922 -0.6282,-0.2792 -1.2209,0.0359 -1.7793,0.94336 -1.2564,2.02424 -2.5131,4.22246 -3.7695,6.59571 -1.2565,2.30344 -2.4775,4.78114 -3.6641,7.43359 -1.3262,3.07126 -1.9902,6.07225 -1.9902,9.00391 0,3.35046 0.7333,6.10764 2.1992,8.27148 1.4658,2.09404 3.3152,3.73525 5.5488,4.92188 2.3034,1.11682 4.6424,1.91959 7.0156,2.4082 2.4431,0.48861 4.6413,0.8018 6.5957,0.94141 2.0243,0.0698 3.4554,0.10546 4.293,0.10546 2.9317,0 5.9683,-0.21009 9.1094,-0.6289 3.2108,-0.41881 6.2475,-0.97582 9.1093,-1.67383 2.9317,-0.69801 5.3737,-1.4314 7.3282,-2.19922 -0.07,0.27921 -0.1392,0.52302 -0.209,0.73242 v 0.52344 c 0,0.34901 0.105,0.52344 0.3144,0.52344 h 0.1055 c 0.043,-0.0448 0.085,-0.0897 0.127,-0.13477 l -0.024,0.13477 c 3.6995,-0.76782 7.4695,-1.57059 11.3086,-2.4082 3.8391,-0.90742 7.7836,-1.81524 11.8321,-2.72266 8.0969,-1.88464 15.8789,-4.81625 23.3476,-8.79492 0.07,-0.13961 0.1749,-0.38342 0.3145,-0.73242 l 0.8379,-1.67579 c 0.6282,-1.25642 1.2902,-2.68558 1.9882,-4.29101 0.698,-1.60543 1.257,-3.07221 1.6758,-4.39844 0.2094,-0.55841 0.3145,-0.97665 0.3145,-1.25586 0,-0.2094 -0.069,-0.31445 -0.209,-0.31445 h -0.1055 -0.1055 c -1.2564,0.48861 -2.4774,1.0119 -3.664,1.57031 l -3.5606,1.67578 c -2.3034,1.18663 -5.0606,1.81497 -8.2714,1.88477 -1.6055,-1.39603 -3.0703,-3.03724 -4.3965,-4.92188 -1.3263,-1.95443 -2.1984,-4.22204 -2.6172,-6.80468 1.8846,0.1396 3.734,0.41908 5.5488,0.83789 1.8846,0.349 3.6983,0.80096 5.4434,1.35937 l 4.3984,-13.61133 c -1.6752,-0.41881 -3.2808,-0.80138 -4.8164,-1.15039 -1.5356,-0.349 -3.2799,-0.5591 -5.2344,-0.6289 z"
               id="path44" />
            <path
               style="font-style:normal;font-variant:normal;font-weight:normal;font-stretch:normal;font-size:104.702px;font-family:'Aref Ruqaa';-inkscape-font-specification:'Aref Ruqaa, Normal';font-variant-ligatures:normal;font-variant-caps:normal;font-variant-numeric:normal;font-variant-east-asian:normal;text-align:center;writing-mode:lr-tb;direction:ltr;text-anchor:middle;fill:#ffffff;stroke-width:0.437868"
               d="m 1068.4161,763.91622 c -0.2094,0.005 -0.4195,0.0256 -0.6289,0.0606 -1.6054,0.2792 -3.1753,1.15331 -4.7109,2.61914 -1.5357,1.39602 -3.0362,3.07095 -4.502,5.02539 -2.1638,2.93165 -4.1539,5.93264 -5.9687,9.0039 -1.8149,3.07126 -3.1766,5.47958 -4.084,7.22461 l -0.1035,0.10547 0.1035,4.60547 c 0.4188,-0.62821 1.0471,-1.63913 1.8847,-3.03516 0.7679,-1.39602 1.6757,-2.93219 2.7227,-4.60742 1.047,-1.67523 2.1986,-3.21139 3.4551,-4.60742 1.1866,-1.39603 2.4076,-2.40694 3.664,-3.03516 1.1867,-0.62821 2.374,-0.59449 3.5606,0.10352 1.2564,0.69801 2.408,2.33922 3.4551,4.92187 0.349,0.76782 0.6284,1.11668 0.8378,1.04688 0.2793,-0.0698 0.5231,-0.24423 0.7325,-0.52344 1.396,-1.81483 2.7577,-3.69986 4.084,-5.6543 1.3262,-1.95443 2.5115,-4.01389 3.5585,-6.17773 -0.4886,-0.97722 -1.0456,-1.88504 -1.6738,-2.72266 -0.5584,-0.83761 -1.2224,-1.60472 -1.9902,-2.30273 -1.4658,-1.40475 -2.9307,-2.08895 -4.3965,-2.05078 z"
               id="path43" />
            <path
               style="font-style:normal;font-variant:normal;font-weight:normal;font-stretch:normal;font-size:104.702px;font-family:'Aref Ruqaa';-inkscape-font-specification:'Aref Ruqaa, Normal';font-variant-ligatures:normal;font-variant-caps:normal;font-variant-numeric:normal;font-variant-east-asian:normal;text-align:center;writing-mode:lr-tb;direction:ltr;text-anchor:middle;fill:#ffffff;stroke-width:0.437868"
               d="m 1145.5802,750.05294 -7.7461,12.35351 2.9316,44.5 7.7461,-12.35547 z"
               id="path42" />
            <path
               style="font-style:normal;font-variant:normal;font-weight:normal;font-stretch:normal;font-size:104.702px;font-family:'Aref Ruqaa';-inkscape-font-specification:'Aref Ruqaa, Normal';font-variant-ligatures:normal;font-variant-caps:normal;font-variant-numeric:normal;font-variant-east-asian:normal;text-align:center;writing-mode:lr-tb;direction:ltr;text-anchor:middle;fill:#ffffff;stroke-width:0.437868"
               d="m 1107.3653,746.07442 c -1.396,1.74504 -2.8271,3.52501 -4.2929,5.33985 -1.4659,1.81483 -2.897,3.62852 -4.293,5.44335 l 7.4336,6.91016 c 1.4658,-1.81483 2.8969,-3.62852 4.2929,-5.44336 1.4659,-1.74503 2.897,-3.52501 4.293,-5.33984 z"
               id="path41" />
            <path
               style="font-style:normal;font-variant:normal;font-weight:normal;font-stretch:normal;font-size:104.702px;font-family:'Aref Ruqaa';-inkscape-font-specification:'Aref Ruqaa, Normal';font-variant-ligatures:normal;font-variant-caps:normal;font-variant-numeric:normal;font-variant-east-asian:normal;text-align:center;writing-mode:lr-tb;direction:ltr;text-anchor:middle;fill:#ffffff;stroke-width:0.437868"
               d="m 1148.9317,723.24825 -1.4668,0.62891 c -0.4188,0.2094 -0.837,0.48888 -1.2558,0.83789 -0.698,0.48861 -1.6752,1.39447 -2.9317,2.7207 -1.1866,1.32623 -2.3026,2.79301 -3.3496,4.39844 -1.1168,1.60543 -1.7808,3.10592 -1.9902,4.50195 -0.2792,1.39603 0.2441,2.47828 1.5703,3.24609 0.5584,0.27921 1.2224,0.5924 1.9902,0.94141 0.7678,0.34901 1.4299,0.69787 1.9883,1.04688 0.349,0.2094 0.3847,0.4195 0.1055,0.6289 -0.2792,0.20941 -0.4893,0.38384 -0.6289,0.52344 -1.5357,0.83762 -3.1412,1.60667 -4.8164,2.30469 -1.6753,0.69801 -3.3145,1.42945 -4.92,2.19726 1.8847,-0.349 3.734,-0.69787 5.5489,-1.04687 1.8148,-0.27921 3.5254,-0.97693 5.1308,-2.09375 1.9545,-1.39603 3.3143,-3.03724 4.0821,-4.92188 0.7678,-1.88463 0.4189,-3.28008 -1.0469,-4.1875 -0.7678,-0.55841 -1.7094,-0.94098 -2.8262,-1.15039 -1.047,-0.2792 -1.8854,-0.76878 -2.5137,-1.4668 0.7679,-1.11682 1.7114,-1.88392 2.8282,-2.30273 1.1168,-0.48861 1.8839,-1.18633 2.3027,-2.09375 z"
               id="path40" />
          </g>
          <g
             id="g45"
             style="fill:#f00000;fill-opacity:1">
            <path
               style="font-style:normal;font-variant:normal;font-weight:normal;font-stretch:normal;font-size:104.702px;font-family:'Aref Ruqaa';-inkscape-font-specification:'Aref Ruqaa, Normal';font-variant-ligatures:normal;font-variant-caps:normal;font-variant-numeric:normal;font-variant-east-asian:normal;text-align:center;writing-mode:lr-tb;direction:ltr;text-anchor:middle;fill:#f00000;fill-opacity:1;stroke-width:0.437868"
               d="m 1115.5313,825.33223 c -3.49,1.25643 -7.155,2.54878 -10.9941,3.875 -3.7693,1.32623 -7.3292,2.68796 -10.6797,4.08399 l -3.4551,5.44336 c 3.2109,-1.60543 6.8065,-3.10593 10.7852,-4.50196 3.9089,-1.46582 7.677,-2.82756 11.3066,-4.08398 z"
               id="path45" />
            <path
               style="font-style:normal;font-variant:normal;font-weight:normal;font-stretch:normal;font-size:104.702px;font-family:'Aref Ruqaa';-inkscape-font-specification:'Aref Ruqaa, Normal';font-variant-ligatures:normal;font-variant-caps:normal;font-variant-numeric:normal;font-variant-east-asian:normal;text-align:center;writing-mode:lr-tb;direction:ltr;text-anchor:middle;fill:#f00000;fill-opacity:1;stroke-width:0.437868"
               d="m 1154.1661,708.59005 c -3.4901,1.25642 -7.1531,2.54877 -10.9922,3.875 -3.7693,1.32622 -7.3292,2.686 -10.6797,4.08203 l -3.4551,5.44531 c 3.2109,-1.60543 6.8046,-3.14159 10.7833,-4.60742 3.9088,-1.39603 7.6789,-2.72209 11.3085,-3.97852 z"
               id="text3" />
          </g>
        </g>
      </g>
      <g
         id="g2"
         style="fill:#ffffff;fill-opacity:1">
        <g
           id="g49">
          <path
             style="font-style:normal;font-variant:normal;font-weight:normal;font-stretch:normal;font-size:163.018px;font-family:'DecoType Thuluth';-inkscape-font-specification:'DecoType Thuluth, Normal';font-variant-ligatures:normal;font-variant-caps:normal;font-variant-numeric:normal;font-variant-east-asian:normal;text-align:center;writing-mode:lr-tb;direction:ltr;text-anchor:middle;fill:#ffffff;fill-opacity:1;stroke-width:0.460057"
             d="m 1180.8438,468.85742 c -2.5472,5.78417 -3.8204,9.10212 -3.8204,9.95117 0,0.90212 1.4314,2.22735 4.2969,3.97852 2.6002,1.64504 4.1126,2.46875 4.5371,2.46875 1.0083,0 1.9381,-1.4873 2.7871,-4.45898 0.9021,-2.97169 1.1934,-4.7213 0.875,-5.25196 -0.5306,-0.90212 -1.5125,-1.69882 -2.9453,-2.38867 -1.9103,-0.95518 -3.8201,-2.38846 -5.7304,-4.29883 z"
             id="path27" />
          <path
             style="font-style:normal;font-variant:normal;font-weight:normal;font-stretch:normal;font-size:163.018px;font-family:'DecoType Thuluth';-inkscape-font-specification:'DecoType Thuluth, Normal';font-variant-ligatures:normal;font-variant-caps:normal;font-variant-numeric:normal;font-variant-east-asian:normal;text-align:center;writing-mode:lr-tb;direction:ltr;text-anchor:middle;fill:#ffffff;fill-opacity:1;stroke-width:0.460057"
             d="m 1193.873,464.79883 c -0.5313,0.0465 -1.3463,1.55962 -2.4433,4.53711 -1.0083,2.75942 -1.5117,4.35086 -1.5117,4.77539 0,1.00825 3.2639,3.34237 9.791,7.0039 0.9552,-1.11438 1.856,-2.891 2.7051,-5.33203 0.7429,-2.12263 1.1152,-3.60798 1.1152,-4.45703 0,-1.16744 -3.2099,-3.3434 -9.6309,-6.52734 -0.01,0 -0.017,-7.4e-4 -0.025,0 z"
             id="path26" />
          <path
             style="font-style:normal;font-variant:normal;font-weight:normal;font-stretch:normal;font-size:163.018px;font-family:'DecoType Thuluth';-inkscape-font-specification:'DecoType Thuluth, Normal';font-variant-ligatures:normal;font-variant-caps:normal;font-variant-numeric:normal;font-variant-east-asian:normal;text-align:center;writing-mode:lr-tb;direction:ltr;text-anchor:middle;fill:#ffffff;fill-opacity:1;stroke-width:0.460057"
             d="m 967.83789,455.48438 c -1.96343,6.73935 -2.94531,10.0573 -2.94531,9.95117 0,0.95518 0.76968,1.85602 2.30859,2.70507 l 9.39258,4.77735 c 2.1757,-2.60022 3.26367,-5.73104 3.26367,-9.39258 0,-1.06131 -1.3812,-2.23033 -4.14062,-3.50391 -3.8738,-1.8573 -6.4992,-3.36966 -7.87891,-4.5371 z"
             id="path25" />
          <path
             style="font-style:normal;font-variant:normal;font-weight:normal;font-stretch:normal;font-size:163.018px;font-family:'DecoType Thuluth';-inkscape-font-specification:'DecoType Thuluth, Normal';font-variant-ligatures:normal;font-variant-caps:normal;font-variant-numeric:normal;font-variant-east-asian:normal;text-align:center;writing-mode:lr-tb;direction:ltr;text-anchor:middle;fill:#ffffff;fill-opacity:1;stroke-width:0.460057"
             d="m 1086.5195,407.72656 c -8.5436,0 -17.7508,4.2188 -27.6211,12.65625 -7.9598,7.85373 -15.946,15.70682 -23.9589,23.56055 -8.9151,8.43745 -16.4499,12.68326 -22.6055,12.73633 -4.2453,0 -6.5273,-2.89162 -6.8457,-8.67578 -0.4245,-7.80067 2.2819,-17.48636 8.1191,-29.05469 0.7429,-1.43278 1.1133,-2.44167 1.1133,-3.02539 0,-0.37146 -0.1331,-0.55664 -0.3984,-0.55664 -0.9022,0 -1.7509,0.71761 -2.5469,2.15039 -6.421,11.51527 -9.6309,22.02076 -9.6309,31.51953 0,4.51059 1.5394,8.38408 4.6172,11.62109 3.0778,3.23701 6.7912,4.83041 11.1426,4.77735 4.5106,-0.0531 10.508,-3.79541 17.9902,-11.22461 13.7971,-13.7971 22.6321,-22.25975 26.5059,-25.39063 7.9068,-6.42095 14.886,-9.63281 20.9355,-9.63281 5.8903,0 9.895,1.91169 12.0176,5.73242 0.3715,0.90212 0.7708,1.35352 1.1953,1.35352 0.6368,0 1.2464,-1.2481 1.8301,-3.74219 0.4776,-2.12263 0.7168,-3.84718 0.7168,-5.17383 0,-2.75942 -1.1671,-5.04147 -3.5019,-6.8457 -2.3349,-1.8573 -5.3597,-2.78516 -9.0743,-2.78516 z"
             id="path24" />
          <path
             style="font-style:normal;font-variant:normal;font-weight:normal;font-stretch:normal;font-size:163.018px;font-family:'DecoType Thuluth';-inkscape-font-specification:'DecoType Thuluth, Normal';font-variant-ligatures:normal;font-variant-caps:normal;font-variant-numeric:normal;font-variant-east-asian:normal;text-align:center;writing-mode:lr-tb;direction:ltr;text-anchor:middle;fill:#ffffff;fill-opacity:1;stroke-width:0.460057"
             d="m 993.70703,385.99609 c -0.10613,0.95519 -0.47844,2.65273 -1.11523,5.09375 -0.58373,2.44103 -0.875,3.79522 -0.875,4.06055 0,0.21226 1.22108,1.98889 3.66211,5.33203 2.44102,3.34314 3.74119,6.23476 3.90039,8.67578 0.10613,1.59198 -3.97956,4.06116 -12.25782,7.4043 -6.89854,2.75942 -14.64748,5.38482 -23.24414,7.87891 -13.85016,3.97993 -26.00112,5.9707 -36.45507,5.9707 -7.16388,0 -13.40046,-1.56639 -18.70704,-4.69727 -6.36789,-3.7146 -9.55078,-8.86125 -9.55078,-15.4414 0,-1.91037 0.26427,-4.48369 0.79493,-7.72071 l 1.19531,-7.24414 c 0.10613,-0.53065 0.1582,-0.95504 0.1582,-1.27343 0,-0.3184 -0.0791,-0.50358 -0.23828,-0.55664 -0.37146,0 -0.84987,0.60956 -1.43359,1.83007 -3.23702,7.05775 -4.85547,13.37341 -4.85547,18.94532 0,8.22519 2.70643,14.7781 8.11914,19.66015 5.67803,5.14738 13.58514,7.72071 23.7207,7.72071 10.87848,0 25.39253,-2.89162 43.54102,-8.67579 11.6214,-3.7146 20.82867,-8.38479 27.62109,-14.00976 3.5023,-2.91862 5.2539,-8.2524 5.2539,-16 0,-2.49409 -1.0089,-5.75607 -3.02538,-9.78906 -2.12263,-4.29833 -4.19249,-6.68647 -6.20899,-7.16407 z"
             id="path23" />
          <path
             style="font-style:normal;font-variant:normal;font-weight:normal;font-stretch:normal;font-size:163.018px;font-family:'DecoType Thuluth';-inkscape-font-specification:'DecoType Thuluth, Normal';font-variant-ligatures:normal;font-variant-caps:normal;font-variant-numeric:normal;font-variant-east-asian:normal;text-align:center;writing-mode:lr-tb;direction:ltr;text-anchor:middle;fill:#ffffff;fill-opacity:1;stroke-width:0.460057"
             d="m 693.62109,375.16992 c -0.63679,0 -1.61866,1.30017 -2.94531,3.90039 -4.98818,7.27001 -9.39411,13.42555 -13.21484,18.4668 -6.15563,-5.30658 -9.47163,-8.35831 -9.94922,-9.1543 2.06956,-0.26533 3.47583,-0.42349 4.21875,-0.47656 0.79599,-0.0531 1.19336,-0.23825 1.19336,-0.55664 0,-0.47759 -1.27316,-1.43441 -3.82031,-2.86719 -2.06957,-1.22051 -4.13942,-2.41458 -6.20899,-3.58203 -2.54716,-1.64504 -3.74123,-2.4668 -3.58203,-2.4668 -0.31839,0 -0.47656,0.23921 -0.47656,0.7168 0,2.22876 -0.0791,5.30556 -0.23828,9.23242 -0.10614,0.58373 0.37032,0.87696 1.43164,0.87696 2.75942,5.25351 6.97821,10.32107 12.65625,15.20312 -2.60023,3.8738 -4.37685,7.26888 -5.33203,10.1875 -2.1757,6.47402 -3.26368,11.62263 -3.26368,15.44336 0,5.14738 1.85571,7.95991 5.57032,8.4375 1.96343,0.26533 5.04218,-1.06185 9.23437,-3.98047 3.92687,-2.75942 6.31501,-4.96238 7.16406,-6.60742 1.85731,-3.66154 2.78516,-7.45399 2.78516,-11.38086 0,-2.44102 -0.37036,-4.82917 -1.11328,-7.16406 -0.58372,-1.80424 -2.78669,-4.67079 -6.60742,-8.59766 6.63322,-9.12731 10.4797,-14.72536 11.54101,-16.79492 1.06132,-2.06957 1.59375,-4.40368 1.59375,-7.00391 0,-1.22051 -0.21219,-1.83203 -0.63672,-1.83203 z m -17.51171,32.31641 c 6.36789,5.51884 9.55078,9.10105 9.55078,10.74609 0,0.26533 -0.0791,0.50454 -0.23828,0.7168 -1.43278,1.59197 -3.58172,3.31653 -6.44727,5.17383 -3.44927,2.17569 -6.20973,3.26367 -8.2793,3.26367 -1.91036,0 -2.86523,-0.7967 -2.86523,-2.38867 0,-1.8573 0.90279,-4.66788 2.70703,-8.43555 1.8573,-3.76767 3.71496,-6.79434 5.57227,-9.07617 z"
             id="path22" />
          <path
             style="font-style:normal;font-variant:normal;font-weight:normal;font-stretch:normal;font-size:163.018px;font-family:'DecoType Thuluth';-inkscape-font-specification:'DecoType Thuluth, Normal';font-variant-ligatures:normal;font-variant-caps:normal;font-variant-numeric:normal;font-variant-east-asian:normal;text-align:center;writing-mode:lr-tb;direction:ltr;text-anchor:middle;fill:#ffffff;fill-opacity:1;stroke-width:0.460057"
             d="m 724.98242,366.33398 c -1.32664,4.72286 -2.28151,7.98678 -2.86523,9.79102 0,1.00825 0.79474,1.93806 2.38672,2.78711 3.07781,1.59197 6.18357,3.18342 9.31445,4.77539 2.1757,-2.81249 3.26172,-5.9433 3.26172,-9.39258 0,-1.06131 -1.40627,-2.22837 -4.21875,-3.50195 -3.82074,-1.80424 -6.44613,-3.29154 -7.87891,-4.45899 z"
             id="path21" />
          <path
             style="font-style:normal;font-variant:normal;font-weight:normal;font-stretch:normal;font-size:163.018px;font-family:'DecoType Thuluth';-inkscape-font-specification:'DecoType Thuluth, Normal';font-variant-ligatures:normal;font-variant-caps:normal;font-variant-numeric:normal;font-variant-east-asian:normal;text-align:center;writing-mode:lr-tb;direction:ltr;text-anchor:middle;fill:#ffffff;fill-opacity:1;stroke-width:0.460057"
             d="m 661.30273,341.66016 c -2.60022,5.83723 -3.90039,9.0992 -3.90039,9.78906 0,0.90212 1.85767,2.41448 5.57227,4.53711 3.39621,2.0165 5.33295,3.02539 5.81055,3.02539 0.95518,0 1.85798,-1.11499 2.70703,-3.34375 0.63679,-1.8573 0.95508,-3.42174 0.95508,-4.69531 0,-1.32665 -1.16706,-2.65383 -3.50196,-3.98047 -3.5554,-2.0165 -6.10367,-3.79313 -7.64258,-5.33203 z"
             id="path20" />
          <path
             style="font-style:normal;font-variant:normal;font-weight:normal;font-stretch:normal;font-size:163.018px;font-family:'DecoType Thuluth';-inkscape-font-specification:'DecoType Thuluth, Normal';font-variant-ligatures:normal;font-variant-caps:normal;font-variant-numeric:normal;font-variant-east-asian:normal;text-align:center;writing-mode:lr-tb;direction:ltr;text-anchor:middle;fill:#ffffff;fill-opacity:1;stroke-width:0.460057"
             d="m 678.01953,340.14648 c -0.47759,0 -1.3013,1.43328 -2.46875,4.29883 -1.06131,2.65329 -1.5918,4.13864 -1.5918,4.45703 0,0.84906 1.43328,2.09715 4.29883,3.74219 l 6.36719,3.50195 c 0.95518,-1.16744 1.85798,-2.97108 2.70703,-5.4121 0.68986,-2.12264 1.03516,-3.60994 1.03516,-4.45899 0,-1.06131 -3.44911,-3.10416 -10.34766,-6.12891 z"
             id="path18" />
          <path
             style="font-style:normal;font-variant:normal;font-weight:normal;font-stretch:normal;font-size:163.018px;font-family:'DecoType Thuluth';-inkscape-font-specification:'DecoType Thuluth, Normal';font-variant-ligatures:normal;font-variant-caps:normal;font-variant-numeric:normal;font-variant-east-asian:normal;text-align:center;writing-mode:lr-tb;direction:ltr;text-anchor:middle;fill:#ffffff;fill-opacity:1;stroke-width:0.460057"
             d="m 854.80664,314.99414 c -0.21226,0 -0.37043,0.18518 -0.47656,0.55664 -2.0165,6.15563 -2.86527,9.52565 -2.54688,10.10938 1.27358,2.54715 1.98924,4.11159 2.14844,4.69531 1.00825,10.50702 1.72391,18.54723 2.14844,24.11914 3.39621,30.45974 6.05057,53.27827 7.96094,68.45508 0.47759,4.66978 0.45058,9.15284 -0.0801,13.45117 -0.42453,3.39621 -0.34544,5.0957 0.23828,5.0957 0.37146,0 0.95597,-0.74267 1.75195,-2.22851 2.06957,-3.8738 3.10352,-10.21648 3.10352,-19.02539 0,-2.49409 -0.1061,-5.06742 -0.31836,-7.72071 -0.90212,-10.40089 -2.73277,-26.34626 -5.49219,-47.83789 -2.28183,-18.04235 -3.3698,-27.80713 -3.26367,-29.29297 1.48584,1.53891 2.8921,2.81207 4.21875,3.82032 0.47759,0.31839 0.82289,0.47851 1.03516,0.47851 0.31839,0 0.47851,-0.21219 0.47851,-0.63672 0,-1.32664 -1.27316,-4.69666 -3.82031,-10.10937 -1.59197,-3.50234 -3.21043,-7.00547 -4.85547,-10.50781 -0.95518,-2.28183 -1.69981,-3.42188 -2.23047,-3.42188 z"
             id="path15" />
          <path
             style="font-style:normal;font-variant:normal;font-weight:normal;font-stretch:normal;font-size:163.018px;font-family:'DecoType Thuluth';-inkscape-font-specification:'DecoType Thuluth, Normal';font-variant-ligatures:normal;font-variant-caps:normal;font-variant-numeric:normal;font-variant-east-asian:normal;text-align:center;writing-mode:lr-tb;direction:ltr;text-anchor:middle;fill:#ffffff;fill-opacity:1;stroke-width:0.460057"
             d="m 1141.0449,311.01367 c -0.2653,0 -0.4775,0.13311 -0.6367,0.39844 -0.9552,3.92687 -1.8059,7.13677 -2.5488,9.63086 0,0.31839 0.9568,3.60933 2.8672,9.87109 2.1226,6.79242 3.4748,12.20529 4.0586,16.23828 2.0695,13.74403 3.9002,28.52235 5.4921,44.33594 1.4328,14.16856 2.9182,23.77321 4.4571,28.81445 1.1674,3.8738 3.3164,7.56212 6.4472,11.06446 4.1392,4.61672 8.6242,6.92383 13.4532,6.92383 3.1839,0 6.9243,-1.19212 11.2226,-3.58008 3.6616,-2.06957 6.368,-4.13942 8.1192,-6.20899 4.4044,-5.20044 6.2621,-10.5863 5.5722,-16.1582 -0.4776,-3.76767 -2.8387,-8.11957 -7.084,-13.05469 -4.7759,-5.4127 -7.4032,-8.80974 -7.8808,-10.18945 1.1144,0.21226 2.4686,0.31836 4.0605,0.31836 0.8491,0 1.2735,-0.26427 1.2735,-0.79492 0,-0.63679 -0.6636,-1.51258 -1.9903,-2.62696 -3.8207,-2.86555 -7.0846,-5.22668 -9.791,-7.08398 -0.796,-0.68986 -1.3264,-0.24041 -1.5918,1.35156 -0.4245,3.39621 -0.7428,6.10264 -0.9551,8.11914 -0.053,0.58373 0.4775,0.87696 1.5918,0.87696 1.8573,5.5719 5.2004,11.14293 10.0293,16.71484 5.0413,5.83723 7.9329,9.68567 8.6758,11.54297 0.4245,1.00825 -1.6974,2.81189 -6.3672,5.41211 -5.1473,2.81248 -10.1088,4.21875 -14.8847,4.21875 -3.0778,0 -6.1817,-1.77858 -9.3125,-5.33399 -3.98,-4.51059 -6.4742,-10.79924 -7.4825,-18.86523 -0.5837,-6.95162 -1.1412,-13.9019 -1.6718,-20.85352 -1.1144,-12.78884 -2.6268,-25.28706 -4.5371,-37.49218 -1.1144,-6.89855 -2.7869,-14.08805 -5.0157,-21.57032 -2.3879,-8.01293 -4.2436,-12.01953 -5.5703,-12.01953 z"
             id="path14" />
          <path
             style="font-style:normal;font-variant:normal;font-weight:normal;font-stretch:normal;font-size:163.018px;font-family:'DecoType Thuluth';-inkscape-font-specification:'DecoType Thuluth, Normal';font-variant-ligatures:normal;font-variant-caps:normal;font-variant-numeric:normal;font-variant-east-asian:normal;text-align:center;writing-mode:lr-tb;direction:ltr;text-anchor:middle;fill:#ffffff;fill-opacity:1;stroke-width:0.460057"
             d="m 823.76367,310.85547 c -0.21226,0 -0.37043,0.18518 -0.47656,0.55664 -1.6981,5.30658 -2.54883,8.6766 -2.54883,10.10937 0,0.74292 0.16012,1.32548 0.47852,1.75 0.84905,1.16745 1.32746,1.91013 1.43359,2.22852 0.47759,8.91505 1.16624,16.92825 2.06836,24.03906 5.35964,41.28516 8.03906,64.36991 8.03906,69.25196 0,0.68985 -0.0521,1.11424 -0.1582,1.27343 -1.16745,2.49409 -2.60072,4.21865 -4.29883,5.17383 -2.12263,1.27358 -5.38656,1.91016 -9.79101,1.91016 -3.60848,0 -7.74623,-1.19407 -12.41602,-3.58203 -1.43278,-0.74292 -3.50263,-1.96401 -6.20898,-3.66211 6.47402,-3.13088 10.87799,-5.09464 13.21289,-5.89063 l 3.50195,-8.51562 c 0.21226,-0.58373 -0.21212,-1.14122 -1.27344,-1.67188 -5.46577,-2.75942 -11.77948,-4.538 -18.94336,-5.33398 -0.68985,-0.0531 -1.45954,-0.0801 -2.30859,-0.0801 -7.69454,0 -15.97396,1.85766 -24.83594,5.57227 -1.32664,0.90211 -1.99023,1.53869 -1.99023,1.91015 -0.1592,0.90212 -0.74175,2.41448 -1.75,4.53711 -1.00825,2.06957 -1.51172,3.34467 -1.51172,3.82227 0,0.31839 0.15817,0.47656 0.47656,0.47656 0.10613,0 0.26625,-0.027 0.47852,-0.0801 2.33489,-1.11438 4.50889,-1.66992 6.52539,-1.66992 2.60022,0 6.52774,2.04284 11.78125,6.12891 l 0.39843,0.39648 c -4.29832,2.60022 -7.69536,4.43087 -10.18945,5.49219 -3.44927,1.43277 -8.48983,2.15039 -15.12305,2.15039 -3.60847,0 -6.50008,-0.16012 -8.67578,-0.47852 -2.33489,-2.75942 -3.95335,-4.61513 -4.85547,-5.57031 -1.00825,-1.22051 -1.64482,-1.14143 -1.91015,0.23828 -0.58373,3.23701 -1.03512,6.47393 -1.35352,9.71094 3.55541,4.35139 7.40189,12.60185 11.54102,24.7539 -4.61672,5.57191 -11.19665,11.27801 -19.74024,17.11524 -4.51059,3.02475 -13.26646,8.38359 -26.26757,16.07812 -4.56366,2.70636 -14.88397,7.45563 -30.96289,14.24805 -12.36433,5.20044 -18.54688,8.67657 -18.54688,10.42774 0,0.26532 0.31829,0.39843 0.95508,0.39843 0.95518,0 2.36145,-0.2392 4.21875,-0.71679 16.92797,-3.92687 28.86674,-6.57928 35.81836,-7.95899 10.08249,-4.56365 21.73194,-11.83418 34.94531,-21.81055 11.51527,-8.70278 18.04117,-14.38186 19.58008,-17.03515 2.0165,-3.44928 3.0524,-8.32971 3.10547,-14.64453 0,-3.34315 -0.71762,-7.98828 -2.15039,-13.93164 1.6981,0.21226 3.13138,0.31836 4.29882,0.31836 4.66979,0 10.61314,-1.77663 17.83008,-5.33204 6.73935,-3.7146 11.59473,-6.47506 14.56641,-8.27929 12.41739,9.07424 21.67673,13.61133 27.7793,13.61133 5.51883,0 10.29512,-2.78552 14.32812,-8.35743 3.34314,-4.61672 4.90953,-12.0184 4.69727,-22.20703 -3.34315,-31.83945 -6.36787,-57.63063 -9.07422,-77.37109 2.70635,2.97168 4.11262,4.51105 4.21875,4.61719 0.42452,0.31839 0.76787,0.47851 1.0332,0.47851 0.3184,0 0.47852,-0.26622 0.47852,-0.79687 0,-3.07782 -2.73345,-9.79085 -8.19922,-20.13868 -0.95519,-2.44102 -1.69786,-3.66015 -2.22852,-3.66015 z m -30.32617,97.50781 c 2.91862,0.0531 5.9684,0.55654 9.15234,1.51172 -1.80423,0.68985 -5.06621,2.2813 -9.78906,4.77539 -2.86555,-2.54716 -4.90839,-4.37781 -6.1289,-5.49219 2.44102,-0.58372 4.69606,-0.84798 6.76562,-0.79492 z"
             id="path13" />
        </g>
        <g
           id="g30"
           style="fill:#f00000;fill-opacity:1">
          <path
             style="font-style:normal;font-variant:normal;font-weight:normal;font-stretch:normal;font-size:163.018px;font-family:'DecoType Thuluth';-inkscape-font-specification:'DecoType Thuluth, Normal';font-variant-ligatures:normal;font-variant-caps:normal;font-variant-numeric:normal;font-variant-east-asian:normal;text-align:center;writing-mode:lr-tb;direction:ltr;text-anchor:middle;fill:#f00000;fill-opacity:1;stroke-width:0.460057"
             d="m 812.81836,478.52959 c -9.12731,4.3514 -16.23772,7.82752 -21.33203,10.42774 -12.57659,6.73935 -21.59673,11.67381 -27.0625,14.80468 l -0.39844,4.29883 c 11.51527,-6.52708 20.56242,-11.46349 27.14258,-14.80664 9.81716,-4.82898 16.90251,-8.27809 21.25391,-10.34765 z"
             id="path28" />
          <path
             style="font-style:normal;font-variant:normal;font-weight:normal;font-stretch:normal;font-size:163.018px;font-family:'DecoType Thuluth';-inkscape-font-specification:'DecoType Thuluth, Normal';font-variant-ligatures:normal;font-variant-caps:normal;font-variant-numeric:normal;font-variant-east-asian:normal;text-align:center;writing-mode:lr-tb;direction:ltr;text-anchor:middle;fill:#f00000;fill-opacity:1;stroke-width:0.460057"
             d="m 1073.7031,340.42578 c -9.1273,4.29833 -16.2377,7.74744 -21.332,10.34766 -12.5766,6.73935 -21.5967,11.67381 -27.0625,14.80468 l -0.3984,4.37891 c 11.5683,-6.52709 20.6425,-11.4635 27.2226,-14.80664 9.8172,-4.88205 16.9006,-8.35622 21.252,-10.42578 z"
             id="path19" />
          <path
             style="font-style:normal;font-variant:normal;font-weight:normal;font-stretch:normal;font-size:163.018px;font-family:'DecoType Thuluth';-inkscape-font-specification:'DecoType Thuluth, Normal';font-variant-ligatures:normal;font-variant-caps:normal;font-variant-numeric:normal;font-variant-east-asian:normal;text-align:center;writing-mode:lr-tb;direction:ltr;text-anchor:middle;fill:#f00000;fill-opacity:1;stroke-width:0.460057"
             d="m 960.75391,352.20673 c -0.42453,0 -0.82386,0.53049 -1.19532,1.5918 -0.31839,1.06132 -0.39747,1.88308 -0.23828,2.4668 1.27358,3.60847 2.28247,6.18179 3.02539,7.7207 -0.37146,0.63679 -0.95596,0.82392 -1.75195,0.5586 -0.95518,-0.26533 -1.80395,-1.00996 -2.54687,-2.23047 -0.42453,-0.68986 -0.98203,-1.936 -1.67188,-3.74024 -0.21226,-1.5389 -0.34537,-2.62688 -0.39844,-3.26367 -0.10613,-1.27358 -0.47649,-1.91016 -1.11328,-1.91016 -0.95518,0 -1.35451,0.95487 -1.19531,2.86524 0,0.10613 0.2392,1.19411 0.7168,3.26367 0.37146,1.80424 0.55859,3.42269 0.55859,4.85547 0,1.32664 -1.00889,1.99023 -3.02539,1.99023 -0.37146,0 -0.82286,-0.26621 -1.35352,-0.79687 -0.58372,-0.58372 -0.875,-1.06018 -0.875,-1.43164 0.0531,-2.91862 -0.18614,-5.62505 -0.71679,-8.11914 -0.3184,-1.43278 -0.82187,-2.15039 -1.51172,-2.15039 -0.42453,0 -0.61166,0.76968 -0.5586,2.30859 0.10614,7.05775 0.66363,11.38264 1.67188,12.97461 0.79599,1.32664 1.91097,1.99023 3.34375,1.99023 2.60022,0 4.11258,-1.72455 4.53711,-5.17382 1.43277,2.49409 2.75995,3.74218 3.98047,3.74218 1.06131,0 2.14929,-0.5845 3.26367,-1.75195 1.11438,-1.22051 1.51175,-2.97208 1.19336,-5.25391 -1.16745,-3.66153 -2.14933,-6.26187 -2.94531,-7.80078 -0.3184,-1.80423 -0.71577,-2.70508 -1.19336,-2.70508 z"
             id="path17" />
          <path
             style="font-style:normal;font-variant:normal;font-weight:normal;font-stretch:normal;font-size:163.018px;font-family:'DecoType Thuluth';-inkscape-font-specification:'DecoType Thuluth, Normal';font-variant-ligatures:normal;font-variant-caps:normal;font-variant-numeric:normal;font-variant-east-asian:normal;text-align:center;writing-mode:lr-tb;direction:ltr;text-anchor:middle;fill:#f00000;fill-opacity:1;stroke-width:0.460057"
             d="m 746.95117,319.73047 c -9.12731,4.29833 -16.23772,7.74743 -21.33203,10.34765 -12.57658,6.73936 -21.59868,11.67381 -27.06445,14.80469 l -0.39649,4.37891 c 11.56834,-6.52709 20.64251,-11.4635 27.22266,-14.80664 9.81716,-4.88205 16.90056,-8.35817 21.25195,-10.42774 z"
             id="path16" />
          <path
             style="font-style:normal;font-variant:normal;font-weight:normal;font-stretch:normal;font-size:163.018px;font-family:'DecoType Thuluth';-inkscape-font-specification:'DecoType Thuluth, Normal';font-variant-ligatures:normal;font-variant-caps:normal;font-variant-numeric:normal;font-variant-east-asian:normal;text-align:center;writing-mode:lr-tb;direction:ltr;text-anchor:middle;fill:#f00000;fill-opacity:1;stroke-width:0.460057"
             d="m 692.94336,459.50894 c -9.12731,4.29833 -16.23772,7.74744 -21.33203,10.34766 -12.57659,6.73935 -21.59868,11.67381 -27.06445,14.80469 l -0.39649,4.3789 c 11.56834,-6.52708 20.6425,-11.46349 27.22266,-14.80664 9.81716,-4.88205 16.90056,-8.35817 21.25195,-10.42773 z"
             id="path12" />
          <path
             style="font-style:normal;font-variant:normal;font-weight:normal;font-stretch:normal;font-size:163.018px;font-family:'DecoType Thuluth';-inkscape-font-specification:'DecoType Thuluth, Normal';font-variant-ligatures:normal;font-variant-caps:normal;font-variant-numeric:normal;font-variant-east-asian:normal;text-align:center;writing-mode:lr-tb;direction:ltr;text-anchor:middle;fill:#f00000;fill-opacity:1;stroke-width:0.460057"
             d="m 972.77344,312.24775 c -9.02118,4.35139 -16.10653,7.82751 -21.25391,10.42774 -12.57658,6.73935 -21.62374,11.64679 -27.14258,14.7246 l -0.31836,4.37891 c 11.51527,-6.42096 20.56243,-11.33035 27.14258,-14.72656 9.81717,-4.93512 16.90252,-8.4363 21.25391,-10.50586 z"
             id="text1" />
        </g>
      </g>
    </g>
  </g>
</svg>
